<svg xmlns="http://www.w3.org/2000/svg" xmlns:xlink="http://www.w3.org/1999/xlink" width="800" viewBox="0 0 600 599.999999" height="800" preserveAspectRatio="xMidYMid meet"><defs><clipPath id="cbb4aff147"><path d="M 59.25 0.933594 L 391 0.933594 L 391 428 L 59.25 428 Z M 59.25 0.933594 " clip-rule="nonzero"></path></clipPath><clipPath id="e5e302f42a"><path d="M 212 0.933594 L 391 0.933594 L 391 81 L 212 81 Z M 212 0.933594 " clip-rule="nonzero"></path></clipPath><clipPath id="b75ca3d543"><path d="M 59.25 53 L 391 53 L 391 214 L 59.25 214 Z M 59.25 53 " clip-rule="nonzero"></path></clipPath><clipPath id="5bf236eb4f"><path d="M 59.25 160 L 391 160 L 391 321 L 59.25 321 Z M 59.25 160 " clip-rule="nonzero"></path></clipPath><clipPath id="7fb4027924"><path d="M 59.25 268 L 391 268 L 391 428 L 59.25 428 Z M 59.25 268 " clip-rule="nonzero"></path></clipPath></defs><g clip-path="url(#cbb4aff147)"><path fill="#ffe177" d="M 390.53125 53.671875 L 390.53125 375.191406 C 390.53125 404.316406 316.371094 427.925781 224.890625 427.925781 C 133.414062 427.925781 59.253906 404.316406 59.253906 375.191406 L 59.253906 53.671875 C 59.253906 24.546875 133.414062 0.933594 224.894531 0.933594 C 316.371094 0.933594 390.53125 24.546875 390.53125 53.671875 Z M 390.53125 53.671875 " fill-opacity="1" fill-rule="evenodd"></path></g><g clip-path="url(#e5e302f42a)"><path fill="#ffd064" d="M 274.898438 3.382812 C 259.121094 1.792969 242.320312 0.933594 224.894531 0.933594 C 220.878906 0.933594 216.902344 0.984375 212.957031 1.070312 C 298.863281 3.019531 366.660156 25.824219 366.660156 53.671875 L 366.660156 80.957031 C 381.808594 72.996094 390.53125 63.65625 390.53125 53.671875 C 390.53125 30.09375 341.9375 10.132812 274.898438 3.382812 Z M 274.898438 3.382812 " fill-opacity="1" fill-rule="evenodd"></path></g><g clip-path="url(#b75ca3d543)"><path fill="#ffd064" d="M 224.894531 106.40625 C 133.414062 106.40625 59.253906 82.796875 59.253906 53.671875 L 59.253906 160.84375 C 59.253906 189.96875 133.414062 213.578125 224.894531 213.578125 C 242.320312 213.578125 259.121094 212.722656 274.898438 211.132812 C 307.242188 207.875 335.292969 201.542969 355.664062 193.214844 C 377.515625 184.277344 390.53125 173.046875 390.53125 160.84375 L 390.53125 53.671875 C 390.53125 65.871094 377.515625 77.105469 355.664062 86.039062 C 335.292969 94.371094 307.242188 100.703125 274.898438 103.960938 C 259.121094 105.550781 242.320312 106.40625 224.894531 106.40625 Z M 224.894531 106.40625 " fill-opacity="1" fill-rule="evenodd"></path></g><path fill="#ffc338" d="M 366.660156 188.128906 C 381.808594 180.171875 390.53125 170.832031 390.53125 160.84375 L 390.53125 53.671875 C 390.53125 63.660156 381.808594 72.996094 366.660156 80.957031 Z M 366.660156 188.128906 " fill-opacity="1" fill-rule="evenodd"></path><path fill="#eceff1" d="M 208.304688 169.980469 C 202.792969 169.980469 198.320312 165.507812 198.320312 159.992188 C 198.320312 154.476562 202.792969 150.003906 208.304688 150.003906 L 241.480469 150.003906 C 246.996094 150.003906 251.464844 154.476562 251.464844 159.992188 C 251.464844 165.507812 246.996094 169.980469 241.480469 169.980469 Z M 208.304688 169.980469 " fill-opacity="1" fill-rule="evenodd"></path><g clip-path="url(#5bf236eb4f)"><path fill="#ffe177" d="M 224.894531 213.578125 C 133.414062 213.578125 59.253906 189.96875 59.253906 160.84375 L 59.253906 268.019531 C 59.253906 297.144531 133.414062 320.753906 224.894531 320.753906 C 278.046875 320.753906 325.355469 312.78125 355.664062 300.386719 C 377.515625 291.453125 390.53125 280.21875 390.53125 268.019531 L 390.53125 160.84375 C 390.53125 173.046875 377.515625 184.28125 355.664062 193.214844 C 335.296875 201.546875 307.242188 207.878906 274.898438 211.136719 C 259.121094 212.722656 242.320312 213.578125 224.894531 213.578125 Z M 224.894531 213.578125 " fill-opacity="1" fill-rule="evenodd"></path></g><path fill="#ffd064" d="M 366.660156 295.304688 C 381.808594 287.34375 390.53125 278.003906 390.53125 268.015625 L 390.53125 160.84375 C 390.53125 170.832031 381.808594 180.171875 366.660156 188.132812 Z M 366.660156 295.304688 " fill-opacity="1" fill-rule="evenodd"></path><path fill="#eceff1" d="M 208.304688 277.152344 C 202.792969 277.152344 198.320312 272.679688 198.320312 267.164062 C 198.320312 261.648438 202.792969 257.175781 208.304688 257.175781 L 241.480469 257.175781 C 246.996094 257.175781 251.464844 261.648438 251.464844 267.164062 C 251.464844 272.679688 246.996094 277.152344 241.480469 277.152344 Z M 208.304688 277.152344 " fill-opacity="1" fill-rule="evenodd"></path><g clip-path="url(#7fb4027924)"><path fill="#ffd064" d="M 224.894531 320.753906 C 133.414062 320.753906 59.253906 297.144531 59.253906 268.019531 L 59.253906 375.191406 C 59.253906 404.316406 133.414062 427.925781 224.894531 427.925781 C 316.371094 427.925781 390.53125 404.316406 390.53125 375.191406 L 390.53125 268.019531 C 390.53125 280.21875 377.515625 291.453125 355.667969 300.386719 C 325.355469 312.78125 278.046875 320.753906 224.894531 320.753906 Z M 224.894531 320.753906 " fill-opacity="1" fill-rule="evenodd"></path></g><path fill="#ffc338" d="M 212.957031 427.789062 C 216.898438 427.875 220.878906 427.925781 224.890625 427.925781 C 316.371094 427.925781 390.53125 404.316406 390.53125 375.191406 L 390.53125 268.019531 C 390.53125 278.003906 381.808594 287.34375 366.660156 295.304688 L 366.660156 375.191406 C 366.660156 403.039062 298.863281 425.839844 212.957031 427.789062 Z M 212.957031 427.789062 " fill-opacity="1" fill-rule="evenodd"></path><path fill="#eceff1" d="M 208.304688 384.324219 C 202.792969 384.324219 198.320312 379.851562 198.320312 374.335938 C 198.320312 368.820312 202.792969 364.347656 208.304688 364.347656 L 241.480469 364.347656 C 246.996094 364.347656 251.464844 368.820312 251.464844 374.335938 C 251.464844 379.851562 246.996094 384.324219 241.480469 384.324219 Z M 208.304688 384.324219 " fill-opacity="1" fill-rule="evenodd"></path><path fill="#fe646f" d="M 420.828125 514.574219 C 429.296875 472.410156 453.511719 458.136719 493.480469 471.753906 L 524.996094 544.953125 C 525.550781 546.238281 525.359375 547.625 524.476562 548.710938 C 523.59375 549.792969 522.273438 550.265625 520.90625 549.984375 L 477.820312 541.15625 L 454.628906 578.539062 C 453.890625 579.726562 452.644531 580.363281 451.25 580.257812 C 449.855469 580.15625 448.714844 579.339844 448.164062 578.058594 Z M 420.828125 514.574219 " fill-opacity="1" fill-rule="evenodd"></path><path fill="#fd4755" d="M 474.089844 467.1875 C 480.078125 467.867188 486.539062 469.390625 493.476562 471.753906 L 524.996094 544.953125 C 525.550781 546.238281 525.355469 547.625 524.472656 548.710938 C 523.59375 549.792969 522.273438 550.265625 520.902344 549.984375 L 506.976562 547.132812 C 508.34375 547.410156 509.660156 546.9375 510.542969 545.855469 C 511.421875 544.773438 511.617188 543.382812 511.0625 542.101562 L 479.546875 468.898438 C 477.691406 468.265625 475.875 467.695312 474.089844 467.1875 Z M 474.089844 467.1875 " fill-opacity="1" fill-rule="evenodd"></path><path fill="#fe646f" d="M 344.234375 503.75 C 336.140625 500.792969 324.59375 505.234375 317.488281 501.128906 C 310.359375 497.007812 308.449219 484.78125 301.859375 479.253906 C 299.996094 477.691406 297.664062 476.59375 295.160156 475.675781 L 254.917969 561.800781 C 254.300781 563.113281 254.460938 564.558594 255.339844 565.707031 C 256.21875 566.859375 257.574219 567.386719 259 567.136719 L 303.285156 559.398438 L 325.886719 598.296875 C 326.613281 599.550781 327.886719 600.246094 329.332031 600.179688 C 330.777344 600.113281 331.984375 599.308594 332.59375 597.996094 L 369.390625 519.09375 C 368.375 519.171875 367.371094 519.140625 366.390625 518.96875 C 364.714844 518.675781 363.132812 517.984375 361.605469 517.042969 C 355.691406 513.410156 350.621094 506.085938 344.234375 503.75 Z M 344.234375 503.75 " fill-opacity="1" fill-rule="evenodd"></path><path fill="#fd4755" d="M 305.808594 483.992188 C 304.660156 482.175781 303.386719 480.535156 301.859375 479.253906 C 299.996094 477.691406 297.664062 476.59375 295.160156 475.675781 L 257.4375 556.402344 L 254.917969 561.796875 L 254.914062 561.800781 C 254.304688 563.113281 254.460938 564.554688 255.339844 565.707031 C 256.21875 566.859375 257.574219 567.386719 259 567.136719 L 267.660156 565.625 Z M 305.808594 483.992188 " fill-opacity="1" fill-rule="evenodd"></path><path fill="#eceff1" d="M 538.210938 372.0625 C 536.914062 364.714844 528.773438 357.683594 527.386719 349.824219 C 525.882812 341.277344 532.203125 330.929688 529.464844 323.378906 C 526.660156 315.644531 515.109375 311.707031 510.914062 304.433594 C 506.632812 297.015625 508.996094 285.085938 503.789062 278.890625 C 498.546875 272.652344 486.34375 272.902344 479.859375 267.46875 C 473.359375 262.019531 471.472656 249.957031 464.441406 245.890625 C 457.433594 241.839844 446.042969 246.21875 438.054688 243.300781 C 430.132812 240.410156 424.257812 229.710938 416.199219 228.289062 C 408.300781 226.894531 399.03125 234.910156 390.527344 234.917969 C 382.171875 234.929688 373 226.890625 364.847656 228.328125 C 356.695312 229.765625 350.828125 240.457031 342.972656 243.308594 C 334.976562 246.207031 323.527344 241.847656 316.582031 245.859375 C 309.5 249.953125 307.636719 262.015625 301.175781 267.445312 C 294.667969 272.917969 282.46875 272.699219 277.269531 278.90625 C 272.054688 285.128906 274.402344 297.113281 270.160156 304.457031 C 265.925781 311.777344 254.371094 315.722656 251.578125 323.378906 C 248.804688 330.980469 255.105469 341.386719 253.617188 349.816406 C 252.035156 358.78125 241.222656 366.734375 242.832031 375.867188 C 244.125 383.214844 252.269531 390.246094 253.65625 398.105469 C 255.160156 406.652344 248.839844 416.996094 251.578125 424.550781 C 254.378906 432.285156 265.925781 436.21875 270.128906 443.496094 C 274.410156 450.910156 272.046875 462.847656 277.253906 469.039062 C 282.496094 475.277344 294.695312 475.023438 301.179688 480.460938 C 307.679688 485.914062 309.566406 497.972656 316.601562 502.039062 C 323.609375 506.089844 335 501.710938 342.984375 504.628906 C 350.910156 507.523438 356.78125 518.21875 364.839844 519.640625 C 372.738281 521.035156 382.003906 513.019531 390.511719 513.011719 C 398.867188 513 408.042969 521.039062 416.191406 519.601562 C 424.34375 518.164062 430.21875 507.46875 438.070312 504.621094 C 446.066406 501.71875 457.515625 506.082031 464.460938 502.070312 C 471.546875 497.976562 473.40625 485.917969 479.863281 480.484375 C 486.375 475.011719 498.574219 475.230469 503.773438 469.027344 C 508.988281 462.804688 506.636719 450.824219 510.882812 443.476562 C 515.117188 436.148438 526.671875 432.207031 529.464844 424.554688 C 532.242188 416.949219 525.9375 406.554688 527.425781 398.113281 C 529.007812 389.152344 539.820312 381.191406 538.210938 372.0625 Z M 538.210938 372.0625 " fill-opacity="1" fill-rule="evenodd"></path><path fill="#d1d1d6" d="M 538.210938 372.0625 C 536.914062 364.714844 528.773438 357.683594 527.386719 349.824219 C 525.882812 341.277344 532.203125 330.929688 529.464844 323.378906 C 526.660156 315.644531 515.109375 311.707031 510.914062 304.433594 C 506.632812 297.015625 508.996094 285.085938 503.789062 278.890625 C 498.546875 272.652344 486.34375 272.902344 479.859375 267.46875 C 473.359375 262.019531 471.472656 249.957031 464.441406 245.890625 C 459.238281 242.882812 451.625 244.519531 444.777344 244.371094 C 446.40625 244.636719 447.929688 245.105469 449.285156 245.890625 C 456.316406 249.957031 458.203125 262.019531 464.703125 267.46875 C 471.1875 272.902344 483.390625 272.652344 488.632812 278.890625 C 493.839844 285.089844 491.476562 297.015625 495.757812 304.433594 C 499.957031 311.707031 511.507812 315.644531 514.308594 323.378906 C 517.050781 330.929688 510.726562 341.277344 512.230469 349.824219 C 513.617188 357.683594 521.761719 364.714844 523.054688 372.0625 C 524.664062 381.191406 513.851562 389.152344 512.269531 398.109375 C 510.78125 406.554688 517.085938 416.945312 514.308594 424.554688 C 511.519531 432.203125 499.964844 436.144531 495.730469 443.472656 C 491.484375 450.820312 493.835938 462.800781 488.621094 469.023438 C 483.417969 475.226562 471.21875 475.007812 464.710938 480.484375 C 458.25 485.914062 456.390625 497.972656 449.304688 502.066406 C 447.984375 502.832031 446.503906 503.289062 444.914062 503.554688 C 451.75 503.425781 459.332031 505.03125 464.460938 502.066406 C 471.546875 497.972656 473.40625 485.914062 479.863281 480.484375 C 486.375 475.007812 498.574219 475.226562 503.773438 469.023438 C 508.988281 462.800781 506.636719 450.820312 510.882812 443.472656 C 515.117188 436.144531 526.671875 432.203125 529.464844 424.554688 C 532.242188 416.945312 525.9375 406.554688 527.425781 398.109375 C 529.007812 389.152344 539.820312 381.191406 538.210938 372.0625 Z M 441.089844 244.066406 C 440.039062 243.902344 439.023438 243.65625 438.054688 243.300781 C 430.132812 240.410156 424.257812 229.710938 416.199219 228.289062 C 412.90625 227.707031 409.378906 228.757812 405.765625 230.1875 C 411.597656 233.769531 416.601562 241 422.898438 243.300781 C 428.222656 245.242188 435.050781 243.949219 441.089844 244.066406 Z M 382.996094 233.285156 C 376.867188 231.019531 370.605469 227.3125 364.847656 228.328125 C 363.21875 228.613281 361.679688 229.273438 360.199219 230.164062 C 365.289062 232.160156 370.472656 234.925781 375.375 234.917969 C 377.867188 234.914062 380.425781 234.222656 382.996094 233.285156 Z M 360.121094 517.738281 C 361.628906 518.664062 363.1875 519.347656 364.84375 519.640625 C 370.425781 520.625 376.691406 516.910156 382.890625 514.644531 C 380.339844 513.699219 377.8125 513.007812 375.359375 513.011719 C 370.394531 513.011719 365.175781 515.742188 360.121094 517.738281 Z M 405.6875 517.761719 C 409.277344 519.167969 412.824219 520.195312 416.191406 519.601562 C 424.34375 518.164062 430.21875 507.46875 438.070312 504.621094 C 439.019531 504.277344 440.015625 504.035156 441.046875 503.871094 C 435.03125 503.964844 428.214844 502.699219 422.914062 504.621094 C 416.632812 506.898438 411.617188 514.195312 405.6875 517.761719 Z M 405.6875 517.761719 " fill-opacity="1" fill-rule="evenodd"></path><path fill="#837683" d="M 463.484375 300.96875 C 464.679688 302.164062 465.84375 303.386719 466.976562 304.640625 C 468.109375 305.890625 469.214844 307.167969 470.285156 308.476562 C 471.355469 309.78125 472.394531 311.113281 473.402344 312.46875 C 474.40625 313.828125 475.378906 315.207031 476.316406 316.613281 C 477.257812 318.015625 478.160156 319.441406 479.027344 320.890625 C 479.894531 322.339844 480.726562 323.8125 481.523438 325.300781 C 482.320312 326.789062 483.078125 328.300781 483.800781 329.828125 C 484.523438 331.351562 485.207031 332.898438 485.855469 334.457031 C 486.5 336.019531 487.109375 337.59375 487.675781 339.183594 C 488.246094 340.777344 488.777344 342.378906 489.265625 343.996094 C 489.757812 345.613281 490.207031 347.242188 490.617188 348.878906 C 491.027344 350.519531 491.398438 352.164062 491.726562 353.824219 C 492.054688 355.480469 492.34375 357.144531 492.59375 358.816406 C 492.839844 360.484375 493.046875 362.160156 493.214844 363.84375 C 493.378906 365.523438 493.503906 367.207031 493.585938 368.894531 C 493.667969 370.582031 493.710938 372.273438 493.710938 373.960938 C 493.710938 375.652344 493.667969 377.339844 493.585938 379.027344 C 493.503906 380.714844 493.378906 382.398438 493.214844 384.078125 C 493.046875 385.761719 492.839844 387.4375 492.59375 389.109375 C 492.34375 390.777344 492.058594 392.441406 491.726562 394.101562 C 491.398438 395.757812 491.027344 397.40625 490.617188 399.042969 C 490.207031 400.683594 489.757812 402.308594 489.265625 403.925781 C 488.777344 405.542969 488.246094 407.148438 487.679688 408.738281 C 487.109375 410.328125 486.5 411.902344 485.855469 413.464844 C 485.210938 415.027344 484.523438 416.570312 483.804688 418.097656 C 483.082031 419.625 482.320312 421.132812 481.527344 422.621094 C 480.730469 424.113281 479.898438 425.582031 479.03125 427.03125 C 478.160156 428.480469 477.257812 429.90625 476.320312 431.3125 C 475.382812 432.714844 474.410156 434.097656 473.402344 435.453125 C 472.398438 436.8125 471.359375 438.140625 470.289062 439.449219 C 469.214844 440.753906 468.113281 442.03125 466.980469 443.285156 C 465.84375 444.535156 464.679688 445.757812 463.488281 446.953125 C 462.292969 448.148438 461.070312 449.3125 459.816406 450.449219 C 458.566406 451.582031 457.289062 452.6875 455.984375 453.757812 C 454.675781 454.828125 453.347656 455.867188 451.988281 456.875 C 450.632812 457.882812 449.253906 458.855469 447.847656 459.792969 C 446.445312 460.730469 445.019531 461.632812 443.570312 462.503906 C 442.121094 463.371094 440.652344 464.203125 439.164062 465 C 437.671875 465.796875 436.164062 466.554688 434.636719 467.277344 C 433.113281 468 431.566406 468.683594 430.007812 469.332031 C 428.449219 469.976562 426.871094 470.585938 425.28125 471.15625 C 423.691406 471.722656 422.089844 472.253906 420.472656 472.746094 C 418.855469 473.234375 417.230469 473.6875 415.589844 474.097656 C 413.953125 474.507812 412.304688 474.875 410.648438 475.207031 C 408.992188 475.535156 407.328125 475.824219 405.660156 476.074219 C 403.988281 476.320312 402.3125 476.527344 400.632812 476.691406 C 398.953125 476.859375 397.265625 476.984375 395.582031 477.066406 C 393.894531 477.148438 392.207031 477.191406 390.515625 477.191406 C 388.828125 477.191406 387.140625 477.148438 385.453125 477.066406 C 383.765625 476.984375 382.082031 476.859375 380.402344 476.691406 C 378.722656 476.527344 377.046875 476.320312 375.375 476.074219 C 373.703125 475.824219 372.042969 475.535156 370.386719 475.207031 C 368.726562 474.878906 367.082031 474.507812 365.441406 474.097656 C 363.804688 473.6875 362.175781 473.234375 360.5625 472.746094 C 358.945312 472.253906 357.34375 471.726562 355.75 471.15625 C 354.160156 470.585938 352.585938 469.980469 351.027344 469.332031 C 349.464844 468.6875 347.921875 468.003906 346.394531 467.28125 C 344.867188 466.558594 343.359375 465.796875 341.871094 465.003906 C 340.382812 464.207031 338.914062 463.375 337.464844 462.503906 C 336.015625 461.636719 334.589844 460.734375 333.183594 459.792969 C 331.78125 458.855469 330.398438 457.882812 329.042969 456.875 C 327.6875 455.871094 326.355469 454.832031 325.050781 453.761719 C 323.746094 452.6875 322.464844 451.585938 321.214844 450.449219 C 319.964844 449.316406 318.742188 448.152344 317.546875 446.957031 C 316.351562 445.761719 315.1875 444.539062 314.054688 443.289062 C 312.921875 442.035156 311.816406 440.757812 310.746094 439.449219 C 309.675781 438.144531 308.636719 436.8125 307.628906 435.457031 C 306.625 434.101562 305.652344 432.71875 304.714844 431.316406 C 303.773438 429.910156 302.871094 428.484375 302.003906 427.035156 C 301.136719 425.585938 300.304688 424.117188 299.507812 422.625 C 298.710938 421.136719 297.953125 419.628906 297.230469 418.101562 C 296.507812 416.574219 295.824219 415.027344 295.175781 413.46875 C 294.53125 411.90625 293.921875 410.332031 293.355469 408.742188 C 292.785156 407.148438 292.253906 405.546875 291.765625 403.929688 C 291.273438 402.3125 290.824219 400.6875 290.414062 399.046875 C 290.003906 397.410156 289.632812 395.761719 289.304688 394.101562 C 288.972656 392.445312 288.6875 390.78125 288.4375 389.113281 C 288.191406 387.441406 287.984375 385.765625 287.816406 384.082031 C 287.652344 382.402344 287.527344 380.71875 287.445312 379.03125 C 287.363281 377.34375 287.320312 375.65625 287.320312 373.964844 C 287.320312 372.277344 287.363281 370.585938 287.445312 368.898438 C 287.527344 367.210938 287.652344 365.527344 287.816406 363.847656 C 287.984375 362.164062 288.191406 360.488281 288.4375 358.820312 C 288.683594 357.148438 288.972656 355.484375 289.304688 353.828125 C 289.632812 352.167969 290.003906 350.523438 290.414062 348.882812 C 290.824219 347.242188 291.273438 345.617188 291.761719 344 C 292.253906 342.382812 292.785156 340.78125 293.351562 339.1875 C 293.921875 337.597656 294.527344 336.023438 295.175781 334.460938 C 295.820312 332.902344 296.503906 331.355469 297.226562 329.828125 C 297.949219 328.300781 298.707031 326.792969 299.503906 325.304688 C 300.300781 323.8125 301.132812 322.34375 302 320.894531 C 302.871094 319.445312 303.773438 318.019531 304.710938 316.613281 C 305.648438 315.210938 306.621094 313.828125 307.628906 312.472656 C 308.632812 311.117188 309.671875 309.785156 310.742188 308.476562 C 311.816406 307.171875 312.917969 305.894531 314.050781 304.640625 C 315.1875 303.390625 316.351562 302.167969 317.542969 300.972656 C 318.738281 299.777344 319.960938 298.613281 321.210938 297.476562 C 322.464844 296.34375 323.742188 295.242188 325.046875 294.167969 C 326.351562 293.097656 327.683594 292.058594 329.039062 291.050781 C 330.398438 290.046875 331.777344 289.074219 333.183594 288.132812 C 334.585938 287.195312 336.011719 286.292969 337.460938 285.421875 C 338.910156 284.554688 340.378906 283.722656 341.867188 282.925781 C 343.359375 282.128906 344.867188 281.371094 346.390625 280.648438 C 347.917969 279.925781 349.460938 279.242188 351.023438 278.59375 C 352.582031 277.949219 354.160156 277.339844 355.75 276.769531 C 357.339844 276.203125 358.941406 275.671875 360.558594 275.179688 C 362.175781 274.691406 363.800781 274.242188 365.4375 273.832031 C 367.078125 273.417969 368.726562 273.050781 370.382812 272.71875 C 372.039062 272.390625 373.703125 272.101562 375.371094 271.855469 C 377.042969 271.605469 378.71875 271.398438 380.398438 271.234375 C 382.078125 271.066406 383.761719 270.945312 385.449219 270.859375 C 387.136719 270.777344 388.824219 270.734375 390.511719 270.734375 C 392.203125 270.734375 393.890625 270.777344 395.578125 270.859375 C 397.265625 270.941406 398.949219 271.066406 400.628906 271.234375 C 402.308594 271.398438 403.984375 271.605469 405.65625 271.851562 C 407.324219 272.101562 408.988281 272.390625 410.644531 272.71875 C 412.300781 273.046875 413.949219 273.417969 415.589844 273.828125 C 417.226562 274.238281 418.851562 274.691406 420.46875 275.179688 C 422.085938 275.671875 423.6875 276.199219 425.277344 276.769531 C 426.867188 277.339844 428.445312 277.945312 430.003906 278.59375 C 431.566406 279.238281 433.109375 279.925781 434.636719 280.644531 C 436.160156 281.367188 437.671875 282.128906 439.160156 282.925781 C 440.648438 283.71875 442.117188 284.554688 443.566406 285.421875 C 445.015625 286.289062 446.441406 287.195312 447.847656 288.132812 C 449.25 289.070312 450.628906 290.042969 451.988281 291.050781 C 453.34375 292.054688 454.675781 293.09375 455.980469 294.167969 C 457.285156 295.238281 458.5625 296.339844 459.816406 297.476562 C 461.066406 298.609375 462.289062 299.773438 463.484375 300.96875 Z M 463.484375 300.96875 " fill-opacity="1" fill-rule="nonzero"></path><path fill="#685e68" d="M 390.519531 270.734375 C 393.070312 270.734375 395.597656 270.832031 398.097656 271.015625 C 344.644531 274.894531 302.480469 319.503906 302.480469 373.964844 C 302.480469 428.425781 344.644531 473.03125 398.097656 476.914062 C 395.597656 477.097656 393.070312 477.191406 390.519531 477.191406 C 333.527344 477.191406 287.328125 430.976562 287.328125 373.964844 C 287.324219 316.953125 333.527344 270.734375 390.519531 270.734375 Z M 390.519531 270.734375 " fill-opacity="1" fill-rule="evenodd"></path><path fill="#ffe177" d="M 391.785156 307.113281 L 407.242188 348.363281 L 451.238281 350.320312 C 451.8125 350.347656 452.28125 350.707031 452.460938 351.253906 C 452.636719 351.796875 452.464844 352.367188 452.019531 352.726562 L 417.578125 380.175781 L 429.308594 422.632812 C 429.464844 423.1875 429.265625 423.75 428.800781 424.085938 C 428.335938 424.421875 427.742188 424.4375 427.265625 424.121094 L 390.519531 399.835938 L 353.777344 424.121094 C 353.300781 424.4375 352.707031 424.421875 352.242188 424.085938 C 351.777344 423.75 351.578125 423.1875 351.734375 422.632812 L 363.464844 380.175781 L 329.023438 352.726562 C 328.578125 352.367188 328.40625 351.796875 328.582031 351.253906 C 328.761719 350.707031 329.234375 350.347656 329.804688 350.320312 L 373.800781 348.363281 L 389.257812 307.113281 C 389.457031 306.574219 389.945312 306.238281 390.519531 306.238281 C 391.09375 306.238281 391.582031 306.574219 391.785156 307.113281 Z M 391.785156 307.113281 " fill-opacity="1" fill-rule="evenodd"></path><path fill="#ffd064" d="M 391.785156 307.113281 L 407.242188 348.363281 L 399.207031 348.003906 L 386.570312 314.285156 L 389.257812 307.113281 C 389.460938 306.574219 389.949219 306.238281 390.523438 306.238281 C 391.09375 306.238281 391.582031 306.574219 391.785156 307.113281 Z M 443.199219 349.960938 L 451.234375 350.320312 C 451.808594 350.34375 452.28125 350.707031 452.457031 351.25 C 452.636719 351.796875 452.464844 352.367188 452.015625 352.722656 L 417.574219 380.175781 L 429.308594 422.632812 C 429.460938 423.1875 429.265625 423.746094 428.800781 424.085938 C 428.335938 424.421875 427.742188 424.4375 427.261719 424.117188 L 420.554688 419.683594 L 409.539062 379.816406 L 443.976562 352.363281 C 444.425781 352.007812 444.597656 351.4375 444.417969 350.890625 C 444.246094 350.347656 443.769531 349.988281 443.199219 349.960938 Z M 390.519531 399.839844 L 353.777344 424.121094 C 353.300781 424.4375 352.707031 424.425781 352.242188 424.089844 C 351.777344 423.75 351.578125 423.191406 351.734375 422.636719 L 352.691406 419.171875 L 386.230469 397.007812 Z M 390.519531 399.839844 " fill-opacity="1" fill-rule="evenodd"></path></svg>