<svg xmlns="http://www.w3.org/2000/svg" xmlns:xlink="http://www.w3.org/1999/xlink" width="800" viewBox="0 0 600 599.999999" height="800" preserveAspectRatio="xMidYMid meet"><defs><clipPath id="90c6df6134"><path d="M 4.5 211 L 31 211 L 31 376 L 4.5 376 Z M 4.5 211 " clip-rule="nonzero"></path></clipPath><clipPath id="d1cce044f1"><path d="M 4.5 144 L 41 144 L 41 181 L 4.5 181 Z M 4.5 144 " clip-rule="nonzero"></path></clipPath><clipPath id="ea814bfe68"><path d="M 318 286 L 595.5 286 L 595.5 322 L 318 322 Z M 318 286 " clip-rule="nonzero"></path></clipPath></defs><path fill="#170aa3" d="M 320.164062 599.996094 C 318.6875 599.996094 317.417969 598.890625 317.246094 597.390625 C 317.058594 595.777344 318.21875 594.320312 319.832031 594.132812 C 330.363281 592.925781 340.933594 591.089844 351.242188 588.675781 C 352.824219 588.304688 354.40625 589.289062 354.777344 590.867188 C 355.144531 592.449219 354.164062 594.03125 352.582031 594.402344 C 342.050781 596.867188 331.257812 598.746094 320.5 599.980469 C 320.386719 599.992188 320.273438 599.996094 320.164062 599.996094 Z M 382.808594 585.332031 C 381.605469 585.332031 380.472656 584.585938 380.042969 583.386719 C 379.492188 581.859375 380.285156 580.171875 381.8125 579.621094 C 391.765625 576.035156 401.625 571.824219 411.117188 567.109375 C 412.570312 566.386719 414.335938 566.976562 415.058594 568.433594 C 415.78125 569.886719 415.191406 571.652344 413.734375 572.375 C 404.042969 577.191406 393.972656 581.492188 383.804688 585.15625 C 383.476562 585.273438 383.140625 585.332031 382.808594 585.332031 Z M 440.402344 556.714844 C 439.441406 556.714844 438.5 556.242188 437.933594 555.375 C 437.050781 554.011719 437.4375 552.191406 438.800781 551.304688 C 447.679688 545.535156 456.328125 539.1875 464.5 532.4375 C 465.75 531.402344 467.605469 531.578125 468.640625 532.832031 C 469.675781 534.082031 469.496094 535.9375 468.246094 536.972656 C 459.902344 543.863281 451.074219 550.347656 442.003906 556.238281 C 441.507812 556.558594 440.953125 556.714844 440.402344 556.714844 Z M 490 515.734375 C 489.269531 515.734375 488.53125 515.460938 487.964844 514.914062 C 486.792969 513.789062 486.757812 511.925781 487.882812 510.753906 C 495.234375 503.113281 502.21875 494.964844 508.640625 486.542969 C 509.625 485.25 511.46875 485 512.761719 485.984375 C 514.054688 486.972656 514.300781 488.816406 513.316406 490.109375 C 506.757812 498.710938 499.628906 507.027344 492.121094 514.832031 C 491.542969 515.433594 490.773438 515.734375 490 515.734375 Z M 529.011719 464.550781 C 528.5 464.550781 527.980469 464.417969 527.511719 464.140625 C 526.113281 463.308594 525.65625 461.503906 526.484375 460.109375 C 531.90625 450.988281 536.847656 441.460938 541.171875 431.792969 C 541.835938 430.308594 543.574219 429.644531 545.058594 430.308594 C 546.539062 430.972656 547.203125 432.710938 546.539062 434.191406 C 542.125 444.070312 537.078125 453.800781 531.542969 463.113281 C 530.992188 464.039062 530.015625 464.550781 529.011719 464.550781 Z M 555.292969 405.785156 C 555 405.785156 554.703125 405.742188 554.410156 405.648438 C 552.859375 405.164062 552 403.511719 552.484375 401.960938 C 555.660156 391.867188 558.277344 381.464844 560.273438 371.046875 C 560.578125 369.449219 562.117188 368.402344 563.714844 368.710938 C 565.308594 369.015625 566.355469 370.554688 566.050781 372.152344 C 564.015625 382.792969 561.339844 393.414062 558.097656 403.726562 C 557.703125 404.984375 556.542969 405.785156 555.292969 405.785156 Z M 555.292969 405.785156 " fill-opacity="1" fill-rule="nonzero"></path><g clip-path="url(#90c6df6134)"><path fill="#170aa3" d="M 12.742188 375.640625 C 11.363281 375.640625 10.132812 374.664062 9.859375 373.261719 C 7.785156 362.65625 6.300781 351.800781 5.449219 340.996094 C 5.324219 339.378906 6.53125 337.960938 8.152344 337.832031 C 9.769531 337.703125 11.1875 338.914062 11.316406 340.535156 C 12.148438 351.113281 13.601562 361.746094 15.632812 372.132812 C 15.945312 373.726562 14.90625 375.269531 13.3125 375.582031 C 13.121094 375.621094 12.929688 375.640625 12.742188 375.640625 Z M 7.6875 311.480469 C 7.652344 311.480469 7.617188 311.480469 7.582031 311.480469 C 5.960938 311.421875 4.6875 310.058594 4.746094 308.4375 C 5.125 297.59375 6.132812 286.683594 7.742188 276.007812 C 7.984375 274.402344 9.480469 273.292969 11.089844 273.539062 C 12.695312 273.777344 13.800781 275.277344 13.558594 276.882812 C 11.984375 287.339844 10.996094 298.023438 10.625 308.640625 C 10.570312 310.230469 9.265625 311.480469 7.6875 311.480469 Z M 17.285156 247.847656 C 17.03125 247.847656 16.769531 247.8125 16.511719 247.742188 C 14.945312 247.316406 14.019531 245.699219 14.445312 244.132812 C 17.28125 233.691406 20.761719 223.300781 24.785156 213.246094 C 25.390625 211.738281 27.101562 211.007812 28.609375 211.609375 C 30.117188 212.214844 30.851562 213.925781 30.246094 215.433594 C 26.304688 225.277344 22.898438 235.449219 20.121094 245.675781 C 19.765625 246.984375 18.582031 247.847656 17.285156 247.847656 Z M 17.285156 247.847656 " fill-opacity="1" fill-rule="nonzero"></path></g><path fill="#170aa3" d="M 508.792969 148.878906 C 507.917969 148.878906 507.054688 148.488281 506.472656 147.746094 C 499.945312 139.398438 492.867188 131.335938 485.429688 123.78125 C 484.289062 122.625 484.304688 120.765625 485.460938 119.625 C 486.621094 118.484375 488.480469 118.5 489.621094 119.65625 C 497.214844 127.367188 504.445312 135.597656 511.109375 144.125 C 512.109375 145.40625 511.882812 147.253906 510.601562 148.253906 C 510.0625 148.675781 509.425781 148.878906 508.792969 148.878906 Z M 463.632812 103.027344 C 462.984375 103.027344 462.332031 102.816406 461.789062 102.378906 C 453.53125 95.71875 444.804688 89.476562 435.855469 83.820312 C 434.480469 82.949219 434.074219 81.132812 434.941406 79.761719 C 435.808594 78.386719 437.625 77.980469 439 78.847656 C 448.140625 84.621094 457.050781 91 465.480469 97.796875 C 466.746094 98.816406 466.945312 100.667969 465.925781 101.933594 C 465.34375 102.65625 464.492188 103.027344 463.632812 103.027344 Z M 409.230469 68.65625 C 408.804688 68.65625 408.371094 68.566406 407.960938 68.367188 C 398.40625 63.777344 388.484375 59.695312 378.46875 56.242188 C 376.933594 55.710938 376.117188 54.039062 376.644531 52.503906 C 377.175781 50.964844 378.851562 50.152344 380.386719 50.679688 C 390.617188 54.207031 400.75 58.375 410.507812 63.066406 C 411.972656 63.769531 412.589844 65.527344 411.886719 66.988281 C 411.378906 68.042969 410.328125 68.65625 409.230469 68.65625 Z M 348.40625 47.675781 C 348.199219 47.675781 347.984375 47.652344 347.773438 47.605469 C 337.460938 45.339844 326.878906 43.640625 316.320312 42.558594 C 314.75 42.40625 313.5625 41.035156 313.660156 39.445312 C 313.761719 37.824219 315.148438 36.59375 316.769531 36.691406 L 316.789062 36.695312 C 316.828125 36.695312 316.867188 36.699219 316.90625 36.703125 C 327.691406 37.808594 338.5 39.542969 349.035156 41.859375 C 350.621094 42.210938 351.625 43.777344 351.277344 45.363281 C 350.972656 46.738281 349.757812 47.675781 348.40625 47.675781 Z M 348.40625 47.675781 " fill-opacity="1" fill-rule="nonzero"></path><path fill="#9efdff" d="M 493.703125 318.527344 C 493.703125 321.894531 493.621094 325.261719 493.457031 328.625 C 493.289062 331.992188 493.042969 335.351562 492.710938 338.703125 C 492.382812 342.054688 491.96875 345.398438 491.476562 348.730469 C 490.980469 352.0625 490.40625 355.378906 489.75 358.683594 C 489.089844 361.988281 488.351562 365.273438 487.535156 368.542969 C 486.714844 371.808594 485.816406 375.054688 484.839844 378.277344 C 483.863281 381.503906 482.804688 384.699219 481.671875 387.871094 C 480.535156 391.042969 479.324219 394.183594 478.035156 397.296875 C 476.746094 400.410156 475.378906 403.488281 473.941406 406.535156 C 472.5 409.578125 470.984375 412.585938 469.398438 415.558594 C 467.808594 418.527344 466.148438 421.460938 464.417969 424.347656 C 462.6875 427.238281 460.882812 430.082031 459.011719 432.882812 C 457.140625 435.683594 455.203125 438.4375 453.195312 441.144531 C 451.1875 443.851562 449.117188 446.503906 446.980469 449.109375 C 444.84375 451.714844 442.644531 454.261719 440.382812 456.757812 C 438.117188 459.253906 435.796875 461.695312 433.414062 464.078125 C 431.03125 466.457031 428.59375 468.78125 426.097656 471.042969 C 423.601562 473.304688 421.050781 475.503906 418.449219 477.640625 C 415.84375 479.777344 413.1875 481.851562 410.484375 483.859375 C 407.777344 485.863281 405.023438 487.804688 402.222656 489.675781 C 399.421875 491.546875 396.578125 493.347656 393.6875 495.082031 C 390.796875 496.8125 387.867188 498.472656 384.898438 500.058594 C 381.925781 501.648438 378.917969 503.164062 375.871094 504.601562 C 372.828125 506.042969 369.75 507.40625 366.636719 508.695312 C 363.523438 509.984375 360.382812 511.199219 357.210938 512.332031 C 354.039062 513.46875 350.839844 514.523438 347.617188 515.5 C 344.394531 516.480469 341.148438 517.378906 337.878906 518.195312 C 334.613281 519.015625 331.324219 519.753906 328.023438 520.410156 C 324.71875 521.066406 321.398438 521.644531 318.066406 522.136719 C 314.734375 522.632812 311.394531 523.042969 308.039062 523.375 C 304.6875 523.703125 301.328125 523.953125 297.964844 524.117188 C 294.601562 524.28125 291.234375 524.363281 287.863281 524.363281 C 284.496094 524.363281 281.128906 524.28125 277.765625 524.117188 C 274.402344 523.953125 271.042969 523.703125 267.691406 523.375 C 264.335938 523.042969 260.996094 522.632812 257.664062 522.136719 C 254.332031 521.644531 251.011719 521.066406 247.707031 520.410156 C 244.402344 519.753906 241.117188 519.015625 237.851562 518.195312 C 234.582031 517.378906 231.335938 516.480469 228.113281 515.5 C 224.890625 514.523438 221.691406 513.46875 218.519531 512.332031 C 215.347656 511.199219 212.207031 509.984375 209.09375 508.695312 C 205.980469 507.40625 202.902344 506.042969 199.859375 504.601562 C 196.8125 503.160156 193.804688 501.648438 190.832031 500.058594 C 187.863281 498.472656 184.933594 496.8125 182.042969 495.082031 C 179.152344 493.347656 176.308594 491.546875 173.507812 489.675781 C 170.707031 487.804688 167.953125 485.863281 165.246094 483.859375 C 162.542969 481.851562 159.886719 479.777344 157.28125 477.640625 C 154.679688 475.503906 152.128906 473.304688 149.632812 471.042969 C 147.136719 468.78125 144.699219 466.457031 142.316406 464.078125 C 139.933594 461.695312 137.609375 459.253906 135.347656 456.757812 C 133.085938 454.261719 130.886719 451.714844 128.75 449.109375 C 126.613281 446.503906 124.539062 443.851562 122.535156 441.144531 C 120.527344 438.4375 118.589844 435.683594 116.71875 432.882812 C 114.84375 430.082031 113.042969 427.238281 111.3125 424.347656 C 109.578125 421.460938 107.921875 418.527344 106.332031 415.558594 C 104.742188 412.585938 103.230469 409.578125 101.789062 406.535156 C 100.347656 403.488281 98.984375 400.410156 97.695312 397.296875 C 96.40625 394.183594 95.195312 391.042969 94.058594 387.871094 C 92.925781 384.699219 91.867188 381.503906 90.890625 378.277344 C 89.914062 375.054688 89.015625 371.808594 88.195312 368.542969 C 87.378906 365.273438 86.640625 361.988281 85.980469 358.683594 C 85.324219 355.378906 84.75 352.0625 84.253906 348.730469 C 83.761719 345.398438 83.347656 342.054688 83.019531 338.703125 C 82.6875 335.351562 82.441406 331.992188 82.273438 328.625 C 82.109375 325.261719 82.027344 321.894531 82.027344 318.527344 C 82.027344 315.160156 82.109375 311.792969 82.273438 308.425781 C 82.441406 305.0625 82.6875 301.703125 83.019531 298.351562 C 83.347656 295 83.761719 291.65625 84.253906 288.324219 C 84.75 284.992188 85.324219 281.671875 85.980469 278.371094 C 86.640625 275.066406 87.378906 271.78125 88.195312 268.511719 C 89.015625 265.246094 89.914062 262 90.890625 258.773438 C 91.867188 255.550781 92.925781 252.355469 94.058594 249.183594 C 95.195312 246.011719 96.40625 242.867188 97.695312 239.757812 C 98.984375 236.644531 100.347656 233.566406 101.789062 230.519531 C 103.230469 227.472656 104.742188 224.464844 106.332031 221.496094 C 107.921875 218.523438 109.578125 215.59375 111.3125 212.703125 C 113.042969 209.816406 114.84375 206.96875 116.71875 204.167969 C 118.589844 201.367188 120.527344 198.613281 122.535156 195.910156 C 124.539062 193.203125 126.613281 190.546875 128.75 187.945312 C 130.886719 185.339844 133.085938 182.789062 135.347656 180.292969 C 137.609375 177.796875 139.933594 175.359375 142.316406 172.976562 C 144.699219 170.59375 147.136719 168.273438 149.632812 166.011719 C 152.128906 163.75 154.679688 161.550781 157.28125 159.410156 C 159.886719 157.273438 162.542969 155.203125 165.246094 153.195312 C 167.953125 151.1875 170.707031 149.25 173.507812 147.378906 C 176.308594 145.507812 179.152344 143.707031 182.042969 141.972656 C 184.933594 140.242188 187.863281 138.582031 190.832031 136.992188 C 193.804688 135.40625 196.8125 133.890625 199.859375 132.453125 C 202.902344 131.011719 205.980469 129.644531 209.09375 128.355469 C 212.207031 127.066406 215.347656 125.855469 218.519531 124.722656 C 221.691406 123.585938 224.890625 122.53125 228.113281 121.550781 C 231.335938 120.574219 234.582031 119.675781 237.851562 118.859375 C 241.117188 118.039062 244.402344 117.300781 247.707031 116.644531 C 251.011719 115.988281 254.332031 115.410156 257.664062 114.917969 C 260.996094 114.421875 264.335938 114.011719 267.691406 113.679688 C 271.042969 113.351562 274.402344 113.101562 277.765625 112.9375 C 281.128906 112.769531 284.496094 112.6875 287.863281 112.6875 C 291.234375 112.6875 294.601562 112.769531 297.964844 112.9375 C 301.328125 113.101562 304.6875 113.351562 308.039062 113.679688 C 311.394531 114.011719 314.734375 114.421875 318.066406 114.917969 C 321.398438 115.410156 324.71875 115.988281 328.023438 116.644531 C 331.324219 117.300781 334.613281 118.039062 337.878906 118.859375 C 341.148438 119.675781 344.394531 120.574219 347.617188 121.550781 C 350.839844 122.53125 354.039062 123.585938 357.210938 124.722656 C 360.382812 125.855469 363.523438 127.066406 366.636719 128.355469 C 369.75 129.644531 372.828125 131.011719 375.871094 132.453125 C 378.917969 133.890625 381.925781 135.40625 384.898438 136.992188 C 387.867188 138.582031 390.796875 140.242188 393.6875 141.972656 C 396.578125 143.707031 399.421875 145.507812 402.222656 147.378906 C 405.023438 149.25 407.777344 151.1875 410.484375 153.195312 C 413.1875 155.203125 415.84375 157.273438 418.449219 159.410156 C 421.050781 161.550781 423.601562 163.75 426.097656 166.011719 C 428.59375 168.273438 431.03125 170.59375 433.414062 172.976562 C 435.796875 175.359375 438.117188 177.796875 440.382812 180.292969 C 442.644531 182.789062 444.84375 185.339844 446.980469 187.945312 C 449.117188 190.546875 451.1875 193.203125 453.195312 195.910156 C 455.203125 198.613281 457.140625 201.367188 459.011719 204.167969 C 460.886719 206.96875 462.6875 209.816406 464.417969 212.703125 C 466.148438 215.59375 467.808594 218.523438 469.398438 221.496094 C 470.984375 224.464844 472.5 227.472656 473.941406 230.519531 C 475.378906 233.566406 476.746094 236.644531 478.035156 239.757812 C 479.324219 242.867188 480.535156 246.011719 481.671875 249.183594 C 482.804688 252.355469 483.863281 255.550781 484.839844 258.773438 C 485.816406 262 486.714844 265.246094 487.535156 268.511719 C 488.351562 271.78125 489.089844 275.066406 489.75 278.371094 C 490.40625 281.671875 490.980469 284.992188 491.476562 288.324219 C 491.96875 291.65625 492.382812 295 492.710938 298.351562 C 493.042969 301.703125 493.289062 305.0625 493.457031 308.425781 C 493.621094 311.792969 493.703125 315.160156 493.703125 318.527344 Z M 493.703125 318.527344 " fill-opacity="1" fill-rule="nonzero"></path><path fill="#ffffff" d="M 284.429688 162.621094 C 284.429688 164.539062 284.382812 166.457031 284.289062 168.375 C 284.195312 170.292969 284.054688 172.203125 283.867188 174.113281 C 283.679688 176.023438 283.445312 177.925781 283.164062 179.824219 C 282.878906 181.722656 282.554688 183.613281 282.179688 185.496094 C 281.804688 187.375 281.382812 189.246094 280.917969 191.109375 C 280.453125 192.96875 279.941406 194.820312 279.382812 196.65625 C 278.824219 198.492188 278.222656 200.3125 277.578125 202.117188 C 276.929688 203.925781 276.242188 205.714844 275.507812 207.488281 C 274.773438 209.261719 273.996094 211.011719 273.175781 212.75 C 272.355469 214.484375 271.492188 216.195312 270.585938 217.886719 C 269.683594 219.582031 268.738281 221.25 267.75 222.894531 C 266.765625 224.539062 265.738281 226.160156 264.671875 227.757812 C 263.605469 229.351562 262.503906 230.921875 261.359375 232.460938 C 260.214844 234.003906 259.035156 235.515625 257.820312 236.996094 C 256.601562 238.480469 255.347656 239.933594 254.0625 241.355469 C 252.773438 242.777344 251.449219 244.164062 250.09375 245.523438 C 248.734375 246.878906 247.347656 248.203125 245.925781 249.492188 C 244.503906 250.777344 243.050781 252.03125 241.566406 253.25 C 240.085938 254.464844 238.574219 255.644531 237.03125 256.789062 C 235.492188 257.933594 233.921875 259.035156 232.328125 260.101562 C 230.730469 261.167969 229.109375 262.195312 227.464844 263.179688 C 225.820312 264.167969 224.152344 265.113281 222.457031 266.015625 C 220.765625 266.921875 219.054688 267.785156 217.320312 268.605469 C 215.585938 269.425781 213.832031 270.203125 212.058594 270.9375 C 210.285156 271.671875 208.496094 272.359375 206.6875 273.007812 C 204.882812 273.652344 203.0625 274.253906 201.226562 274.8125 C 199.390625 275.371094 197.539062 275.882812 195.679688 276.347656 C 193.816406 276.8125 191.945312 277.234375 190.066406 277.609375 C 188.183594 277.980469 186.292969 278.308594 184.394531 278.59375 C 182.496094 278.875 180.59375 279.109375 178.683594 279.296875 C 176.773438 279.484375 174.863281 279.625 172.945312 279.71875 C 171.027344 279.8125 169.113281 279.859375 167.191406 279.859375 C 165.273438 279.859375 163.355469 279.8125 161.441406 279.71875 C 159.523438 279.625 157.609375 279.484375 155.703125 279.296875 C 153.792969 279.109375 151.886719 278.875 149.988281 278.59375 C 148.09375 278.308594 146.203125 277.980469 144.320312 277.609375 C 142.4375 277.234375 140.566406 276.8125 138.707031 276.347656 C 136.84375 275.882812 134.996094 275.371094 133.160156 274.8125 C 131.324219 274.253906 129.503906 273.652344 127.695312 273.007812 C 125.890625 272.359375 124.101562 271.671875 122.328125 270.9375 C 120.554688 270.203125 118.800781 269.425781 117.066406 268.605469 C 115.332031 267.785156 113.617188 266.921875 111.925781 266.015625 C 110.234375 265.113281 108.566406 264.167969 106.917969 263.179688 C 105.273438 262.195312 103.652344 261.167969 102.058594 260.101562 C 100.464844 259.035156 98.894531 257.933594 97.355469 256.789062 C 95.8125 255.644531 94.300781 254.464844 92.816406 253.25 C 91.335938 252.03125 89.882812 250.777344 88.460938 249.492188 C 87.039062 248.203125 85.648438 246.878906 84.292969 245.523438 C 82.9375 244.164062 81.613281 242.777344 80.324219 241.355469 C 79.035156 239.933594 77.78125 238.480469 76.566406 236.996094 C 75.347656 235.515625 74.167969 234.003906 73.027344 232.460938 C 71.882812 230.921875 70.777344 229.351562 69.710938 227.757812 C 68.644531 226.160156 67.621094 224.539062 66.632812 222.894531 C 65.648438 221.25 64.703125 219.582031 63.796875 217.886719 C 62.894531 216.195312 62.03125 214.484375 61.210938 212.75 C 60.390625 211.011719 59.613281 209.261719 58.878906 207.488281 C 58.144531 205.714844 57.453125 203.925781 56.808594 202.117188 C 56.160156 200.3125 55.558594 198.492188 55.003906 196.65625 C 54.445312 194.820312 53.933594 192.96875 53.46875 191.109375 C 53 189.246094 52.582031 187.375 52.207031 185.496094 C 51.832031 183.613281 51.503906 181.722656 51.222656 179.824219 C 50.941406 177.925781 50.707031 176.023438 50.519531 174.113281 C 50.332031 172.203125 50.1875 170.292969 50.09375 168.375 C 50 166.457031 49.953125 164.539062 49.953125 162.621094 C 49.953125 160.703125 50 158.785156 50.09375 156.871094 C 50.1875 154.953125 50.332031 153.039062 50.519531 151.128906 C 50.707031 149.222656 50.941406 147.316406 51.222656 145.417969 C 51.503906 143.523438 51.832031 141.632812 52.207031 139.75 C 52.582031 137.867188 53 135.996094 53.46875 134.136719 C 53.933594 132.273438 54.445312 130.425781 55.003906 128.589844 C 55.558594 126.753906 56.160156 124.933594 56.808594 123.125 C 57.453125 121.320312 58.144531 119.53125 58.878906 117.757812 C 59.613281 115.984375 60.390625 114.230469 61.210938 112.496094 C 62.03125 110.761719 62.894531 109.046875 63.796875 107.355469 C 64.703125 105.664062 65.648438 103.996094 66.632812 102.347656 C 67.621094 100.703125 68.644531 99.082031 69.710938 97.488281 C 70.777344 95.894531 71.882812 94.324219 73.027344 92.785156 C 74.167969 91.242188 75.347656 89.730469 76.566406 88.246094 C 77.78125 86.761719 79.035156 85.3125 80.324219 83.890625 C 81.613281 82.46875 82.9375 81.078125 84.292969 79.722656 C 85.648438 78.367188 87.039062 77.042969 88.460938 75.753906 C 89.882812 74.464844 91.335938 73.210938 92.816406 71.996094 C 94.300781 70.777344 95.8125 69.597656 97.355469 68.457031 C 98.894531 67.3125 100.464844 66.207031 102.058594 65.140625 C 103.652344 64.074219 105.273438 63.050781 106.917969 62.0625 C 108.566406 61.078125 110.234375 60.132812 111.925781 59.226562 C 113.617188 58.324219 115.332031 57.460938 117.066406 56.640625 C 118.800781 55.820312 120.554688 55.042969 122.328125 54.308594 C 124.101562 53.574219 125.890625 52.882812 127.695312 52.238281 C 129.503906 51.589844 131.324219 50.988281 133.160156 50.433594 C 134.996094 49.875 136.84375 49.363281 138.707031 48.898438 C 140.566406 48.429688 142.4375 48.011719 144.320312 47.636719 C 146.203125 47.261719 148.09375 46.933594 149.988281 46.652344 C 151.886719 46.371094 153.792969 46.136719 155.703125 45.949219 C 157.609375 45.761719 159.523438 45.617188 161.441406 45.523438 C 163.355469 45.429688 165.273438 45.382812 167.191406 45.382812 C 169.113281 45.382812 171.027344 45.429688 172.945312 45.523438 C 174.863281 45.617188 176.773438 45.761719 178.683594 45.949219 C 180.59375 46.136719 182.496094 46.371094 184.394531 46.652344 C 186.292969 46.933594 188.183594 47.261719 190.066406 47.636719 C 191.945312 48.011719 193.816406 48.429688 195.679688 48.898438 C 197.539062 49.363281 199.390625 49.875 201.226562 50.433594 C 203.0625 50.988281 204.882812 51.589844 206.6875 52.238281 C 208.496094 52.882812 210.285156 53.574219 212.058594 54.308594 C 213.832031 55.042969 215.585938 55.820312 217.320312 56.640625 C 219.054688 57.460938 220.765625 58.324219 222.457031 59.226562 C 224.152344 60.132812 225.820312 61.078125 227.464844 62.0625 C 229.109375 63.050781 230.730469 64.074219 232.328125 65.140625 C 233.921875 66.207031 235.492188 67.3125 237.03125 68.457031 C 238.574219 69.597656 240.085938 70.777344 241.566406 71.996094 C 243.050781 73.210938 244.503906 74.464844 245.925781 75.753906 C 247.347656 77.042969 248.734375 78.367188 250.09375 79.722656 C 251.449219 81.078125 252.773438 82.46875 254.0625 83.890625 C 255.347656 85.3125 256.601562 86.761719 257.820312 88.246094 C 259.035156 89.730469 260.214844 91.242188 261.359375 92.785156 C 262.503906 94.324219 263.605469 95.894531 264.671875 97.488281 C 265.738281 99.082031 266.765625 100.703125 267.75 102.347656 C 268.738281 103.996094 269.683594 105.664062 270.585938 107.355469 C 271.492188 109.046875 272.355469 110.761719 273.175781 112.496094 C 273.996094 114.230469 274.773438 115.984375 275.507812 117.757812 C 276.242188 119.53125 276.929688 121.320312 277.578125 123.125 C 278.222656 124.933594 278.824219 126.753906 279.382812 128.589844 C 279.941406 130.425781 280.453125 132.273438 280.917969 134.136719 C 281.382812 135.996094 281.804688 137.867188 282.179688 139.75 C 282.554688 141.632812 282.878906 143.523438 283.164062 145.417969 C 283.445312 147.316406 283.679688 149.222656 283.867188 151.128906 C 284.054688 153.039062 284.195312 154.953125 284.289062 156.871094 C 284.382812 158.785156 284.429688 160.703125 284.429688 162.621094 Z M 284.429688 162.621094 " fill-opacity="1" fill-rule="nonzero"></path><path fill="#ffcc59" d="M 170.609375 3.382812 C 171.554688 3.605469 172.46875 3.917969 173.351562 4.320312 C 174.234375 4.722656 175.070312 5.210938 175.855469 5.777344 C 176.644531 6.34375 177.367188 6.984375 178.027344 7.695312 C 178.691406 8.402344 179.277344 9.171875 179.785156 9.996094 C 180.296875 10.824219 180.722656 11.691406 181.058594 12.597656 C 181.398438 13.507812 181.648438 14.441406 181.800781 15.398438 C 181.957031 16.355469 182.019531 17.320312 181.984375 18.289062 C 181.949219 19.261719 181.820312 20.21875 181.597656 21.164062 C 181.375 22.105469 181.0625 23.019531 180.660156 23.902344 C 180.253906 24.785156 179.769531 25.621094 179.203125 26.40625 C 178.636719 27.195312 177.996094 27.917969 177.285156 28.582031 C 176.578125 29.242188 175.808594 29.828125 174.984375 30.339844 C 174.15625 30.847656 173.289062 31.273438 172.382812 31.613281 C 171.472656 31.953125 170.539062 32.199219 169.582031 32.355469 C 168.621094 32.507812 167.660156 32.570312 166.6875 32.535156 C 165.71875 32.5 164.761719 32.371094 163.816406 32.148438 C 162.875 31.925781 161.960938 31.613281 161.078125 31.210938 C 160.195312 30.808594 159.359375 30.320312 158.574219 29.753906 C 157.785156 29.1875 157.0625 28.546875 156.398438 27.839844 C 155.738281 27.128906 155.152344 26.359375 154.640625 25.535156 C 154.132812 24.710938 153.707031 23.84375 153.367188 22.933594 C 153.027344 22.023438 152.78125 21.089844 152.625 20.132812 C 152.472656 19.175781 152.410156 18.210938 152.445312 17.242188 C 152.480469 16.269531 152.609375 15.3125 152.832031 14.371094 C 153.054688 13.425781 153.367188 12.511719 153.769531 11.628906 C 154.171875 10.746094 154.660156 9.910156 155.226562 9.125 C 155.792969 8.335938 156.433594 7.613281 157.140625 6.949219 C 157.851562 6.289062 158.621094 5.703125 159.445312 5.195312 C 160.269531 4.683594 161.136719 4.257812 162.046875 3.917969 C 162.957031 3.582031 163.890625 3.332031 164.847656 3.179688 C 165.804688 3.023438 166.769531 2.960938 167.738281 2.996094 C 168.710938 3.03125 169.667969 3.160156 170.609375 3.382812 Z M 170.609375 3.382812 " fill-opacity="1" fill-rule="nonzero"></path><path fill="#170aa3" d="M 167.191406 35.441406 C 157.421875 35.441406 149.472656 27.492188 149.472656 17.722656 C 149.472656 7.953125 157.421875 0.00390625 167.191406 0.00390625 C 176.964844 0.00390625 184.914062 7.953125 184.914062 17.722656 C 184.914062 27.492188 176.964844 35.441406 167.191406 35.441406 Z M 167.191406 5.886719 C 160.664062 5.886719 155.355469 11.195312 155.355469 17.722656 C 155.355469 24.25 160.664062 29.558594 167.191406 29.558594 C 173.71875 29.558594 179.03125 24.25 179.03125 17.722656 C 179.03125 11.195312 173.71875 5.886719 167.191406 5.886719 Z M 167.191406 5.886719 " fill-opacity="1" fill-rule="nonzero"></path><path fill="#170aa3" d="M 167.191406 75.074219 C 165.566406 75.074219 164.25 73.757812 164.25 72.132812 L 164.25 32.5 C 164.25 30.875 165.566406 29.558594 167.191406 29.558594 C 168.816406 29.558594 170.132812 30.875 170.132812 32.5 L 170.132812 72.132812 C 170.132812 73.757812 168.816406 75.074219 167.191406 75.074219 Z M 167.191406 75.074219 " fill-opacity="1" fill-rule="nonzero"></path><path fill="#ffcc59" d="M 79.511719 60.164062 C 79.511719 61.132812 79.417969 62.09375 79.226562 63.046875 C 79.039062 63.996094 78.757812 64.921875 78.386719 65.816406 C 78.015625 66.714844 77.558594 67.566406 77.019531 68.375 C 76.480469 69.179688 75.871094 69.925781 75.183594 70.613281 C 74.496094 71.300781 73.75 71.910156 72.945312 72.449219 C 72.136719 72.988281 71.285156 73.445312 70.386719 73.816406 C 69.492188 74.1875 68.566406 74.46875 67.617188 74.65625 C 66.664062 74.847656 65.703125 74.941406 64.734375 74.941406 C 63.761719 74.941406 62.800781 74.847656 61.851562 74.65625 C 60.898438 74.46875 59.972656 74.1875 59.078125 73.816406 C 58.179688 73.445312 57.328125 72.988281 56.523438 72.449219 C 55.714844 71.910156 54.96875 71.300781 54.28125 70.613281 C 53.597656 69.925781 52.984375 69.179688 52.445312 68.375 C 51.90625 67.566406 51.449219 66.714844 51.078125 65.816406 C 50.707031 64.921875 50.425781 63.996094 50.238281 63.046875 C 50.046875 62.09375 49.953125 61.132812 49.953125 60.164062 C 49.953125 59.191406 50.046875 58.230469 50.238281 57.277344 C 50.425781 56.328125 50.707031 55.402344 51.078125 54.507812 C 51.449219 53.609375 51.90625 52.757812 52.445312 51.953125 C 52.984375 51.144531 53.597656 50.398438 54.28125 49.710938 C 54.96875 49.027344 55.714844 48.414062 56.523438 47.875 C 57.328125 47.335938 58.179688 46.878906 59.078125 46.507812 C 59.972656 46.136719 60.898438 45.855469 61.851562 45.667969 C 62.800781 45.476562 63.761719 45.382812 64.734375 45.382812 C 65.703125 45.382812 66.664062 45.476562 67.617188 45.667969 C 68.566406 45.855469 69.492188 46.136719 70.386719 46.507812 C 71.285156 46.878906 72.136719 47.335938 72.945312 47.875 C 73.75 48.414062 74.496094 49.027344 75.183594 49.710938 C 75.871094 50.398438 76.480469 51.144531 77.019531 51.953125 C 77.558594 52.757812 78.015625 53.609375 78.386719 54.507812 C 78.757812 55.402344 79.039062 56.328125 79.226562 57.277344 C 79.417969 58.230469 79.511719 59.191406 79.511719 60.164062 Z M 79.511719 60.164062 " fill-opacity="1" fill-rule="nonzero"></path><path fill="#170aa3" d="M 64.734375 77.882812 C 60 77.882812 55.550781 76.039062 52.203125 72.691406 C 45.292969 65.78125 45.292969 54.542969 52.203125 47.632812 C 55.550781 44.285156 60 42.441406 64.734375 42.441406 C 69.464844 42.441406 73.914062 44.285156 77.261719 47.632812 C 84.171875 54.542969 84.171875 65.785156 77.261719 72.691406 C 73.917969 76.039062 69.464844 77.882812 64.734375 77.882812 Z M 64.734375 48.324219 C 61.570312 48.324219 58.597656 49.554688 56.363281 51.792969 C 51.746094 56.40625 51.746094 63.917969 56.363281 68.53125 C 58.597656 70.769531 61.570312 72 64.734375 72 C 67.894531 72 70.867188 70.769531 73.101562 68.53125 C 77.71875 63.917969 77.71875 56.40625 73.101562 51.792969 C 70.867188 49.554688 67.894531 48.324219 64.734375 48.324219 Z M 64.734375 48.324219 " fill-opacity="1" fill-rule="nonzero"></path><path fill="#170aa3" d="M 103.207031 101.578125 C 102.453125 101.578125 101.699219 101.289062 101.125 100.714844 L 73.101562 72.691406 C 71.953125 71.542969 71.953125 69.679688 73.101562 68.53125 C 74.25 67.382812 76.113281 67.382812 77.261719 68.53125 L 105.285156 96.554688 C 106.433594 97.703125 106.433594 99.566406 105.285156 100.714844 C 104.710938 101.289062 103.960938 101.578125 103.207031 101.578125 Z M 103.207031 101.578125 " fill-opacity="1" fill-rule="nonzero"></path><path fill="#ffcc59" d="M 37.070312 162.621094 C 37.070312 163.59375 36.976562 164.554688 36.789062 165.503906 C 36.597656 166.457031 36.316406 167.382812 35.945312 168.277344 C 35.574219 169.175781 35.121094 170.027344 34.582031 170.832031 C 34.042969 171.640625 33.429688 172.386719 32.742188 173.074219 C 32.058594 173.757812 31.308594 174.371094 30.503906 174.910156 C 29.695312 175.449219 28.84375 175.90625 27.949219 176.277344 C 27.050781 176.648438 26.128906 176.929688 25.175781 177.117188 C 24.222656 177.304688 23.261719 177.402344 22.292969 177.402344 C 21.320312 177.402344 20.359375 177.304688 19.410156 177.117188 C 18.457031 176.929688 17.535156 176.648438 16.636719 176.277344 C 15.742188 175.90625 14.890625 175.449219 14.082031 174.910156 C 13.273438 174.371094 12.527344 173.757812 11.84375 173.074219 C 11.15625 172.386719 10.542969 171.640625 10.003906 170.832031 C 9.464844 170.027344 9.011719 169.175781 8.640625 168.277344 C 8.265625 167.382812 7.988281 166.457031 7.796875 165.503906 C 7.609375 164.554688 7.515625 163.59375 7.515625 162.621094 C 7.515625 161.652344 7.609375 160.691406 7.796875 159.738281 C 7.988281 158.789062 8.265625 157.863281 8.640625 156.964844 C 9.011719 156.070312 9.464844 155.21875 10.003906 154.410156 C 10.542969 153.605469 11.15625 152.859375 11.84375 152.171875 C 12.527344 151.484375 13.273438 150.875 14.082031 150.332031 C 14.890625 149.792969 15.742188 149.339844 16.636719 148.96875 C 17.535156 148.597656 18.457031 148.316406 19.410156 148.128906 C 20.359375 147.9375 21.320312 147.84375 22.292969 147.84375 C 23.261719 147.84375 24.222656 147.9375 25.175781 148.128906 C 26.128906 148.316406 27.050781 148.597656 27.949219 148.96875 C 28.84375 149.339844 29.695312 149.792969 30.503906 150.332031 C 31.308594 150.875 32.058594 151.484375 32.742188 152.171875 C 33.429688 152.859375 34.042969 153.605469 34.582031 154.410156 C 35.121094 155.21875 35.574219 156.070312 35.945312 156.964844 C 36.316406 157.863281 36.597656 158.789062 36.789062 159.738281 C 36.976562 160.691406 37.070312 161.652344 37.070312 162.621094 Z M 37.070312 162.621094 " fill-opacity="1" fill-rule="nonzero"></path><g clip-path="url(#d1cce044f1)"><path fill="#170aa3" d="M 22.292969 180.34375 C 12.523438 180.34375 4.574219 172.394531 4.574219 162.621094 C 4.574219 152.851562 12.523438 144.902344 22.292969 144.902344 C 32.0625 144.902344 40.011719 152.851562 40.011719 162.621094 C 40.011719 172.394531 32.0625 180.34375 22.292969 180.34375 Z M 22.292969 150.785156 C 15.765625 150.785156 10.453125 156.09375 10.453125 162.621094 C 10.453125 169.148438 15.765625 174.460938 22.292969 174.460938 C 28.820312 174.460938 34.128906 169.148438 34.128906 162.621094 C 34.128906 156.09375 28.820312 150.785156 22.292969 150.785156 Z M 22.292969 150.785156 " fill-opacity="1" fill-rule="nonzero"></path></g><path fill="#170aa3" d="M 76.703125 165.5625 L 37.070312 165.5625 C 35.445312 165.5625 34.128906 164.246094 34.128906 162.621094 C 34.128906 160.996094 35.445312 159.679688 37.070312 159.679688 L 76.703125 159.679688 C 78.328125 159.679688 79.644531 160.996094 79.644531 162.621094 C 79.644531 164.246094 78.328125 165.5625 76.703125 165.5625 Z M 76.703125 165.5625 " fill-opacity="1" fill-rule="nonzero"></path><path fill="#ffcc59" d="M 79.511719 265.082031 C 79.511719 266.050781 79.417969 267.011719 79.226562 267.964844 C 79.039062 268.917969 78.757812 269.839844 78.386719 270.738281 C 78.015625 271.632812 77.558594 272.484375 77.019531 273.292969 C 76.480469 274.101562 75.871094 274.847656 75.183594 275.53125 C 74.496094 276.21875 73.75 276.832031 72.945312 277.371094 C 72.136719 277.910156 71.285156 278.363281 70.386719 278.734375 C 69.492188 279.105469 68.566406 279.386719 67.617188 279.578125 C 66.664062 279.765625 65.703125 279.859375 64.734375 279.859375 C 63.761719 279.859375 62.800781 279.765625 61.851562 279.578125 C 60.898438 279.386719 59.972656 279.105469 59.078125 278.734375 C 58.179688 278.363281 57.328125 277.910156 56.523438 277.371094 C 55.714844 276.832031 54.96875 276.21875 54.28125 275.53125 C 53.597656 274.847656 52.984375 274.101562 52.445312 273.292969 C 51.90625 272.484375 51.449219 271.632812 51.078125 270.738281 C 50.707031 269.839844 50.425781 268.917969 50.238281 267.964844 C 50.046875 267.011719 49.953125 266.050781 49.953125 265.082031 C 49.953125 264.113281 50.046875 263.152344 50.238281 262.199219 C 50.425781 261.246094 50.707031 260.324219 51.078125 259.425781 C 51.449219 258.53125 51.90625 257.679688 52.445312 256.871094 C 52.984375 256.066406 53.597656 255.316406 54.28125 254.632812 C 54.96875 253.945312 55.714844 253.332031 56.523438 252.792969 C 57.328125 252.253906 58.179688 251.800781 59.078125 251.429688 C 59.972656 251.058594 60.898438 250.777344 61.851562 250.585938 C 62.800781 250.398438 63.761719 250.304688 64.734375 250.304688 C 65.703125 250.304688 66.664062 250.398438 67.617188 250.585938 C 68.566406 250.777344 69.492188 251.058594 70.386719 251.429688 C 71.285156 251.800781 72.136719 252.253906 72.945312 252.792969 C 73.75 253.332031 74.496094 253.945312 75.183594 254.632812 C 75.871094 255.316406 76.480469 256.066406 77.019531 256.871094 C 77.558594 257.679688 78.015625 258.53125 78.386719 259.425781 C 78.757812 260.324219 79.039062 261.246094 79.226562 262.199219 C 79.417969 263.152344 79.511719 264.113281 79.511719 265.082031 Z M 79.511719 265.082031 " fill-opacity="1" fill-rule="nonzero"></path><path fill="#170aa3" d="M 64.734375 282.800781 C 60 282.800781 55.550781 280.957031 52.203125 277.613281 C 48.855469 274.265625 47.011719 269.816406 47.011719 265.082031 C 47.011719 260.347656 48.855469 255.898438 52.203125 252.550781 C 55.550781 249.207031 60 247.363281 64.734375 247.363281 C 69.464844 247.363281 73.914062 249.207031 77.261719 252.550781 C 80.609375 255.898438 82.453125 260.347656 82.453125 265.082031 C 82.453125 269.816406 80.609375 274.265625 77.261719 277.613281 C 73.914062 280.957031 69.464844 282.800781 64.734375 282.800781 Z M 64.734375 253.246094 C 61.570312 253.246094 58.597656 254.476562 56.363281 256.710938 C 54.125 258.949219 52.894531 261.921875 52.894531 265.082031 C 52.894531 268.242188 54.125 271.214844 56.363281 273.453125 C 58.597656 275.6875 61.570312 276.917969 64.734375 276.917969 C 67.894531 276.917969 70.867188 275.6875 73.101562 273.453125 C 75.339844 271.214844 76.570312 268.242188 76.570312 265.082031 C 76.570312 261.921875 75.339844 258.945312 73.101562 256.710938 C 70.867188 254.476562 67.894531 253.246094 64.734375 253.246094 Z M 54.28125 254.632812 L 54.285156 254.632812 Z M 54.28125 254.632812 " fill-opacity="1" fill-rule="nonzero"></path><path fill="#170aa3" d="M 75.183594 257.574219 C 74.429688 257.574219 73.675781 257.285156 73.101562 256.710938 C 71.953125 255.5625 71.953125 253.699219 73.101562 252.550781 L 101.125 224.527344 C 102.277344 223.378906 104.136719 223.378906 105.285156 224.527344 C 106.433594 225.675781 106.433594 227.539062 105.285156 228.6875 L 77.261719 256.710938 C 76.6875 257.285156 75.9375 257.574219 75.183594 257.574219 Z M 75.183594 257.574219 " fill-opacity="1" fill-rule="nonzero"></path><path fill="#ffcc59" d="M 181.972656 307.523438 C 181.972656 308.492188 181.875 309.453125 181.6875 310.40625 C 181.496094 311.355469 181.21875 312.28125 180.847656 313.175781 C 180.476562 314.074219 180.019531 314.925781 179.480469 315.734375 C 178.941406 316.539062 178.328125 317.285156 177.644531 317.972656 C 176.957031 318.660156 176.210938 319.269531 175.402344 319.808594 C 174.597656 320.347656 173.746094 320.804688 172.847656 321.175781 C 171.953125 321.546875 171.027344 321.828125 170.074219 322.015625 C 169.125 322.207031 168.164062 322.300781 167.191406 322.300781 C 166.222656 322.300781 165.261719 322.207031 164.308594 322.015625 C 163.359375 321.828125 162.433594 321.546875 161.535156 321.175781 C 160.640625 320.804688 159.789062 320.347656 158.980469 319.808594 C 158.175781 319.269531 157.429688 318.660156 156.742188 317.972656 C 156.054688 317.285156 155.445312 316.539062 154.90625 315.734375 C 154.367188 314.925781 153.910156 314.074219 153.539062 313.175781 C 153.167969 312.28125 152.886719 311.355469 152.699219 310.40625 C 152.507812 309.453125 152.414062 308.492188 152.414062 307.523438 C 152.414062 306.550781 152.507812 305.589844 152.699219 304.640625 C 152.886719 303.6875 153.167969 302.761719 153.539062 301.867188 C 153.910156 300.96875 154.367188 300.117188 154.90625 299.3125 C 155.445312 298.503906 156.054688 297.757812 156.742188 297.070312 C 157.429688 296.386719 158.175781 295.773438 158.980469 295.234375 C 159.789062 294.695312 160.640625 294.238281 161.535156 293.867188 C 162.433594 293.496094 163.359375 293.21875 164.308594 293.027344 C 165.261719 292.839844 166.222656 292.742188 167.191406 292.742188 C 168.164062 292.742188 169.125 292.839844 170.074219 293.027344 C 171.027344 293.21875 171.953125 293.496094 172.847656 293.867188 C 173.746094 294.238281 174.597656 294.695312 175.402344 295.234375 C 176.210938 295.773438 176.957031 296.386719 177.644531 297.070312 C 178.328125 297.757812 178.941406 298.503906 179.480469 299.3125 C 180.019531 300.117188 180.476562 300.96875 180.847656 301.867188 C 181.21875 302.761719 181.496094 303.6875 181.6875 304.640625 C 181.875 305.589844 181.972656 306.550781 181.972656 307.523438 Z M 181.972656 307.523438 " fill-opacity="1" fill-rule="nonzero"></path><path fill="#170aa3" d="M 167.191406 325.242188 C 157.421875 325.242188 149.472656 317.292969 149.472656 307.523438 C 149.472656 297.75 157.421875 289.800781 167.191406 289.800781 C 176.964844 289.800781 184.914062 297.75 184.914062 307.523438 C 184.914062 317.292969 176.964844 325.242188 167.191406 325.242188 Z M 167.191406 295.683594 C 160.664062 295.683594 155.355469 300.996094 155.355469 307.523438 C 155.355469 314.050781 160.664062 319.359375 167.191406 319.359375 C 173.71875 319.359375 179.03125 314.050781 179.03125 307.523438 C 179.03125 300.996094 173.71875 295.683594 167.191406 295.683594 Z M 167.191406 295.683594 " fill-opacity="1" fill-rule="nonzero"></path><path fill="#170aa3" d="M 167.191406 295.683594 C 165.566406 295.683594 164.25 294.367188 164.25 292.742188 L 164.25 253.113281 C 164.25 251.488281 165.566406 250.171875 167.191406 250.171875 C 168.816406 250.171875 170.132812 251.488281 170.132812 253.113281 L 170.132812 292.742188 C 170.132812 294.367188 168.816406 295.683594 167.191406 295.683594 Z M 167.191406 295.683594 " fill-opacity="1" fill-rule="nonzero"></path><path fill="#ffcc59" d="M 284.429688 265.082031 C 284.429688 266.050781 284.335938 267.011719 284.148438 267.964844 C 283.957031 268.917969 283.675781 269.839844 283.304688 270.738281 C 282.933594 271.632812 282.480469 272.484375 281.941406 273.292969 C 281.402344 274.097656 280.789062 274.847656 280.101562 275.53125 C 279.417969 276.21875 278.667969 276.832031 277.863281 277.371094 C 277.054688 277.910156 276.203125 278.363281 275.308594 278.734375 C 274.410156 279.105469 273.488281 279.386719 272.535156 279.578125 C 271.582031 279.765625 270.621094 279.859375 269.652344 279.859375 C 268.683594 279.859375 267.722656 279.765625 266.769531 279.578125 C 265.816406 279.386719 264.894531 279.105469 263.996094 278.734375 C 263.101562 278.363281 262.25 277.910156 261.441406 277.371094 C 260.636719 276.832031 259.886719 276.21875 259.203125 275.53125 C 258.515625 274.847656 257.902344 274.097656 257.363281 273.292969 C 256.824219 272.484375 256.371094 271.632812 256 270.738281 C 255.628906 269.839844 255.347656 268.917969 255.15625 267.964844 C 254.96875 267.011719 254.875 266.050781 254.875 265.082031 C 254.875 264.113281 254.96875 263.152344 255.15625 262.199219 C 255.347656 261.246094 255.628906 260.324219 256 259.425781 C 256.371094 258.53125 256.824219 257.679688 257.363281 256.871094 C 257.902344 256.066406 258.515625 255.316406 259.203125 254.632812 C 259.886719 253.945312 260.636719 253.332031 261.441406 252.792969 C 262.25 252.253906 263.101562 251.800781 263.996094 251.429688 C 264.894531 251.058594 265.816406 250.777344 266.769531 250.585938 C 267.722656 250.398438 268.683594 250.304688 269.652344 250.304688 C 270.621094 250.304688 271.582031 250.398438 272.535156 250.585938 C 273.488281 250.777344 274.410156 251.058594 275.308594 251.429688 C 276.203125 251.800781 277.054688 252.253906 277.863281 252.792969 C 278.667969 253.332031 279.417969 253.945312 280.101562 254.632812 C 280.789062 255.316406 281.402344 256.066406 281.941406 256.871094 C 282.480469 257.679688 282.933594 258.53125 283.304688 259.425781 C 283.675781 260.324219 283.957031 261.246094 284.148438 262.199219 C 284.335938 263.152344 284.429688 264.113281 284.429688 265.082031 Z M 284.429688 265.082031 " fill-opacity="1" fill-rule="nonzero"></path><path fill="#170aa3" d="M 269.652344 282.792969 C 265.113281 282.792969 260.578125 281.066406 257.121094 277.613281 C 253.777344 274.265625 251.933594 269.816406 251.933594 265.082031 C 251.933594 260.347656 253.777344 255.898438 257.121094 252.550781 C 264.03125 245.644531 275.273438 245.644531 282.183594 252.550781 C 285.527344 255.898438 287.371094 260.347656 287.371094 265.082031 C 287.371094 269.816406 285.527344 274.265625 282.183594 277.613281 C 278.726562 281.066406 274.191406 282.792969 269.652344 282.792969 Z M 261.28125 273.453125 C 265.898438 278.066406 273.40625 278.066406 278.023438 273.453125 C 280.257812 271.214844 281.488281 268.242188 281.488281 265.082031 C 281.488281 261.921875 280.257812 258.945312 278.023438 256.710938 C 273.40625 252.097656 265.898438 252.097656 261.28125 256.710938 C 259.046875 258.949219 257.816406 261.921875 257.816406 265.082031 C 257.816406 268.242188 259.046875 271.21875 261.28125 273.453125 Z M 261.28125 273.453125 " fill-opacity="1" fill-rule="nonzero"></path><path fill="#170aa3" d="M 259.203125 257.574219 C 258.449219 257.574219 257.695312 257.285156 257.121094 256.710938 L 229.097656 228.6875 C 227.949219 227.539062 227.949219 225.675781 229.097656 224.527344 C 230.246094 223.378906 232.109375 223.378906 233.257812 224.527344 L 261.28125 252.550781 C 262.429688 253.699219 262.429688 255.5625 261.28125 256.710938 C 260.707031 257.285156 259.953125 257.574219 259.203125 257.574219 Z M 259.203125 257.574219 " fill-opacity="1" fill-rule="nonzero"></path><path fill="#ffcc59" d="M 325.75 156.957031 C 326.121094 157.851562 326.402344 158.777344 326.589844 159.730469 C 326.78125 160.679688 326.875 161.640625 326.875 162.613281 C 326.875 163.582031 326.78125 164.542969 326.589844 165.496094 C 326.402344 166.445312 326.121094 167.371094 325.75 168.269531 C 325.378906 169.164062 324.921875 170.015625 324.382812 170.824219 C 323.84375 171.628906 323.234375 172.375 322.546875 173.0625 C 321.859375 173.75 321.113281 174.359375 320.308594 174.898438 C 319.5 175.4375 318.648438 175.894531 317.75 176.265625 C 316.855469 176.636719 315.929688 176.917969 314.980469 177.105469 C 314.027344 177.296875 313.066406 177.390625 312.097656 177.390625 C 311.125 177.390625 310.164062 177.296875 309.210938 177.105469 C 308.261719 176.917969 307.335938 176.636719 306.441406 176.265625 C 305.542969 175.894531 304.691406 175.441406 303.886719 174.902344 C 303.078125 174.363281 302.332031 173.75 301.644531 173.0625 C 300.960938 172.375 300.347656 171.628906 299.808594 170.824219 C 299.269531 170.015625 298.8125 169.164062 298.441406 168.269531 C 298.070312 167.371094 297.789062 166.449219 297.601562 165.496094 C 297.410156 164.542969 297.316406 163.582031 297.316406 162.613281 C 297.316406 161.640625 297.410156 160.679688 297.601562 159.730469 C 297.789062 158.777344 298.070312 157.851562 298.441406 156.957031 C 298.8125 156.058594 299.269531 155.207031 299.808594 154.402344 C 300.347656 153.59375 300.960938 152.847656 301.644531 152.164062 C 302.332031 151.476562 303.078125 150.863281 303.886719 150.324219 C 304.691406 149.785156 305.542969 149.332031 306.441406 148.957031 C 307.335938 148.585938 308.261719 148.308594 309.214844 148.117188 C 310.164062 147.929688 311.125 147.832031 312.097656 147.832031 C 313.066406 147.832031 314.027344 147.929688 314.980469 148.117188 C 315.929688 148.308594 316.855469 148.585938 317.75 148.957031 C 318.648438 149.328125 319.5 149.785156 320.308594 150.324219 C 321.113281 150.863281 321.859375 151.476562 322.546875 152.164062 C 323.234375 152.847656 323.84375 153.59375 324.382812 154.402344 C 324.921875 155.207031 325.378906 156.058594 325.75 156.957031 Z M 325.75 156.957031 " fill-opacity="1" fill-rule="nonzero"></path><path fill="#170aa3" d="M 312.09375 180.34375 C 302.320312 180.34375 294.371094 172.394531 294.371094 162.621094 C 294.371094 152.851562 302.320312 144.902344 312.09375 144.902344 C 321.863281 144.902344 329.8125 152.851562 329.8125 162.621094 C 329.8125 172.394531 321.863281 180.34375 312.09375 180.34375 Z M 312.09375 150.785156 C 305.566406 150.785156 300.253906 156.09375 300.253906 162.621094 C 300.253906 169.148438 305.566406 174.460938 312.09375 174.460938 C 318.621094 174.460938 323.929688 169.148438 323.929688 162.621094 C 323.929688 156.09375 318.621094 150.785156 312.09375 150.785156 Z M 312.09375 150.785156 " fill-opacity="1" fill-rule="nonzero"></path><path fill="#170aa3" d="M 297.3125 165.5625 L 257.683594 165.5625 C 256.058594 165.5625 254.742188 164.246094 254.742188 162.621094 C 254.742188 160.996094 256.058594 159.679688 257.683594 159.679688 L 297.3125 159.679688 C 298.9375 159.679688 300.253906 160.996094 300.253906 162.621094 C 300.253906 164.246094 298.9375 165.5625 297.3125 165.5625 Z M 297.3125 165.5625 " fill-opacity="1" fill-rule="nonzero"></path><path fill="#ffcc59" d="M 284.429688 60.164062 C 284.429688 61.132812 284.335938 62.09375 284.148438 63.046875 C 283.957031 63.996094 283.675781 64.921875 283.304688 65.816406 C 282.933594 66.714844 282.480469 67.566406 281.941406 68.371094 C 281.402344 69.179688 280.789062 69.925781 280.101562 70.613281 C 279.417969 71.296875 278.667969 71.910156 277.863281 72.449219 C 277.054688 72.988281 276.203125 73.445312 275.308594 73.816406 C 274.410156 74.1875 273.488281 74.46875 272.535156 74.65625 C 271.582031 74.847656 270.621094 74.941406 269.652344 74.941406 C 268.683594 74.941406 267.722656 74.847656 266.769531 74.65625 C 265.816406 74.46875 264.894531 74.1875 263.996094 73.816406 C 263.101562 73.445312 262.25 72.988281 261.441406 72.449219 C 260.636719 71.910156 259.886719 71.296875 259.203125 70.613281 C 258.515625 69.925781 257.902344 69.179688 257.363281 68.375 C 256.824219 67.566406 256.371094 66.714844 256 65.816406 C 255.628906 64.921875 255.347656 63.996094 255.15625 63.046875 C 254.96875 62.09375 254.875 61.132812 254.875 60.164062 C 254.875 59.191406 254.96875 58.230469 255.15625 57.28125 C 255.347656 56.328125 255.628906 55.402344 256 54.507812 C 256.371094 53.609375 256.824219 52.757812 257.363281 51.953125 C 257.902344 51.144531 258.515625 50.398438 259.203125 49.710938 C 259.886719 49.027344 260.636719 48.414062 261.441406 47.875 C 262.25 47.335938 263.101562 46.878906 263.996094 46.507812 C 264.894531 46.136719 265.816406 45.855469 266.769531 45.667969 C 267.722656 45.480469 268.683594 45.382812 269.652344 45.382812 C 270.621094 45.382812 271.582031 45.480469 272.535156 45.667969 C 273.488281 45.855469 274.410156 46.136719 275.308594 46.507812 C 276.203125 46.878906 277.054688 47.335938 277.863281 47.875 C 278.667969 48.414062 279.417969 49.027344 280.101562 49.710938 C 280.789062 50.398438 281.402344 51.144531 281.941406 51.953125 C 282.480469 52.757812 282.933594 53.609375 283.304688 54.507812 C 283.675781 55.402344 283.957031 56.328125 284.148438 57.28125 C 284.335938 58.230469 284.429688 59.191406 284.429688 60.164062 Z M 284.429688 60.164062 " fill-opacity="1" fill-rule="nonzero"></path><path fill="#170aa3" d="M 269.652344 77.882812 C 264.917969 77.882812 260.46875 76.039062 257.121094 72.691406 C 250.214844 65.78125 250.214844 54.542969 257.121094 47.632812 C 264.03125 40.722656 275.273438 40.722656 282.183594 47.632812 C 285.527344 50.980469 287.371094 55.429688 287.371094 60.164062 C 287.371094 64.894531 285.527344 69.347656 282.183594 72.691406 C 278.835938 76.039062 274.386719 77.882812 269.652344 77.882812 Z M 269.652344 48.332031 C 266.621094 48.332031 263.589844 49.484375 261.28125 51.792969 C 256.667969 56.40625 256.667969 63.917969 261.28125 68.53125 C 263.519531 70.769531 266.488281 72 269.652344 72 C 272.8125 72 275.785156 70.769531 278.023438 68.53125 C 280.257812 66.296875 281.488281 63.324219 281.488281 60.164062 C 281.488281 57 280.257812 54.027344 278.023438 51.792969 C 275.714844 49.484375 272.683594 48.332031 269.652344 48.332031 Z M 269.652344 48.332031 " fill-opacity="1" fill-rule="nonzero"></path><path fill="#170aa3" d="M 231.179688 101.578125 C 230.425781 101.578125 229.671875 101.289062 229.097656 100.714844 C 227.949219 99.566406 227.949219 97.703125 229.097656 96.554688 L 257.121094 68.53125 C 258.269531 67.382812 260.132812 67.382812 261.28125 68.53125 C 262.429688 69.679688 262.429688 71.542969 261.28125 72.691406 L 233.257812 100.714844 C 232.683594 101.289062 231.929688 101.578125 231.179688 101.578125 Z M 231.179688 101.578125 " fill-opacity="1" fill-rule="nonzero"></path><path fill="#170aa3" d="M 95.75 73.984375 C 94.875 73.984375 94.011719 73.597656 93.429688 72.855469 C 92.429688 71.574219 92.65625 69.726562 93.9375 68.726562 C 110.980469 55.414062 131.304688 47.003906 152.710938 44.40625 C 154.328125 44.214844 155.792969 45.359375 155.988281 46.972656 C 156.183594 48.585938 155.035156 50.050781 153.421875 50.246094 C 133.074219 52.714844 113.757812 60.707031 97.558594 73.359375 C 97.023438 73.78125 96.382812 73.984375 95.75 73.984375 Z M 95.75 73.984375 " fill-opacity="1" fill-rule="nonzero"></path><path fill="#170aa3" d="M 51.902344 151.4375 C 51.78125 151.4375 51.664062 151.429688 51.542969 151.417969 C 49.929688 151.21875 48.78125 149.753906 48.976562 148.140625 C 51.582031 126.660156 60.039062 106.277344 73.425781 89.199219 C 74.429688 87.921875 76.277344 87.699219 77.558594 88.699219 C 78.835938 89.703125 79.058594 91.550781 78.054688 92.828125 C 65.328125 109.0625 57.292969 128.433594 54.816406 148.851562 C 54.636719 150.34375 53.367188 151.4375 51.902344 151.4375 Z M 51.902344 151.4375 " fill-opacity="1" fill-rule="nonzero"></path><path fill="#170aa3" d="M 75.800781 237.246094 C 74.929688 237.246094 74.066406 236.859375 73.484375 236.121094 C 60.066406 219.035156 51.59375 198.640625 48.980469 177.132812 C 48.785156 175.519531 49.933594 174.054688 51.546875 173.859375 C 53.160156 173.664062 54.625 174.8125 54.820312 176.425781 C 57.304688 196.863281 65.359375 216.25 78.113281 232.488281 C 79.117188 233.765625 78.894531 235.613281 77.617188 236.617188 C 77.078125 237.039062 76.4375 237.246094 75.800781 237.246094 Z M 75.800781 237.246094 " fill-opacity="1" fill-rule="nonzero"></path><path fill="#170aa3" d="M 153.074219 280.859375 C 152.953125 280.859375 152.835938 280.851562 152.714844 280.835938 C 131.289062 278.242188 110.957031 269.824219 93.90625 256.496094 C 92.625 255.496094 92.402344 253.644531 93.402344 252.367188 C 94.402344 251.085938 96.25 250.859375 97.53125 251.859375 C 113.734375 264.527344 133.0625 272.53125 153.421875 274.996094 C 155.035156 275.195312 156.183594 276.660156 155.988281 278.273438 C 155.808594 279.765625 154.539062 280.859375 153.074219 280.859375 Z M 153.074219 280.859375 " fill-opacity="1" fill-rule="nonzero"></path><path fill="#170aa3" d="M 181.34375 280.855469 C 179.878906 280.855469 178.609375 279.761719 178.429688 278.269531 C 178.234375 276.65625 179.382812 275.191406 180.992188 274.996094 C 201.328125 272.523438 220.632812 264.535156 236.820312 251.886719 C 238.101562 250.886719 239.949219 251.113281 240.949219 252.394531 C 241.949219 253.675781 241.722656 255.523438 240.441406 256.523438 C 223.410156 269.828125 203.097656 278.234375 181.703125 280.832031 C 181.582031 280.847656 181.464844 280.855469 181.34375 280.855469 Z M 181.34375 280.855469 " fill-opacity="1" fill-rule="nonzero"></path><path fill="#170aa3" d="M 258.632812 237.183594 C 257.996094 237.183594 257.359375 236.980469 256.820312 236.554688 C 255.542969 235.554688 255.316406 233.703125 256.320312 232.425781 C 269.046875 216.199219 277.085938 196.835938 279.566406 176.425781 C 279.761719 174.8125 281.226562 173.664062 282.839844 173.859375 C 284.453125 174.054688 285.601562 175.519531 285.402344 177.132812 C 282.792969 198.609375 274.335938 218.988281 260.949219 236.058594 C 260.367188 236.796875 259.503906 237.183594 258.632812 237.183594 Z M 258.632812 237.183594 " fill-opacity="1" fill-rule="nonzero"></path><path fill="#170aa3" d="M 282.484375 151.433594 C 281.015625 151.433594 279.75 150.339844 279.566406 148.847656 C 277.082031 128.347656 268.996094 108.914062 256.183594 92.644531 C 255.179688 91.367188 255.398438 89.519531 256.675781 88.511719 C 257.949219 87.507812 259.800781 87.726562 260.804688 89.003906 C 274.285156 106.121094 282.792969 126.570312 285.40625 148.140625 C 285.601562 149.75 284.453125 151.21875 282.839844 151.414062 C 282.722656 151.425781 282.601562 151.433594 282.484375 151.433594 Z M 282.484375 151.433594 " fill-opacity="1" fill-rule="nonzero"></path><path fill="#170aa3" d="M 238.457031 73.847656 C 237.828125 73.847656 237.191406 73.644531 236.652344 73.226562 C 220.5 60.65625 201.253906 52.710938 180.996094 50.25 C 179.382812 50.054688 178.234375 48.589844 178.429688 46.976562 C 178.625 45.363281 180.09375 44.214844 181.703125 44.410156 C 203.023438 47 223.273438 55.359375 240.265625 68.582031 C 241.546875 69.582031 241.777344 71.429688 240.78125 72.710938 C 240.203125 73.457031 239.335938 73.847656 238.457031 73.847656 Z M 238.457031 73.847656 " fill-opacity="1" fill-rule="nonzero"></path><path fill="#43ffed" d="M 78.027344 183.667969 L 92.253906 183.527344 C 93.871094 183.511719 95.277344 184.570312 95.78125 186.105469 C 97.117188 190.175781 98.792969 194.089844 100.769531 197.820312 C 101.53125 199.25 101.316406 200.996094 100.183594 202.152344 L 90.222656 212.3125 C 87.554688 215.03125 87.597656 219.394531 90.316406 222.058594 L 109.277344 240.648438 C 111.996094 243.316406 116.359375 243.273438 119.023438 240.554688 L 128.988281 230.394531 C 130.121094 229.238281 131.863281 228.992188 133.304688 229.722656 C 137.074219 231.628906 141.019531 233.222656 145.117188 234.480469 C 146.660156 234.957031 147.746094 236.339844 147.761719 237.957031 L 147.902344 252.183594 C 147.9375 255.992188 151.054688 259.046875 154.859375 259.007812 L 181.414062 258.75 C 185.21875 258.710938 188.277344 255.59375 188.238281 251.789062 L 188.097656 237.5625 C 188.082031 235.945312 189.140625 234.539062 190.675781 234.035156 C 194.746094 232.695312 198.660156 231.023438 202.390625 229.042969 C 203.820312 228.285156 205.566406 228.496094 206.722656 229.628906 L 216.882812 239.59375 C 219.601562 242.257812 223.964844 242.214844 226.628906 239.5 L 245.21875 220.539062 C 247.886719 217.820312 247.84375 213.457031 245.125 210.792969 L 234.964844 200.828125 C 233.808594 199.695312 233.5625 197.953125 234.292969 196.507812 C 236.199219 192.742188 237.792969 188.796875 239.050781 184.699219 C 239.527344 183.152344 240.910156 182.070312 242.527344 182.054688 L 256.753906 181.914062 C 260.5625 181.875 263.617188 178.761719 263.578125 174.953125 L 263.320312 148.402344 C 263.28125 144.59375 260.167969 141.539062 256.359375 141.578125 L 242.132812 141.71875 C 240.515625 141.734375 239.109375 140.675781 238.605469 139.140625 C 237.265625 135.070312 235.59375 131.152344 233.613281 127.425781 C 232.855469 125.996094 233.066406 124.25 234.203125 123.09375 L 244.164062 112.933594 C 246.828125 110.214844 246.785156 105.851562 244.070312 103.1875 L 225.109375 84.59375 C 222.390625 81.929688 218.027344 81.972656 215.363281 84.691406 L 205.398438 94.851562 C 204.265625 96.007812 202.523438 96.253906 201.082031 95.523438 C 197.3125 93.617188 193.367188 92.019531 189.269531 90.765625 C 187.722656 90.289062 186.640625 88.90625 186.625 87.289062 L 186.484375 73.058594 C 186.445312 69.253906 183.332031 66.199219 179.523438 66.234375 L 152.972656 66.496094 C 149.167969 66.535156 146.109375 69.648438 146.148438 73.457031 L 146.289062 87.683594 C 146.304688 89.300781 145.246094 90.707031 143.710938 91.210938 C 139.640625 92.546875 135.722656 94.222656 131.996094 96.199219 C 130.566406 96.960938 128.820312 96.746094 127.664062 95.613281 L 117.503906 85.652344 C 114.785156 82.984375 110.421875 83.027344 107.757812 85.746094 L 89.164062 104.707031 C 86.5 107.425781 86.542969 111.789062 89.261719 114.453125 L 99.421875 124.414062 C 100.578125 125.546875 100.824219 127.292969 100.09375 128.734375 C 98.1875 132.5 96.589844 136.449219 95.335938 140.542969 C 94.859375 142.089844 93.476562 143.175781 91.859375 143.191406 L 77.628906 143.332031 C 73.824219 143.367188 70.769531 146.484375 70.804688 150.289062 L 71.066406 176.84375 C 71.105469 180.648438 74.21875 183.703125 78.027344 183.667969 Z M 78.027344 183.667969 " fill-opacity="1" fill-rule="nonzero"></path><path fill="#170aa3" d="M 154.789062 261.949219 C 152.199219 261.949219 149.761719 260.953125 147.910156 259.136719 C 146.035156 257.300781 144.988281 254.839844 144.960938 252.214844 L 144.820312 237.984375 C 144.816406 237.667969 144.59375 237.398438 144.253906 237.292969 C 140.039062 236 135.910156 234.335938 131.976562 232.34375 C 131.660156 232.183594 131.308594 232.226562 131.085938 232.453125 L 121.125 242.613281 C 119.285156 244.488281 116.824219 245.535156 114.199219 245.5625 C 111.585938 245.589844 109.09375 244.589844 107.21875 242.75 L 88.257812 224.15625 C 86.382812 222.320312 85.335938 219.859375 85.308594 217.234375 C 85.285156 214.605469 86.28125 212.128906 88.121094 210.253906 L 98.085938 200.09375 C 98.304688 199.867188 98.339844 199.515625 98.171875 199.199219 C 96.105469 195.304688 94.363281 191.210938 92.988281 187.023438 C 92.875 186.683594 92.597656 186.472656 92.28125 186.46875 L 78.054688 186.609375 C 75.4375 186.628906 72.949219 185.636719 71.074219 183.796875 C 69.199219 181.957031 68.152344 179.5 68.125 176.871094 L 67.863281 150.320312 C 67.8125 144.898438 72.179688 140.441406 77.601562 140.390625 L 91.828125 140.25 C 92.144531 140.246094 92.417969 140.023438 92.523438 139.683594 C 93.816406 135.46875 95.480469 131.339844 97.46875 127.40625 C 97.632812 127.085938 97.589844 126.738281 97.363281 126.515625 L 87.203125 116.550781 C 85.328125 114.714844 84.28125 112.253906 84.253906 109.628906 C 84.226562 107 85.226562 104.523438 87.066406 102.648438 L 105.65625 83.6875 C 109.453125 79.816406 115.691406 79.753906 119.5625 83.550781 L 129.722656 93.515625 C 129.949219 93.734375 130.300781 93.769531 130.617188 93.601562 C 134.507812 91.535156 138.605469 89.792969 142.792969 88.417969 C 143.132812 88.304688 143.347656 88.027344 143.347656 87.710938 L 143.207031 73.484375 C 143.152344 68.0625 147.519531 63.609375 152.941406 63.554688 L 179.496094 63.292969 C 182.121094 63.269531 184.601562 64.265625 186.476562 66.105469 C 188.351562 67.945312 189.398438 70.402344 189.425781 73.03125 L 189.5625 87.257812 C 189.566406 87.574219 189.789062 87.847656 190.132812 87.953125 C 194.34375 89.242188 198.476562 90.90625 202.40625 92.898438 C 202.726562 93.058594 203.078125 93.019531 203.296875 92.792969 L 213.261719 82.628906 C 215.101562 80.753906 217.558594 79.707031 220.1875 79.683594 C 222.816406 79.65625 225.292969 80.65625 227.167969 82.496094 L 246.128906 101.085938 C 248.003906 102.925781 249.050781 105.382812 249.074219 108.011719 C 249.101562 110.636719 248.101562 113.117188 246.265625 114.992188 L 236.300781 125.152344 C 236.078125 125.378906 236.042969 125.730469 236.210938 126.046875 C 238.277344 129.9375 240.023438 134.035156 241.398438 138.222656 C 241.507812 138.558594 241.78125 138.777344 242.097656 138.777344 C 242.097656 138.777344 242.101562 138.777344 242.101562 138.777344 L 256.332031 138.636719 C 258.953125 138.617188 261.4375 139.609375 263.3125 141.449219 C 265.1875 143.285156 266.234375 145.746094 266.257812 148.371094 L 266.519531 174.925781 C 266.574219 180.347656 262.207031 184.800781 256.785156 184.855469 L 242.554688 184.992188 C 242.238281 184.996094 241.96875 185.21875 241.863281 185.5625 C 240.570312 189.773438 238.90625 193.902344 236.914062 197.835938 C 236.753906 198.15625 236.796875 198.507812 237.023438 198.726562 L 247.183594 208.691406 C 251.054688 212.488281 251.117188 218.726562 247.320312 222.597656 L 228.726562 241.554688 C 226.890625 243.433594 224.429688 244.480469 221.804688 244.503906 C 219.167969 244.523438 216.699219 243.53125 214.824219 241.691406 L 204.660156 231.730469 C 204.4375 231.507812 204.085938 231.472656 203.769531 231.640625 C 199.875 233.707031 195.777344 235.453125 191.59375 236.828125 C 191.253906 236.9375 191.035156 237.214844 191.039062 237.53125 L 191.179688 251.761719 C 191.203125 254.386719 190.207031 256.867188 188.367188 258.742188 C 186.527344 260.617188 184.070312 261.664062 181.441406 261.6875 L 154.890625 261.949219 C 154.855469 261.949219 154.824219 261.949219 154.789062 261.949219 Z M 131.582031 226.363281 C 132.613281 226.363281 133.660156 226.605469 134.632812 227.097656 C 138.269531 228.9375 142.085938 230.476562 145.976562 231.667969 C 148.777344 232.527344 150.675781 235.042969 150.703125 237.929688 L 150.84375 252.15625 C 150.851562 253.210938 151.273438 254.199219 152.027344 254.9375 C 152.78125 255.679688 153.78125 256.082031 154.832031 256.070312 L 181.382812 255.808594 C 182.441406 255.796875 183.429688 255.378906 184.167969 254.625 C 184.90625 253.871094 185.308594 252.875 185.296875 251.820312 L 185.15625 237.589844 C 185.128906 234.707031 186.976562 232.152344 189.757812 231.238281 C 193.625 229.96875 197.414062 228.355469 201.011719 226.445312 C 203.597656 225.074219 206.71875 225.511719 208.78125 227.53125 L 218.941406 237.496094 C 219.683594 238.222656 220.664062 238.625 221.707031 238.625 C 221.71875 238.625 221.730469 238.625 221.746094 238.625 C 222.800781 238.613281 223.789062 238.191406 224.527344 237.441406 L 243.121094 218.480469 C 244.644531 216.925781 244.621094 214.417969 243.066406 212.894531 L 232.902344 202.929688 C 230.84375 200.90625 230.34375 197.792969 231.667969 195.183594 C 233.507812 191.546875 235.042969 187.730469 236.238281 183.835938 C 237.097656 181.039062 239.613281 179.140625 242.5 179.113281 L 256.726562 178.972656 C 258.90625 178.953125 260.660156 177.164062 260.636719 174.984375 L 260.378906 148.429688 C 260.355469 146.253906 258.570312 144.492188 256.386719 144.519531 L 242.160156 144.660156 C 242.140625 144.660156 242.117188 144.660156 242.09375 144.660156 C 239.238281 144.660156 236.714844 142.816406 235.808594 140.058594 C 234.539062 136.1875 232.925781 132.402344 231.015625 128.804688 C 229.644531 126.21875 230.078125 123.097656 232.101562 121.035156 L 242.0625 110.875 C 242.804688 110.121094 243.203125 109.125 243.195312 108.070312 C 243.183594 107.015625 242.761719 106.027344 242.007812 105.289062 L 223.050781 86.695312 C 222.296875 85.957031 221.3125 85.550781 220.246094 85.566406 C 219.1875 85.578125 218.203125 85.996094 217.460938 86.75 L 207.5 96.910156 C 205.476562 98.972656 202.363281 99.46875 199.75 98.148438 C 196.117188 96.308594 192.300781 94.769531 188.40625 93.578125 C 185.609375 92.71875 183.710938 90.203125 183.683594 87.316406 L 183.542969 73.089844 C 183.53125 72.035156 183.113281 71.046875 182.359375 70.308594 C 181.605469 69.570312 180.601562 69.167969 179.554688 69.175781 L 153 69.4375 C 150.820312 69.460938 149.066406 71.25 149.089844 73.425781 L 149.226562 87.65625 C 149.257812 90.539062 147.40625 93.09375 144.628906 94.007812 C 140.757812 95.277344 136.972656 96.890625 133.375 98.800781 C 130.789062 100.171875 127.664062 99.738281 125.605469 97.714844 L 115.445312 87.75 C 113.886719 86.226562 111.382812 86.25 109.855469 87.804688 L 91.265625 106.765625 C 90.527344 107.519531 90.125 108.515625 90.136719 109.570312 C 90.144531 110.625 90.566406 111.613281 91.320312 112.351562 L 101.480469 122.316406 C 103.542969 124.339844 104.039062 127.453125 102.71875 130.0625 C 100.878906 133.699219 99.339844 137.515625 98.144531 141.410156 C 97.285156 144.207031 94.769531 146.105469 91.886719 146.132812 L 77.660156 146.273438 C 75.480469 146.292969 73.726562 148.085938 73.746094 150.261719 L 74.007812 176.816406 C 74.015625 177.871094 74.4375 178.859375 75.191406 179.597656 C 75.9375 180.328125 76.917969 180.726562 77.957031 180.726562 C 77.96875 180.726562 77.984375 180.726562 77.996094 180.726562 L 78.027344 183.667969 L 77.996094 180.726562 L 92.222656 180.585938 C 92.246094 180.585938 92.269531 180.585938 92.289062 180.585938 C 95.148438 180.585938 97.667969 182.429688 98.574219 185.1875 C 99.847656 189.058594 101.460938 192.84375 103.367188 196.441406 C 104.742188 199.027344 104.304688 202.148438 102.285156 204.210938 L 92.320312 214.371094 C 91.582031 215.125 91.179688 216.121094 91.191406 217.175781 C 91.203125 218.230469 91.621094 219.21875 92.375 219.960938 L 111.335938 238.550781 C 112.890625 240.074219 115.398438 240.050781 116.921875 238.496094 L 126.886719 228.335938 C 128.152344 227.042969 129.851562 226.363281 131.582031 226.363281 Z M 131.582031 226.363281 " fill-opacity="1" fill-rule="nonzero"></path><path fill="#ffffff" d="M 199.425781 130.382812 C 200.480469 131.4375 201.484375 132.542969 202.429688 133.695312 C 203.378906 134.851562 204.265625 136.050781 205.097656 137.289062 C 205.925781 138.53125 206.691406 139.8125 207.398438 141.128906 C 208.101562 142.445312 208.738281 143.792969 209.308594 145.171875 C 209.882812 146.554688 210.382812 147.957031 210.816406 149.386719 C 211.25 150.816406 211.613281 152.261719 211.90625 153.726562 C 212.195312 155.191406 212.414062 156.667969 212.5625 158.152344 C 212.707031 159.636719 212.78125 161.128906 212.78125 162.621094 C 212.78125 164.113281 212.707031 165.605469 212.5625 167.089844 C 212.414062 168.578125 212.195312 170.050781 211.90625 171.515625 C 211.613281 172.980469 211.25 174.429688 210.816406 175.855469 C 210.382812 177.285156 209.882812 178.691406 209.3125 180.070312 C 208.738281 181.449219 208.101562 182.796875 207.398438 184.113281 C 206.695312 185.429688 205.925781 186.710938 205.097656 187.953125 C 204.269531 189.195312 203.378906 190.390625 202.433594 191.546875 C 201.484375 192.699219 200.484375 193.804688 199.425781 194.863281 C 198.371094 195.917969 197.265625 196.917969 196.113281 197.867188 C 194.957031 198.8125 193.761719 199.703125 192.519531 200.53125 C 191.277344 201.363281 189.996094 202.128906 188.679688 202.832031 C 187.363281 203.535156 186.015625 204.175781 184.636719 204.746094 C 183.257812 205.316406 181.851562 205.820312 180.421875 206.253906 C 178.992188 206.6875 177.546875 207.050781 176.082031 207.339844 C 174.617188 207.632812 173.144531 207.851562 171.65625 207.996094 C 170.171875 208.144531 168.679688 208.214844 167.1875 208.214844 C 165.695312 208.214844 164.203125 208.144531 162.71875 207.996094 C 161.234375 207.851562 159.757812 207.632812 158.292969 207.339844 C 156.828125 207.050781 155.382812 206.6875 153.953125 206.253906 C 152.523438 205.820312 151.117188 205.316406 149.738281 204.746094 C 148.359375 204.175781 147.011719 203.539062 145.695312 202.832031 C 144.378906 202.128906 143.097656 201.363281 141.855469 200.53125 C 140.613281 199.703125 139.417969 198.816406 138.261719 197.867188 C 137.109375 196.921875 136.003906 195.917969 134.949219 194.863281 C 133.890625 193.808594 132.890625 192.703125 131.941406 191.546875 C 130.996094 190.394531 130.105469 189.195312 129.277344 187.953125 C 128.449219 186.710938 127.679688 185.433594 126.976562 184.117188 C 126.273438 182.800781 125.636719 181.449219 125.0625 180.070312 C 124.492188 178.691406 123.988281 177.289062 123.554688 175.859375 C 123.121094 174.429688 122.761719 172.984375 122.46875 171.519531 C 122.175781 170.054688 121.957031 168.578125 121.8125 167.09375 C 121.664062 165.605469 121.59375 164.117188 121.59375 162.625 C 121.59375 161.128906 121.664062 159.640625 121.8125 158.152344 C 121.957031 156.667969 122.175781 155.191406 122.46875 153.726562 C 122.757812 152.261719 123.121094 150.816406 123.554688 149.386719 C 123.988281 147.957031 124.492188 146.554688 125.0625 145.175781 C 125.632812 143.796875 126.273438 142.445312 126.976562 141.128906 C 127.679688 139.8125 128.445312 138.535156 129.277344 137.292969 C 130.105469 136.050781 130.992188 134.851562 131.941406 133.699219 C 132.890625 132.542969 133.890625 131.4375 134.945312 130.382812 C 136.003906 129.328125 137.105469 128.324219 138.261719 127.378906 C 139.414062 126.429688 140.613281 125.542969 141.855469 124.710938 C 143.097656 123.882812 144.375 123.117188 145.691406 122.410156 C 147.011719 121.707031 148.359375 121.070312 149.738281 120.5 C 151.117188 119.925781 152.523438 119.425781 153.949219 118.992188 C 155.378906 118.558594 156.828125 118.195312 158.289062 117.902344 C 159.753906 117.613281 161.230469 117.394531 162.71875 117.246094 C 164.203125 117.101562 165.691406 117.027344 167.1875 117.027344 C 168.679688 117.027344 170.167969 117.101562 171.65625 117.246094 C 173.140625 117.394531 174.617188 117.613281 176.082031 117.902344 C 177.546875 118.195312 178.992188 118.558594 180.421875 118.992188 C 181.851562 119.425781 183.253906 119.925781 184.632812 120.5 C 186.015625 121.070312 187.363281 121.707031 188.679688 122.410156 C 189.996094 123.113281 191.273438 123.882812 192.515625 124.710938 C 193.757812 125.542969 194.957031 126.429688 196.109375 127.375 C 197.265625 128.324219 198.371094 129.324219 199.425781 130.382812 Z M 199.425781 130.382812 " fill-opacity="1" fill-rule="nonzero"></path><path fill="#170aa3" d="M 167.191406 211.15625 C 140.429688 211.15625 118.65625 189.386719 118.65625 162.621094 C 118.65625 135.859375 140.429688 114.085938 167.191406 114.085938 C 193.957031 114.085938 215.726562 135.859375 215.726562 162.621094 C 215.726562 189.386719 193.957031 211.15625 167.191406 211.15625 Z M 167.191406 119.96875 C 143.671875 119.96875 124.539062 139.101562 124.539062 162.621094 C 124.539062 186.140625 143.671875 205.277344 167.191406 205.277344 C 190.710938 205.277344 209.847656 186.140625 209.847656 162.621094 C 209.847656 139.101562 190.710938 119.96875 167.191406 119.96875 Z M 167.191406 119.96875 " fill-opacity="1" fill-rule="nonzero"></path><path fill="#43ffed" d="M 581.183594 318.550781 L 332.503906 318.550781 C 326.261719 318.550781 321.203125 313.492188 321.203125 307.246094 L 321.203125 300.464844 C 321.203125 294.222656 326.261719 289.164062 332.503906 289.164062 L 581.183594 289.164062 C 587.425781 289.164062 592.484375 294.222656 592.484375 300.464844 L 592.484375 307.246094 C 592.488281 313.492188 587.425781 318.550781 581.183594 318.550781 Z M 581.183594 318.550781 " fill-opacity="1" fill-rule="nonzero"></path><g clip-path="url(#ea814bfe68)"><path fill="#170aa3" d="M 581.183594 321.492188 L 332.503906 321.492188 C 324.652344 321.492188 318.261719 315.101562 318.261719 307.246094 L 318.261719 300.464844 C 318.261719 292.609375 324.652344 286.222656 332.503906 286.222656 L 581.183594 286.222656 C 589.039062 286.222656 595.425781 292.609375 595.425781 300.464844 L 595.425781 307.246094 C 595.425781 315.101562 589.039062 321.492188 581.183594 321.492188 Z M 332.503906 292.105469 C 327.894531 292.105469 324.144531 295.855469 324.144531 300.464844 L 324.144531 307.25 C 324.144531 311.859375 327.894531 315.609375 332.503906 315.609375 L 581.183594 315.609375 C 585.792969 315.609375 589.546875 311.859375 589.546875 307.25 L 589.546875 300.464844 C 589.546875 295.855469 585.792969 292.105469 581.183594 292.105469 Z M 332.503906 292.105469 " fill-opacity="1" fill-rule="nonzero"></path></g><path fill="#ffcc59" d="M 343.808594 318.550781 L 427.453125 415.761719 L 427.453125 451.933594 L 483.972656 451.933594 L 483.972656 413.5 L 569.878906 318.550781 Z M 343.808594 318.550781 " fill-opacity="1" fill-rule="nonzero"></path><path fill="#170aa3" d="M 483.972656 454.875 L 427.453125 454.875 C 425.832031 454.875 424.515625 453.558594 424.515625 451.933594 L 424.515625 416.851562 L 341.578125 320.46875 C 340.828125 319.597656 340.65625 318.371094 341.136719 317.324219 C 341.613281 316.28125 342.660156 315.609375 343.808594 315.609375 L 569.878906 315.609375 C 571.042969 315.609375 572.09375 316.296875 572.566406 317.359375 C 573.039062 318.421875 572.839844 319.664062 572.058594 320.523438 L 486.914062 414.632812 L 486.914062 451.933594 C 486.914062 453.558594 485.597656 454.875 483.972656 454.875 Z M 430.394531 448.992188 L 481.03125 448.992188 L 481.03125 413.5 C 481.03125 412.773438 481.300781 412.070312 481.792969 411.527344 L 563.25 321.492188 L 350.21875 321.492188 L 429.683594 413.84375 C 430.144531 414.375 430.394531 415.058594 430.394531 415.761719 Z M 430.394531 448.992188 " fill-opacity="1" fill-rule="nonzero"></path><path fill="#170aa3" d="M 556.503906 271.757812 L 538.039062 271.757812 C 532.78125 271.757812 528.507812 267.480469 528.507812 262.222656 L 528.507812 225.675781 C 528.507812 220.417969 532.785156 216.140625 538.039062 216.140625 L 556.503906 216.140625 C 561.761719 216.140625 566.039062 220.417969 566.039062 225.675781 L 566.039062 262.222656 C 566.039062 267.480469 561.761719 271.757812 556.503906 271.757812 Z M 538.042969 222.023438 C 536.027344 222.023438 534.386719 223.660156 534.386719 225.675781 L 534.386719 262.222656 C 534.386719 264.234375 536.027344 265.875 538.042969 265.875 L 556.503906 265.875 C 558.519531 265.875 560.15625 264.234375 560.15625 262.222656 L 560.15625 225.675781 C 560.15625 223.660156 558.519531 222.023438 556.503906 222.023438 Z M 538.042969 222.023438 " fill-opacity="1" fill-rule="nonzero"></path><path fill="#170aa3" d="M 411.820312 224.28125 L 393.355469 224.28125 C 388.097656 224.28125 383.820312 220.003906 383.820312 214.746094 L 383.820312 178.199219 C 383.820312 172.941406 388.097656 168.664062 393.355469 168.664062 L 411.820312 168.664062 C 417.074219 168.664062 421.351562 172.941406 421.351562 178.199219 L 421.351562 214.746094 C 421.351562 220.003906 417.074219 224.28125 411.820312 224.28125 Z M 393.355469 174.546875 C 391.34375 174.546875 389.703125 176.1875 389.703125 178.199219 L 389.703125 214.746094 C 389.703125 216.761719 391.34375 218.398438 393.355469 218.398438 L 411.820312 218.398438 C 413.832031 218.398438 415.472656 216.761719 415.472656 214.746094 L 415.472656 178.199219 C 415.472656 176.183594 413.832031 174.546875 411.820312 174.546875 Z M 393.355469 174.546875 " fill-opacity="1" fill-rule="nonzero"></path><path fill="#170aa3" d="M 357.375 271.757812 C 355.75 271.757812 354.433594 270.441406 354.433594 268.816406 L 354.433594 222.023438 L 343.808594 222.023438 C 342.183594 222.023438 340.867188 220.707031 340.867188 219.082031 C 340.867188 217.457031 342.183594 216.140625 343.808594 216.140625 L 357.375 216.140625 C 358.996094 216.140625 360.3125 217.457031 360.3125 219.082031 L 360.3125 268.816406 C 360.316406 270.441406 358.996094 271.757812 357.375 271.757812 Z M 357.375 271.757812 " fill-opacity="1" fill-rule="nonzero"></path><path fill="#170aa3" d="M 461.367188 271.757812 C 459.742188 271.757812 458.425781 270.441406 458.425781 268.816406 L 458.425781 222.023438 L 447.800781 222.023438 C 446.175781 222.023438 444.859375 220.707031 444.859375 219.082031 C 444.859375 217.457031 446.175781 216.140625 447.800781 216.140625 L 461.367188 216.140625 C 462.988281 216.140625 464.304688 217.457031 464.304688 219.082031 L 464.304688 268.816406 C 464.304688 270.441406 462.988281 271.757812 461.367188 271.757812 Z M 461.367188 271.757812 " fill-opacity="1" fill-rule="nonzero"></path><path fill="#170aa3" d="M 502.058594 224.28125 C 500.433594 224.28125 499.117188 222.964844 499.117188 221.339844 L 499.117188 174.546875 L 488.492188 174.546875 C 486.871094 174.546875 485.554688 173.230469 485.554688 171.605469 C 485.554688 169.980469 486.871094 168.664062 488.492188 168.664062 L 502.058594 168.664062 C 503.683594 168.664062 505 169.980469 505 171.605469 L 505 221.339844 C 505 222.964844 503.683594 224.28125 502.058594 224.28125 Z M 502.058594 224.28125 " fill-opacity="1" fill-rule="nonzero"></path><path fill="#43ffed" d="M 205.789062 589.730469 L 205.789062 536.964844 L 131.464844 536.964844 L 131.464844 589.714844 Z M 205.789062 589.730469 " fill-opacity="1" fill-rule="nonzero"></path><path fill="#170aa3" d="M 205.789062 592.671875 C 204.164062 592.671875 202.847656 591.355469 202.847656 589.730469 L 202.847656 539.90625 L 134.40625 539.90625 L 134.40625 589.714844 C 134.40625 591.339844 133.089844 592.65625 131.464844 592.65625 C 129.84375 592.65625 128.523438 591.339844 128.523438 589.714844 L 128.523438 536.964844 C 128.523438 535.339844 129.84375 534.023438 131.464844 534.023438 L 205.789062 534.023438 C 207.410156 534.023438 208.730469 535.339844 208.730469 536.964844 L 208.730469 589.730469 C 208.730469 591.355469 207.410156 592.671875 205.789062 592.671875 Z M 205.789062 592.671875 " fill-opacity="1" fill-rule="nonzero"></path><path fill="#43ffed" d="M 184.195312 558.453125 L 39.871094 558.453125 C 35.425781 558.453125 31.820312 554.851562 31.820312 550.40625 L 31.820312 520.238281 L 305.433594 520.238281 L 305.433594 550.40625 C 305.433594 554.851562 301.828125 558.453125 297.382812 558.453125 Z M 184.195312 558.453125 " fill-opacity="1" fill-rule="nonzero"></path><path fill="#170aa3" d="M 297.382812 561.390625 L 39.871094 561.390625 C 33.808594 561.390625 28.878906 556.464844 28.878906 550.40625 L 28.878906 520.238281 C 28.878906 518.613281 30.195312 517.296875 31.820312 517.296875 L 305.433594 517.296875 C 307.058594 517.296875 308.375 518.613281 308.375 520.238281 L 308.375 550.40625 C 308.375 556.464844 303.445312 561.390625 297.382812 561.390625 Z M 34.761719 523.179688 L 34.761719 550.40625 C 34.761719 553.222656 37.054688 555.511719 39.871094 555.511719 L 297.382812 555.511719 C 300.199219 555.511719 302.492188 553.222656 302.492188 550.40625 L 302.492188 523.179688 Z M 34.761719 523.179688 " fill-opacity="1" fill-rule="nonzero"></path><path fill="#ffffff" d="M 305.433594 533.09375 L 31.820312 533.09375 L 31.820312 385.222656 C 31.820312 379.003906 36.863281 373.960938 43.082031 373.960938 L 293.890625 373.960938 C 300.109375 373.960938 305.152344 379.003906 305.152344 385.222656 Z M 305.433594 533.09375 " fill-opacity="1" fill-rule="nonzero"></path><path fill="#170aa3" d="M 305.433594 536.035156 L 31.820312 536.035156 C 30.195312 536.035156 28.878906 534.71875 28.878906 533.09375 L 28.878906 385.222656 C 28.878906 377.390625 35.25 371.019531 43.082031 371.019531 L 293.890625 371.019531 C 301.71875 371.019531 308.089844 377.390625 308.089844 385.222656 L 308.375 533.089844 C 308.375 533.871094 308.066406 534.621094 307.515625 535.171875 C 306.964844 535.726562 306.214844 536.035156 305.433594 536.035156 Z M 34.761719 530.152344 L 302.488281 530.152344 L 302.210938 385.230469 C 302.210938 380.636719 298.476562 376.902344 293.890625 376.902344 L 43.082031 376.902344 C 38.492188 376.902344 34.761719 380.636719 34.761719 385.222656 Z M 34.761719 530.152344 " fill-opacity="1" fill-rule="nonzero"></path><path fill="#ffffff" d="M 104.816406 418.886719 L 119.96875 431.496094 L 104.816406 444.109375 Z M 104.816406 418.886719 " fill-opacity="1" fill-rule="nonzero"></path><path fill="#170aa3" d="M 104.820312 447.046875 C 103.976562 447.046875 103.136719 446.6875 102.554688 445.988281 C 101.515625 444.742188 101.6875 442.886719 102.933594 441.847656 L 115.371094 431.496094 L 102.933594 421.148438 C 101.6875 420.109375 101.515625 418.253906 102.554688 417.003906 C 103.59375 415.757812 105.449219 415.585938 106.699219 416.625 L 121.851562 429.234375 C 122.523438 429.796875 122.910156 430.625 122.910156 431.496094 C 122.910156 432.371094 122.523438 433.199219 121.851562 433.757812 L 106.699219 446.367188 C 106.148438 446.824219 105.480469 447.046875 104.820312 447.046875 Z M 104.820312 447.046875 " fill-opacity="1" fill-rule="nonzero"></path><path fill="#ffffff" d="M 75.460938 418.886719 L 60.308594 431.496094 L 75.460938 444.109375 Z M 75.460938 418.886719 " fill-opacity="1" fill-rule="nonzero"></path><path fill="#170aa3" d="M 75.460938 447.046875 C 74.796875 447.046875 74.128906 446.824219 73.582031 446.367188 L 58.429688 433.757812 C 57.757812 433.199219 57.367188 432.371094 57.367188 431.496094 C 57.367188 430.625 57.757812 429.796875 58.429688 429.234375 L 73.582031 416.625 C 74.828125 415.585938 76.683594 415.757812 77.722656 417.003906 C 78.761719 418.253906 78.59375 420.109375 77.34375 421.148438 L 64.90625 431.496094 L 77.34375 441.847656 C 78.59375 442.886719 78.761719 444.742188 77.722656 445.988281 C 77.140625 446.6875 76.304688 447.046875 75.460938 447.046875 Z M 75.460938 447.046875 " fill-opacity="1" fill-rule="nonzero"></path><path fill="#170aa3" d="M 85.421875 451.625 C 85.191406 451.625 84.957031 451.597656 84.722656 451.542969 C 83.144531 451.15625 82.175781 449.5625 82.5625 447.984375 L 90.933594 413.757812 C 91.320312 412.183594 92.910156 411.214844 94.488281 411.601562 C 96.066406 411.988281 97.035156 413.578125 96.648438 415.15625 L 88.277344 449.382812 C 87.949219 450.726562 86.746094 451.625 85.421875 451.625 Z M 85.421875 451.625 " fill-opacity="1" fill-rule="nonzero"></path><path fill="#ffffff" d="M 105.191406 478.199219 L 120.34375 490.808594 L 105.191406 503.417969 Z M 105.191406 478.199219 " fill-opacity="1" fill-rule="nonzero"></path><path fill="#170aa3" d="M 105.195312 506.359375 C 104.351562 506.359375 103.511719 506 102.929688 505.300781 C 101.890625 504.050781 102.0625 502.199219 103.3125 501.160156 L 115.746094 490.808594 L 103.3125 480.460938 C 102.0625 479.421875 101.890625 477.566406 102.929688 476.316406 C 103.96875 475.070312 105.824219 474.898438 107.074219 475.9375 L 122.226562 488.546875 C 122.898438 489.105469 123.285156 489.933594 123.285156 490.808594 C 123.285156 491.683594 122.898438 492.511719 122.226562 493.070312 L 107.074219 505.679688 C 106.523438 506.136719 105.855469 506.359375 105.195312 506.359375 Z M 105.195312 506.359375 " fill-opacity="1" fill-rule="nonzero"></path><path fill="#ffffff" d="M 75.839844 478.199219 L 60.683594 490.808594 L 75.839844 503.417969 Z M 75.839844 478.199219 " fill-opacity="1" fill-rule="nonzero"></path><path fill="#170aa3" d="M 75.835938 506.359375 C 75.171875 506.359375 74.507812 506.136719 73.957031 505.679688 L 58.804688 493.070312 C 58.132812 492.511719 57.742188 491.683594 57.742188 490.808594 C 57.742188 489.933594 58.132812 489.105469 58.804688 488.546875 L 73.957031 475.9375 C 75.203125 474.898438 77.058594 475.070312 78.097656 476.316406 C 79.136719 477.566406 78.96875 479.421875 77.71875 480.460938 L 65.28125 490.808594 L 77.71875 501.160156 C 78.96875 502.199219 79.136719 504.050781 78.097656 505.300781 C 77.515625 506 76.679688 506.359375 75.835938 506.359375 Z M 75.835938 506.359375 " fill-opacity="1" fill-rule="nonzero"></path><path fill="#170aa3" d="M 85.796875 510.9375 C 85.566406 510.9375 85.332031 510.910156 85.097656 510.851562 C 83.519531 510.46875 82.554688 508.875 82.9375 507.296875 L 91.308594 473.070312 C 91.695312 471.492188 93.285156 470.527344 94.863281 470.914062 C 96.441406 471.300781 97.410156 472.890625 97.023438 474.46875 L 88.652344 508.695312 C 88.324219 510.039062 87.121094 510.9375 85.796875 510.9375 Z M 85.796875 510.9375 " fill-opacity="1" fill-rule="nonzero"></path><path fill="#170aa3" d="M 268.277344 434.511719 L 145.851562 434.511719 C 144.226562 434.511719 142.910156 433.195312 142.910156 431.570312 C 142.910156 429.945312 144.226562 428.628906 145.851562 428.628906 L 268.277344 428.628906 C 269.902344 428.628906 271.21875 429.945312 271.21875 431.570312 C 271.21875 433.195312 269.902344 434.511719 268.277344 434.511719 Z M 268.277344 434.511719 " fill-opacity="1" fill-rule="nonzero"></path><path fill="#170aa3" d="M 216.960938 493.824219 L 145.851562 493.824219 C 144.226562 493.824219 142.910156 492.507812 142.910156 490.882812 C 142.910156 489.257812 144.226562 487.941406 145.851562 487.941406 L 216.960938 487.941406 C 218.585938 487.941406 219.902344 489.257812 219.902344 490.882812 C 219.902344 492.507812 218.585938 493.824219 216.960938 493.824219 Z M 216.960938 493.824219 " fill-opacity="1" fill-rule="nonzero"></path><path fill="#170aa3" d="M 224.355469 592.671875 L 112.65625 592.671875 C 111.03125 592.671875 109.714844 591.355469 109.714844 589.730469 C 109.714844 588.105469 111.03125 586.789062 112.65625 586.789062 L 224.355469 586.789062 C 225.980469 586.789062 227.296875 588.105469 227.296875 589.730469 C 227.296875 591.355469 225.980469 592.671875 224.355469 592.671875 Z M 224.355469 592.671875 " fill-opacity="1" fill-rule="nonzero"></path><path fill="#ffcc59" d="M 308.390625 532.503906 C 308.390625 531.40625 308.332031 530.324219 308.226562 529.257812 C 308.03125 527.25 309.09375 525.332031 310.835938 524.324219 L 317.683594 520.371094 C 320.191406 518.921875 321.050781 515.714844 319.601562 513.207031 L 313.128906 501.996094 C 311.679688 499.488281 308.472656 498.628906 305.964844 500.074219 L 299.097656 504.039062 C 297.304688 505.074219 295.09375 504.921875 293.398438 503.734375 C 291.722656 502.5625 289.941406 501.535156 288.070312 500.664062 C 286.191406 499.789062 284.953125 497.949219 284.953125 495.878906 L 284.953125 487.945312 C 284.953125 485.046875 282.605469 482.699219 279.707031 482.699219 L 266.761719 482.699219 C 263.863281 482.699219 261.515625 485.046875 261.515625 487.945312 L 261.515625 495.878906 C 261.515625 497.949219 260.28125 499.789062 258.402344 500.664062 C 256.53125 501.535156 254.746094 502.5625 253.074219 503.734375 C 251.375 504.921875 249.164062 505.074219 247.371094 504.039062 L 240.507812 500.074219 C 237.996094 498.628906 234.789062 499.488281 233.34375 501.996094 L 226.867188 513.207031 C 225.417969 515.714844 226.28125 518.921875 228.789062 520.371094 L 235.632812 524.324219 C 237.378906 525.332031 238.4375 527.25 238.242188 529.257812 C 238.136719 530.324219 238.082031 531.40625 238.082031 532.503906 C 238.082031 533.597656 238.136719 534.679688 238.242188 535.75 C 238.4375 537.753906 237.378906 539.671875 235.632812 540.679688 L 228.789062 544.632812 C 226.28125 546.082031 225.421875 549.289062 226.867188 551.796875 L 233.34375 563.011719 C 234.789062 565.519531 237.996094 566.378906 240.507812 564.929688 L 247.371094 560.964844 C 249.164062 559.929688 251.375 560.082031 253.074219 561.273438 C 254.746094 562.445312 256.53125 563.472656 258.402344 564.34375 C 260.28125 565.214844 261.515625 567.054688 261.515625 569.128906 L 261.515625 577.0625 C 261.515625 579.957031 263.863281 582.304688 266.761719 582.304688 L 279.707031 582.304688 C 282.605469 582.304688 284.953125 579.957031 284.953125 577.0625 L 284.953125 569.128906 C 284.953125 567.054688 286.191406 565.214844 288.070312 564.34375 C 289.941406 563.472656 291.722656 562.445312 293.398438 561.273438 C 295.09375 560.082031 297.304688 559.929688 299.097656 560.964844 L 305.964844 564.929688 C 308.472656 566.378906 311.679688 565.519531 313.128906 563.011719 L 319.601562 551.796875 C 321.050781 549.289062 320.191406 546.082031 317.683594 544.632812 L 310.835938 540.679688 C 309.089844 539.671875 308.03125 537.753906 308.226562 535.75 C 308.332031 534.679688 308.390625 533.597656 308.390625 532.503906 Z M 308.390625 532.503906 " fill-opacity="1" fill-rule="nonzero"></path><path fill="#170aa3" d="M 279.710938 585.246094 L 266.761719 585.246094 C 262.246094 585.246094 258.574219 581.574219 258.574219 577.058594 L 258.574219 569.125 C 258.574219 568.226562 258.035156 567.414062 257.160156 567.007812 C 255.144531 566.070312 253.199219 564.949219 251.386719 563.679688 C 250.597656 563.128906 249.621094 563.0625 248.84375 563.511719 L 241.976562 567.476562 C 238.070312 569.734375 233.050781 568.390625 230.796875 564.480469 L 224.320312 553.265625 C 223.226562 551.375 222.9375 549.167969 223.503906 547.054688 C 224.070312 544.945312 225.425781 543.179688 227.316406 542.085938 L 234.164062 538.132812 C 234.945312 537.683594 235.394531 536.859375 235.316406 536.035156 C 235.199219 534.847656 235.140625 533.65625 235.140625 532.503906 C 235.140625 531.347656 235.199219 530.15625 235.316406 528.96875 C 235.394531 528.144531 234.945312 527.320312 234.164062 526.871094 L 227.316406 522.917969 C 225.425781 521.824219 224.070312 520.058594 223.503906 517.949219 C 222.9375 515.835938 223.226562 513.628906 224.320312 511.738281 L 230.796875 500.523438 C 233.050781 496.617188 238.070312 495.269531 241.976562 497.527344 L 248.84375 501.492188 C 249.621094 501.941406 250.597656 501.875 251.386719 501.324219 C 253.203125 500.054688 255.144531 498.933594 257.160156 497.996094 C 258.035156 497.589844 258.578125 496.777344 258.578125 495.878906 L 258.578125 487.945312 C 258.578125 483.429688 262.25 479.757812 266.761719 479.757812 L 279.710938 479.757812 C 284.222656 479.757812 287.894531 483.429688 287.894531 487.945312 L 287.894531 495.878906 C 287.894531 496.777344 288.4375 497.589844 289.308594 497.996094 C 291.324219 498.933594 293.269531 500.054688 295.085938 501.324219 C 295.875 501.878906 296.847656 501.941406 297.628906 501.492188 L 304.492188 497.527344 C 308.402344 495.269531 313.417969 496.617188 315.675781 500.523438 L 322.148438 511.738281 C 323.242188 513.628906 323.53125 515.835938 322.964844 517.949219 C 322.402344 520.058594 321.046875 521.824219 319.152344 522.917969 L 312.304688 526.871094 C 311.527344 527.320312 311.074219 528.144531 311.15625 528.96875 C 311.273438 530.15625 311.332031 531.347656 311.332031 532.503906 C 311.332031 533.660156 311.273438 534.847656 311.15625 536.035156 C 311.074219 536.859375 311.527344 537.683594 312.304688 538.132812 L 319.152344 542.085938 C 321.046875 543.179688 322.402344 544.945312 322.964844 547.054688 C 323.53125 549.167969 323.242188 551.375 322.148438 553.269531 L 315.675781 564.480469 C 313.417969 568.390625 308.402344 569.734375 304.492188 567.476562 L 297.628906 563.511719 C 296.851562 563.0625 295.875 563.128906 295.085938 563.679688 C 293.269531 564.949219 291.328125 566.070312 289.308594 567.007812 C 288.4375 567.414062 287.894531 568.226562 287.894531 569.128906 L 287.894531 577.058594 C 287.894531 581.574219 284.222656 585.246094 279.710938 585.246094 Z M 249.949219 557.34375 C 251.632812 557.34375 253.320312 557.855469 254.761719 558.863281 C 256.292969 559.933594 257.933594 560.882812 259.640625 561.675781 C 262.566406 563.035156 264.457031 565.960938 264.457031 569.125 L 264.457031 577.058594 C 264.457031 578.332031 265.492188 579.363281 266.761719 579.363281 L 279.710938 579.363281 C 280.980469 579.363281 282.011719 578.332031 282.011719 577.058594 L 282.011719 569.125 C 282.011719 565.960938 283.902344 563.035156 286.828125 561.675781 C 288.535156 560.882812 290.179688 559.933594 291.710938 558.863281 C 294.355469 557.011719 297.832031 556.835938 300.570312 558.417969 L 307.433594 562.382812 C 308.535156 563.015625 309.945312 562.640625 310.582031 561.539062 L 317.054688 550.328125 C 317.363281 549.792969 317.445312 549.171875 317.285156 548.578125 C 317.125 547.984375 316.746094 547.488281 316.210938 547.179688 L 309.367188 543.226562 C 306.589844 541.625 304.996094 538.578125 305.300781 535.460938 C 305.398438 534.464844 305.449219 533.46875 305.449219 532.503906 C 305.449219 531.535156 305.398438 530.539062 305.300781 529.542969 C 304.996094 526.425781 306.589844 523.378906 309.367188 521.777344 L 316.210938 517.824219 C 316.746094 517.515625 317.125 517.019531 317.285156 516.425781 C 317.445312 515.832031 317.363281 515.210938 317.054688 514.679688 L 310.582031 503.464844 C 310.273438 502.933594 309.777344 502.550781 309.183594 502.390625 C 308.585938 502.234375 307.96875 502.316406 307.433594 502.621094 L 300.570312 506.585938 C 297.832031 508.167969 294.355469 507.992188 291.710938 506.144531 C 290.175781 505.070312 288.535156 504.121094 286.828125 503.328125 C 283.902344 501.96875 282.011719 499.042969 282.011719 495.878906 L 282.011719 487.945312 C 282.011719 486.675781 280.980469 485.640625 279.710938 485.640625 L 266.761719 485.640625 C 265.492188 485.640625 264.457031 486.675781 264.457031 487.945312 L 264.457031 495.878906 C 264.457031 499.042969 262.566406 501.96875 259.640625 503.328125 C 257.9375 504.121094 256.292969 505.070312 254.757812 506.144531 C 252.117188 507.992188 248.640625 508.167969 245.898438 506.585938 L 239.035156 502.621094 C 238.503906 502.3125 237.882812 502.234375 237.289062 502.390625 C 236.695312 502.550781 236.195312 502.933594 235.890625 503.464844 L 229.414062 514.679688 C 229.109375 515.210938 229.027344 515.832031 229.1875 516.425781 C 229.34375 517.019531 229.726562 517.515625 230.257812 517.824219 L 237.105469 521.777344 C 239.878906 523.378906 241.476562 526.425781 241.167969 529.542969 C 241.070312 530.539062 241.023438 531.535156 241.023438 532.503906 C 241.023438 533.46875 241.070312 534.464844 241.167969 535.460938 C 241.476562 538.578125 239.878906 541.625 237.105469 543.226562 L 230.257812 547.179688 C 229.726562 547.488281 229.34375 547.984375 229.1875 548.578125 C 229.027344 549.171875 229.109375 549.792969 229.414062 550.328125 L 235.890625 561.539062 C 236.195312 562.070312 236.695312 562.453125 237.289062 562.613281 C 237.882812 562.773438 238.503906 562.691406 239.035156 562.382812 L 245.902344 558.417969 C 247.148438 557.699219 248.546875 557.34375 249.949219 557.34375 Z M 249.949219 557.34375 " fill-opacity="1" fill-rule="nonzero"></path><path fill="#ffffff" d="M 288.34375 532.503906 C 288.34375 533.496094 288.246094 534.476562 288.050781 535.449219 C 287.859375 536.421875 287.574219 537.367188 287.191406 538.285156 C 286.8125 539.199219 286.347656 540.070312 285.796875 540.894531 C 285.246094 541.71875 284.621094 542.484375 283.917969 543.183594 C 283.214844 543.886719 282.453125 544.511719 281.628906 545.0625 C 280.804688 545.613281 279.933594 546.082031 279.015625 546.460938 C 278.101562 546.839844 277.15625 547.125 276.183594 547.320312 C 275.210938 547.511719 274.226562 547.609375 273.234375 547.609375 C 272.242188 547.609375 271.261719 547.511719 270.289062 547.320312 C 269.316406 547.125 268.371094 546.839844 267.453125 546.460938 C 266.539062 546.082031 265.667969 545.613281 264.84375 545.0625 C 264.015625 544.511719 263.253906 543.886719 262.554688 543.183594 C 261.851562 542.484375 261.226562 541.71875 260.675781 540.894531 C 260.125 540.070312 259.65625 539.199219 259.277344 538.285156 C 258.898438 537.367188 258.613281 536.421875 258.417969 535.449219 C 258.226562 534.476562 258.128906 533.496094 258.128906 532.503906 C 258.128906 531.511719 258.226562 530.527344 258.417969 529.554688 C 258.613281 528.582031 258.898438 527.636719 259.277344 526.722656 C 259.65625 525.804688 260.125 524.933594 260.675781 524.109375 C 261.226562 523.285156 261.851562 522.523438 262.554688 521.820312 C 263.253906 521.117188 264.019531 520.492188 264.84375 519.941406 C 265.667969 519.390625 266.539062 518.925781 267.453125 518.546875 C 268.371094 518.164062 269.316406 517.878906 270.289062 517.6875 C 271.261719 517.492188 272.242188 517.394531 273.234375 517.394531 C 274.226562 517.394531 275.210938 517.492188 276.183594 517.6875 C 277.15625 517.878906 278.101562 518.164062 279.015625 518.546875 C 279.933594 518.925781 280.804688 519.390625 281.628906 519.941406 C 282.453125 520.492188 283.214844 521.117188 283.917969 521.820312 C 284.621094 522.523438 285.246094 523.285156 285.796875 524.109375 C 286.347656 524.933594 286.8125 525.804688 287.191406 526.722656 C 287.574219 527.636719 287.859375 528.582031 288.050781 529.554688 C 288.246094 530.527344 288.34375 531.511719 288.34375 532.503906 Z M 288.34375 532.503906 " fill-opacity="1" fill-rule="nonzero"></path><path fill="#170aa3" d="M 273.234375 550.550781 C 263.285156 550.550781 255.1875 542.453125 255.1875 532.503906 C 255.1875 522.550781 263.285156 514.453125 273.234375 514.453125 C 283.1875 514.453125 291.285156 522.550781 291.285156 532.503906 C 291.285156 542.453125 283.1875 550.550781 273.234375 550.550781 Z M 273.234375 520.335938 C 266.527344 520.335938 261.070312 525.792969 261.070312 532.503906 C 261.070312 539.210938 266.527344 544.667969 273.234375 544.667969 C 279.945312 544.667969 285.402344 539.210938 285.402344 532.503906 C 285.402344 525.792969 279.945312 520.335938 273.234375 520.335938 Z M 273.234375 520.335938 " fill-opacity="1" fill-rule="nonzero"></path></svg>