<svg xmlns="http://www.w3.org/2000/svg" xmlns:xlink="http://www.w3.org/1999/xlink" width="800" viewBox="0 0 600 599.999999" height="800" preserveAspectRatio="xMidYMid meet"><defs><clipPath id="d6aea60d55"><path d="M 35 35.25 L 482 35.25 L 482 542 L 35 542 Z M 35 35.25 " clip-rule="nonzero"></path></clipPath><clipPath id="e3ee60abaf"><path d="M 342 464 L 600 464 L 600 564.75 L 342 564.75 Z M 342 464 " clip-rule="nonzero"></path></clipPath></defs><g clip-path="url(#d6aea60d55)"><path fill="#36ab9c" d="M 479.566406 111.386719 C 316.90625 111.386719 258.230469 35.324219 258.203125 35.289062 L 258.203125 35.28125 L 258.203125 35.289062 L 258.203125 35.28125 L 258.203125 35.289062 C 258.179688 35.324219 199.503906 111.386719 36.847656 111.386719 C 36.847656 111.386719 0.171875 472.546875 258.203125 541.28125 C 516.234375 472.546875 479.566406 111.386719 479.566406 111.386719 " fill-opacity="1" fill-rule="nonzero"></path></g><path fill="#266d68" d="M 452.753906 130.226562 C 309.796875 130.226562 258.230469 63.371094 258.203125 63.34375 C 258.179688 63.371094 206.617188 130.226562 63.65625 130.226562 C 63.65625 130.226562 31.4375 452.820312 258.203125 513.226562 C 484.984375 452.820312 452.753906 130.226562 452.753906 130.226562 " fill-opacity="1" fill-rule="nonzero"></path><path fill="#e0d6ee" d="M 37.070312 111.386719 C 37.078125 111.386719 37.085938 111.386719 37.09375 111.386719 C 37.085938 111.386719 37.078125 111.386719 37.070312 111.386719 M 37.300781 111.386719 C 37.316406 111.386719 37.324219 111.386719 37.332031 111.386719 C 37.324219 111.386719 37.308594 111.386719 37.300781 111.386719 M 37.542969 111.386719 C 37.554688 111.386719 37.5625 111.386719 37.585938 111.386719 C 37.5625 111.386719 37.554688 111.386719 37.542969 111.386719 M 37.78125 111.386719 C 37.792969 111.386719 37.808594 111.386719 37.824219 111.386719 C 37.800781 111.386719 37.792969 111.386719 37.78125 111.386719 M 38.019531 111.386719 C 38.035156 111.386719 38.046875 111.386719 38.0625 111.386719 C 38.054688 111.386719 38.035156 111.386719 38.019531 111.386719 M 38.25 111.386719 C 38.265625 111.386719 38.289062 111.386719 38.300781 111.386719 C 38.28125 111.386719 38.265625 111.386719 38.25 111.386719 M 38.476562 111.382812 C 38.488281 111.382812 38.511719 111.382812 38.527344 111.382812 C 38.503906 111.382812 38.496094 111.382812 38.476562 111.382812 M 38.707031 111.382812 C 38.730469 111.382812 38.75 111.382812 38.78125 111.382812 C 38.757812 111.382812 38.722656 111.382812 38.707031 111.382812 M 38.945312 111.382812 C 38.976562 111.382812 38.996094 111.382812 39.019531 111.382812 C 38.996094 111.382812 38.96875 111.382812 38.945312 111.382812 M 39.183594 111.382812 C 39.214844 111.382812 39.242188 111.382812 39.273438 111.382812 C 39.242188 111.382812 39.214844 111.382812 39.183594 111.382812 M 39.410156 111.382812 C 39.445312 111.382812 39.488281 111.382812 39.527344 111.382812 C 39.488281 111.382812 39.445312 111.382812 39.410156 111.382812 M 39.605469 111.382812 C 39.664062 111.382812 39.730469 111.382812 39.785156 111.382812 C 39.730469 111.382812 39.664062 111.382812 39.605469 111.382812 M 39.84375 111.382812 C 82.738281 111.128906 118.292969 105.574219 147.382812 97.554688 C 147.382812 97.5625 147.382812 97.5625 147.390625 97.570312 C 118.296875 105.578125 82.738281 111.128906 39.84375 111.382812 " fill-opacity="1" fill-rule="nonzero"></path><path fill="#359995" d="M 258.203125 541.28125 C 57.3125 487.769531 35.058594 257 35.050781 157.417969 C 35.050781 129.09375 36.847656 111.386719 36.847656 111.386719 C 36.917969 111.386719 37 111.386719 37.070312 111.386719 C 37.078125 111.386719 37.085938 111.386719 37.09375 111.386719 C 37.164062 111.386719 37.230469 111.386719 37.300781 111.386719 C 37.308594 111.386719 37.324219 111.386719 37.332031 111.386719 C 37.402344 111.386719 37.46875 111.386719 37.542969 111.386719 C 37.554688 111.386719 37.5625 111.386719 37.585938 111.386719 C 37.648438 111.386719 37.707031 111.386719 37.78125 111.386719 C 37.792969 111.386719 37.800781 111.386719 37.824219 111.386719 C 37.890625 111.386719 37.960938 111.386719 38.019531 111.386719 C 38.035156 111.386719 38.054688 111.386719 38.0625 111.386719 C 38.128906 111.386719 38.1875 111.386719 38.25 111.386719 C 38.265625 111.386719 38.28125 111.386719 38.300781 111.386719 C 38.359375 111.386719 38.417969 111.382812 38.476562 111.382812 C 38.496094 111.382812 38.503906 111.382812 38.527344 111.382812 C 38.585938 111.382812 38.640625 111.382812 38.707031 111.382812 C 38.722656 111.382812 38.757812 111.382812 38.78125 111.382812 C 38.832031 111.382812 38.894531 111.382812 38.945312 111.382812 C 38.96875 111.382812 38.996094 111.382812 39.019531 111.382812 C 39.070312 111.382812 39.128906 111.382812 39.183594 111.382812 C 39.214844 111.382812 39.242188 111.382812 39.273438 111.382812 C 39.316406 111.382812 39.367188 111.382812 39.410156 111.382812 C 39.445312 111.382812 39.488281 111.382812 39.527344 111.382812 C 39.554688 111.382812 39.578125 111.382812 39.605469 111.382812 C 39.664062 111.382812 39.730469 111.382812 39.785156 111.382812 C 39.808594 111.382812 39.824219 111.382812 39.84375 111.382812 C 82.738281 111.128906 118.296875 105.578125 147.390625 97.570312 C 152.257812 104.304688 157.136719 111.035156 162.035156 117.746094 C 135.652344 125.125 103.140625 130.226562 63.65625 130.226562 C 63.65625 130.226562 31.4375 452.820312 258.203125 513.226562 C 315.855469 497.867188 356.753906 465.582031 385.714844 425.945312 C 390.53125 432.996094 395.316406 440.074219 400.078125 447.164062 C 367.398438 489.667969 321.867188 524.234375 258.578125 541.179688 C 258.449219 541.21875 258.332031 541.253906 258.203125 541.28125 " fill-opacity="1" fill-rule="nonzero"></path><path fill="#266364" d="M 258.203125 513.226562 C 31.4375 452.820312 63.65625 130.226562 63.65625 130.226562 C 103.140625 130.226562 135.652344 125.125 162.035156 117.746094 C 222.664062 200.988281 285 283.003906 344.617188 366.972656 C 358.476562 386.496094 372.203125 406.144531 385.714844 425.945312 C 356.753906 465.582031 315.855469 497.867188 258.203125 513.226562 " fill-opacity="1" fill-rule="nonzero"></path><path fill="#ffffff" d="M 248.96875 380.710938 L 154.480469 308.050781 L 164.816406 294.601562 L 259.3125 367.253906 L 248.96875 380.710938 " fill-opacity="1" fill-rule="nonzero"></path><path fill="#ffffff" d="M 248.824219 380.722656 L 399.554688 208.0625 L 386.808594 196.859375 L 236.078125 369.519531 L 248.824219 380.722656 " fill-opacity="1" fill-rule="nonzero"></path><path fill="#616688" d="M 580.761719 349.003906 L 361.539062 349.003906 L 361.539062 315.464844 L 580.761719 315.464844 L 580.761719 349.003906 " fill-opacity="1" fill-rule="nonzero"></path><path fill="#b7b2c5" d="M 353.34375 321.578125 C 347.257812 321.578125 342.3125 316.636719 342.3125 310.546875 L 342.3125 232.347656 C 342.3125 226.269531 347.257812 221.316406 353.34375 221.316406 L 588.960938 221.316406 C 595.042969 221.316406 599.988281 226.269531 599.988281 232.347656 L 599.988281 310.546875 C 599.988281 316.636719 595.042969 321.578125 588.960938 321.578125 L 353.34375 321.578125 " fill-opacity="1" fill-rule="nonzero"></path><path fill="#aaa5b6" d="M 595.390625 310.546875 L 595.390625 293.804688 C 588.84375 297.351562 581.339844 299.664062 573.433594 300.667969 C 523.292969 307.070312 450.214844 316.832031 403.84375 290.675781 C 381.398438 278.007812 381.8125 263.210938 377.980469 225.921875 L 353.34375 225.921875 C 349.792969 225.921875 346.917969 228.796875 346.917969 232.347656 L 346.917969 310.546875 C 346.917969 314.097656 349.792969 316.976562 353.34375 316.976562 L 588.960938 316.976562 C 592.507812 316.976562 595.390625 314.097656 595.390625 310.546875 " fill-opacity="1" fill-rule="nonzero"></path><path fill="#616688" d="M 580.761719 470.570312 L 361.539062 470.570312 L 361.539062 437.023438 L 580.761719 437.023438 L 580.761719 470.570312 " fill-opacity="1" fill-rule="nonzero"></path><path fill="#b7b2c5" d="M 353.34375 443.152344 C 347.257812 443.152344 342.3125 438.203125 342.3125 432.121094 L 342.3125 353.921875 C 342.3125 347.835938 347.257812 342.890625 353.34375 342.890625 L 588.960938 342.890625 C 595.042969 342.890625 599.988281 347.835938 599.988281 353.921875 L 599.988281 432.121094 C 599.988281 438.203125 595.042969 443.152344 588.960938 443.152344 L 353.34375 443.152344 " fill-opacity="1" fill-rule="nonzero"></path><path fill="#aaa5b6" d="M 595.390625 432.121094 L 595.390625 415.378906 C 588.84375 418.917969 581.339844 421.230469 573.433594 422.234375 C 523.292969 428.644531 450.214844 438.402344 403.84375 412.242188 C 381.398438 399.582031 381.8125 384.773438 377.980469 347.496094 L 353.34375 347.496094 C 349.792969 347.496094 346.917969 350.371094 346.917969 353.921875 L 346.917969 432.121094 C 346.917969 435.671875 349.792969 438.546875 353.34375 438.546875 L 588.960938 438.546875 C 592.507812 438.546875 595.390625 435.671875 595.390625 432.121094 " fill-opacity="1" fill-rule="nonzero"></path><g clip-path="url(#e3ee60abaf)"><path fill="#b7b2c5" d="M 353.34375 564.71875 C 347.257812 564.71875 342.3125 559.765625 342.3125 553.6875 L 342.3125 475.480469 C 342.3125 469.402344 347.257812 464.464844 353.34375 464.464844 L 588.960938 464.464844 C 595.042969 464.464844 599.988281 469.402344 599.988281 475.480469 L 599.988281 553.6875 C 599.988281 559.765625 595.042969 564.71875 588.960938 564.71875 L 353.34375 564.71875 " fill-opacity="1" fill-rule="nonzero"></path></g><path fill="#aaa5b6" d="M 595.390625 553.6875 L 595.390625 536.953125 C 588.84375 540.492188 581.339844 542.796875 573.433594 543.808594 C 523.292969 550.210938 450.214844 559.972656 403.84375 533.808594 C 381.398438 521.148438 381.8125 506.347656 377.980469 469.0625 L 353.34375 469.0625 C 349.792969 469.0625 346.917969 471.929688 346.917969 475.480469 L 346.917969 553.6875 C 346.917969 557.238281 349.792969 560.113281 353.34375 560.113281 L 588.960938 560.113281 C 592.507812 560.113281 595.390625 557.238281 595.390625 553.6875 " fill-opacity="1" fill-rule="nonzero"></path></svg>