<svg xmlns="http://www.w3.org/2000/svg" xmlns:xlink="http://www.w3.org/1999/xlink" width="800" viewBox="0 0 600 599.999999" height="800" preserveAspectRatio="xMidYMid meet"><defs><clipPath id="7f04dfc23d"><path d="M 418 0 L 597.375 0 L 597.375 223 L 418 223 Z M 418 0 " clip-rule="nonzero"></path></clipPath><clipPath id="20ff77e30b"><path d="M 2.625 411 L 251 411 L 251 586 L 2.625 586 Z M 2.625 411 " clip-rule="nonzero"></path></clipPath></defs><path fill="#00a651" d="M 220.957031 0 C 234.972656 5.429688 248.972656 10.90625 263.011719 16.277344 C 271.503906 19.53125 280.117188 22.488281 288.578125 25.824219 C 303.320312 31.636719 305.921875 47.636719 293.734375 57.792969 C 276.589844 72.089844 259.308594 86.21875 242.125 100.476562 C 227.667969 112.472656 213.191406 107.453125 209.523438 89.097656 C 209.335938 88.160156 209.203125 87.222656 208.847656 85.074219 C 200.398438 89.496094 192.328125 93.507812 184.472656 97.886719 C 176.167969 102.507812 171.40625 102.402344 168.304688 97.007812 C 165.226562 91.671875 167.277344 87.058594 175.765625 82.636719 C 187.265625 76.648438 198.921875 70.964844 210.738281 65.589844 C 218.257812 62.164062 223.039062 64.917969 224.765625 73.003906 C 225.847656 78.066406 226.640625 83.183594 227.769531 89.378906 L 283.933594 42.972656 L 215.816406 17.550781 C 216.566406 22.859375 217.03125 27.195312 217.8125 31.476562 C 219.8125 42.433594 218.660156 44.308594 208.21875 48.429688 C 129.644531 79.453125 75.761719 134.484375 48.179688 214.476562 C 35.289062 251.875 31.6875 290.488281 36.640625 329.8125 C 37.402344 335.871094 41.050781 339.355469 45.882812 338.816406 C 50.785156 338.273438 53.503906 334.390625 53.304688 328.203125 C 52.867188 314.445312 51.589844 300.648438 52.132812 286.929688 C 54.453125 228.808594 75.324219 177.886719 113.40625 134.046875 C 119.878906 126.59375 127.164062 119.820312 134.261719 112.925781 C 140.09375 107.253906 145.496094 106.664062 149.386719 110.839844 C 153.652344 115.421875 152.578125 120.042969 145.898438 126.113281 C 113.238281 155.796875 90.523438 191.722656 78.257812 234.15625 C 69.46875 264.5625 67.386719 295.527344 70.992188 326.917969 C 72.644531 341.332031 62.96875 354.234375 48.90625 356.289062 C 34.609375 358.378906 21.125 348.507812 19.375 333.859375 C 10.171875 256.460938 28.960938 186.460938 76.324219 124.539062 C 107.667969 83.566406 147.867188 53.855469 195.566406 34.253906 C 196.640625 33.8125 197.707031 33.351562 198.757812 32.847656 C 199.085938 32.695312 199.355469 32.402344 200.234375 31.71875 C 196.214844 19.0625 196.183594 7.109375 210.476562 -0.0078125 Z M 220.957031 0 " fill-opacity="1" fill-rule="nonzero"></path><g clip-path="url(#7f04dfc23d)"><path fill="#f58e81" d="M 579.832031 0 C 582.949219 1.847656 586.359375 3.347656 589.125 5.625 C 594.648438 10.175781 597.300781 16.25 597.300781 23.5 C 597.273438 81.925781 597.257812 140.347656 597.253906 198.773438 C 597.242188 211.96875 587.394531 222 574.199219 222.351562 C 565.664062 222.585938 557.117188 222.496094 548.574219 222.351562 C 542.410156 222.253906 538.625 218.601562 538.730469 213.269531 C 538.839844 208.050781 542.246094 204.886719 548.425781 204.757812 C 556.1875 204.585938 563.957031 204.785156 571.722656 204.667969 C 577.898438 204.570312 579.792969 202.722656 579.796875 196.632812 C 579.835938 139.566406 579.835938 82.5 579.796875 25.433594 C 579.796875 19.539062 577.640625 17.492188 571.617188 17.464844 C 557.25 17.398438 542.882812 17.339844 528.519531 17.484375 C 518.65625 17.582031 513.015625 23.085938 512.816406 33.039062 C 512.5625 44.871094 512.816406 56.710938 512.714844 68.558594 C 512.570312 85.230469 503.320312 94.316406 486.613281 94.335938 C 475.363281 94.335938 464.09375 94.308594 452.835938 94.335938 C 441.691406 94.375 436.054688 99.574219 436.003906 110.484375 C 435.867188 139.207031 435.917969 167.9375 435.984375 196.664062 C 436 203.160156 437.648438 204.648438 444.539062 204.667969 C 463.371094 204.726562 482.199219 204.6875 501.023438 204.691406 C 502.769531 204.691406 504.523438 204.640625 506.261719 204.757812 C 511.695312 205.125 515.402344 208.585938 515.503906 213.296875 C 515.613281 218.175781 511.644531 222.1875 506.039062 222.320312 C 497.890625 222.515625 489.734375 222.378906 481.578125 222.382812 C 468.574219 222.382812 455.566406 222.46875 442.558594 222.355469 C 428.398438 222.238281 418.203125 212.355469 418.125 198.21875 C 417.953125 166.96875 417.957031 135.71875 418.144531 104.472656 C 418.25 89.953125 423.300781 77.082031 433.582031 66.660156 C 450.621094 49.386719 467.867188 32.316406 485.015625 15.152344 C 493.242188 6.917969 503.667969 2.980469 514.582031 -0.0078125 Z M 494.878906 33.578125 L 451.175781 76.90625 C 462.710938 76.90625 475.316406 76.9375 487.929688 76.882812 C 491.582031 76.867188 494.753906 75.53125 494.8125 71.394531 C 494.992188 58.253906 494.878906 45.128906 494.878906 33.578125 Z M 494.878906 33.578125 " fill-opacity="1" fill-rule="nonzero"></path></g><path fill="#00a651" d="M 402.683594 564.25 C 403.429688 568.382812 404.164062 571.984375 404.714844 575.613281 C 406.730469 588.925781 394.324219 600.003906 381.609375 595.519531 C 358.425781 587.351562 335.378906 578.773438 312.472656 569.796875 C 299.902344 564.875 297.203125 548.96875 307.433594 540.214844 C 326.011719 524.320312 344.867188 508.746094 364.003906 493.5 C 374.714844 484.960938 388.910156 490.335938 392.3125 503.578125 C 392.886719 505.8125 393.328125 508.078125 393.953125 510.886719 C 396.0625 509.980469 398.027344 509.246094 399.890625 508.324219 C 472.542969 472.324219 516.121094 414.441406 530.628906 334.675781 C 534.503906 313.183594 534.1875 291.414062 531.847656 269.695312 C 530.234375 254.726562 540.097656 241.882812 554.367188 240.175781 C 568.636719 238.46875 581.554688 248.035156 583.371094 262.582031 C 590.941406 322.886719 580.671875 380.09375 551.574219 433.476562 C 518.671875 493.835938 469.667969 536.484375 406.207031 562.675781 C 405.160156 563.09375 404.128906 563.59375 402.683594 564.25 Z M 387.199219 578.988281 C 386.164062 572.824219 385.414062 568.0625 384.550781 563.324219 C 383.003906 554.804688 384.699219 551.871094 392.933594 548.792969 C 440.203125 531.09375 479.988281 502.824219 510.996094 463.015625 C 555.992188 405.230469 574.242188 339.601562 566.109375 266.75 C 565.421875 260.597656 561.746094 257.199219 556.917969 257.707031 C 551.996094 258.222656 549.257812 262.085938 549.441406 268.265625 C 549.472656 269.4375 549.5 270.609375 549.621094 271.757812 C 552.949219 302.949219 551.105469 333.847656 542.359375 363.96875 C 519.132812 443.785156 468.632812 499.332031 391.871094 531.042969 C 384.277344 534.179688 379.710938 531.511719 377.988281 523.28125 C 376.929688 518.242188 376.113281 513.152344 375.011719 507.144531 L 318.871094 553.535156 Z M 387.199219 578.988281 " fill-opacity="1" fill-rule="nonzero"></path><g clip-path="url(#20ff77e30b)"><path fill="#9990c5" d="M 242.003906 498.769531 C 248.164062 505.886719 250.164062 513.519531 250.007812 522.007812 C 249.804688 533.257812 250.027344 544.527344 249.9375 555.789062 C 249.804688 573.167969 237.652344 585.480469 220.253906 585.6875 C 205.691406 585.859375 191.125 585.765625 176.5625 585.707031 C 169.554688 585.679688 165.207031 582.140625 165.226562 576.726562 C 165.25 571.359375 169.574219 567.835938 176.640625 567.789062 C 190.621094 567.695312 204.605469 567.789062 218.59375 567.746094 C 228.449219 567.710938 232.117188 564.230469 232.222656 554.574219 C 232.347656 543.316406 232.347656 532.054688 232.222656 520.792969 C 232.109375 511.429688 228.363281 507.757812 219.050781 507.753906 C 157.300781 507.726562 95.550781 507.726562 33.800781 507.753906 C 24.640625 507.753906 20.644531 511.707031 20.578125 520.792969 C 20.5 532.050781 20.5 543.3125 20.578125 554.574219 C 20.636719 563.773438 24.527344 567.71875 33.683594 567.734375 C 65.140625 567.785156 96.597656 567.734375 128.054688 567.78125 C 130.558594 567.78125 133.125 567.882812 135.554688 568.425781 C 139.648438 569.332031 141.804688 572.199219 141.957031 576.359375 C 142.117188 580.769531 140.0625 583.875 135.761719 585.058594 C 133.746094 585.609375 131.554688 585.695312 129.433594 585.695312 C 97.78125 585.734375 66.128906 585.742188 34.476562 585.714844 C 14.761719 585.691406 3.105469 573.933594 3.089844 554.160156 C 3.089844 544.648438 3.324219 535.125 3.019531 525.621094 C 2.710938 515.886719 3.488281 506.597656 10.914062 498.765625 C 3.339844 490.839844 2.757812 481.304688 3.027344 471.402344 C 3.304688 461.121094 3.027344 450.824219 3.105469 440.535156 C 3.226562 425.339844 14.078125 413.546875 29.164062 412.15625 C 31.476562 411.945312 33.816406 411.941406 36.144531 411.941406 C 96.339844 411.933594 156.539062 411.933594 216.730469 411.941406 C 238.972656 411.941406 249.949219 422.957031 249.957031 445.222656 C 249.957031 453.960938 249.722656 462.707031 250.019531 471.433594 C 250.355469 481.382812 249.265625 490.816406 242.003906 498.769531 Z M 126.527344 489.824219 C 157.191406 489.824219 187.851562 489.816406 218.511719 489.804688 C 228.53125 489.785156 232.140625 486.136719 232.214844 476.070312 C 232.300781 465.011719 232.328125 453.949219 232.214844 442.890625 C 232.113281 433.464844 228.375 429.75 219.171875 429.746094 C 157.265625 429.726562 95.359375 429.726562 33.457031 429.746094 C 24.753906 429.746094 20.660156 433.804688 20.582031 442.527344 C 20.488281 453.390625 20.542969 464.261719 20.5625 475.125 C 20.582031 486.222656 24.089844 489.800781 35.136719 489.8125 C 65.597656 489.84375 96.058594 489.847656 126.527344 489.824219 Z M 126.527344 489.824219 " fill-opacity="1" fill-rule="nonzero"></path></g><path fill="#ed1c24" d="M 396.679688 296.699219 C 396.679688 298.777344 396.777344 299.199219 396.667969 299.550781 C 393.257812 310.050781 398.777344 316.003906 407.125 320.859375 C 410.78125 322.988281 414.113281 325.78125 417.277344 328.625 C 424.058594 334.714844 425.992188 343.855469 421.8125 351.933594 C 417.636719 360.007812 413.113281 367.957031 408.222656 375.628906 C 403.019531 383.777344 393.402344 386.558594 384.117188 382.960938 C 377.4375 380.382812 370.859375 377.507812 364.371094 374.480469 C 361.558594 373.160156 359.566406 373.433594 357.039062 375.277344 C 352.980469 378.234375 348.796875 381.519531 344.148438 383.011719 C 337.066406 385.289062 335.6875 390.222656 335.167969 396.460938 C 334.683594 402.242188 334.121094 408.0625 332.933594 413.726562 C 330.921875 423.308594 323.847656 429.25 314.058594 429.628906 C 305.722656 429.949219 297.355469 429.945312 289.019531 429.640625 C 277.636719 429.230469 270.210938 421.535156 268.898438 409.46875 C 268.230469 403.304688 267.089844 397.171875 266.804688 390.996094 C 266.636719 387.375 264.832031 386.074219 262.019531 384.707031 C 257.15625 382.332031 252.054688 380.078125 247.902344 376.738281 C 243.578125 373.253906 240.0625 373.300781 235.4375 375.722656 C 230.136719 378.503906 224.507812 380.699219 218.914062 382.863281 C 208.835938 386.769531 199.460938 383.644531 193.769531 374.378906 C 189.503906 367.449219 185.394531 360.410156 181.546875 353.242188 C 176.425781 343.695312 178.523438 334.039062 187.035156 327.289062 C 192.191406 323.1875 197.425781 319.128906 202.910156 315.480469 C 206.515625 313.078125 207.242188 310.367188 206.765625 306.207031 C 206.15625 300.863281 206.257812 295.351562 206.789062 289.988281 C 207.179688 286.09375 206.585938 283.484375 203.125 281.191406 C 197.636719 277.550781 192.433594 273.457031 187.25 269.386719 C 178.476562 262.503906 176.375 252.804688 181.691406 242.988281 C 185.566406 235.835938 189.652344 228.796875 193.953125 221.871094 C 199.511719 212.910156 208.894531 209.742188 218.660156 213.542969 C 225.511719 216.210938 232.113281 219.523438 238.996094 222.109375 C 240.730469 222.761719 243.382812 222.273438 245.121094 221.367188 C 249.742188 218.945312 253.792969 215.125 258.625 213.492188 C 265.59375 211.148438 267.265625 206.460938 267.632812 200.039062 C 267.9375 194.421875 268.628906 188.855469 269.707031 183.332031 C 271.707031 173.351562 278.613281 167.328125 288.734375 166.894531 C 297.066406 166.535156 305.433594 166.546875 313.769531 166.875 C 325.082031 167.324219 332.402344 174.703125 333.808594 186.449219 C 334.59375 192.992188 335.160156 199.570312 336.289062 206.050781 C 336.609375 207.886719 338.214844 209.984375 339.832031 211.015625 C 344.882812 214.234375 350.59375 216.511719 355.332031 220.101562 C 359.347656 223.148438 362.574219 223.183594 366.800781 221.074219 C 372.335938 218.308594 378.082031 215.917969 383.847656 213.667969 C 393.910156 209.726562 403.300781 212.835938 409.011719 222.105469 C 413.28125 229.03125 417.375 236.078125 421.226562 243.246094 C 426.320312 252.722656 424.226562 262.507812 415.785156 269.261719 C 410.785156 273.246094 405.742188 277.246094 400.375 280.707031 C 396.339844 283.316406 395.027344 286.285156 396.234375 290.886719 C 396.851562 293.253906 396.625 295.867188 396.679688 296.699219 Z M 392.714844 229.089844 C 383.050781 233.222656 374.277344 236.792969 365.667969 240.726562 C 360.109375 243.265625 355.78125 242.472656 350.710938 238.785156 C 343.675781 233.652344 336.171875 229.332031 328.195312 225.824219 C 322.144531 223.1875 319.46875 219.480469 318.945312 213.25 C 318.28125 205.335938 317.191406 197.460938 316.398438 189.554688 C 316.050781 186.105469 314.679688 184.359375 310.882812 184.507812 C 304.871094 184.742188 298.832031 184.835938 292.835938 184.480469 C 288.296875 184.210938 286.628906 186.101562 286.253906 190.339844 C 285.550781 198.253906 284.441406 206.128906 283.738281 214.042969 C 283.21875 219.902344 280.332031 223.117188 274.898438 225.65625 C 266.726562 229.46875 258.875 234.167969 251.433594 239.285156 C 246.894531 242.40625 242.925781 243.269531 237.980469 241.054688 C 230.027344 237.5 221.929688 234.257812 214.007812 230.644531 C 211.046875 229.292969 209.449219 229.910156 207.949219 232.652344 C 204.886719 238.265625 201.792969 243.878906 198.328125 249.246094 C 196.199219 252.542969 196.507812 254.53125 199.753906 256.816406 C 206.878906 261.847656 213.6875 267.328125 220.78125 272.40625 C 224.953125 275.394531 225.660156 279.167969 225.421875 284.042969 C 224.941406 293.480469 224.941406 302.917969 225.421875 312.351562 C 225.699219 317.507812 224.71875 321.3125 220.382812 324.390625 C 213.261719 329.4375 206.449219 334.910156 199.355469 339.984375 C 196.566406 341.980469 196.144531 343.734375 198 346.667969 C 201.414062 352.070312 204.621094 357.601562 207.621094 363.261719 C 209.308594 366.4375 211.058594 367.289062 214.492188 365.691406 C 222.214844 362.09375 230.148438 358.949219 237.917969 355.457031 C 242.839844 353.246094 246.824219 354.019531 251.378906 357.152344 C 258.820312 362.269531 266.648438 367.023438 274.839844 370.789062 C 280.5625 373.417969 283.289062 376.910156 283.792969 382.953125 C 284.449219 390.867188 285.554688 398.742188 286.335938 406.648438 C 286.695312 410.324219 288.105469 412.191406 292.191406 411.996094 C 298.195312 411.707031 304.234375 411.6875 310.238281 411.996094 C 314.515625 412.21875 316.125 410.449219 316.488281 406.417969 C 317.191406 398.507812 318.34375 390.632812 319.003906 382.71875 C 319.507812 376.625 322.453125 373.257812 328.144531 370.699219 C 336.089844 367.148438 343.597656 362.828125 350.664062 357.742188 C 355.714844 354.089844 360.039062 353.183594 365.621094 355.738281 C 374.378906 359.734375 383.308594 363.359375 392.695312 367.367188 C 397.171875 359.632812 401.550781 352.335938 405.515625 344.835938 C 406.015625 343.898438 404.769531 341.253906 403.597656 340.328125 C 396.605469 334.792969 389.476562 329.421875 382.222656 324.21875 C 377.867188 321.113281 377.078125 317.28125 377.402344 312.128906 C 377.976562 302.882812 377.976562 293.636719 377.402344 284.390625 C 377.082031 279.25 377.796875 275.402344 382.167969 272.28125 C 389.429688 267.101562 396.546875 261.726562 403.527344 256.15625 C 404.722656 255.195312 405.796875 252.300781 405.21875 251.1875 C 401.402344 243.839844 397.113281 236.726562 392.714844 229.089844 Z M 392.714844 229.089844 " fill-opacity="1" fill-rule="nonzero"></path><path fill="#9990c5" d="M 55.191406 562.894531 C 41.25 562.789062 29.988281 551.503906 30.035156 537.679688 C 30.082031 523.601562 41.546875 512.511719 55.921875 512.636719 C 69.695312 512.757812 81.117188 524.453125 80.816406 538.117188 C 80.800781 538.941406 80.742188 539.761719 80.644531 540.582031 C 80.546875 541.402344 80.410156 542.210938 80.230469 543.019531 C 80.054688 543.824219 79.839844 544.617188 79.585938 545.402344 C 79.328125 546.1875 79.039062 546.957031 78.707031 547.710938 C 78.378906 548.46875 78.011719 549.203125 77.609375 549.925781 C 77.207031 550.644531 76.769531 551.34375 76.300781 552.019531 C 75.832031 552.699219 75.328125 553.351562 74.792969 553.976562 C 74.261719 554.605469 73.699219 555.207031 73.105469 555.78125 C 72.511719 556.351562 71.894531 556.894531 71.246094 557.410156 C 70.601562 557.921875 69.933594 558.402344 69.238281 558.847656 C 68.546875 559.296875 67.835938 559.707031 67.101562 560.085938 C 66.367188 560.460938 65.617188 560.804688 64.851562 561.109375 C 64.085938 561.410156 63.308594 561.679688 62.515625 561.90625 C 61.722656 562.132812 60.921875 562.324219 60.109375 562.472656 C 59.300781 562.625 58.484375 562.734375 57.660156 562.804688 C 56.839844 562.875 56.015625 562.902344 55.191406 562.894531 Z M 62.785156 536.828125 C 62.496094 532.921875 59.84375 530.484375 55.457031 530.171875 C 51.347656 529.882812 47.691406 533.765625 47.996094 537.984375 C 48.316406 542.4375 50.808594 545.078125 55.367188 545.265625 C 59.667969 545.433594 62.925781 541.910156 62.785156 536.828125 Z M 62.785156 536.828125 " fill-opacity="1" fill-rule="nonzero"></path><path fill="#9990c5" d="M 109.875 562.902344 C 95.898438 562.855469 84.726562 551.722656 84.699219 537.824219 C 84.671875 523.65625 95.976562 512.542969 110.324219 512.636719 C 111.144531 512.644531 111.96875 512.691406 112.785156 512.777344 C 113.605469 512.863281 114.417969 512.988281 115.222656 513.15625 C 116.027344 513.320312 116.824219 513.527344 117.609375 513.773438 C 118.394531 514.019531 119.167969 514.300781 119.925781 514.621094 C 120.683594 514.941406 121.425781 515.300781 122.148438 515.695312 C 122.871094 516.089844 123.570312 516.515625 124.253906 516.980469 C 124.933594 517.441406 125.589844 517.9375 126.21875 518.464844 C 126.851562 518.996094 127.457031 519.550781 128.03125 520.140625 C 128.609375 520.726562 129.15625 521.339844 129.671875 521.980469 C 130.1875 522.621094 130.671875 523.289062 131.121094 523.976562 C 131.574219 524.664062 131.988281 525.375 132.371094 526.105469 C 132.75 526.835938 133.09375 527.582031 133.402344 528.34375 C 133.710938 529.109375 133.980469 529.886719 134.210938 530.675781 C 134.441406 531.464844 134.632812 532.265625 134.785156 533.074219 C 134.933594 533.882812 135.046875 534.699219 135.117188 535.515625 C 135.191406 536.335938 135.222656 537.160156 135.210938 537.980469 C 135.058594 551.929688 123.859375 562.945312 109.875 562.902344 Z M 117.371094 536.605469 C 117.066406 532.996094 114.453125 530.511719 110.0625 530.164062 C 106.0625 529.851562 101.988281 533.945312 102.398438 537.929688 C 102.839844 542.242188 105.261719 545.070312 109.863281 545.265625 C 114.199219 545.453125 117.496094 541.972656 117.375 536.605469 Z M 117.371094 536.605469 " fill-opacity="1" fill-rule="nonzero"></path><path fill="#f58e81" d="M 508.191406 118.789062 C 519.640625 118.789062 531.089844 118.753906 542.539062 118.804688 C 549.023438 118.832031 552.796875 121.925781 552.96875 127.15625 C 553.148438 132.648438 549.1875 136.238281 542.597656 136.25 C 519.320312 136.300781 496.03125 136.300781 472.738281 136.25 C 466.5625 136.234375 462.511719 132.640625 462.472656 127.507812 C 462.4375 122.371094 466.445312 118.847656 472.679688 118.8125 C 484.515625 118.746094 496.355469 118.792969 508.191406 118.789062 Z M 508.191406 118.789062 " fill-opacity="1" fill-rule="nonzero"></path><path fill="#f58e81" d="M 507.882812 172.550781 C 496.238281 172.550781 484.597656 172.597656 472.960938 172.527344 C 466.570312 172.492188 462.660156 169.246094 462.5 164.089844 C 462.335938 158.796875 466.5625 155.042969 473.046875 155.027344 C 496.140625 154.972656 519.230469 154.972656 542.324219 155.027344 C 549.027344 155.039062 552.980469 158.433594 552.972656 163.886719 C 552.960938 169.335938 549.109375 172.5 542.234375 172.53125 C 530.785156 172.585938 519.335938 172.550781 507.882812 172.550781 Z M 507.882812 172.550781 " fill-opacity="1" fill-rule="nonzero"></path><path fill="#9990c5" d="M 184.902344 546.4375 C 176.757812 546.4375 168.613281 546.519531 160.46875 546.414062 C 154.464844 546.332031 151.019531 543.066406 151.003906 537.777344 C 150.988281 532.527344 154.519531 529.035156 160.402344 529 C 177.078125 528.902344 193.757812 528.902344 210.4375 529 C 216.34375 529.035156 219.898438 532.488281 219.914062 537.710938 C 219.925781 542.980469 216.441406 546.332031 210.503906 546.410156 C 201.972656 546.523438 193.4375 546.4375 184.902344 546.4375 Z M 184.902344 546.4375 " fill-opacity="1" fill-rule="nonzero"></path><path fill="#9990c5" d="M 55.667969 484.890625 C 41.695312 485.011719 30.308594 474.019531 30.042969 460.140625 C 29.777344 446.410156 41.109375 434.742188 54.867188 434.597656 C 69.132812 434.433594 80.722656 445.613281 80.828125 459.644531 C 80.933594 473.394531 69.601562 484.769531 55.667969 484.890625 Z M 62.820312 459.609375 C 62.761719 455.523438 59.5625 452.203125 55.585938 452.097656 C 51.472656 451.984375 47.746094 455.628906 47.996094 459.847656 C 48.257812 464.285156 50.667969 466.996094 55.261719 467.222656 C 59.574219 467.4375 62.875 464.003906 62.820312 459.609375 Z M 62.820312 459.609375 " fill-opacity="1" fill-rule="nonzero"></path><path fill="#9990c5" d="M 110.503906 434.585938 C 124.304688 434.730469 135.476562 446.292969 135.207031 460.144531 C 134.933594 474.132812 123.722656 485.023438 109.691406 484.90625 C 108.867188 484.902344 108.046875 484.859375 107.226562 484.773438 C 106.40625 484.6875 105.59375 484.5625 104.789062 484.398438 C 103.980469 484.234375 103.183594 484.027344 102.398438 483.785156 C 101.613281 483.542969 100.839844 483.261719 100.078125 482.941406 C 99.320312 482.621094 98.578125 482.265625 97.855469 481.875 C 97.132812 481.480469 96.429688 481.054688 95.746094 480.59375 C 95.066406 480.132812 94.40625 479.640625 93.773438 479.113281 C 93.140625 478.585938 92.535156 478.03125 91.953125 477.445312 C 91.375 476.859375 90.828125 476.246094 90.308594 475.609375 C 89.789062 474.96875 89.304688 474.304688 88.851562 473.617188 C 88.398438 472.929688 87.980469 472.222656 87.59375 471.492188 C 87.210938 470.765625 86.863281 470.019531 86.554688 469.257812 C 86.242188 468.496094 85.972656 467.71875 85.738281 466.929688 C 85.503906 466.140625 85.308594 465.339844 85.152344 464.53125 C 84.996094 463.722656 84.878906 462.910156 84.804688 462.089844 C 84.730469 461.269531 84.695312 460.449219 84.699219 459.625 C 84.753906 445.484375 96.140625 434.433594 110.503906 434.585938 Z M 117.398438 460.644531 C 117.398438 455.460938 113.839844 451.738281 109.710938 452.140625 C 105.296875 452.578125 102.691406 455.320312 102.378906 459.710938 C 102.089844 463.800781 106.050781 467.496094 110.222656 467.210938 C 114.78125 466.921875 117.09375 464.261719 117.398438 460.644531 Z M 117.398438 460.644531 " fill-opacity="1" fill-rule="nonzero"></path><path fill="#9990c5" d="M 184.835938 468.464844 C 176.886719 468.464844 168.933594 468.539062 160.980469 468.441406 C 154.519531 468.359375 150.984375 465.160156 151.007812 459.703125 C 151.03125 454.292969 154.691406 450.980469 161.050781 450.953125 C 177.339844 450.890625 193.632812 450.890625 209.921875 450.953125 C 216.269531 450.984375 219.925781 454.339844 219.90625 459.769531 C 219.890625 465.238281 216.390625 468.363281 209.855469 468.441406 C 201.515625 468.539062 193.175781 468.464844 184.835938 468.464844 Z M 184.835938 468.464844 " fill-opacity="1" fill-rule="nonzero"></path><path fill="#ed1c24" d="M 301.484375 244.589844 C 331.335938 244.640625 355.023438 268.355469 355.046875 298.207031 C 355.0625 328.289062 331.117188 352.085938 300.988281 351.917969 C 271.222656 351.75 247.632812 327.878906 247.714844 298 C 247.796875 268.246094 271.640625 244.539062 301.484375 244.589844 Z M 301.140625 262.089844 C 281.3125 262.183594 265.03125 278.730469 265.199219 298.652344 C 265.363281 318.230469 281.707031 334.40625 301.339844 334.421875 C 321.257812 334.441406 337.558594 318.101562 337.527344 298.160156 C 337.5 278.253906 321.09375 262.003906 301.140625 262.089844 Z M 301.140625 262.089844 " fill-opacity="1" fill-rule="nonzero"></path></svg>