<svg width="820" height="656" viewBox="0 0 820 656" fill="none" xmlns="http://www.w3.org/2000/svg">
<path d="M734.057 335.041C734.079 333.541 734.091 332.04 734.091 330.549C734.091 287.102 725.56 244.899 708.734 205.11C693.819 169.854 672.955 137.864 646.728 109.973L646.743 109.945L645.249 108.384C645.242 108.375 645.234 108.367 645.225 108.359L642.373 105.366L642.358 105.395C641.49 104.507 640.615 103.625 639.735 102.748C610.195 73.2 575.755 49.984 537.37 33.745C500.559 18.179 461.611 9.72003 421.575 8.55303L421.568 8.53103L419.414 8.47903L419.384 8.47803L415.241 8.38403L415.248 8.40803C414.141 8.39603 413.032 8.38803 411.93 8.38803C368.489 8.38803 326.289 16.919 286.501 33.745C251.156 48.698 219.108 69.62 191.192 95.919L191.173 95.909L189.624 97.382L189.609 97.396L186.592 100.277L186.616 100.29C185.783 101.106 184.955 101.926 184.14 102.745C154.593 132.283 131.377 166.723 115.138 205.108C99.6793 241.665 91.2243 280.327 89.9623 320.051L89.9373 320.059L89.8823 322.21V322.218L89.7773 326.39L89.8053 326.381C89.7893 327.731 89.7813 329.112 89.7813 330.547C89.7813 373.987 98.3123 416.188 115.137 455.976C129.889 490.851 150.479 522.54 176.326 550.217L176.318 550.233L177.755 551.761L177.79 551.799L180.671 554.842L180.679 554.826C181.82 556.009 182.97 557.183 184.128 558.349C213.692 587.903 248.135 611.115 286.5 627.339C322.646 642.63 360.906 651.07 400.251 652.469L400.259 652.495L402.4 652.556H402.402L406.597 652.677L406.59 652.653C408.482 652.688 410.26 652.707 411.928 652.707C455.361 652.707 497.564 644.172 537.367 627.339C572.144 612.625 603.775 592.093 631.435 566.319L631.459 566.332L633.01 564.865L633.017 564.859L636.068 561.978L636.046 561.967C637.286 560.773 638.514 559.567 639.729 558.348C669.286 528.79 692.501 494.347 708.73 455.976C724.136 419.551 732.584 381.004 733.885 341.373L733.906 341.366L733.967 339.22V339.196L734.076 335.032L734.057 335.041ZM643.776 115.577C668.854 142.594 688.838 173.481 703.208 207.448C719.719 246.492 728.091 287.91 728.091 330.55C728.091 332.661 728.069 334.793 728.025 336.912L621.395 369.975L525.886 337.434C527.589 309.1 518.669 281.148 500.867 259.038L591.76 214.35L643.776 115.577ZM481.742 413.09C462.23 429.611 437.437 438.709 411.93 438.709C409.097 438.709 406.16 438.588 403.202 438.349L403.182 438.347C374.763 436.066 348.785 422.842 330.031 401.108C313.105 381.496 303.789 356.455 303.78 330.548C303.78 328.139 303.865 325.671 304.033 323.212L304.034 323.191C305.961 294.578 318.957 268.334 340.629 249.291L340.643 249.278C360.379 231.938 385.694 222.387 411.928 222.387C414.344 222.387 416.816 222.472 419.275 222.64L419.289 222.641C448.279 224.599 474.758 237.862 493.848 259.987L493.866 260.008C503.214 270.851 510.314 283.442 514.756 297.052C519.197 310.661 520.891 325.017 519.739 339.286L519.738 339.293C517.422 368.092 503.927 394.3 481.742 413.09ZM535.032 39.271C572.702 55.207 606.501 77.991 635.496 106.995C636.816 108.31 638.123 109.637 639.417 110.977L587.361 209.827L496.856 254.323C477.706 232.988 451.882 219.844 423.559 216.981L456.355 120.732L423.45 14.599C462.02 15.968 499.538 24.262 535.032 39.271ZM288.839 39.272C329.46 22.094 372.659 13.682 417.116 14.433L450.047 120.644L417.378 216.521C415.564 216.433 413.748 216.389 411.931 216.388C385.534 216.388 360.016 225.548 339.645 242.258L294.423 150.278L196.796 98.87C223.839 73.719 254.784 53.68 288.839 39.272ZM96.0133 318.176C97.4753 279.918 105.762 242.688 120.664 207.447C136.601 169.777 159.384 135.978 188.388 106.984C189.645 105.72 190.915 104.469 192.196 103.23L289.899 154.678L334.955 246.321C314.071 265.407 301.195 290.986 298.373 318.93L200.804 285.684L96.0133 318.176ZM179.283 544.606C154.581 517.808 134.87 487.224 120.664 453.639C104.153 414.595 95.7813 373.182 95.7813 330.548C95.7813 328.442 95.7983 326.449 95.8333 324.513L200.716 291.992L297.913 325.111C297.826 326.922 297.782 328.735 297.781 330.548C297.781 356.582 306.715 381.823 323.014 402.059L230.361 447.617L179.283 544.606ZM288.839 621.815C251.189 605.892 217.386 583.112 188.377 554.112C186.777 552.503 185.193 550.878 183.627 549.235L234.761 452.14L327.026 406.773C345.832 427.716 371.152 440.806 398.899 443.959L365.757 541.234L398.374 646.41C360.497 644.817 323.668 636.55 288.839 621.815ZM535.032 621.815C495.973 638.333 454.555 646.709 411.93 646.709C409.726 646.709 407.351 646.679 404.719 646.616L372.065 541.322L405.055 444.495C407.382 444.637 409.685 444.709 411.93 444.709C437.579 444.709 462.543 435.994 482.655 420.094L527.689 511.688L625.823 563.365C599.045 587.994 568.521 607.646 535.032 621.815ZM727.834 343.252C726.335 381.416 718.057 418.532 703.208 453.64C687.281 491.297 664.497 525.099 635.485 554.113C633.829 555.771 632.153 557.407 630.455 559.022L532.213 507.29L487.395 416.134C508.789 397.274 522.149 371.717 525.35 343.591L621.306 376.284L727.834 343.252Z" fill="#274797"/>
<path d="M329.357 158.268H331.95C334.136 158.268 335.645 159.768 335.645 161.725V161.746C335.645 163.703 334.135 165.223 331.95 165.223H329.357V158.268ZM330.58 159.381V164.11H331.95C333.411 164.11 334.364 163.127 334.364 161.765V161.745C334.364 160.384 333.411 159.381 331.95 159.381H330.58ZM339.716 158.218H340.849L343.909 165.221H342.617L341.912 163.542H338.624L337.909 165.221H336.657L339.716 158.218ZM341.464 162.46L340.263 159.679L339.071 162.46H341.464ZM346.529 159.4H344.324V158.268H349.966V159.4H347.761V165.221H346.53V159.4H346.529ZM353.441 158.218H354.574L357.634 165.221H356.342L355.637 163.542H352.349L351.634 165.221H350.382L353.441 158.218ZM355.189 162.46L353.988 159.679L352.796 162.46H355.189ZM331.821 170.137H332.954L336.014 177.14H334.722L334.017 175.461H330.729L330.014 177.14H328.762L331.821 170.137ZM333.569 174.378L332.368 171.597L331.176 174.378H333.569ZM337.818 170.186H340.918C341.792 170.186 342.478 170.444 342.925 170.881C343.292 171.258 343.501 171.775 343.501 172.381V172.401C343.501 173.544 342.815 174.229 341.852 174.506L343.73 177.139H342.28L340.571 174.715H339.042V177.139H337.819V170.186H337.818ZM340.829 173.633C341.703 173.633 342.259 173.176 342.259 172.471V172.451C342.259 171.706 341.723 171.299 340.819 171.299H339.042V173.633H340.829ZM345.306 173.682V173.662C345.306 171.685 346.786 170.066 348.892 170.066C350.173 170.066 350.949 170.512 351.614 171.148L350.83 172.052C350.273 171.535 349.678 171.188 348.883 171.188C347.562 171.188 346.588 172.281 346.588 173.641V173.662C346.588 175.022 347.552 176.125 348.883 176.125C349.737 176.125 350.283 175.788 350.88 175.231L351.664 176.026C350.939 176.781 350.144 177.257 348.843 177.257C346.816 177.259 345.306 175.68 345.306 173.682ZM353.559 170.186H354.782V173.077H358.099V170.186H359.321V177.139H358.099V174.208H354.782V177.139H353.559V170.186ZM361.792 170.186H363.014V177.139H361.792V170.186ZM367.196 171.318H364.991V170.186H370.634V171.318H368.428V177.139H367.197L367.196 171.318ZM372.538 170.186H377.694V171.279H373.76V173.087H377.246V174.18H373.76V176.047H377.743V177.14H372.537V170.186H372.538ZM379.5 173.682V173.662C379.5 171.685 380.98 170.066 383.086 170.066C384.367 170.066 385.143 170.512 385.808 171.148L385.024 172.052C384.467 171.535 383.872 171.188 383.077 171.188C381.756 171.188 380.782 172.281 380.782 173.641V173.662C380.782 175.022 381.746 176.125 383.077 176.125C383.931 176.125 384.477 175.788 385.074 175.231L385.858 176.026C385.133 176.781 384.338 177.257 383.037 177.257C381.009 177.259 379.5 175.68 379.5 173.682ZM389.461 171.318H387.256V170.186H392.899V171.318H390.693V177.139H389.462V171.318H389.461ZM394.695 174.189V170.186H395.917V174.139C395.917 175.43 396.582 176.116 397.675 176.116C398.758 176.116 399.423 175.47 399.423 174.189V170.186H400.646V174.129C400.646 176.205 399.473 177.248 397.656 177.248C395.847 177.249 394.695 176.206 394.695 174.189ZM402.937 170.186H406.037C406.911 170.186 407.597 170.444 408.044 170.881C408.411 171.258 408.62 171.775 408.62 172.381V172.401C408.62 173.544 407.934 174.229 406.971 174.506L408.849 177.139H407.399L405.69 174.715H404.161V177.139H402.938L402.937 170.186ZM405.948 173.633C406.822 173.633 407.378 173.176 407.378 172.471V172.451C407.378 171.706 406.842 171.299 405.938 171.299H404.161V173.633H405.948ZM410.732 170.186H415.888V171.279H411.954V173.087H415.44V174.18H411.954V176.047H415.937V177.14H410.731V170.186H410.732Z" fill="#333333"/>
<path d="M550.188 289.975H551.49L553.606 293.263L555.721 289.975H557.023V296.928H555.801V291.942L553.606 295.219H553.566L551.39 291.961V296.928H550.188V289.975ZM561.888 289.926H563.021L566.081 296.929H564.789L564.083 295.25H560.796L560.081 296.929H558.829L561.888 289.926ZM563.635 294.167L562.435 291.386L561.243 294.167H563.635ZM567.299 295.915L568.034 295.041C568.7 295.617 569.375 295.945 570.229 295.945C570.984 295.945 571.46 295.588 571.46 295.071V295.051C571.46 294.554 571.183 294.285 569.891 293.988C568.412 293.631 567.577 293.193 567.577 291.912V291.892C567.577 290.7 568.569 289.875 569.951 289.875C570.965 289.875 571.769 290.183 572.474 290.749L571.819 291.673C571.193 291.206 570.567 290.958 569.931 290.958C569.216 290.958 568.798 291.325 568.798 291.782V291.802C568.798 292.339 569.116 292.577 570.457 292.895C571.927 293.252 572.683 293.78 572.683 294.931V294.952C572.683 296.253 571.66 297.028 570.2 297.028C569.127 297.033 568.092 296.636 567.299 295.915ZM576.298 291.107H574.093V289.975H579.736V291.107H577.53V296.928H576.299L576.298 291.107ZM581.64 289.975H586.796V291.068H582.862V292.876H586.348V293.969H582.862V295.836H586.845V296.929H581.639L581.64 289.975ZM588.909 289.975H592.009C592.883 289.975 593.569 290.233 594.016 290.67C594.383 291.047 594.592 291.564 594.592 292.17V292.19C594.592 293.333 593.906 294.018 592.943 294.295L594.82 296.928H593.371L591.661 294.504H590.133V296.928H588.91V289.975H588.909ZM591.92 293.422C592.794 293.422 593.35 292.965 593.35 292.26V292.24C593.35 291.495 592.814 291.088 591.91 291.088H590.133V293.422H591.92ZM600.299 289.975H602.893C605.079 289.975 606.588 291.475 606.588 293.431V293.452C606.588 295.409 605.078 296.929 602.893 296.929H600.299V289.975ZM601.523 291.088V295.817H602.893C604.354 295.817 605.307 294.834 605.307 293.472V293.452C605.307 292.091 604.354 291.088 602.893 291.088H601.523ZM610.659 289.926H611.792L614.852 296.929H613.56L612.855 295.25H609.567L608.852 296.929H607.6L610.659 289.926ZM612.407 294.167L611.206 291.386L610.014 294.167H612.407ZM617.473 291.107H615.268V289.975H620.91V291.107H618.705V296.928H617.474L617.473 291.107ZM624.385 289.926H625.518L628.578 296.929H627.286L626.581 295.25H623.293L622.578 296.929H621.326L624.385 289.926ZM626.133 294.167L624.932 291.386L623.74 294.167H626.133ZM629.826 297.862C630.431 297.743 630.72 297.435 630.68 296.928H630.163V295.557H631.484V296.719C631.484 297.822 630.957 298.289 629.954 298.378L629.826 297.862ZM550.188 301.893H553.288C554.162 301.893 554.848 302.151 555.295 302.588C555.662 302.965 555.871 303.482 555.871 304.088V304.108C555.871 305.251 555.184 305.936 554.221 306.213L556.1 308.846H554.65L552.941 306.422H551.411V308.846H550.189V301.893H550.188ZM553.198 305.34C554.072 305.34 554.628 304.883 554.628 304.178V304.158C554.628 303.413 554.092 303.006 553.188 303.006H551.411V305.34H553.198ZM557.983 301.893H563.139V302.986H559.205V304.794H562.691V305.887H559.205V307.754H563.188V308.847H557.982V301.893H557.983ZM565.253 301.893H570.429V303.005H566.476V304.902H569.982V306.014H566.476V308.845H565.253V301.893ZM572.384 301.893H577.54V302.986H573.606V304.794H577.092V305.887H573.606V307.754H577.589V308.847H572.383V301.893H572.384ZM579.653 301.893H582.753C583.627 301.893 584.313 302.151 584.76 302.588C585.127 302.965 585.336 303.482 585.336 304.088V304.108C585.336 305.251 584.65 305.936 583.687 306.213L585.565 308.846H584.115L582.406 306.422H580.877V308.846H579.654L579.653 301.893ZM582.664 305.34C583.538 305.34 584.094 304.883 584.094 304.178V304.158C584.094 303.413 583.558 303.006 582.654 303.006H580.877V305.34H582.664ZM587.449 301.893H592.605V302.986H588.671V304.794H592.157V305.887H588.671V307.754H592.654V308.847H587.448V301.893H587.449ZM594.719 301.893H595.852L599.578 306.701V301.893H600.779V308.846H599.757L595.922 303.899V308.846H594.72V301.893H594.719ZM602.872 305.39V305.37C602.872 303.393 604.352 301.774 606.458 301.774C607.739 301.774 608.516 302.22 609.181 302.856L608.397 303.76C607.84 303.243 607.245 302.896 606.45 302.896C605.129 302.896 604.155 303.989 604.155 305.349V305.37C604.155 306.73 605.119 307.833 606.45 307.833C607.304 307.833 607.85 307.496 608.447 306.939L609.231 307.734C608.506 308.489 607.711 308.965 606.41 308.965C604.383 308.966 602.872 307.387 602.872 305.39ZM611.125 301.893H616.281V302.986H612.346V304.794H615.833V305.887H612.346V307.754H616.33V308.847H611.124L611.125 301.893ZM621.99 301.893H624.583C626.769 301.893 628.278 303.393 628.278 305.349V305.37C628.278 307.327 626.768 308.847 624.583 308.847H621.99V301.893ZM623.213 303.006V307.735H624.583C626.044 307.735 626.997 306.752 626.997 305.39V305.37C626.997 304.009 626.044 303.006 624.583 303.006H623.213ZM632.349 301.844H633.482L636.542 308.847H635.25L634.545 307.168H631.257L630.542 308.847H629.29L632.349 301.844ZM634.096 306.085L632.896 303.304L631.704 306.085H634.096ZM639.161 303.025H636.957V301.893H642.599V303.025H640.394V308.846H639.163V303.025H639.161ZM646.074 301.844H647.207L650.267 308.847H648.975L648.27 307.168H644.982L644.267 308.847H643.015L646.074 301.844ZM647.822 306.085L646.621 303.304L645.429 306.085H647.822ZM651.516 309.78C652.121 309.661 652.41 309.353 652.37 308.846H651.853V307.475H653.174V308.637C653.174 309.74 652.647 310.207 651.644 310.296L651.516 309.78ZM661.418 301.844H662.551L665.611 308.847H664.319L663.614 307.168H660.326L659.611 308.847H658.359L661.418 301.844ZM663.166 306.085L661.965 303.304L660.773 306.085H663.166ZM667.415 301.893H668.548L672.273 306.701V301.893H673.475V308.846H672.453L668.618 303.899V308.846H667.416L667.415 301.893ZM675.876 301.893H678.469C680.655 301.893 682.164 303.393 682.164 305.349V305.37C682.164 307.327 680.654 308.847 678.469 308.847H675.876V301.893ZM677.099 303.006V307.735H678.469C679.93 307.735 680.883 306.752 680.883 305.39V305.37C680.883 304.009 679.93 303.006 678.469 303.006H677.099ZM550.188 313.81H551.49L553.606 317.098L555.721 313.81H557.023V320.763H555.801V315.777L553.606 319.054H553.566L551.39 315.796V320.763H550.188V313.81ZM559.424 313.81H564.58V314.903H560.646V316.711H564.132V317.804H560.646V319.671H564.629V320.764H559.423L559.424 313.81ZM568.402 314.942H566.197V313.81H571.839V314.942H569.634V320.763H568.402V314.942ZM575.314 313.761H576.447L579.507 320.764H578.215L577.51 319.085H574.221L573.507 320.764H572.255L575.314 313.761ZM577.062 318.002L575.862 315.221L574.67 318.002H577.062ZM581.312 313.81H583.905C586.091 313.81 587.6 315.31 587.6 317.267V317.287C587.6 319.244 586.09 320.764 583.905 320.764H581.312V313.81ZM582.534 314.923V319.652H583.904C585.365 319.652 586.318 318.669 586.318 317.307V317.287C586.318 315.926 585.365 314.923 583.904 314.923H582.534ZM591.671 313.761H592.804L595.864 320.764H594.572L593.867 319.085H590.579L589.864 320.764H588.612L591.671 313.761ZM593.419 318.002L592.218 315.221L591.026 318.002H593.419ZM598.483 314.942H596.278V313.81H601.921V314.942H599.715V320.763H598.484L598.483 314.942ZM605.397 313.761H606.53L609.59 320.764H608.298L607.593 319.085H604.305L603.59 320.764H602.338L605.397 313.761ZM607.145 318.002L605.944 315.221L604.752 318.002H607.145ZM614.988 313.81H616.29L618.406 317.098L620.521 313.81H621.823V320.763H620.602V315.777L618.407 319.054H618.367L616.191 315.796V320.763H614.989L614.988 313.81ZM626.689 313.761H627.822L630.882 320.764H629.59L628.885 319.085H625.596L624.882 320.764H623.63L626.689 313.761ZM628.437 318.002L627.236 315.221L626.044 318.002H628.437ZM632.686 313.81H633.819L637.545 318.618V313.81H638.746V320.763H637.724L633.889 315.816V320.763H632.687L632.686 313.81ZM643.611 313.761H644.744L647.804 320.764H646.512L645.807 319.085H642.519L641.804 320.764H640.552L643.611 313.761ZM645.359 318.002L644.158 315.221L642.966 318.002H645.359ZM648.864 317.307V317.287C648.864 315.34 650.354 313.691 652.45 313.691C653.662 313.691 654.407 314.028 655.122 314.634L654.348 315.558C653.812 315.101 653.286 314.813 652.401 314.813C651.12 314.813 650.146 315.935 650.146 317.267V317.287C650.146 318.718 651.09 319.77 652.51 319.77C653.166 319.77 653.762 319.561 654.189 319.244V317.942H652.411V316.88H655.372V319.8C654.566 320.498 653.537 320.882 652.471 320.883C650.294 320.883 648.864 319.333 648.864 317.307ZM657.573 313.81H662.729V314.903H658.795V316.711H662.281V317.804H658.795V319.671H662.778V320.764H657.572L657.573 313.81ZM664.844 313.81H666.146L668.262 317.098L670.377 313.81H671.679V320.763H670.457V315.777L668.262 319.054H668.221L666.046 315.796V320.763H664.844V313.81ZM674.079 313.81H679.234V314.903H675.302V316.711H678.788V317.804H675.302V319.671H679.285V320.764H674.079V313.81ZM681.349 313.81H682.482L686.208 318.618V313.81H687.409V320.763H686.387L682.552 315.816V320.763H681.35V313.81H681.349ZM691.52 314.942H689.315V313.81H694.957V314.942H692.752V320.763H691.521L691.52 314.942Z" fill="#333333"/>
<path d="M529.552 411.145H532.145C534.331 411.145 535.84 412.645 535.84 414.601V414.622C535.84 416.579 534.33 418.099 532.145 418.099H529.552V411.145ZM530.774 412.258V416.987H532.144C533.605 416.987 534.558 416.004 534.558 414.642V414.622C534.558 413.261 533.605 412.258 532.144 412.258H530.774ZM539.911 411.096H541.044L544.104 418.099H542.812L542.107 416.42H538.819L538.104 418.099H536.852L539.911 411.096ZM541.659 415.337L540.458 412.556L539.266 415.337H541.659ZM546.724 412.277H544.519V411.145H550.161V412.277H547.956V418.098H546.725L546.724 412.277ZM553.636 411.096H554.769L557.829 418.099H556.537L555.832 416.42H552.544L551.829 418.099H550.577L553.636 411.096ZM555.384 415.337L554.183 412.556L552.991 415.337H555.384ZM563.229 411.145H565.971C567.6 411.145 568.614 412.069 568.614 413.469V413.489C568.614 415.049 567.362 415.863 565.833 415.863H564.452V418.098H563.229V411.145ZM565.871 414.761C566.795 414.761 567.371 414.244 567.371 413.52V413.499C567.371 412.685 566.785 412.258 565.871 412.258H564.451V414.761H565.871ZM570.479 411.145H573.579C574.453 411.145 575.139 411.403 575.586 411.84C575.953 412.217 576.162 412.734 576.162 413.34V413.36C576.162 414.503 575.476 415.188 574.513 415.465L576.391 418.098H574.941L573.232 415.674H571.703V418.098H570.48L570.479 411.145ZM573.489 414.592C574.363 414.592 574.919 414.135 574.919 413.43V413.41C574.919 412.665 574.383 412.258 573.479 412.258H571.702V414.592H573.489ZM578.274 411.145H583.43V412.238H579.496V414.046H582.982V415.139H579.496V417.006H583.479V418.099H578.273L578.274 411.145ZM585.544 411.145H588.286C589.915 411.145 590.929 412.069 590.929 413.469V413.489C590.929 415.049 589.677 415.863 588.147 415.863H586.767V418.098H585.544V411.145ZM588.187 414.761C589.111 414.761 589.687 414.244 589.687 413.52V413.499C589.687 412.685 589.101 412.258 588.187 412.258H586.767V414.761H588.187ZM594.562 411.096H595.695L598.755 418.099H597.463L596.758 416.42H593.47L592.755 418.099H591.503L594.562 411.096ZM596.311 415.337L595.11 412.556L593.918 415.337H596.311ZM600.56 411.145H603.66C604.534 411.145 605.22 411.403 605.667 411.84C606.034 412.217 606.243 412.734 606.243 413.34V413.36C606.243 414.503 605.557 415.188 604.594 415.465L606.472 418.098H605.022L603.313 415.674H601.784V418.098H600.561L600.56 411.145ZM603.57 414.592C604.444 414.592 605 414.135 605 413.43V413.41C605 412.665 604.464 412.258 603.56 412.258H601.783V414.592H603.57ZM610.819 411.096H611.952L615.012 418.099H613.72L613.015 416.42H609.727L609.012 418.099H607.76L610.819 411.096ZM612.567 415.337L611.366 412.556L610.174 415.337H612.567ZM617.633 412.277H615.428V411.145H621.071V412.277H618.865V418.098H617.634L617.633 412.277ZM623.045 411.145H624.267V418.098H623.045V411.145ZM626.431 414.641V414.621C626.431 412.664 627.941 411.025 630.077 411.025C632.213 411.025 633.703 412.644 633.703 414.6V414.621C633.703 416.578 632.193 418.217 630.057 418.217C627.921 418.217 626.431 416.599 626.431 414.641ZM632.421 414.641V414.621C632.421 413.269 631.438 412.147 630.057 412.147C628.676 412.147 627.712 413.25 627.712 414.6V414.621C627.712 415.972 628.695 417.084 630.076 417.084C631.457 417.084 632.421 415.993 632.421 414.641ZM635.796 411.145H636.929L640.655 415.953V411.145H641.856V418.098H640.834L636.999 413.151V418.098H635.797L635.796 411.145ZM532.016 423.014H533.149L536.209 430.017H534.917L534.212 428.338H530.924L530.209 430.017H528.957L532.016 423.014ZM533.764 427.255L532.563 424.474L531.371 427.255H533.764ZM538.013 423.063H539.146L542.872 427.871V423.063H544.073V430.016H543.051L539.216 425.069V430.016H538.014L538.013 423.063ZM546.475 423.063H549.068C551.254 423.063 552.763 424.563 552.763 426.519V426.54C552.763 428.497 551.253 430.017 549.068 430.017H546.475V423.063ZM547.697 424.176V428.905H549.067C550.528 428.905 551.481 427.922 551.481 426.56V426.54C551.481 425.179 550.528 424.176 549.067 424.176H547.697ZM564.72 430.225L563.885 429.48C563.264 429.911 562.526 430.14 561.77 430.135C559.634 430.135 558.144 428.516 558.144 426.559V426.539C558.144 424.582 559.654 422.943 561.79 422.943C563.926 422.943 565.416 424.562 565.416 426.518V426.539C565.415 427.308 565.168 428.056 564.711 428.675L565.505 429.35L564.72 430.225ZM562.991 428.685L561.789 427.662L562.574 426.768L563.796 427.88C564.015 427.503 564.134 427.056 564.134 426.559V426.539C564.134 425.187 563.151 424.065 561.77 424.065C560.389 424.065 559.425 425.168 559.425 426.518V426.539C559.425 427.89 560.408 429.002 561.789 429.002C562.211 429.007 562.626 428.897 562.991 428.685ZM567.4 427.066V423.063H568.622V427.016C568.622 428.307 569.287 428.993 570.38 428.993C571.463 428.993 572.128 428.347 572.128 427.066V423.063H573.351V427.006C573.351 429.082 572.178 430.125 570.361 430.125C568.553 430.126 567.4 429.083 567.4 427.066ZM577.857 423.014H578.99L582.05 430.017H580.758L580.053 428.338H576.765L576.05 430.017H574.798L577.857 423.014ZM579.605 427.255L578.404 424.474L577.212 427.255H579.605ZM583.855 423.063H585.078V428.904H588.733V430.016H583.855V423.063ZM590.688 423.063H591.91V430.016H590.688V423.063ZM596.091 424.195H593.886V423.063H599.528V424.195H597.323V430.016H596.092L596.091 424.195ZM603.48 427.275L600.718 423.063H602.168L604.106 426.132L606.073 423.063H607.473L604.711 427.245V430.016H603.48V427.275Z" fill="#333333"/>
<path d="M424.188 480.95H426.78C428.966 480.95 430.475 482.45 430.475 484.406V484.427C430.475 486.384 428.965 487.904 426.78 487.904H424.188V480.95ZM425.409 482.062V486.791H426.78C428.241 486.791 429.193 485.808 429.193 484.446V484.426C429.193 483.065 428.241 482.062 426.78 482.062H425.409ZM434.547 480.9H435.68L438.74 487.903H437.448L436.742 486.224H433.454L432.74 487.903H431.487L434.547 480.9ZM436.294 485.141L435.094 482.36L433.901 485.141H436.294ZM441.358 482.082H439.154V480.95H444.796V482.082H442.59V487.903H441.359V482.082H441.358ZM448.271 480.9H449.405L452.465 487.903H451.172L450.467 486.224H447.18L446.465 487.903H445.212L448.271 480.9ZM450.02 485.141L448.818 482.36L447.626 485.141H450.02ZM424.258 492.868H425.479V499.821H424.258V492.868ZM427.951 492.868H429.083L432.81 497.676V492.868H434.01V499.821H432.988L429.154 494.874V499.821H427.952V492.868H427.951ZM438.121 494H435.917V492.868H441.56V494H439.353V499.821H438.122V494H438.121ZM443.464 492.868H448.62V493.961H444.685V495.769H448.172V496.862H444.685V498.729H448.668V499.822H443.462V492.868H443.464ZM450.426 496.364V496.344C450.426 494.397 451.916 492.748 454.012 492.748C455.224 492.748 455.969 493.085 456.684 493.691L455.909 494.615C455.373 494.158 454.847 493.87 453.962 493.87C452.681 493.87 451.707 494.992 451.707 496.323V496.344C451.707 497.775 452.652 498.827 454.072 498.827C454.728 498.827 455.323 498.618 455.75 498.301V497H453.973V495.938H456.934V498.858C456.128 499.556 455.099 499.94 454.034 499.941C451.856 499.94 450.426 498.391 450.426 496.364ZM459.134 492.868H462.234C463.108 492.868 463.794 493.126 464.241 493.563C464.608 493.94 464.818 494.457 464.818 495.063V495.083C464.818 496.226 464.131 496.911 463.168 497.188L465.047 499.821H463.596L461.887 497.397H460.358V499.821H459.135V492.868H459.134ZM462.146 496.314C463.02 496.314 463.576 495.857 463.576 495.152V495.132C463.576 494.387 463.039 493.98 462.135 493.98H460.358V496.314H462.146ZM469.396 492.818H470.529L473.589 499.821H472.297L471.591 498.142H468.303L467.589 499.821H466.336L469.396 492.818ZM471.143 497.059L469.943 494.278L468.75 497.059H471.143ZM476.207 494H474.003V492.868H479.646V494H477.439V499.821H476.208V494H476.207ZM481.62 492.868H482.841V499.821H481.62V492.868ZM485.005 496.364V496.344C485.005 494.387 486.515 492.748 488.651 492.748C490.787 492.748 492.277 494.367 492.277 496.323V496.344C492.277 498.301 490.768 499.94 488.632 499.94C486.495 499.94 485.005 498.321 485.005 496.364ZM490.995 496.364V496.344C490.995 494.992 490.012 493.87 488.632 493.87C487.25 493.87 486.286 494.973 486.286 496.323V496.344C486.286 497.695 487.269 498.807 488.65 498.807C490.031 498.807 490.995 497.716 490.995 496.364ZM494.37 492.868H495.504L499.229 497.676V492.868H500.43V499.821H499.409L495.573 494.874V499.821H494.371V492.868H494.37Z" fill="#333333"/>
<path d="M279.309 457.243H281.902C284.088 457.243 285.597 458.743 285.597 460.699V460.72C285.597 462.677 284.087 464.197 281.902 464.197H279.309V457.243ZM280.532 458.355V463.084H281.902C283.363 463.084 284.316 462.101 284.316 460.739V460.719C284.316 459.358 283.363 458.355 281.902 458.355H280.532ZM289.668 457.193H290.801L293.861 464.196H292.569L291.864 462.517H288.576L287.861 464.196H286.609L289.668 457.193ZM291.417 461.434L290.216 458.653L289.024 461.434H291.417ZM296.481 458.375H294.276V457.243H299.918V458.375H297.713V464.196H296.482L296.481 458.375ZM303.393 457.193H304.526L307.586 464.196H306.294L305.589 462.517H302.301L301.586 464.196H300.334L303.393 457.193ZM305.141 461.434L303.94 458.653L302.748 461.434H305.141ZM278.773 469.161H280.094L281.753 474.316L283.461 469.14H284.494L286.203 474.316L287.861 469.161H289.143L286.729 476.164H285.666L283.958 471.167L282.249 476.164H281.196L278.773 469.161ZM292.579 469.111H293.712L296.772 476.114H295.48L294.775 474.435H291.487L290.772 476.114H289.52L292.579 469.111ZM294.327 473.352L293.126 470.571L291.934 473.352H294.327ZM298.576 469.161H301.676C302.55 469.161 303.236 469.419 303.683 469.856C304.05 470.233 304.259 470.75 304.259 471.356V471.376C304.259 472.519 303.573 473.204 302.61 473.481L304.488 476.114H303.038L301.329 473.69H299.8V476.114H298.577L298.576 469.161ZM301.586 472.607C302.46 472.607 303.016 472.15 303.016 471.445V471.425C303.016 470.68 302.48 470.273 301.576 470.273H299.799V472.607H301.586ZM306.372 469.161H311.528V470.254H307.594V472.062H311.08V473.155H307.594V475.022H311.577V476.115H306.371V469.161H306.372ZM313.641 469.161H314.864V472.052H318.181V469.161H319.403V476.114H318.181V473.183H314.864V476.114H313.641V469.161ZM321.498 472.657V472.637C321.498 470.68 323.008 469.041 325.144 469.041C327.28 469.041 328.77 470.66 328.77 472.616V472.637C328.77 474.594 327.26 476.233 325.124 476.233C322.988 476.233 321.498 474.614 321.498 472.657ZM327.488 472.657V472.637C327.488 471.285 326.505 470.163 325.124 470.163C323.743 470.163 322.779 471.266 322.779 472.616V472.637C322.779 473.988 323.762 475.1 325.143 475.1C326.524 475.1 327.488 474.009 327.488 472.657ZM330.753 473.164V469.161H331.975V473.114C331.975 474.405 332.64 475.091 333.733 475.091C334.816 475.091 335.481 474.445 335.481 473.164V469.161H336.704V473.104C336.704 475.18 335.531 476.223 333.714 476.223C331.906 476.224 330.753 475.181 330.753 473.164ZM338.529 475.1L339.264 474.226C339.93 474.802 340.605 475.13 341.459 475.13C342.214 475.13 342.69 474.773 342.69 474.256V474.236C342.69 473.739 342.413 473.47 341.121 473.173C339.642 472.816 338.807 472.378 338.807 471.097V471.077C338.807 469.885 339.8 469.06 341.181 469.06C342.195 469.06 342.999 469.368 343.704 469.934L343.049 470.858C342.423 470.391 341.797 470.143 341.161 470.143C340.446 470.143 340.028 470.51 340.028 470.967V470.987C340.028 471.524 340.346 471.762 341.687 472.08C343.157 472.437 343.913 472.965 343.913 474.116V474.137C343.913 475.438 342.89 476.213 341.43 476.213C340.358 476.219 339.323 475.822 338.529 475.1ZM346.038 469.161H347.26V476.114H346.038V469.161ZM349.731 469.161H350.864L354.59 473.969V469.161H355.791V476.114H354.769L350.934 471.167V476.114H349.732L349.731 469.161ZM357.884 472.657V472.637C357.884 470.69 359.374 469.041 361.47 469.041C362.682 469.041 363.427 469.378 364.142 469.984L363.368 470.908C362.832 470.451 362.306 470.163 361.421 470.163C360.14 470.163 359.166 471.285 359.166 472.616V472.637C359.166 474.068 360.11 475.12 361.53 475.12C362.186 475.12 362.782 474.911 363.209 474.594V473.292H361.432V472.23H364.392V475.15C363.587 475.847 362.558 476.232 361.492 476.233C359.315 476.233 357.884 474.683 357.884 472.657Z" fill="#333333"/>
<path d="M374.772 312.901H380.778C385.84 312.901 389.338 316.376 389.338 320.909V320.955C389.338 325.488 385.84 329.009 380.778 329.009H374.772V312.901ZM377.603 315.478V326.431H380.778C384.16 326.431 386.369 324.153 386.369 321V320.954C386.369 317.802 384.16 315.477 380.778 315.477H377.603V315.478ZM398.769 312.786H401.392L408.479 329.009H405.488L403.854 325.12H396.237L394.581 329.009H391.682L398.769 312.786ZM402.818 322.612L400.034 316.169L397.273 322.612H402.818ZM414.55 315.524H409.442V312.901H422.512V315.524H417.404V329.008H414.55V315.524ZM430.562 312.786H433.185L440.273 329.009H437.281L435.647 325.12H428.031L426.375 329.009H423.476L430.562 312.786ZM434.612 322.612L431.828 316.169L429.067 322.612H434.612ZM314.785 340.509H317.8L322.701 348.125L327.602 340.509H330.616V356.616H327.786V345.065L322.701 352.658H322.609L317.569 345.111V356.616H314.785V340.509ZM341.887 340.393H344.511L351.598 356.616H348.607L346.973 352.727H339.357L337.7 356.616H334.801L341.887 340.393ZM345.937 350.22L343.153 343.777L340.392 350.22H345.937ZM355.781 340.509H358.404L367.033 351.646V340.509H369.817V356.616H367.447L358.565 345.157V356.616H355.781V340.509ZM381.088 340.393H383.712L390.799 356.616H387.808L386.174 352.727H378.558L376.901 356.616H374.002L381.088 340.393ZM385.138 350.22L382.354 343.777L379.593 350.22H385.138ZM393.257 348.608V348.562C393.257 344.052 396.709 340.233 401.564 340.233C404.371 340.233 406.097 341.015 407.753 342.419L405.958 344.559C404.716 343.5 403.496 342.833 401.448 342.833C398.48 342.833 396.224 345.434 396.224 348.517V348.563C396.224 351.876 398.41 354.316 401.701 354.316C403.22 354.316 404.6 353.833 405.59 353.096V350.081H401.471V347.619H408.328V354.384C406.741 355.742 404.462 356.893 401.609 356.893C396.571 356.892 393.257 353.303 393.257 348.608ZM413.434 340.509H425.376V343.04H416.264V347.228H424.34V349.759H416.264V354.085H425.491V356.616H413.434V340.509ZM430.274 340.509H433.288L438.189 348.125L443.09 340.509H446.105V356.616H443.274V345.065L438.189 352.658H438.098L433.059 345.111V356.616H430.275V340.509H430.274ZM451.67 340.509H463.612V343.04H454.5V347.228H462.576V349.759H454.5V354.085H463.727V356.616H451.67V340.509ZM468.51 340.509H471.133L479.762 351.646V340.509H482.546V356.616H480.176L471.294 345.157V356.616H468.51V340.509ZM492.067 343.132H486.959V340.509H500.029V343.132H494.921V356.616H492.067V343.132Z" fill="#333333"/>
<path d="M176.578 342.658H179.171C181.357 342.658 182.866 344.158 182.866 346.114V346.135C182.866 348.092 181.356 349.612 179.171 349.612H176.578V342.658ZM177.8 343.77V348.499H179.17C180.631 348.499 181.584 347.516 181.584 346.154V346.134C181.584 344.773 180.631 343.77 179.17 343.77H177.8ZM186.937 342.608H188.07L191.13 349.611H189.838L189.133 347.932H185.845L185.13 349.611H183.878L186.937 342.608ZM188.685 346.849L187.484 344.068L186.292 346.849H188.685ZM193.75 343.79H191.545V342.658H197.187V343.79H194.982V349.611H193.751V343.79H193.75ZM200.662 342.608H201.795L204.855 349.611H203.563L202.858 347.932H199.57L198.855 349.611H197.603L200.662 342.608ZM202.41 346.849L201.209 344.068L200.017 346.849H202.41ZM178.287 355.708H176.082V354.576H181.724V355.708H179.519V361.529H178.288V355.708H178.287ZM183.628 354.576H186.728C187.602 354.576 188.288 354.834 188.735 355.271C189.102 355.648 189.311 356.165 189.311 356.771V356.791C189.311 357.934 188.625 358.619 187.662 358.896L189.54 361.529H188.09L186.381 359.105H184.852V361.529H183.629V354.576H183.628ZM186.639 358.022C187.513 358.022 188.069 357.565 188.069 356.86V356.84C188.069 356.095 187.533 355.688 186.629 355.688H184.852V358.022H186.639ZM193.888 354.526H195.021L198.081 361.529H196.789L196.084 359.85H192.796L192.081 361.529H190.829L193.888 354.526ZM195.636 358.767L194.435 355.986L193.243 358.767H195.636ZM199.886 354.576H201.019L204.745 359.384V354.576H205.946V361.529H204.924L201.089 356.582V361.529H199.887V354.576H199.886ZM207.88 360.516L208.615 359.642C209.281 360.218 209.956 360.546 210.81 360.546C211.565 360.546 212.041 360.189 212.041 359.672V359.652C212.041 359.155 211.764 358.886 210.472 358.589C208.993 358.232 208.158 357.794 208.158 356.513V356.493C208.158 355.301 209.151 354.476 210.532 354.476C211.546 354.476 212.35 354.784 213.055 355.35L212.4 356.274C211.774 355.807 211.148 355.559 210.512 355.559C209.797 355.559 209.379 355.926 209.379 356.383V356.403C209.379 356.94 209.697 357.178 211.038 357.496C212.508 357.853 213.264 358.381 213.264 359.532V359.553C213.264 360.854 212.241 361.629 210.781 361.629C209.709 361.634 208.674 361.237 207.88 360.516ZM215.319 354.576H220.495V355.688H216.542V357.585H220.048V358.697H216.542V361.528H215.319V354.576ZM222.083 358.072V358.052C222.083 356.095 223.593 354.456 225.729 354.456C227.865 354.456 229.355 356.075 229.355 358.031V358.052C229.355 360.009 227.845 361.648 225.709 361.648C223.573 361.648 222.083 360.029 222.083 358.072ZM228.073 358.072V358.052C228.073 356.7 227.09 355.578 225.709 355.578C224.328 355.578 223.364 356.681 223.364 358.031V358.052C223.364 359.403 224.347 360.515 225.728 360.515C227.109 360.515 228.073 359.424 228.073 358.072ZM231.448 354.576H234.548C235.422 354.576 236.108 354.834 236.555 355.271C236.922 355.648 237.131 356.165 237.131 356.771V356.791C237.131 357.934 236.445 358.619 235.482 358.896L237.36 361.529H235.91L234.201 359.105H232.672V361.529H231.449L231.448 354.576ZM234.459 358.022C235.333 358.022 235.889 357.565 235.889 356.86V356.84C235.889 356.095 235.353 355.688 234.449 355.688H232.672V358.022H234.459ZM239.244 354.576H240.546L242.662 357.864L244.777 354.576H246.079V361.529H244.857V356.543L242.662 359.82H242.622L240.446 356.562V361.529H239.244V354.576ZM250.943 354.526H252.076L255.136 361.529H253.844L253.139 359.85H249.851L249.136 361.529H247.884L250.943 354.526ZM252.691 358.767L251.49 355.986L250.298 358.767H252.691ZM257.756 355.708H255.551V354.576H261.194V355.708H258.988V361.529H257.757V355.708H257.756ZM263.168 354.576H264.39V361.529H263.168V354.576ZM266.554 358.072V358.052C266.554 356.095 268.064 354.456 270.2 354.456C272.336 354.456 273.826 356.075 273.826 358.031V358.052C273.826 360.009 272.316 361.648 270.18 361.648C268.044 361.648 266.554 360.029 266.554 358.072ZM272.544 358.072V358.052C272.544 356.7 271.561 355.578 270.18 355.578C268.799 355.578 267.835 356.681 267.835 358.031V358.052C267.835 359.403 268.818 360.515 270.199 360.515C271.58 360.515 272.544 359.424 272.544 358.072ZM275.919 354.576H277.052L280.778 359.384V354.576H281.979V361.529H280.957L277.122 356.582V361.529H275.92V354.576H275.919ZM283.914 360.516L284.649 359.642C285.315 360.218 285.99 360.546 286.844 360.546C287.599 360.546 288.075 360.189 288.075 359.672V359.652C288.075 359.155 287.798 358.886 286.506 358.589C285.027 358.232 284.192 357.794 284.192 356.513V356.493C284.192 355.301 285.185 354.476 286.566 354.476C287.58 354.476 288.384 354.784 289.089 355.35L288.434 356.274C287.808 355.807 287.182 355.559 286.546 355.559C285.831 355.559 285.413 355.926 285.413 356.383V356.403C285.413 356.94 285.731 357.178 287.072 357.496C288.542 357.853 289.298 358.381 289.298 359.532V359.553C289.298 360.854 288.275 361.629 286.815 361.629C285.743 361.634 284.708 361.237 283.914 360.516Z" fill="#333333"/>
<path d="M220.48 243H223.073C225.259 243 226.768 244.5 226.768 246.456V246.477C226.768 248.434 225.258 249.954 223.073 249.954H220.48V243ZM221.703 244.112V248.841H223.073C224.534 248.841 225.487 247.858 225.487 246.496V246.476C225.487 245.115 224.534 244.112 223.073 244.112H221.703ZM230.839 242.95H231.972L235.032 249.953H233.74L233.035 248.274H229.747L229.032 249.953H227.78L230.839 242.95ZM232.587 247.191L231.386 244.41L230.194 247.191H232.587ZM237.652 244.132H235.447V243H241.089V244.132H238.884V249.953H237.653L237.652 244.132ZM244.564 242.95H245.697L248.757 249.953H247.465L246.76 248.274H243.472L242.757 249.953H241.505L244.564 242.95ZM246.312 247.191L245.111 244.41L243.919 247.191H246.312ZM220.172 258.414V258.394C220.172 256.447 221.662 254.798 223.758 254.798C224.97 254.798 225.715 255.135 226.43 255.741L225.656 256.665C225.12 256.208 224.594 255.92 223.709 255.92C222.428 255.92 221.454 257.042 221.454 258.373V258.394C221.454 259.825 222.398 260.877 223.818 260.877C224.474 260.877 225.07 260.668 225.497 260.351V259.049H223.72V257.987H226.68V260.907C225.875 261.605 224.845 261.989 223.78 261.99C221.603 261.99 220.172 260.44 220.172 258.414ZM228.574 258.414V258.394C228.574 256.437 230.084 254.798 232.22 254.798C234.356 254.798 235.846 256.417 235.846 258.373V258.394C235.846 260.351 234.336 261.99 232.2 261.99C230.064 261.99 228.574 260.371 228.574 258.414ZM234.564 258.414V258.394C234.564 257.042 233.581 255.92 232.2 255.92C230.819 255.92 229.855 257.023 229.855 258.373V258.394C229.855 259.745 230.838 260.857 232.219 260.857C233.6 260.857 234.564 259.766 234.564 258.414ZM236.907 254.918H238.259L240.355 260.262L242.441 254.918H243.762L240.881 261.921H239.798L236.907 254.918ZM245.566 254.918H250.722V256.011H246.788V257.819H250.274V258.912H246.788V260.779H250.771V261.872H245.565V254.918H245.566ZM252.836 254.918H255.936C256.81 254.918 257.496 255.176 257.943 255.613C258.31 255.99 258.519 256.507 258.519 257.113V257.133C258.519 258.276 257.833 258.961 256.87 259.238L258.748 261.871H257.298L255.589 259.447H254.06V261.871H252.837L252.836 254.918ZM255.847 258.364C256.721 258.364 257.277 257.907 257.277 257.202V257.182C257.277 256.437 256.741 256.03 255.837 256.03H254.06V258.364H255.847ZM260.632 254.918H261.765L265.491 259.726V254.918H266.692V261.871H265.67L261.835 256.924V261.871H260.633L260.632 254.918ZM271.557 254.868H272.69L275.75 261.871H274.458L273.753 260.192H270.465L269.75 261.871H268.498L271.557 254.868ZM273.305 259.109L272.104 256.328L270.912 259.109H273.305ZM277.554 254.918H278.687L282.413 259.726V254.918H283.614V261.871H282.592L278.757 256.924V261.871H277.555L277.554 254.918ZM285.709 258.414V258.394C285.709 256.417 287.189 254.798 289.295 254.798C290.576 254.798 291.352 255.244 292.017 255.88L291.233 256.784C290.676 256.267 290.081 255.92 289.286 255.92C287.965 255.92 286.991 257.013 286.991 258.373V258.394C286.991 259.754 287.955 260.857 289.286 260.857C290.14 260.857 290.686 260.52 291.283 259.963L292.067 260.758C291.342 261.513 290.547 261.989 289.246 261.989C287.218 261.99 285.709 260.411 285.709 258.414ZM293.96 254.918H299.116V256.011H295.182V257.819H298.668V258.912H295.182V260.779H299.165V261.872H293.959V254.918H293.96Z" fill="#333333"/>
<path d="M470.281 189.878H472.874C475.06 189.878 476.569 191.378 476.569 193.334V193.355C476.569 195.312 475.059 196.832 472.874 196.832H470.281V189.878ZM471.504 190.99V195.719H472.874C474.335 195.719 475.288 194.736 475.288 193.374V193.354C475.288 191.993 474.335 190.99 472.874 190.99H471.504ZM480.641 189.828H481.774L484.834 196.831H483.542L482.837 195.152H479.549L478.834 196.831H477.582L480.641 189.828ZM482.389 194.069L481.188 191.288L479.996 194.069H482.389ZM487.453 191.01H485.248V189.878H490.89V191.01H488.685V196.831H487.454V191.01H487.453ZM494.365 189.828H495.498L498.558 196.831H497.266L496.561 195.152H493.273L492.558 196.831H491.306L494.365 189.828ZM496.113 194.069L494.912 191.288L493.72 194.069H496.113ZM501.178 191.01H498.973V189.878H504.615V191.01H502.41V196.831H501.179V191.01H501.178ZM506.52 189.878H509.639C510.434 189.878 511.06 190.096 511.457 190.493C511.765 190.802 511.924 191.179 511.924 191.645V191.666C511.924 192.5 511.447 192.947 510.931 193.215C511.745 193.493 512.312 193.96 512.312 194.904V194.924C512.312 196.165 511.289 196.831 509.739 196.831H506.52V189.878ZM510.703 191.845C510.703 191.298 510.265 190.96 509.481 190.96H507.722V192.808H509.391C510.176 192.808 510.703 192.5 510.703 191.865V191.845ZM509.66 193.841H507.722V195.748H509.748C510.583 195.748 511.09 195.421 511.09 194.795V194.774C511.091 194.188 510.623 193.841 509.66 193.841ZM516.77 189.828H517.903L520.963 196.831H519.671L518.966 195.152H515.678L514.963 196.831H513.711L516.77 189.828ZM518.519 194.069L517.318 191.288L516.126 194.069H518.519ZM522.182 195.817L522.917 194.943C523.583 195.519 524.258 195.847 525.112 195.847C525.867 195.847 526.343 195.49 526.343 194.973V194.953C526.343 194.456 526.066 194.187 524.774 193.89C523.295 193.533 522.46 193.095 522.46 191.814V191.794C522.46 190.602 523.453 189.777 524.834 189.777C525.848 189.777 526.652 190.085 527.357 190.651L526.702 191.575C526.076 191.108 525.45 190.86 524.814 190.86C524.099 190.86 523.681 191.227 523.681 191.684V191.704C523.681 192.241 523.999 192.479 525.34 192.797C526.81 193.154 527.566 193.682 527.566 194.833V194.854C527.566 196.155 526.543 196.93 525.083 196.93C524.011 196.936 522.976 196.538 522.182 195.817ZM529.62 189.878H534.776V190.971H530.842V192.779H534.328V193.872H530.842V195.739H534.825V196.832H529.619V189.878H529.62ZM536.423 195.817L537.158 194.943C537.824 195.519 538.499 195.847 539.353 195.847C540.108 195.847 540.584 195.49 540.584 194.973V194.953C540.584 194.456 540.307 194.187 539.015 193.89C537.536 193.533 536.701 193.095 536.701 191.814V191.794C536.701 190.602 537.694 189.777 539.075 189.777C540.089 189.777 540.893 190.085 541.598 190.651L540.943 191.575C540.317 191.108 539.691 190.86 539.055 190.86C538.34 190.86 537.922 191.227 537.922 191.684V191.704C537.922 192.241 538.24 192.479 539.581 192.797C541.051 193.154 541.807 193.682 541.807 194.833V194.854C541.807 196.155 540.784 196.93 539.324 196.93C538.252 196.936 537.217 196.538 536.423 195.817Z" fill="#333333"/>
<path d="M499.652 147.758C491.954 147.758 483.668 146.154 483.668 142.63C483.668 139.106 491.954 137.502 499.652 137.502C507.35 137.502 515.635 139.107 515.635 142.63C515.635 146.153 507.351 147.758 499.652 147.758ZM499.652 139.502C490.425 139.502 485.668 141.695 485.668 142.63C485.668 143.565 490.426 145.758 499.652 145.758C508.878 145.758 513.635 143.566 513.635 142.63C513.635 141.694 508.878 139.502 499.652 139.502ZM499.652 155.301C491.954 155.301 483.668 153.697 483.668 150.173H485.668C485.668 151.109 490.426 153.301 499.652 153.301C508.878 153.301 513.635 151.109 513.635 150.173H515.635C515.636 153.697 507.351 155.301 499.652 155.301ZM499.652 162.845C491.954 162.845 483.668 161.241 483.668 157.717H485.668C485.668 158.653 490.426 160.845 499.652 160.845C508.878 160.845 513.635 158.653 513.635 157.717H515.635C515.636 161.24 507.351 162.845 499.652 162.845ZM499.652 170.387C491.954 170.387 483.668 168.783 483.668 165.259H485.668C485.668 166.195 490.426 168.387 499.652 168.387C508.878 168.387 513.635 166.195 513.635 165.259H515.635C515.636 168.782 507.351 170.387 499.652 170.387Z" fill="#333333"/>
<path d="M483.68 142.706H485.68V165.666H483.68V142.706ZM513.609 142.706H515.609V165.666H513.609V142.706ZM545.979 147.758C538.281 147.758 529.996 146.154 529.996 142.63C529.996 139.106 538.281 137.502 545.979 137.502C553.677 137.502 561.963 139.107 561.963 142.63C561.963 146.153 553.677 147.758 545.979 147.758ZM545.979 139.502C536.753 139.502 531.996 141.695 531.996 142.63C531.996 143.565 536.754 145.758 545.979 145.758C555.206 145.758 559.963 143.566 559.963 142.63C559.963 141.694 555.205 139.502 545.979 139.502ZM545.979 155.301C538.281 155.301 529.996 153.697 529.996 150.173H531.996C531.996 151.109 536.754 153.301 545.979 153.301C555.206 153.301 559.963 151.109 559.963 150.173H561.963C561.963 153.697 553.677 155.301 545.979 155.301ZM545.979 162.845C538.281 162.845 529.996 161.241 529.996 157.717H531.996C531.996 158.653 536.754 160.845 545.979 160.845C555.206 160.845 559.963 158.653 559.963 157.717H561.963C561.963 161.24 553.677 162.845 545.979 162.845ZM545.979 170.387C538.281 170.387 529.996 168.783 529.996 165.259H531.996C531.996 166.195 536.754 168.387 545.979 168.387C555.206 168.387 559.963 166.195 559.963 165.259H561.963C561.963 168.782 553.677 170.387 545.979 170.387Z" fill="#333333"/>
<path d="M530.009 142.706H532.009V165.666H530.009V142.706ZM559.939 142.706H561.939V165.666H559.939V142.706ZM522.815 108.194C515.117 108.194 506.832 106.59 506.832 103.066C506.832 99.542 515.117 97.938 522.815 97.938C530.513 97.938 538.799 99.543 538.799 103.066C538.799 106.589 530.514 108.194 522.815 108.194ZM522.815 99.937C513.589 99.937 508.832 102.13 508.832 103.065C508.832 104 513.59 106.193 522.815 106.193C532.042 106.193 536.799 104.001 536.799 103.065C536.799 102.129 532.042 99.937 522.815 99.937ZM522.815 115.737C515.117 115.737 506.832 114.133 506.832 110.609H508.832C508.832 111.545 513.59 113.737 522.815 113.737C532.042 113.737 536.799 111.545 536.799 110.609H538.799C538.8 114.132 530.514 115.737 522.815 115.737ZM522.815 123.28C515.117 123.28 506.832 121.676 506.832 118.152H508.832C508.832 119.088 513.59 121.28 522.815 121.28C532.042 121.28 536.799 119.088 536.799 118.152H538.799C538.8 121.675 530.514 123.28 522.815 123.28ZM522.815 130.823C515.117 130.823 506.832 129.218 506.832 125.695H508.832C508.832 126.631 513.59 128.823 522.815 128.823C532.042 128.823 536.799 126.63 536.799 125.695H538.799C538.8 129.218 530.514 130.823 522.815 130.823Z" fill="#333333"/>
<path d="M506.844 103.142H508.844V126.102H506.844V103.142ZM536.773 103.142H538.773V126.102H536.773V103.142ZM514.635 150.357H530.995V152.357H514.635V150.357Z" fill="#333333"/>
<path d="M500.793 137.474L510.726 127.541L512.14 128.955L502.207 138.888L500.793 137.474Z" fill="#333333"/>
<path d="M533.648 128.955L535.063 127.541L544.996 137.474L543.582 138.889L533.648 128.955Z" fill="#333333"/>
<path d="M618.265 237.132L620.042 240.331C620.215 240.643 620.469 240.902 620.776 241.083C621.083 241.264 621.434 241.359 621.79 241.359C622.147 241.359 622.497 241.264 622.804 241.083C623.111 240.902 623.365 240.643 623.538 240.331L625.315 237.132C626.272 237.31 627.211 237.56 628.125 237.881L628.064 241.544C628.058 241.901 628.148 242.253 628.324 242.563C628.5 242.873 628.755 243.131 629.064 243.309C629.373 243.488 629.724 243.58 630.081 243.577C630.438 243.574 630.787 243.476 631.093 243.292L634.233 241.409C634.97 242.042 635.657 242.729 636.29 243.466L634.407 246.606C634.225 246.909 634.127 247.256 634.122 247.61C634.118 247.964 634.207 248.312 634.382 248.62C634.556 248.928 634.809 249.185 635.115 249.363C635.421 249.541 635.768 249.635 636.122 249.635H636.155L639.818 249.574C640.139 250.488 640.389 251.428 640.567 252.384L637.368 254.161C637.056 254.334 636.797 254.588 636.616 254.895C636.435 255.202 636.34 255.552 636.34 255.909C636.34 256.266 636.435 256.616 636.616 256.923C636.797 257.23 637.056 257.484 637.368 257.657L640.567 259.434C640.39 260.388 640.14 261.328 639.818 262.244L636.155 262.183H636.122C635.768 262.183 635.421 262.277 635.115 262.456C634.81 262.634 634.557 262.89 634.383 263.198C634.208 263.506 634.119 263.855 634.123 264.208C634.127 264.562 634.225 264.908 634.407 265.212L636.29 268.352C635.657 269.089 634.97 269.776 634.233 270.409L631.093 268.526C630.787 268.342 630.438 268.243 630.081 268.24C629.724 268.237 629.373 268.33 629.064 268.509C628.755 268.687 628.5 268.945 628.324 269.255C628.148 269.566 628.058 269.917 628.064 270.274L628.125 273.937C627.211 274.258 626.271 274.508 625.315 274.686L623.538 271.487C623.365 271.175 623.111 270.916 622.804 270.735C622.497 270.554 622.147 270.459 621.79 270.459C621.434 270.459 621.083 270.554 620.776 270.735C620.469 270.916 620.215 271.175 620.042 271.487L618.265 274.686C617.311 274.509 616.371 274.258 615.455 273.937L615.516 270.274C615.522 269.917 615.432 269.565 615.257 269.255C615.081 268.945 614.825 268.687 614.516 268.509C614.207 268.33 613.856 268.238 613.499 268.241C613.142 268.244 612.793 268.342 612.487 268.526L609.347 270.409C608.61 269.776 607.923 269.089 607.29 268.352L609.173 265.212C609.355 264.908 609.453 264.562 609.458 264.208C609.462 263.854 609.373 263.506 609.199 263.198C609.024 262.89 608.771 262.633 608.465 262.455C608.16 262.277 607.812 262.183 607.458 262.183H607.425L603.762 262.244C603.441 261.328 603.19 260.388 603.013 259.434L606.212 257.657C606.524 257.484 606.783 257.23 606.964 256.923C607.145 256.616 607.24 256.266 607.24 255.909C607.24 255.552 607.145 255.202 606.964 254.895C606.783 254.588 606.524 254.334 606.212 254.161L603.013 252.384C603.191 251.427 603.441 250.488 603.762 249.573L607.425 249.634H607.458C607.812 249.634 608.159 249.54 608.465 249.361C608.77 249.183 609.023 248.927 609.198 248.619C609.372 248.311 609.462 247.962 609.457 247.609C609.453 247.255 609.355 246.909 609.173 246.605L607.29 243.465C607.923 242.728 608.61 242.041 609.347 241.408L612.487 243.291C612.793 243.475 613.142 243.574 613.499 243.577C613.856 243.58 614.207 243.487 614.516 243.308C614.825 243.13 615.081 242.872 615.256 242.562C615.432 242.251 615.522 241.9 615.516 241.543L615.455 237.88C616.369 237.56 617.309 237.31 618.265 237.132ZM621.657 265.837C627.263 265.837 631.823 261.276 631.823 255.671C631.823 250.065 627.263 245.505 621.657 245.505C616.051 245.505 611.491 250.066 611.491 255.671C611.491 261.276 616.051 265.837 621.657 265.837ZM624.241 234.949L621.79 239.36L619.339 234.949C617.263 235.189 615.279 235.728 613.431 236.526L613.515 241.578L609.183 238.981C607.541 240.206 606.085 241.662 604.86 243.305L607.457 247.637L602.405 247.553C601.593 249.435 601.062 251.425 600.828 253.461L605.239 255.912L600.828 258.363C601.068 260.439 601.607 262.423 602.405 264.271L607.457 264.187L604.86 268.519C606.085 270.161 607.541 271.617 609.183 272.842L613.515 270.245L613.431 275.297C615.313 276.109 617.303 276.64 619.339 276.874L621.79 272.463L624.241 276.874C626.317 276.634 628.301 276.095 630.149 275.297L630.065 270.245L634.397 272.842C636.039 271.617 637.496 270.161 638.721 268.519L636.124 264.187L641.176 264.271C641.988 262.389 642.519 260.399 642.753 258.363L638.342 255.912L642.753 253.461C642.519 251.425 641.988 249.435 641.176 247.553L636.124 247.637L638.721 243.305C637.496 241.662 636.04 240.206 634.397 238.981L630.065 241.578L630.149 236.526C628.268 235.714 626.277 235.183 624.241 234.949ZM621.657 263.837C619.491 263.837 617.414 262.977 615.883 261.445C614.351 259.914 613.491 257.837 613.491 255.671C613.491 253.505 614.351 251.428 615.883 249.897C617.414 248.365 619.491 247.505 621.657 247.505C623.823 247.505 625.9 248.365 627.431 249.897C628.963 251.428 629.823 253.505 629.823 255.671C629.823 257.837 628.963 259.914 627.431 261.445C625.9 262.977 623.823 263.837 621.657 263.837Z" fill="#333333"/>
<path d="M621.79 252.967C622.57 252.968 623.318 253.278 623.87 253.83C624.422 254.382 624.732 255.13 624.733 255.91C624.733 257.533 623.413 258.853 621.79 258.853C620.167 258.853 618.847 257.533 618.847 255.91C618.848 255.13 619.158 254.382 619.71 253.83C620.261 253.278 621.01 252.968 621.79 252.967ZM621.79 250.967C620.479 250.967 619.222 251.488 618.295 252.415C617.368 253.342 616.847 254.599 616.847 255.91C616.847 257.221 617.368 258.478 618.295 259.405C619.222 260.332 620.479 260.853 621.79 260.853C623.101 260.853 624.358 260.332 625.285 259.405C626.212 258.478 626.733 257.221 626.733 255.91C626.733 254.599 626.212 253.342 625.285 252.415C624.358 251.488 623.101 250.967 621.79 250.967ZM621.79 218.406C622.859 218.407 623.884 218.832 624.64 219.588C625.396 220.345 625.822 221.37 625.823 222.439C625.823 224.663 624.014 226.472 621.79 226.472C619.566 226.472 617.757 224.663 617.757 222.439C617.758 221.37 618.183 220.345 618.939 219.588C619.695 218.832 620.721 218.407 621.79 218.406ZM621.79 216.406C620.19 216.406 618.655 217.042 617.524 218.173C616.392 219.304 615.757 220.839 615.757 222.439C615.757 224.039 616.392 225.574 617.524 226.705C618.655 227.836 620.19 228.472 621.79 228.472C623.39 228.472 624.924 227.836 626.056 226.705C627.187 225.574 627.823 224.039 627.823 222.439C627.823 220.839 627.187 219.304 626.056 218.173C624.924 217.042 623.39 216.406 621.79 216.406ZM653.508 251.878C654.577 251.879 655.602 252.304 656.358 253.06C657.114 253.817 657.54 254.842 657.541 255.911C657.541 258.135 655.732 259.944 653.508 259.944C651.284 259.944 649.475 258.135 649.475 255.911C649.476 254.842 649.902 253.817 650.658 253.061C651.414 252.305 652.439 251.88 653.508 251.878ZM653.508 249.878C652.715 249.878 651.931 250.034 651.199 250.337C650.467 250.64 649.802 251.085 649.242 251.645C648.682 252.205 648.237 252.87 647.934 253.602C647.631 254.334 647.475 255.119 647.475 255.911C647.475 256.703 647.631 257.488 647.934 258.22C648.237 258.952 648.682 259.617 649.242 260.177C649.802 260.737 650.467 261.182 651.199 261.485C651.931 261.788 652.715 261.944 653.508 261.944C655.108 261.944 656.642 261.308 657.774 260.177C658.905 259.046 659.541 257.511 659.541 255.911C659.541 254.311 658.905 252.776 657.774 251.645C656.642 250.514 655.108 249.878 653.508 249.878ZM644.527 228.354C645.596 228.355 646.621 228.78 647.377 229.536C648.133 230.293 648.559 231.318 648.56 232.387C648.56 234.611 646.751 236.42 644.527 236.42C642.303 236.42 640.494 234.611 640.494 232.387C640.495 231.318 640.92 230.293 641.676 229.536C642.432 228.78 643.458 228.355 644.527 228.354ZM644.527 226.354C642.927 226.354 641.392 226.99 640.261 228.121C639.129 229.252 638.494 230.787 638.494 232.387C638.494 233.987 639.129 235.522 640.261 236.653C641.392 237.784 642.927 238.42 644.527 238.42C646.127 238.42 647.661 237.784 648.793 236.653C649.924 235.522 650.56 233.987 650.56 232.387C650.56 230.787 649.924 229.252 648.793 228.121C647.661 226.99 646.127 226.354 644.527 226.354ZM597.497 228.354C598.566 228.355 599.591 228.78 600.347 229.536C601.103 230.293 601.529 231.318 601.53 232.387C601.53 234.611 599.721 236.42 597.497 236.42C595.273 236.42 593.464 234.611 593.464 232.387C593.465 231.318 593.891 230.293 594.647 229.537C595.403 228.781 596.428 228.356 597.497 228.354ZM597.497 226.354C595.897 226.354 594.362 226.99 593.231 228.121C592.099 229.252 591.464 230.787 591.464 232.387C591.464 233.987 592.099 235.522 593.231 236.653C594.362 237.784 595.897 238.42 597.497 238.42C599.097 238.42 600.631 237.784 601.763 236.653C602.894 235.522 603.53 233.987 603.53 232.387C603.53 230.787 602.894 229.252 601.763 228.121C600.631 226.99 599.097 226.354 597.497 226.354ZM589.627 251.878C590.696 251.879 591.721 252.304 592.477 253.06C593.233 253.817 593.659 254.842 593.66 255.911C593.66 258.135 591.851 259.944 589.627 259.944C587.403 259.944 585.594 258.135 585.594 255.911C585.595 254.842 586.021 253.817 586.777 253.061C587.533 252.305 588.558 251.88 589.627 251.878ZM589.627 249.878C588.835 249.878 588.05 250.034 587.318 250.337C586.586 250.64 585.921 251.085 585.361 251.645C584.801 252.205 584.356 252.87 584.053 253.602C583.75 254.334 583.594 255.119 583.594 255.911C583.594 256.703 583.75 257.488 584.053 258.22C584.356 258.952 584.801 259.617 585.361 260.177C585.921 260.737 586.586 261.182 587.318 261.485C588.05 261.788 588.835 261.944 589.627 261.944C591.227 261.944 592.761 261.308 593.893 260.177C595.024 259.046 595.66 257.511 595.66 255.911C595.66 254.311 595.024 252.776 593.893 251.645C592.761 250.514 591.227 249.878 589.627 249.878Z" fill="#333333"/>
<path d="M594.266 254.91H605.587V256.91H594.266V254.91ZM637.69 254.91H649.011V256.91H637.69V254.91ZM620.789 227.293H622.789V240.147H620.789V227.293Z" fill="#333333"/>
<path d="M600.215 236.883L601.557 235.401L608.119 241.344L606.777 242.826L600.215 236.883Z" fill="#333333"/>
<path d="M634.289 240.854L639.671 235.472L641.085 236.886L635.703 242.268L634.289 240.854Z" fill="#333333"/>
<path d="M217.409 197.78C214.28 187.182 204.369 179.781 193.308 179.781C182.31 179.781 172.416 187.128 169.247 197.645L167.332 197.069C170.753 185.713 181.435 177.781 193.308 177.781C205.249 177.781 215.949 185.772 219.327 197.214L217.409 197.78ZM177.768 221.044H168.8C168.535 221.044 168.28 220.939 168.093 220.751C167.905 220.564 167.8 220.309 167.8 220.044V202.892C167.8 202.627 167.905 202.372 168.093 202.185C168.28 201.997 168.535 201.892 168.8 201.892H177.768C178.033 201.892 178.288 201.997 178.475 202.185C178.663 202.372 178.768 202.627 178.768 202.892V220.044C178.768 220.309 178.663 220.564 178.475 220.751C178.288 220.939 178.033 221.044 177.768 221.044ZM169.8 219.044H176.768V203.892H169.8V219.044ZM197.813 221.044H188.845C188.58 221.044 188.325 220.939 188.138 220.751C187.95 220.564 187.845 220.309 187.845 220.044V202.892C187.845 202.627 187.95 202.372 188.138 202.185C188.325 201.997 188.58 201.892 188.845 201.892H197.813C198.078 201.892 198.333 201.997 198.52 202.185C198.708 202.372 198.813 202.627 198.813 202.892V220.044C198.813 220.309 198.708 220.564 198.52 220.751C198.333 220.939 198.078 221.044 197.813 221.044ZM189.845 219.044H196.813V203.892H189.845V219.044ZM217.858 221.044H208.89C208.625 221.044 208.37 220.939 208.183 220.751C207.995 220.564 207.89 220.309 207.89 220.044V202.892C207.89 202.627 207.995 202.372 208.183 202.185C208.37 201.997 208.625 201.892 208.89 201.892H217.858C218.123 201.892 218.378 201.997 218.565 202.185C218.753 202.372 218.858 202.627 218.858 202.892V220.044C218.858 220.309 218.753 220.564 218.565 220.751C218.378 220.939 218.123 221.044 217.858 221.044ZM209.89 219.044H216.858V203.892H209.89V219.044Z" fill="#333333"/>
<path d="M221.026 226.49H164.766C164.5 226.49 164.246 226.385 164.059 226.197C163.871 226.01 163.766 225.755 163.766 225.49V220.14C163.766 219.875 163.871 219.621 164.059 219.433C164.246 219.245 164.5 219.14 164.766 219.14H221.026C221.291 219.14 221.545 219.245 221.733 219.433C221.92 219.621 222.026 219.875 222.026 220.14V225.49C222.026 225.755 221.92 226.01 221.733 226.197C221.545 226.385 221.291 226.49 221.026 226.49ZM165.767 224.49H220.027V221.14H165.767V224.49Z" fill="#333333"/>
<path d="M225.535 233.776H160.552C160.287 233.776 160.033 233.671 159.845 233.483C159.658 233.296 159.552 233.041 159.552 232.776V225.658C159.552 225.393 159.658 225.138 159.845 224.951C160.033 224.763 160.287 224.658 160.552 224.658H225.535C225.8 224.658 226.055 224.763 226.242 224.951C226.43 225.138 226.535 225.393 226.535 225.658V232.776C226.535 233.041 226.43 233.296 226.242 233.483C226.055 233.671 225.8 233.776 225.535 233.776ZM161.552 231.776H224.535V226.658H161.552V231.776ZM225.389 203.488H160.406C160.141 203.488 159.887 203.383 159.699 203.195C159.512 203.008 159.406 202.753 159.406 202.488V196.714C159.406 196.449 159.512 196.194 159.699 196.007C159.887 195.819 160.141 195.714 160.406 195.714H225.389C225.654 195.714 225.909 195.819 226.096 196.007C226.284 196.194 226.389 196.449 226.389 196.714V202.488C226.389 202.753 226.284 203.008 226.096 203.195C225.909 203.383 225.654 203.488 225.389 203.488ZM161.406 201.488H224.389V197.714H161.406V201.488ZM193.328 185.528C194 185.529 194.645 185.796 195.12 186.271C195.595 186.747 195.862 187.391 195.863 188.063C195.862 188.735 195.595 189.379 195.12 189.855C194.645 190.33 194 190.597 193.328 190.598C192.656 190.597 192.012 190.33 191.537 189.855C191.061 189.379 190.794 188.735 190.793 188.063C190.794 187.391 191.061 186.747 191.537 186.271C192.012 185.796 192.656 185.529 193.328 185.528ZM193.328 183.528C192.727 183.519 192.13 183.63 191.572 183.853C191.014 184.077 190.506 184.41 190.078 184.832C189.65 185.254 189.309 185.756 189.077 186.311C188.845 186.866 188.725 187.461 188.725 188.062C188.725 188.663 188.845 189.258 189.077 189.813C189.309 190.368 189.649 190.871 190.077 191.293C190.505 191.715 191.013 192.047 191.571 192.271C192.129 192.495 192.726 192.606 193.327 192.597C194.518 192.579 195.654 192.094 196.491 191.246C197.327 190.397 197.795 189.254 197.795 188.063C197.796 186.872 197.327 185.729 196.491 184.88C195.655 184.031 194.519 183.546 193.328 183.528ZM192.429 163.447H194.429V178.979H192.429V163.447Z" fill="#333333"/>
<path d="M200.203 168.436V172.341H194.355V168.436H200.203ZM202.203 166.436H192.355V174.341H202.203V166.436Z" fill="#333333"/>
<path d="M205.542 169.619L205.082 170.118C204.748 170.481 204.559 170.955 204.553 171.448C204.547 171.942 204.724 172.42 205.049 172.791L205.691 173.524H202.254V169.619H205.542ZM210.102 167.619H200.254V175.524H210.102L206.553 171.473L210.102 167.619Z" fill="#333333"/>
<path d="M150.907 434.668V447.081H142.81V434.668H150.907ZM151.726 432.668H141.99C141.338 432.668 140.809 433.197 140.809 433.849V447.9C140.809 448.552 141.338 449.081 141.99 449.081H151.726C152.378 449.081 152.907 448.552 152.907 447.9V433.849C152.907 433.694 152.876 433.54 152.817 433.397C152.758 433.254 152.671 433.123 152.561 433.014C152.451 432.904 152.321 432.817 152.178 432.758C152.034 432.698 151.881 432.668 151.726 432.668ZM186.881 428.858V447.081H178.784V428.858H186.881ZM187.7 426.858H177.964C177.312 426.858 176.783 427.387 176.783 428.039V447.9C176.783 448.552 177.312 449.081 177.964 449.081H187.7C188.352 449.081 188.881 448.552 188.881 447.9V428.039C188.881 427.884 188.85 427.73 188.791 427.587C188.732 427.444 188.645 427.313 188.535 427.204C188.425 427.094 188.295 427.007 188.152 426.948C188.008 426.888 187.855 426.858 187.7 426.858ZM204.864 416.556V447.08H196.774V416.556H204.864ZM205.683 414.556H195.954C195.302 414.556 194.773 415.085 194.773 415.737V447.9C194.773 448.552 195.302 449.081 195.954 449.081H205.683C206.335 449.081 206.864 448.552 206.864 447.9V415.737C206.864 415.085 206.335 414.556 205.683 414.556ZM168.894 422.218V447.081H160.797V422.218H168.894ZM169.713 420.218H159.977C159.325 420.218 158.796 420.747 158.796 421.399V447.9C158.796 448.552 159.325 449.081 159.977 449.081H169.713C170.365 449.081 170.894 448.552 170.894 447.9V421.399C170.894 421.244 170.863 421.09 170.804 420.947C170.745 420.804 170.658 420.673 170.548 420.564C170.438 420.454 170.308 420.367 170.165 420.308C170.021 420.248 169.868 420.218 169.713 420.218Z" fill="#333333"/>
<path d="M149.469 411.101L161.657 400.856L162.944 402.387L150.756 412.632L149.469 411.101Z" fill="#333333"/>
<path d="M168.734 402.96L169.825 401.283L179.879 407.822L178.788 409.498L168.734 402.96Z" fill="#333333"/>
<path d="M186.035 405.412L196.86 392.543L198.39 393.831L187.566 406.7L186.035 405.412Z" fill="#333333"/>
<path d="M146.857 410.728C149.12 410.728 150.96 412.569 150.96 414.831C150.96 417.093 149.119 418.934 146.857 418.934C144.595 418.934 142.754 417.093 142.754 414.831C142.754 412.569 144.594 410.728 146.857 410.728ZM146.857 408.728C145.238 408.728 143.686 409.371 142.541 410.516C141.397 411.66 140.754 413.212 140.754 414.831C140.754 416.45 141.397 418.002 142.541 419.147C143.686 420.291 145.238 420.934 146.857 420.934C148.476 420.934 150.028 420.291 151.172 419.147C152.317 418.002 152.96 416.45 152.96 414.831C152.96 413.212 152.317 411.66 151.172 410.516C150.028 409.371 148.476 408.728 146.857 408.728ZM184.1 406.018C185.188 406.019 186.231 406.452 187 407.221C187.769 407.99 188.202 409.033 188.203 410.121C188.203 412.384 186.362 414.224 184.1 414.224C181.838 414.224 179.997 412.383 179.997 410.121C179.998 409.033 180.431 407.99 181.2 407.221C181.969 406.452 183.012 406.019 184.1 406.018ZM184.1 404.018C182.481 404.018 180.929 404.661 179.784 405.806C178.64 406.95 177.997 408.502 177.997 410.121C177.997 411.74 178.64 413.292 179.784 414.437C180.929 415.581 182.481 416.224 184.1 416.224C185.719 416.224 187.271 415.581 188.415 414.437C189.56 413.292 190.203 411.74 190.203 410.121C190.203 408.502 189.56 406.95 188.415 405.806C187.271 404.661 185.719 404.018 184.1 404.018ZM200.834 385.558C201.922 385.559 202.965 385.992 203.734 386.761C204.503 387.53 204.936 388.573 204.937 389.661C204.937 391.924 203.096 393.764 200.834 393.764C198.572 393.764 196.731 391.923 196.731 389.661C196.732 388.573 197.165 387.53 197.934 386.761C198.703 385.992 199.746 385.559 200.834 385.558ZM200.834 383.558C199.215 383.558 197.663 384.201 196.518 385.346C195.374 386.49 194.731 388.042 194.731 389.661C194.731 391.28 195.374 392.832 196.518 393.977C197.663 395.121 199.215 395.764 200.834 395.764C202.453 395.764 204.005 395.121 205.149 393.977C206.294 392.832 206.937 391.28 206.937 389.661C206.937 388.042 206.294 386.49 205.149 385.346C204.005 384.201 202.453 383.558 200.834 383.558ZM165.587 395.183C167.85 395.183 169.69 397.024 169.69 399.286C169.69 401.548 167.849 403.389 165.587 403.389C163.325 403.389 161.484 401.548 161.484 399.286C161.484 397.024 163.324 395.183 165.587 395.183ZM165.587 393.183C163.968 393.183 162.416 393.826 161.271 394.971C160.127 396.115 159.484 397.667 159.484 399.286C159.484 400.905 160.127 402.457 161.271 403.602C162.416 404.746 163.968 405.389 165.587 405.389C167.206 405.389 168.758 404.746 169.902 403.602C171.047 402.457 171.69 400.905 171.69 399.286C171.69 397.667 171.047 396.115 169.902 394.971C168.758 393.826 167.206 393.183 165.587 393.183Z" fill="#333333"/>
<path d="M613.485 480.308C613.746 480.308 614.003 480.38 614.227 480.515C614.45 480.651 614.632 480.845 614.753 481.077C614.874 481.309 614.929 481.57 614.912 481.831C614.896 482.092 614.808 482.343 614.658 482.558L605.241 496.072C605.123 496.241 604.97 496.383 604.791 496.488C604.613 496.593 604.415 496.658 604.209 496.678C604.004 496.699 603.796 496.674 603.601 496.607C603.405 496.54 603.227 496.431 603.078 496.288L595.867 489.393C595.731 489.263 595.622 489.108 595.546 488.936C595.471 488.764 595.43 488.579 595.425 488.391C595.421 488.203 595.454 488.016 595.522 487.841C595.59 487.666 595.692 487.506 595.822 487.37C595.952 487.234 596.107 487.125 596.279 487.049C596.451 486.974 596.636 486.933 596.824 486.928C597.012 486.924 597.199 486.957 597.374 487.025C597.549 487.093 597.709 487.195 597.845 487.325L603.848 493.064L612.31 480.922C612.588 480.522 613.033 480.308 613.485 480.308ZM613.486 478.308C612.363 478.308 611.31 478.858 610.669 479.779L603.543 490.005L599.228 485.879C598.591 485.267 597.741 484.926 596.858 484.928C595.926 484.928 595.022 485.315 594.377 485.988C594.064 486.313 593.82 486.696 593.657 487.117C593.493 487.537 593.415 487.985 593.427 488.436C593.448 489.352 593.824 490.206 594.486 490.839L601.697 497.734C602.054 498.077 602.481 498.338 602.949 498.499C603.416 498.66 603.914 498.718 604.406 498.668C605.406 498.57 606.308 498.04 606.883 497.216L616.3 483.702C616.658 483.187 616.868 482.585 616.907 481.959C616.947 481.334 616.815 480.709 616.525 480.154C616.235 479.598 615.798 479.132 615.263 478.807C614.727 478.481 614.113 478.309 613.486 478.308Z" fill="#333333"/>
<path d="M634.405 465.037C634.575 465.037 634.713 465.175 634.713 465.345V505.135C634.713 505.305 634.575 505.443 634.405 505.443H576.132C576.051 505.443 575.972 505.41 575.914 505.353C575.857 505.295 575.824 505.217 575.824 505.135V465.345C575.824 465.175 575.962 465.037 576.132 465.037H634.405ZM634.405 463.037H576.132C575.52 463.037 574.933 463.28 574.5 463.713C574.067 464.146 573.824 464.733 573.824 465.345V505.135C573.824 505.747 574.067 506.334 574.5 506.767C574.933 507.2 575.52 507.443 576.132 507.443H634.405C635.017 507.443 635.604 507.2 636.037 506.767C636.47 506.334 636.713 505.747 636.713 505.135V465.345C636.713 464.733 636.47 464.146 636.037 463.713C635.604 463.28 635.017 463.037 634.405 463.037Z" fill="#333333"/>
<path d="M575.328 472.482H635.636V474.482H575.328V472.482ZM581.605 469.769H579.761C579.496 469.769 579.242 469.664 579.054 469.476C578.866 469.289 578.761 469.034 578.761 468.769C578.761 468.504 578.866 468.249 579.054 468.062C579.242 467.874 579.496 467.769 579.761 467.769H581.605C581.87 467.769 582.125 467.874 582.312 468.062C582.5 468.249 582.605 468.504 582.605 468.769C582.605 469.034 582.5 469.289 582.312 469.476C582.125 469.664 581.87 469.769 581.605 469.769ZM587.546 469.769H585.702C585.437 469.769 585.183 469.664 584.995 469.476C584.807 469.289 584.702 469.034 584.702 468.769C584.702 468.504 584.807 468.249 584.995 468.062C585.183 467.874 585.437 467.769 585.702 467.769H587.546C587.811 467.769 588.066 467.874 588.253 468.062C588.441 468.249 588.546 468.504 588.546 468.769C588.546 469.034 588.441 469.289 588.253 469.476C588.066 469.664 587.811 469.769 587.546 469.769ZM593.487 469.769H591.643C591.378 469.769 591.124 469.664 590.936 469.476C590.748 469.289 590.643 469.034 590.643 468.769C590.643 468.504 590.748 468.249 590.936 468.062C591.124 467.874 591.378 467.769 591.643 467.769H593.487C593.752 467.769 594.007 467.874 594.194 468.062C594.382 468.249 594.487 468.504 594.487 468.769C594.487 469.034 594.382 469.289 594.194 469.476C594.007 469.664 593.752 469.769 593.487 469.769ZM631.792 458.694H578.749C578.484 458.694 578.23 458.589 578.042 458.401C577.854 458.213 577.749 457.959 577.749 457.694C577.749 457.429 577.854 457.174 578.042 456.987C578.23 456.799 578.484 456.694 578.749 456.694H631.792C632.057 456.694 632.312 456.799 632.499 456.987C632.687 457.174 632.792 457.429 632.792 457.694C632.792 457.959 632.687 458.213 632.499 458.401C632.312 458.589 632.057 458.694 631.792 458.694ZM628.58 452.01H581.961C581.696 452.01 581.442 451.905 581.254 451.717C581.066 451.53 580.961 451.275 580.961 451.01C580.961 450.745 581.066 450.49 581.254 450.303C581.442 450.115 581.696 450.01 581.961 450.01H628.58C628.845 450.01 629.1 450.115 629.287 450.303C629.475 450.49 629.58 450.745 629.58 451.01C629.58 451.275 629.475 451.53 629.287 451.717C629.1 451.905 628.845 452.01 628.58 452.01ZM625.055 445.325H585.487C585.222 445.325 584.968 445.22 584.78 445.032C584.592 444.845 584.487 444.59 584.487 444.325C584.487 444.06 584.592 443.805 584.78 443.618C584.968 443.43 585.222 443.325 585.487 443.325H625.055C625.32 443.325 625.575 443.43 625.762 443.618C625.95 443.805 626.055 444.06 626.055 444.325C626.055 444.59 625.95 444.845 625.762 445.032C625.575 445.22 625.32 445.325 625.055 445.325Z" fill="#333333"/>
<path d="M319.273 106.849H317.273V98.0559C317.273 97.7907 317.379 97.5363 317.566 97.3488C317.754 97.1613 318.008 97.0559 318.273 97.0559H377.72C377.986 97.0559 378.24 97.1613 378.428 97.3488C378.615 97.5363 378.72 97.7907 378.72 98.0559V105.232H376.72V99.0559H319.273V106.849Z" fill="#333333"/>
<path d="M346.415 84.7649H348.415V119.936H346.415V84.7649ZM329.753 124.277H329.75L306.614 124.196C306.35 124.195 306.096 124.089 305.909 123.902C305.722 123.714 305.617 123.461 305.617 123.196V106.506C305.617 106.241 305.723 105.986 305.91 105.799C306.098 105.611 306.352 105.506 306.617 105.506H329.753C330.018 105.506 330.273 105.611 330.46 105.799C330.648 105.986 330.753 106.241 330.753 106.506V123.277C330.753 123.408 330.728 123.538 330.677 123.66C330.627 123.781 330.553 123.891 330.461 123.984C330.368 124.077 330.257 124.151 330.136 124.201C330.015 124.251 329.885 124.277 329.753 124.277ZM307.617 122.2L328.753 122.274V107.506H307.617V122.2ZM389.364 124.277H389.361L366.225 124.196C365.96 124.195 365.707 124.089 365.52 123.902C365.333 123.714 365.228 123.461 365.228 123.196V106.506C365.228 106.241 365.334 105.986 365.521 105.799C365.709 105.611 365.963 105.506 366.228 105.506H389.364C389.629 105.506 389.884 105.611 390.071 105.799C390.259 105.986 390.364 106.241 390.364 106.506V123.277C390.364 123.408 390.339 123.538 390.288 123.66C390.238 123.781 390.164 123.891 390.072 123.984C389.979 124.077 389.868 124.151 389.747 124.201C389.626 124.251 389.496 124.277 389.364 124.277ZM367.228 122.2L388.364 122.274V107.506H367.228V122.2Z" fill="#333333"/>
<path d="M358.944 137.627H358.941L335.806 137.546C335.541 137.545 335.287 137.439 335.1 137.252C334.914 137.065 334.809 136.811 334.809 136.546V119.856C334.809 119.591 334.914 119.336 335.102 119.149C335.289 118.961 335.543 118.856 335.809 118.856H358.944C359.209 118.856 359.463 118.961 359.651 119.149C359.838 119.336 359.944 119.591 359.944 119.856V136.627C359.944 136.758 359.918 136.888 359.868 137.01C359.818 137.131 359.744 137.241 359.651 137.334C359.558 137.427 359.448 137.501 359.326 137.551C359.205 137.601 359.075 137.627 358.944 137.627ZM336.809 135.55L357.944 135.624V120.857H336.809V135.55ZM358.944 86.0859H358.941L335.806 86.0049C335.541 86.0041 335.287 85.8984 335.1 85.711C334.914 85.5235 334.809 85.2696 334.809 85.0049V68.3149C334.809 68.0497 334.914 67.7954 335.102 67.6078C335.289 67.4203 335.543 67.3149 335.809 67.3149H358.944C359.209 67.3149 359.463 67.4203 359.651 67.6078C359.838 67.7954 359.944 68.0497 359.944 68.3149V85.0859C359.944 85.2173 359.918 85.3474 359.868 85.4688C359.818 85.5902 359.744 85.7005 359.651 85.7933C359.558 85.8862 359.448 85.9599 359.326 86.0101C359.205 86.0603 359.075 86.0861 358.944 86.0859ZM336.809 84.0089L357.944 84.0829V69.3159H336.809V84.0089Z" fill="#333333"/>
<path d="M330.519 576.207H265.527C265.262 576.207 265.008 576.102 264.82 575.914C264.633 575.727 264.527 575.472 264.527 575.207V529.045C264.527 528.696 264.709 528.373 265.006 528.191L297.502 508.347C297.659 508.251 297.84 508.201 298.023 508.201C298.207 508.201 298.387 508.251 298.544 508.347L331.04 528.191C331.337 528.373 331.519 528.696 331.519 529.045V575.207C331.519 575.472 331.414 575.727 331.226 575.914C331.039 576.102 330.785 576.207 330.519 576.207ZM266.527 574.207H329.519V529.606L298.023 510.373L266.527 529.606V574.207Z" fill="#333333"/>
<path d="M322.46 575.207H320.46V543.204H275.59V575.207H273.59V542.204C273.59 541.939 273.695 541.684 273.883 541.497C274.07 541.309 274.325 541.204 274.59 541.204H321.46C321.725 541.204 321.979 541.309 322.167 541.497C322.354 541.684 322.46 541.939 322.46 542.204V575.207Z" fill="#333333"/>
<path d="M274.79 566.161H321.256V568.161H274.79V566.161ZM274.79 557.623H321.256V559.623H274.79V557.623ZM274.79 549.085H321.256V551.085H274.79V549.085ZM285.777 531.565V536.66H275.617V531.565H285.777ZM287.777 529.565H273.617V538.66H287.777V529.565ZM303.058 531.565V536.66H292.898V531.565H303.058ZM305.058 529.565H290.898V538.66H305.058V529.565ZM320.339 531.565V536.66H310.179V531.565H320.339ZM322.339 529.565H308.179V538.66H322.339V529.565Z" fill="#333333"/>
<path d="M460.277 528.609C478.084 528.609 492.57 543.096 492.57 560.902C492.57 578.709 478.083 593.195 460.277 593.195C442.471 593.195 427.984 578.708 427.984 560.902C427.983 543.096 442.47 528.609 460.277 528.609ZM460.277 526.609C441.337 526.609 425.984 541.963 425.984 560.902C425.984 579.842 441.338 595.195 460.277 595.195C479.216 595.195 494.57 579.841 494.57 560.902C494.57 541.963 479.216 526.609 460.277 526.609Z" fill="#333333"/>
<path d="M480.576 560.902V560.895C480.572 558.529 483.132 557.046 485.182 558.227L485.194 558.234C487.243 559.413 487.248 562.368 485.204 563.555L485.194 563.561L485.192 563.562C483.146 564.75 480.581 563.276 480.577 560.91V560.902H480.576ZM439.978 560.902V560.909C439.982 563.275 437.422 564.758 435.372 563.577L435.36 563.57C433.311 562.391 433.306 559.436 435.35 558.249L435.36 558.243L435.362 558.242C437.408 557.054 439.973 558.528 439.977 560.894V560.902H439.978Z" fill="#333333"/>
<path d="M439.355 559.902H450.146V561.902H439.355V559.902ZM470.902 559.902H482.396V561.902H470.902V559.902ZM460.278 581.201H460.285C462.651 581.197 464.134 583.757 462.953 585.807L462.946 585.819C461.767 587.868 458.812 587.874 457.625 585.829L457.619 585.819L457.618 585.817C456.43 583.771 457.904 581.206 460.27 581.202H460.278V581.201ZM460.278 540.603H460.271C457.905 540.607 456.422 538.047 457.603 535.997L457.61 535.985C458.789 533.936 461.744 533.93 462.931 535.975L462.937 535.985L462.938 535.987C464.126 538.033 462.652 540.598 460.286 540.602H460.278V540.603Z" fill="#333333"/>
<path d="M459.277 539.979H461.277V550.208H459.277V539.979ZM459.277 570.651H461.277V583.815H459.277V570.651Z" fill="#333333"/>
<path d="M457.606 549.325L458.53 550.989C458.703 551.301 458.957 551.56 459.264 551.741C459.572 551.922 459.922 552.017 460.278 552.017C460.635 552.017 460.985 551.922 461.292 551.741C461.6 551.56 461.853 551.301 462.026 550.989L462.95 549.325C463.22 549.387 463.487 549.458 463.751 549.539L463.719 551.443C463.713 551.8 463.803 552.151 463.979 552.462C464.155 552.772 464.41 553.03 464.719 553.208C465.028 553.387 465.379 553.479 465.736 553.476C466.093 553.473 466.442 553.375 466.748 553.191L468.38 552.212C468.582 552.401 468.778 552.596 468.967 552.799L467.988 554.431C467.806 554.734 467.708 555.081 467.703 555.435C467.699 555.789 467.788 556.137 467.963 556.445C468.137 556.753 468.39 557.01 468.696 557.188C469.002 557.366 469.349 557.46 469.703 557.46H469.736L471.64 557.429C471.721 557.693 471.792 557.96 471.854 558.23L470.19 559.154C469.879 559.327 469.619 559.581 469.438 559.888C469.257 560.195 469.162 560.545 469.162 560.902C469.162 561.258 469.257 561.609 469.438 561.916C469.619 562.223 469.879 562.477 470.19 562.65L471.854 563.574C471.792 563.844 471.721 564.111 471.64 564.375L469.736 564.344H469.703C469.349 564.344 469.002 564.438 468.696 564.617C468.391 564.795 468.138 565.051 467.964 565.359C467.789 565.667 467.7 566.016 467.704 566.369C467.708 566.723 467.806 567.069 467.988 567.373L468.967 569.005C468.778 569.207 468.583 569.403 468.38 569.592L466.748 568.613C466.442 568.429 466.093 568.33 465.736 568.327C465.379 568.324 465.028 568.417 464.719 568.596C464.41 568.774 464.155 569.032 463.979 569.342C463.803 569.653 463.713 570.004 463.719 570.361L463.751 572.265C463.487 572.346 463.219 572.417 462.95 572.479L462.026 570.815C461.853 570.503 461.6 570.244 461.292 570.063C460.985 569.882 460.635 569.787 460.278 569.787C459.922 569.787 459.572 569.882 459.264 570.063C458.957 570.244 458.703 570.503 458.53 570.815L457.606 572.479C457.336 572.417 457.069 572.346 456.805 572.265L456.837 570.361C456.843 570.004 456.754 569.652 456.578 569.342C456.402 569.032 456.146 568.774 455.837 568.596C455.528 568.417 455.177 568.325 454.82 568.328C454.464 568.331 454.114 568.429 453.808 568.613L452.176 569.592C451.974 569.403 451.778 569.207 451.589 569.005L452.568 567.373C452.75 567.069 452.849 566.723 452.853 566.369C452.858 566.015 452.768 565.667 452.594 565.359C452.419 565.051 452.166 564.794 451.86 564.616C451.555 564.438 451.207 564.344 450.853 564.344H450.82L448.916 564.375C448.835 564.111 448.764 563.843 448.702 563.574L450.366 562.65C450.678 562.477 450.937 562.223 451.118 561.916C451.299 561.609 451.394 561.258 451.394 560.902C451.394 560.545 451.299 560.195 451.118 559.888C450.937 559.581 450.678 559.327 450.366 559.154L448.702 558.23C448.764 557.96 448.835 557.693 448.916 557.429L450.82 557.46H450.853C451.207 557.46 451.554 557.366 451.86 557.187C452.166 557.009 452.418 556.753 452.593 556.445C452.767 556.137 452.857 555.788 452.852 555.435C452.848 555.081 452.75 554.735 452.568 554.431L451.589 552.799C451.778 552.597 451.973 552.401 452.176 552.212L453.808 553.191C454.114 553.375 454.463 553.474 454.82 553.477C455.177 553.48 455.528 553.387 455.837 553.208C456.146 553.03 456.402 552.772 456.578 552.462C456.753 552.151 456.843 551.8 456.837 551.443L456.805 549.539C457.069 549.458 457.336 549.387 457.606 549.325ZM460.191 568.115C464.255 568.115 467.562 564.809 467.562 560.744C467.562 556.68 464.256 553.373 460.191 553.373C456.127 553.373 452.82 556.679 452.82 560.744C452.82 564.809 456.127 568.115 460.191 568.115ZM461.89 547.116L460.278 550.017L458.666 547.116C457.301 547.274 455.996 547.628 454.78 548.153L454.835 551.475L451.986 549.767C450.906 550.572 449.949 551.53 449.143 552.61L450.851 555.459L447.529 555.404C446.995 556.642 446.646 557.951 446.492 559.29L449.393 560.902L446.492 562.514C446.65 563.879 447.005 565.184 447.529 566.4L450.851 566.345L449.143 569.194C449.949 570.274 450.906 571.231 451.986 572.037L454.835 570.329L454.78 573.651C455.995 574.176 457.3 574.53 458.666 574.688L460.278 571.787L461.89 574.688C463.229 574.534 464.538 574.185 465.776 573.651L465.721 570.329L468.57 572.037C469.65 571.231 470.608 570.274 471.413 569.194L469.705 566.345L473.027 566.4C473.552 565.185 473.906 563.88 474.064 562.514L471.163 560.902L474.064 559.29C473.91 557.951 473.56 556.642 473.027 555.404L469.705 555.459L471.413 552.61C470.608 551.53 469.65 550.572 468.57 549.767L465.721 551.475L465.776 548.153C464.538 547.619 463.229 547.27 461.89 547.116ZM460.191 566.115C458.767 566.115 457.4 565.549 456.393 564.542C455.386 563.534 454.82 562.168 454.82 560.743C454.82 559.319 455.386 557.953 456.393 556.945C457.4 555.938 458.767 555.372 460.191 555.372C461.616 555.372 462.982 555.938 463.989 556.945C464.997 557.953 465.563 559.319 465.563 560.743C465.563 562.168 464.997 563.534 463.989 564.542C462.982 565.549 461.616 566.115 460.191 566.115Z" fill="#333333"/>
<path d="M460.278 559.651C460.601 559.664 460.907 559.801 461.131 560.034C461.355 560.268 461.48 560.578 461.48 560.902C461.48 561.225 461.355 561.536 461.131 561.769C460.907 562.002 460.601 562.14 460.278 562.153C459.955 562.14 459.65 562.002 459.426 561.769C459.202 561.536 459.076 561.225 459.076 560.902C459.076 560.578 459.202 560.268 459.426 560.034C459.65 559.801 459.955 559.664 460.278 559.651ZM460.278 557.651C459.416 557.651 458.589 557.993 457.98 558.603C457.37 559.213 457.027 560.04 457.027 560.902C457.027 561.764 457.37 562.591 457.98 563.201C458.589 563.81 459.416 564.153 460.278 564.153C461.141 564.153 461.967 563.81 462.577 563.201C463.187 562.591 463.529 561.764 463.529 560.902C463.529 560.04 463.187 559.213 462.577 558.603C461.967 557.993 461.141 557.651 460.278 557.651Z" fill="#333333"/>
</svg>
