<svg xmlns="http://www.w3.org/2000/svg" width="18" height="126" viewBox="0 0 18 126" fill="none">
  <path d="M9 126L17.6603 111H0.339746L9 126ZM7.5 6C7.5 6.08837 7.5 6.17665 7.5 6.26484C7.5 6.35302 7.5 6.44111 7.5 6.52911C7.5 6.61711 7.5 6.70502 7.5 6.79283C7.5 6.88064 7.5 6.96836 7.5 7.05599C7.5 7.14362 7.5 7.23115 7.5 7.3186C7.5 7.40604 7.5 7.49339 7.5 7.58065C7.5 7.66791 7.5 7.75508 7.5 7.84215C7.5 7.92923 7.5 8.01622 7.5 8.10311C7.5 8.19 7.5 8.27681 7.5 8.36352C7.5 8.45023 7.5 8.53685 7.5 8.62338C7.5 8.70991 7.5 8.79636 7.5 8.88271C7.5 8.96906 7.5 9.05532 7.5 9.14149C7.5 9.22766 7.5 9.31374 7.5 9.39973C7.5 9.48572 7.5 9.57162 7.5 9.65744C7.5 9.74325 7.5 9.82897 7.5 9.91461C7.5 10.0002 7.5 10.0858 7.5 10.1713C7.5 10.2567 7.5 10.3421 7.5 10.4274C7.5 10.5126 7.5 10.5978 7.5 10.6829C7.5 10.768 7.5 10.8531 7.5 10.938C7.5 11.0229 7.5 11.1078 7.5 11.1925C7.5 11.2773 7.5 11.362 7.5 11.4465C7.5 11.5311 7.5 11.6156 7.5 11.7C7.5 11.7844 7.5 11.8688 7.5 11.953C7.5 12.0372 7.5 12.1214 7.5 12.2054C7.5 12.2895 7.5 12.3735 7.5 12.4574C7.5 12.5413 7.5 12.6251 7.5 12.7088C7.5 12.7925 7.5 12.8762 7.5 12.9597C7.5 13.0433 7.5 13.1267 7.5 13.2101C7.5 13.2935 7.5 13.3768 7.5 13.46C7.5 13.5432 7.5 13.6264 7.5 13.7094C7.5 13.7925 7.5 13.8754 7.5 13.9583C7.5 14.0412 7.5 14.124 7.5 14.2067C7.5 14.2894 7.5 14.372 7.5 14.4546C7.5 14.5371 7.5 14.6196 7.5 14.702C7.5 14.7844 7.5 14.8667 7.5 14.9489C7.5 15.0311 7.5 15.1132 7.5 15.1953C7.5 15.2773 7.5 15.3593 7.5 15.4412C7.5 15.5231 7.5 15.6049 7.5 15.6866C7.5 15.7684 7.5 15.85 7.5 15.9316C7.5 16.0131 7.5 16.0946 7.5 16.176C7.5 16.2574 7.5 16.3388 7.5 16.42C7.5 16.5013 7.5 16.5824 7.5 16.6635C7.5 16.7446 7.5 16.8256 7.5 16.9065C7.5 16.9874 7.5 17.0683 7.5 17.1491C7.5 17.2298 7.5 17.3105 7.5 17.3911C7.5 17.4717 7.5 17.5523 7.5 17.6327C7.5 17.7132 7.5 17.7935 7.5 17.8738C7.5 17.9541 7.5 18.0343 7.5 18.1145C7.5 18.1946 7.5 18.2747 7.5 18.3547C7.5 18.4346 7.5 18.5145 7.5 18.5944C7.5 18.6742 7.5 18.754 7.5 18.8336C7.5 18.9133 7.5 18.9929 7.5 19.0724C7.5 19.1519 7.5 19.2314 7.5 19.3108C7.5 19.3901 7.5 19.4694 7.5 19.5486C7.5 19.6279 7.5 19.707 7.5 19.7861C7.5 19.8651 7.5 19.9441 7.5 20.023C7.5 20.1019 7.5 20.1808 7.5 20.2596C7.5 20.3383 7.5 20.417 7.5 20.4956C7.5 20.5742 7.5 20.6528 7.5 20.7312C7.5 20.8097 7.5 20.8881 7.5 20.9664C7.5 21.0447 7.5 21.123 7.5 21.2012C7.5 21.2793 7.5 21.3574 7.5 21.4355C7.5 21.5135 7.5 21.5914 7.5 21.6693C7.5 21.7472 7.5 21.825 7.5 21.9027C7.5 21.9805 7.5 22.0581 7.5 22.1357C7.5 22.2133 7.5 22.2908 7.5 22.3683C7.5 22.4457 7.5 22.5231 7.5 22.6004C7.5 22.6777 7.5 22.7549 7.5 22.8321C7.5 22.9092 7.5 22.9863 7.5 23.0633C7.5 23.1404 7.5 23.2173 7.5 23.2942C7.5 23.371 7.5 23.4479 7.5 23.5246C7.5 23.6013 7.5 23.678 7.5 23.7546C7.5 23.8312 7.5 23.9077 7.5 23.9842C7.5 24.0606 7.5 24.137 7.5 24.2133C7.5 24.2896 7.5 24.3659 7.5 24.4421C7.5 24.5182 7.5 24.5943 7.5 24.6704C7.5 24.7464 7.5 24.8224 7.5 24.8983C7.5 24.9742 7.5 25.05 7.5 25.1258C7.5 25.2016 7.5 25.2773 7.5 25.3529C7.5 25.4285 7.5 25.5041 7.5 25.5796C7.5 25.6551 7.5 25.7305 7.5 25.8059C7.5 25.8813 7.5 25.9566 7.5 26.0318C7.5 26.107 7.5 26.1822 7.5 26.2573C7.5 26.3324 7.5 26.4074 7.5 26.4824C7.5 26.5573 7.5 26.6322 7.5 26.7071C7.5 26.7819 7.5 26.8567 7.5 26.9314C7.5 27.0061 7.5 27.0807 7.5 27.1553C7.5 27.2299 7.5 27.3044 7.5 27.3788C7.5 27.4533 7.5 27.5276 7.5 27.602C7.5 27.6763 7.5 27.7505 7.5 27.8247C7.5 27.8989 7.5 27.973 7.5 28.0471C7.5 28.1211 7.5 28.1951 7.5 28.2691C7.5 28.343 7.5 28.4169 7.5 28.4907C7.5 28.5645 7.5 28.6382 7.5 28.7119C7.5 28.7856 7.5 28.8592 7.5 28.9328C7.5 29.0063 7.5 29.0798 7.5 29.1532C7.5 29.2267 7.5 29.3 7.5 29.3733C7.5 29.4467 7.5 29.5199 7.5 29.5931C7.5 29.6663 7.5 29.7394 7.5 29.8125C7.5 29.8855 7.5 29.9585 7.5 30.0315C7.5 30.1044 7.5 30.1773 7.5 30.2501C7.5 30.3229 7.5 30.3957 7.5 30.4684C7.5 30.5411 7.5 30.6137 7.5 30.6863C7.5 30.7589 7.5 30.8314 7.5 30.9039C7.5 30.9763 7.5 31.0487 7.5 31.1211C7.5 31.1934 7.5 31.2657 7.5 31.338C7.5 31.4102 7.5 31.4823 7.5 31.5545C7.5 31.6266 7.5 31.6986 7.5 31.7706C7.5 31.8426 7.5 31.9145 7.5 31.9864C7.5 32.0583 7.5 32.1301 7.5 32.2019C7.5 32.2736 7.5 32.3453 7.5 32.417C7.5 32.4886 7.5 32.5602 7.5 32.6318C7.5 32.7033 7.5 32.7748 7.5 32.8462C7.5 32.9176 7.5 32.989 7.5 33.0603C7.5 33.1316 7.5 33.2029 7.5 33.2741C7.5 33.3453 7.5 33.4164 7.5 33.4875C7.5 33.5586 7.5 33.6296 7.5 33.7006C7.5 33.7716 7.5 33.8425 7.5 33.9134C7.5 33.9842 7.5 34.055 7.5 34.1258C7.5 34.1966 7.5 34.2673 7.5 34.3379C7.5 34.4086 7.5 34.4792 7.5 34.5497C7.5 34.6203 7.5 34.6907 7.5 34.7612C7.5 34.8316 7.5 34.902 7.5 34.9723C7.5 35.0427 7.5 35.1129 7.5 35.1832C7.5 35.2534 7.5 35.3236 7.5 35.3937C7.5 35.4638 7.5 35.5339 7.5 35.6039C7.5 35.6739 7.5 35.7439 7.5 35.8138C7.5 35.8837 7.5 35.9535 7.5 36.0234C7.5 36.0932 7.5 36.1629 7.5 36.2326C7.5 36.3023 7.5 36.372 7.5 36.4416C7.5 36.5112 7.5 36.5807 7.5 36.6503C7.5 36.7198 7.5 36.7892 7.5 36.8586C7.5 36.928 7.5 36.9974 7.5 37.0667C7.5 37.136 7.5 37.2052 7.5 37.2744C7.5 37.3436 7.5 37.4128 7.5 37.4819C7.5 37.551 7.5 37.6201 7.5 37.6891C7.5 37.7581 7.5 37.827 7.5 37.896C7.5 37.9649 7.5 38.0337 7.5 38.1025C7.5 38.1714 7.5 38.2401 7.5 38.3088C7.5 38.3776 7.5 38.4462 7.5 38.5149C7.5 38.5835 7.5 38.6521 7.5 38.7206C7.5 38.7891 7.5 38.8576 7.5 38.926C7.5 38.9945 7.5 39.0629 7.5 39.1312C7.5 39.1996 7.5 39.2679 7.5 39.3361C7.5 39.4044 7.5 39.4726 7.5 39.5407C7.5 39.6089 7.5 39.677 7.5 39.7451C7.5 39.8131 7.5 39.8812 7.5 39.9491C7.5 40.0171 7.5 40.0851 7.5 40.1529C7.5 40.2208 7.5 40.2887 7.5 40.3565C7.5 40.4243 7.5 40.492 7.5 40.5597C7.5 40.6275 7.5 40.6951 7.5 40.7627C7.5 40.8304 7.5 40.8979 7.5 40.9655C7.5 41.033 7.5 41.1005 7.5 41.168C7.5 41.2354 7.5 41.3028 7.5 41.3702C7.5 41.4375 7.5 41.5049 7.5 41.5721C7.5 41.6394 7.5 41.7067 7.5 41.7739C7.5 41.8411 7.5 41.9082 7.5 41.9753C7.5 42.0424 7.5 42.1095 7.5 42.1765C7.5 42.2436 7.5 42.3105 7.5 42.3775C7.5 42.4444 7.5 42.5113 7.5 42.5782C7.5 42.6451 7.5 42.7119 7.5 42.7787C7.5 42.8455 7.5 42.9122 7.5 42.9789C7.5 43.0456 7.5 43.1123 7.5 43.1789C7.5 43.2455 7.5 43.3121 7.5 43.3786C7.5 43.4452 7.5 43.5117 7.5 43.5781C7.5 43.6446 7.5 43.711 7.5 43.7774C7.5 43.8438 7.5 43.9102 7.5 43.9765C7.5 44.0428 7.5 44.1091 7.5 44.1753C7.5 44.2415 7.5 44.3077 7.5 44.3739C7.5 44.44 7.5 44.5061 7.5 44.5722C7.5 44.6383 7.5 44.7044 7.5 44.7704C7.5 44.8364 7.5 44.9023 7.5 44.9683C7.5 45.0342 7.5 45.1001 7.5 45.166C7.5 45.2318 7.5 45.2977 7.5 45.3634C7.5 45.4292 7.5 45.495 7.5 45.5607C7.5 45.6264 7.5 45.6921 7.5 45.7578C7.5 45.8234 7.5 45.889 7.5 45.9546C7.5 46.0202 7.5 46.0857 7.5 46.1512C7.5 46.2167 7.5 46.2822 7.5 46.3476C7.5 46.4131 7.5 46.4785 7.5 46.5438C7.5 46.6092 7.5 46.6745 7.5 46.7398C7.5 46.8051 7.5 46.8704 7.5 46.9356C7.5 47.0009 7.5 47.0661 7.5 47.1312C7.5 47.1964 7.5 47.2615 7.5 47.3266C7.5 47.3917 7.5 47.4568 7.5 47.5218C7.5 47.5869 7.5 47.6519 7.5 47.7168C7.5 47.7818 7.5 47.8467 7.5 47.9117C7.5 47.9766 7.5 48.0414 7.5 48.1063C7.5 48.1711 7.5 48.2359 7.5 48.3007C7.5 48.3655 7.5 48.4302 7.5 48.495C7.5 48.5597 7.5 48.6244 7.5 48.689C7.5 48.7537 7.5 48.8183 7.5 48.8829C7.5 48.9475 7.5 49.0121 7.5 49.0766C7.5 49.1412 7.5 49.2057 7.5 49.2701C7.5 49.3346 7.5 49.3991 7.5 49.4635C7.5 49.5279 7.5 49.5923 7.5 49.6567C7.5 49.721 7.5 49.7854 7.5 49.8497C7.5 49.914 7.5 49.9782 7.5 50.0425C7.5 50.1067 7.5 50.171 7.5 50.2351C7.5 50.2993 7.5 50.3635 7.5 50.4276C7.5 50.4918 7.5 50.5559 7.5 50.62C7.5 50.6841 7.5 50.7481 7.5 50.8121C7.5 50.8762 7.5 50.9402 7.5 51.0041C7.5 51.0681 7.5 51.1321 7.5 51.196C7.5 51.2599 7.5 51.3238 7.5 51.3877C7.5 51.4515 7.5 51.5154 7.5 51.5792C7.5 51.643 7.5 51.7068 7.5 51.7706C7.5 51.8344 7.5 51.8981 7.5 51.9618C7.5 52.0255 7.5 52.0892 7.5 52.1529C7.5 52.2166 7.5 52.2802 7.5 52.3438C7.5 52.4075 7.5 52.4711 7.5 52.5346C7.5 52.5982 7.5 52.6618 7.5 52.7253C7.5 52.7888 7.5 52.8523 7.5 52.9158C7.5 52.9793 7.5 53.0427 7.5 53.1062C7.5 53.1696 7.5 53.233 7.5 53.2964C7.5 53.3598 7.5 53.4231 7.5 53.4865C7.5 53.5498 7.5 53.6131 7.5 53.6764C7.5 53.7397 7.5 53.803 7.5 53.8663C7.5 53.9295 7.5 53.9928 7.5 54.056C7.5 54.1192 7.5 54.1824 7.5 54.2456C7.5 54.3087 7.5 54.3719 7.5 54.435C7.5 54.4981 7.5 54.5612 7.5 54.6243C7.5 54.6874 7.5 54.7505 7.5 54.8135C7.5 54.8766 7.5 54.9396 7.5 55.0026C7.5 55.0656 7.5 55.1286 7.5 55.1916C7.5 55.2546 7.5 55.3175 7.5 55.3805C7.5 55.4434 7.5 55.5063 7.5 55.5692C7.5 55.6321 7.5 55.695 7.5 55.7578C7.5 55.8207 7.5 55.8835 7.5 55.9464C7.5 56.0092 7.5 56.072 7.5 56.1348C7.5 56.1976 7.5 56.2603 7.5 56.3231C7.5 56.3858 7.5 56.4486 7.5 56.5113C7.5 56.574 7.5 56.6367 7.5 56.6994C7.5 56.7621 7.5 56.8247 7.5 56.8874C7.5 56.95 7.5 57.0127 7.5 57.0753C7.5 57.1379 7.5 57.2005 7.5 57.2631C7.5 57.3257 7.5 57.3883 7.5 57.4508C7.5 57.5134 7.5 57.5759 7.5 57.6385C7.5 57.701 7.5 57.7635 7.5 57.826C7.5 57.8885 7.5 57.951 7.5 58.0135C7.5 58.0759 7.5 58.1384 7.5 58.2008C7.5 58.2633 7.5 58.3257 7.5 58.3881C7.5 58.4505 7.5 58.5129 7.5 58.5753C7.5 58.6377 7.5 58.7001 7.5 58.7624C7.5 58.8248 7.5 58.8871 7.5 58.9495C7.5 59.0118 7.5 59.0741 7.5 59.1365C7.5 59.1988 7.5 59.2611 7.5 59.3234C7.5 59.3856 7.5 59.4479 7.5 59.5102C7.5 59.5724 7.5 59.6347 7.5 59.6969C7.5 59.7592 7.5 59.8214 7.5 59.8836C7.5 59.9459 7.5 60.0081 7.5 60.0703C7.5 60.1325 7.5 60.1946 7.5 60.2568C7.5 60.319 7.5 60.3812 7.5 60.4433C7.5 60.5055 7.5 60.5676 7.5 60.6298C7.5 60.6919 7.5 60.754 7.5 60.8161C7.5 60.8783 7.5 60.9404 7.5 61.0025C7.5 61.0646 7.5 61.1267 7.5 61.1887C7.5 61.2508 7.5 61.3129 7.5 61.375C7.5 61.437 7.5 61.4991 7.5 61.5611C7.5 61.6232 7.5 61.6852 7.5 61.7473C7.5 61.8093 7.5 61.8713 7.5 61.9333C7.5 61.9954 7.5 62.0574 7.5 62.1194C7.5 62.1814 7.5 62.2434 7.5 62.3054C7.5 62.3674 7.5 62.4294 7.5 62.4913C7.5 62.5533 7.5 62.6153 7.5 62.6772C7.5 62.7392 7.5 62.8012 7.5 62.8631C7.5 62.9251 7.5 62.987 7.5 63.049C7.5 63.1109 7.5 63.1729 7.5 63.2348C7.5 63.2967 7.5 63.3587 7.5 63.4206C7.5 63.4825 7.5 63.5444 7.5 63.6063C7.5 63.6683 7.5 63.7302 7.5 63.7921C7.5 63.854 7.5 63.9159 7.5 63.9778C7.5 64.0397 7.5 64.1016 7.5 64.1635C7.5 64.2254 7.5 64.2873 7.5 64.3491C7.5 64.411 7.5 64.4729 7.5 64.5348C7.5 64.5967 7.5 64.6586 7.5 64.7204C7.5 64.7823 7.5 64.8442 7.5 64.9061C7.5 64.9679 7.5 65.0298 7.5 65.0917C7.5 65.1535 7.5 65.2154 7.5 65.2773C7.5 65.3391 7.5 65.401 7.5 65.4629C7.5 65.5247 7.5 65.5866 7.5 65.6485C7.5 65.7103 7.5 65.7722 7.5 65.834C7.5 65.8959 7.5 65.9578 7.5 66.0196C7.5 66.0815 7.5 66.1433 7.5 66.2052C7.5 66.2671 7.5 66.3289 7.5 66.3908C7.5 66.4526 7.5 66.5145 7.5 66.5764C7.5 66.6382 7.5 66.7001 7.5 66.762C7.5 66.8238 7.5 66.8857 7.5 66.9476C7.5 67.0094 7.5 67.0713 7.5 67.1332C7.5 67.1951 7.5 67.2569 7.5 67.3188C7.5 67.3807 7.5 67.4426 7.5 67.5044C7.5 67.5663 7.5 67.6282 7.5 67.6901C7.5 67.752 7.5 67.8139 7.5 67.8758C7.5 67.9377 7.5 67.9996 7.5 68.0615C7.5 68.1234 7.5 68.1853 7.5 68.2472C7.5 68.3091 7.5 68.371 7.5 68.4329C7.5 68.4948 7.5 68.5568 7.5 68.6187C7.5 68.6806 7.5 68.7425 7.5 68.8045C7.5 68.8664 7.5 68.9284 7.5 68.9903C7.5 69.0523 7.5 69.1142 7.5 69.1762C7.5 69.2381 7.5 69.3001 7.5 69.3621C7.5 69.424 7.5 69.486 7.5 69.548C7.5 69.61 7.5 69.672 7.5 69.7339C7.5 69.7959 7.5 69.8579 7.5 69.9199C7.5 69.982 7.5 70.044 7.5 70.106C7.5 70.168 7.5 70.23 7.5 70.2921C7.5 70.3541 7.5 70.4162 7.5 70.4782C7.5 70.5403 7.5 70.6023 7.5 70.6644C7.5 70.7265 7.5 70.7886 7.5 70.8506C7.5 70.9127 7.5 70.9748 7.5 71.0369C7.5 71.099 7.5 71.1611 7.5 71.2233C7.5 71.2854 7.5 71.3475 7.5 71.4097C7.5 71.4718 7.5 71.534 7.5 71.5961C7.5 71.6583 7.5 71.7204 7.5 71.7826C7.5 71.8448 7.5 71.907 7.5 71.9692C7.5 72.0314 7.5 72.0936 7.5 72.1558C7.5 72.2181 7.5 72.2803 7.5 72.3425C7.5 72.4048 7.5 72.467 7.5 72.5293C7.5 72.5916 7.5 72.6539 7.5 72.7161C7.5 72.7784 7.5 72.8408 7.5 72.9031C7.5 72.9654 7.5 73.0277 7.5 73.09C7.5 73.1524 7.5 73.2147 7.5 73.2771C7.5 73.3395 7.5 73.4019 7.5 73.4643C7.5 73.5266 7.5 73.5891 7.5 73.6515C7.5 73.7139 7.5 73.7763 7.5 73.8388C7.5 73.9012 7.5 73.9637 7.5 74.0262C7.5 74.0886 7.5 74.1511 7.5 74.2136C7.5 74.2761 7.5 74.3387 7.5 74.4012C7.5 74.4637 7.5 74.5263 7.5 74.5888C7.5 74.6514 7.5 74.714 7.5 74.7766C7.5 74.8392 7.5 74.9018 7.5 74.9644C7.5 75.027 7.5 75.0897 7.5 75.1524C7.5 75.215 7.5 75.2777 7.5 75.3404C7.5 75.4031 7.5 75.4658 7.5 75.5285C7.5 75.5912 7.5 75.654 7.5 75.7167C7.5 75.7795 7.5 75.8423 7.5 75.9051C7.5 75.9679 7.5 76.0307 7.5 76.0935C7.5 76.1563 7.5 76.2192 7.5 76.282C7.5 76.3449 7.5 76.4078 7.5 76.4707C7.5 76.5336 7.5 76.5965 7.5 76.6595C7.5 76.7224 7.5 76.7854 7.5 76.8483C7.5 76.9113 7.5 76.9743 7.5 77.0373C7.5 77.1004 7.5 77.1634 7.5 77.2265C7.5 77.2895 7.5 77.3526 7.5 77.4157C7.5 77.4788 7.5 77.5419 7.5 77.605C7.5 77.6682 7.5 77.7313 7.5 77.7945C7.5 77.8577 7.5 77.9209 7.5 77.9841C7.5 78.0473 7.5 78.1106 7.5 78.1739C7.5 78.2371 7.5 78.3004 7.5 78.3637C7.5 78.427 7.5 78.4903 7.5 78.5537C7.5 78.6171 7.5 78.6804 7.5 78.7438C7.5 78.8072 7.5 78.8706 7.5 78.9341C7.5 78.9975 7.5 79.061 7.5 79.1245C7.5 79.188 7.5 79.2515 7.5 79.315C7.5 79.3785 7.5 79.4421 7.5 79.5057C7.5 79.5693 7.5 79.6329 7.5 79.6965C7.5 79.7601 7.5 79.8238 7.5 79.8875C7.5 79.9512 7.5 80.0149 7.5 80.0786C7.5 80.1423 7.5 80.2061 7.5 80.2699C7.5 80.3336 7.5 80.3974 7.5 80.4613C7.5 80.5251 7.5 80.589 7.5 80.6528C7.5 80.7167 7.5 80.7806 7.5 80.8446C7.5 80.9085 7.5 80.9725 7.5 81.0364C7.5 81.1004 7.5 81.1644 7.5 81.2285C7.5 81.2925 7.5 81.3566 7.5 81.4207C7.5 81.4848 7.5 81.5489 7.5 81.613C7.5 81.6772 7.5 81.7414 7.5 81.8056C7.5 81.8698 7.5 81.934 7.5 81.9983C7.5 82.0625 7.5 82.1268 7.5 82.1911C7.5 82.2554 7.5 82.3198 7.5 82.3842C7.5 82.4485 7.5 82.5129 7.5 82.5774C7.5 82.6418 7.5 82.7063 7.5 82.7708C7.5 82.8353 7.5 82.8998 7.5 82.9643C7.5 83.0289 7.5 83.0935 7.5 83.1581C7.5 83.2227 7.5 83.2873 7.5 83.352C7.5 83.4167 7.5 83.4814 7.5 83.5461C7.5 83.6108 7.5 83.6756 7.5 83.7404C7.5 83.8052 7.5 83.87 7.5 83.9349C7.5 83.9997 7.5 84.0646 7.5 84.1295C7.5 84.1944 7.5 84.2594 7.5 84.3244C7.5 84.3894 7.5 84.4544 7.5 84.5194C7.5 84.5845 7.5 84.6496 7.5 84.7147C7.5 84.7798 7.5 84.8449 7.5 84.9101C7.5 84.9753 7.5 85.0405 7.5 85.1058C7.5 85.171 7.5 85.2363 7.5 85.3016C7.5 85.3669 7.5 85.4323 7.5 85.4976C7.5 85.563 7.5 85.6284 7.5 85.6939C7.5 85.7593 7.5 85.8248 7.5 85.8904C7.5 85.9559 7.5 86.0214 7.5 86.087C7.5 86.1526 7.5 86.2182 7.5 86.2839C7.5 86.3495 7.5 86.4152 7.5 86.481C7.5 86.5467 7.5 86.6125 7.5 86.6783C7.5 86.7441 7.5 86.8099 7.5 86.8758C7.5 86.9417 7.5 87.0076 7.5 87.0735C7.5 87.1395 7.5 87.2055 7.5 87.2715C7.5 87.3375 7.5 87.4036 7.5 87.4697C7.5 87.5358 7.5 87.6019 7.5 87.6681C7.5 87.7343 7.5 87.8005 7.5 87.8667C7.5 87.933 7.5 87.9993 7.5 88.0656C7.5 88.1319 7.5 88.1983 7.5 88.2647C7.5 88.3311 7.5 88.3975 7.5 88.464C7.5 88.5305 7.5 88.597 7.5 88.6636C7.5 88.7301 7.5 88.7967 7.5 88.8634C7.5 88.93 7.5 88.9967 7.5 89.0634C7.5 89.1301 7.5 89.1969 7.5 89.2637C7.5 89.3305 7.5 89.3973 7.5 89.4642C7.5 89.5311 7.5 89.598 7.5 89.665C7.5 89.7319 7.5 89.799 7.5 89.866C7.5 89.933 7.5 90.0001 7.5 90.0673C7.5 90.1344 7.5 90.2016 7.5 90.2688C7.5 90.336 7.5 90.4032 7.5 90.4705C7.5 90.5378 7.5 90.6052 7.5 90.6725C7.5 90.7399 7.5 90.8074 7.5 90.8748C7.5 90.9423 7.5 91.0098 7.5 91.0774C7.5 91.1449 7.5 91.2125 7.5 91.2802C7.5 91.3478 7.5 91.4155 7.5 91.4832C7.5 91.5509 7.5 91.6187 7.5 91.6865C7.5 91.7544 7.5 91.8222 7.5 91.8901C7.5 91.958 7.5 92.026 7.5 92.094C7.5 92.162 7.5 92.23 7.5 92.2981C7.5 92.3662 7.5 92.4343 7.5 92.5025C7.5 92.5707 7.5 92.6389 7.5 92.7072C7.5 92.7755 7.5 92.8438 7.5 92.9121C7.5 92.9805 7.5 93.0489 7.5 93.1174C7.5 93.1858 7.5 93.2543 7.5 93.3229C7.5 93.3914 7.5 93.46 7.5 93.5287C7.5 93.5973 7.5 93.666 7.5 93.7347C7.5 93.8035 7.5 93.8723 7.5 93.9411C7.5 94.0099 7.5 94.0788 7.5 94.1478C7.5 94.2167 7.5 94.2857 7.5 94.3547C7.5 94.4237 7.5 94.4928 7.5 94.5619C7.5 94.6311 7.5 94.7002 7.5 94.7695C7.5 94.8387 7.5 94.908 7.5 94.9773C7.5 95.0466 7.5 95.116 7.5 95.1854C7.5 95.2548 7.5 95.3243 7.5 95.3938C7.5 95.4634 7.5 95.5329 7.5 95.6026C7.5 95.6722 7.5 95.7419 7.5 95.8116C7.5 95.8813 7.5 95.9511 7.5 96.0209C7.5 96.0908 7.5 96.1606 7.5 96.2306C7.5 96.3005 7.5 96.3705 7.5 96.4405C7.5 96.5106 7.5 96.5807 7.5 96.6508C7.5 96.7209 7.5 96.7911 7.5 96.8614C7.5 96.9316 7.5 97.0019 7.5 97.0723C7.5 97.1426 7.5 97.213 7.5 97.2835C7.5 97.354 7.5 97.4245 7.5 97.495C7.5 97.5656 7.5 97.6362 7.5 97.7069C7.5 97.7776 7.5 97.8483 7.5 97.9191C7.5 97.9899 7.5 98.0607 7.5 98.1316C7.5 98.2025 7.5 98.2734 7.5 98.3444C7.5 98.4154 7.5 98.4865 7.5 98.5576C7.5 98.6287 7.5 98.6999 7.5 98.7711C7.5 98.8423 7.5 98.9136 7.5 98.9849C7.5 99.0563 7.5 99.1276 7.5 99.1991C7.5 99.2705 7.5 99.342 7.5 99.4136C7.5 99.4852 7.5 99.5568 7.5 99.6285C7.5 99.7001 7.5 99.7719 7.5 99.8436C7.5 99.9154 7.5 99.9873 7.5 100.059C7.5 100.131 7.5 100.203 7.5 100.275C7.5 100.347 7.5 100.419 7.5 100.491C7.5 100.563 7.5 100.636 7.5 100.708C7.5 100.78 7.5 100.852 7.5 100.925C7.5 100.997 7.5 101.07 7.5 101.142C7.5 101.215 7.5 101.287 7.5 101.36C7.5 101.432 7.5 101.505 7.5 101.578C7.5 101.65 7.5 101.723 7.5 101.796C7.5 101.869 7.5 101.942 7.5 102.015C7.5 102.088 7.5 102.161 7.5 102.234C7.5 102.307 7.5 102.38 7.5 102.453C7.5 102.527 7.5 102.6 7.5 102.673C7.5 102.746 7.5 102.82 7.5 102.893C7.5 102.967 7.5 103.04 7.5 103.114C7.5 103.187 7.5 103.261 7.5 103.335C7.5 103.409 7.5 103.482 7.5 103.556C7.5 103.63 7.5 103.704 7.5 103.778C7.5 103.852 7.5 103.926 7.5 104C7.5 104.074 7.5 104.148 7.5 104.222C7.5 104.297 7.5 104.371 7.5 104.445C7.5 104.52 7.5 104.594 7.5 104.668C7.5 104.743 7.5 104.817 7.5 104.892C7.5 104.967 7.5 105.041 7.5 105.116C7.5 105.191 7.5 105.266 7.5 105.34C7.5 105.415 7.5 105.49 7.5 105.565C7.5 105.64 7.5 105.715 7.5 105.79C7.5 105.865 7.5 105.941 7.5 106.016C7.5 106.091 7.5 106.167 7.5 106.242C7.5 106.317 7.5 106.393 7.5 106.468C7.5 106.544 7.5 106.619 7.5 106.695C7.5 106.771 7.5 106.846 7.5 106.922C7.5 106.998 7.5 107.074 7.5 107.15C7.5 107.226 7.5 107.302 7.5 107.378C7.5 107.454 7.5 107.53 7.5 107.606C7.5 107.682 7.5 107.759 7.5 107.835C7.5 107.911 7.5 107.988 7.5 108.064C7.5 108.141 7.5 108.217 7.5 108.294C7.5 108.371 7.5 108.447 7.5 108.524C7.5 108.601 7.5 108.678 7.5 108.755C7.5 108.831 7.5 108.908 7.5 108.986C7.5 109.063 7.5 109.14 7.5 109.217C7.5 109.294 7.5 109.371 7.5 109.449C7.5 109.526 7.5 109.603 7.5 109.681C7.5 109.758 7.5 109.836 7.5 109.914C7.5 109.991 7.5 110.069 7.5 110.147C7.5 110.224 7.5 110.302 7.5 110.38C7.5 110.458 7.5 110.536 7.5 110.614C7.5 110.692 7.5 110.77 7.5 110.848C7.5 110.927 7.5 111.005 7.5 111.083C7.5 111.162 7.5 111.24 7.5 111.319C7.5 111.397 7.5 111.476 7.5 111.554C7.5 111.633 7.5 111.712 7.5 111.79C7.5 111.869 7.5 111.948 7.5 112.027C7.5 112.106 7.5 112.185 7.5 112.264C7.5 112.343 7.5 112.422 7.5 112.502H10.5C10.5 112.422 10.5 112.343 10.5 112.264C10.5 112.185 10.5 112.106 10.5 112.027C10.5 111.948 10.5 111.869 10.5 111.79C10.5 111.712 10.5 111.633 10.5 111.554C10.5 111.476 10.5 111.397 10.5 111.319C10.5 111.24 10.5 111.162 10.5 111.083C10.5 111.005 10.5 110.927 10.5 110.848C10.5 110.77 10.5 110.692 10.5 110.614C10.5 110.536 10.5 110.458 10.5 110.38C10.5 110.302 10.5 110.224 10.5 110.147C10.5 110.069 10.5 109.991 10.5 109.914C10.5 109.836 10.5 109.758 10.5 109.681C10.5 109.603 10.5 109.526 10.5 109.449C10.5 109.371 10.5 109.294 10.5 109.217C10.5 109.14 10.5 109.063 10.5 108.986C10.5 108.908 10.5 108.831 10.5 108.755C10.5 108.678 10.5 108.601 10.5 108.524C10.5 108.447 10.5 108.371 10.5 108.294C10.5 108.217 10.5 108.141 10.5 108.064C10.5 107.988 10.5 107.911 10.5 107.835C10.5 107.759 10.5 107.682 10.5 107.606C10.5 107.53 10.5 107.454 10.5 107.378C10.5 107.302 10.5 107.226 10.5 107.15C10.5 107.074 10.5 106.998 10.5 106.922C10.5 106.846 10.5 106.771 10.5 106.695C10.5 106.619 10.5 106.544 10.5 106.468C10.5 106.393 10.5 106.317 10.5 106.242C10.5 106.167 10.5 106.091 10.5 106.016C10.5 105.941 10.5 105.865 10.5 105.79C10.5 105.715 10.5 105.64 10.5 105.565C10.5 105.49 10.5 105.415 10.5 105.34C10.5 105.266 10.5 105.191 10.5 105.116C10.5 105.041 10.5 104.967 10.5 104.892C10.5 104.817 10.5 104.743 10.5 104.668C10.5 104.594 10.5 104.52 10.5 104.445C10.5 104.371 10.5 104.297 10.5 104.222C10.5 104.148 10.5 104.074 10.5 104C10.5 103.926 10.5 103.852 10.5 103.778C10.5 103.704 10.5 103.63 10.5 103.556C10.5 103.482 10.5 103.409 10.5 103.335C10.5 103.261 10.5 103.187 10.5 103.114C10.5 103.04 10.5 102.967 10.5 102.893C10.5 102.82 10.5 102.746 10.5 102.673C10.5 102.6 10.5 102.527 10.5 102.453C10.5 102.38 10.5 102.307 10.5 102.234C10.5 102.161 10.5 102.088 10.5 102.015C10.5 101.942 10.5 101.869 10.5 101.796C10.5 101.723 10.5 101.65 10.5 101.578C10.5 101.505 10.5 101.432 10.5 101.36C10.5 101.287 10.5 101.215 10.5 101.142C10.5 101.07 10.5 100.997 10.5 100.925C10.5 100.852 10.5 100.78 10.5 100.708C10.5 100.636 10.5 100.563 10.5 100.491C10.5 100.419 10.5 100.347 10.5 100.275C10.5 100.203 10.5 100.131 10.5 100.059C10.5 99.9873 10.5 99.9154 10.5 99.8436C10.5 99.7719 10.5 99.7001 10.5 99.6285C10.5 99.5568 10.5 99.4852 10.5 99.4136C10.5 99.342 10.5 99.2705 10.5 99.1991C10.5 99.1276 10.5 99.0563 10.5 98.9849C10.5 98.9136 10.5 98.8423 10.5 98.7711C10.5 98.6999 10.5 98.6287 10.5 98.5576C10.5 98.4865 10.5 98.4154 10.5 98.3444C10.5 98.2734 10.5 98.2025 10.5 98.1316C10.5 98.0607 10.5 97.9899 10.5 97.9191C10.5 97.8483 10.5 97.7776 10.5 97.7069C10.5 97.6362 10.5 97.5656 10.5 97.495C10.5 97.4245 10.5 97.354 10.5 97.2835C10.5 97.213 10.5 97.1426 10.5 97.0723C10.5 97.0019 10.5 96.9316 10.5 96.8614C10.5 96.7911 10.5 96.7209 10.5 96.6508C10.5 96.5807 10.5 96.5106 10.5 96.4405C10.5 96.3705 10.5 96.3005 10.5 96.2306C10.5 96.1606 10.5 96.0908 10.5 96.0209C10.5 95.9511 10.5 95.8813 10.5 95.8116C10.5 95.7419 10.5 95.6722 10.5 95.6026C10.5 95.5329 10.5 95.4634 10.5 95.3938C10.5 95.3243 10.5 95.2548 10.5 95.1854C10.5 95.116 10.5 95.0466 10.5 94.9773C10.5 94.908 10.5 94.8387 10.5 94.7695C10.5 94.7002 10.5 94.6311 10.5 94.5619C10.5 94.4928 10.5 94.4237 10.5 94.3547C10.5 94.2857 10.5 94.2167 10.5 94.1478C10.5 94.0788 10.5 94.0099 10.5 93.9411C10.5 93.8723 10.5 93.8035 10.5 93.7347C10.5 93.666 10.5 93.5973 10.5 93.5287C10.5 93.46 10.5 93.3914 10.5 93.3229C10.5 93.2543 10.5 93.1858 10.5 93.1174C10.5 93.0489 10.5 92.9805 10.5 92.9121C10.5 92.8438 10.5 92.7755 10.5 92.7072C10.5 92.6389 10.5 92.5707 10.5 92.5025C10.5 92.4343 10.5 92.3662 10.5 92.2981C10.5 92.23 10.5 92.162 10.5 92.094C10.5 92.026 10.5 91.958 10.5 91.8901C10.5 91.8222 10.5 91.7544 10.5 91.6865C10.5 91.6187 10.5 91.5509 10.5 91.4832C10.5 91.4155 10.5 91.3478 10.5 91.2802C10.5 91.2125 10.5 91.1449 10.5 91.0774C10.5 91.0098 10.5 90.9423 10.5 90.8748C10.5 90.8074 10.5 90.7399 10.5 90.6725C10.5 90.6052 10.5 90.5378 10.5 90.4705C10.5 90.4032 10.5 90.336 10.5 90.2688C10.5 90.2016 10.5 90.1344 10.5 90.0673C10.5 90.0001 10.5 89.933 10.5 89.866C10.5 89.799 10.5 89.7319 10.5 89.665C10.5 89.598 10.5 89.5311 10.5 89.4642C10.5 89.3973 10.5 89.3305 10.5 89.2637C10.5 89.1969 10.5 89.1301 10.5 89.0634C10.5 88.9967 10.5 88.93 10.5 88.8634C10.5 88.7967 10.5 88.7301 10.5 88.6636C10.5 88.597 10.5 88.5305 10.5 88.464C10.5 88.3975 10.5 88.3311 10.5 88.2647C10.5 88.1983 10.5 88.1319 10.5 88.0656C10.5 87.9993 10.5 87.933 10.5 87.8667C10.5 87.8005 10.5 87.7343 10.5 87.6681C10.5 87.6019 10.5 87.5358 10.5 87.4697C10.5 87.4036 10.5 87.3375 10.5 87.2715C10.5 87.2055 10.5 87.1395 10.5 87.0735C10.5 87.0076 10.5 86.9417 10.5 86.8758C10.5 86.8099 10.5 86.7441 10.5 86.6783C10.5 86.6125 10.5 86.5467 10.5 86.481C10.5 86.4152 10.5 86.3495 10.5 86.2839C10.5 86.2182 10.5 86.1526 10.5 86.087C10.5 86.0214 10.5 85.9559 10.5 85.8904C10.5 85.8248 10.5 85.7593 10.5 85.6939C10.5 85.6284 10.5 85.563 10.5 85.4976C10.5 85.4323 10.5 85.3669 10.5 85.3016C10.5 85.2363 10.5 85.171 10.5 85.1058C10.5 85.0405 10.5 84.9753 10.5 84.9101C10.5 84.8449 10.5 84.7798 10.5 84.7147C10.5 84.6496 10.5 84.5845 10.5 84.5194C10.5 84.4544 10.5 84.3894 10.5 84.3244C10.5 84.2594 10.5 84.1944 10.5 84.1295C10.5 84.0646 10.5 83.9997 10.5 83.9349C10.5 83.87 10.5 83.8052 10.5 83.7404C10.5 83.6756 10.5 83.6108 10.5 83.5461C10.5 83.4814 10.5 83.4167 10.5 83.352C10.5 83.2873 10.5 83.2227 10.5 83.1581C10.5 83.0935 10.5 83.0289 10.5 82.9643C10.5 82.8998 10.5 82.8353 10.5 82.7708C10.5 82.7063 10.5 82.6418 10.5 82.5774C10.5 82.5129 10.5 82.4485 10.5 82.3842C10.5 82.3198 10.5 82.2554 10.5 82.1911C10.5 82.1268 10.5 82.0625 10.5 81.9983C10.5 81.934 10.5 81.8698 10.5 81.8056C10.5 81.7414 10.5 81.6772 10.5 81.613C10.5 81.5489 10.5 81.4848 10.5 81.4207C10.5 81.3566 10.5 81.2925 10.5 81.2285C10.5 81.1644 10.5 81.1004 10.5 81.0364C10.5 80.9725 10.5 80.9085 10.5 80.8446C10.5 80.7806 10.5 80.7167 10.5 80.6528C10.5 80.589 10.5 80.5251 10.5 80.4613C10.5 80.3974 10.5 80.3336 10.5 80.2699C10.5 80.2061 10.5 80.1423 10.5 80.0786C10.5 80.0149 10.5 79.9512 10.5 79.8875C10.5 79.8238 10.5 79.7601 10.5 79.6965C10.5 79.6329 10.5 79.5693 10.5 79.5057C10.5 79.4421 10.5 79.3785 10.5 79.315C10.5 79.2515 10.5 79.188 10.5 79.1245C10.5 79.061 10.5 78.9975 10.5 78.9341C10.5 78.8706 10.5 78.8072 10.5 78.7438C10.5 78.6804 10.5 78.6171 10.5 78.5537C10.5 78.4903 10.5 78.427 10.5 78.3637C10.5 78.3004 10.5 78.2371 10.5 78.1739C10.5 78.1106 10.5 78.0473 10.5 77.9841C10.5 77.9209 10.5 77.8577 10.5 77.7945C10.5 77.7313 10.5 77.6682 10.5 77.605C10.5 77.5419 10.5 77.4788 10.5 77.4157C10.5 77.3526 10.5 77.2895 10.5 77.2265C10.5 77.1634 10.5 77.1004 10.5 77.0373C10.5 76.9743 10.5 76.9113 10.5 76.8483C10.5 76.7854 10.5 76.7224 10.5 76.6595C10.5 76.5965 10.5 76.5336 10.5 76.4707C10.5 76.4078 10.5 76.3449 10.5 76.282C10.5 76.2192 10.5 76.1563 10.5 76.0935C10.5 76.0307 10.5 75.9679 10.5 75.9051C10.5 75.8423 10.5 75.7795 10.5 75.7167C10.5 75.654 10.5 75.5912 10.5 75.5285C10.5 75.4658 10.5 75.4031 10.5 75.3404C10.5 75.2777 10.5 75.215 10.5 75.1524C10.5 75.0897 10.5 75.027 10.5 74.9644C10.5 74.9018 10.5 74.8392 10.5 74.7766C10.5 74.714 10.5 74.6514 10.5 74.5888C10.5 74.5263 10.5 74.4637 10.5 74.4012C10.5 74.3387 10.5 74.2761 10.5 74.2136C10.5 74.1511 10.5 74.0886 10.5 74.0262C10.5 73.9637 10.5 73.9012 10.5 73.8388C10.5 73.7763 10.5 73.7139 10.5 73.6515C10.5 73.5891 10.5 73.5266 10.5 73.4643C10.5 73.4019 10.5 73.3395 10.5 73.2771C10.5 73.2147 10.5 73.1524 10.5 73.09C10.5 73.0277 10.5 72.9654 10.5 72.9031C10.5 72.8408 10.5 72.7784 10.5 72.7161C10.5 72.6539 10.5 72.5916 10.5 72.5293C10.5 72.467 10.5 72.4048 10.5 72.3425C10.5 72.2803 10.5 72.2181 10.5 72.1558C10.5 72.0936 10.5 72.0314 10.5 71.9692C10.5 71.907 10.5 71.8448 10.5 71.7826C10.5 71.7204 10.5 71.6583 10.5 71.5961C10.5 71.534 10.5 71.4718 10.5 71.4097C10.5 71.3475 10.5 71.2854 10.5 71.2233C10.5 71.1611 10.5 71.099 10.5 71.0369C10.5 70.9748 10.5 70.9127 10.5 70.8506C10.5 70.7886 10.5 70.7265 10.5 70.6644C10.5 70.6023 10.5 70.5403 10.5 70.4782C10.5 70.4162 10.5 70.3541 10.5 70.2921C10.5 70.23 10.5 70.168 10.5 70.106C10.5 70.044 10.5 69.982 10.5 69.9199C10.5 69.8579 10.5 69.7959 10.5 69.7339C10.5 69.672 10.5 69.61 10.5 69.548C10.5 69.486 10.5 69.424 10.5 69.3621C10.5 69.3001 10.5 69.2381 10.5 69.1762C10.5 69.1142 10.5 69.0523 10.5 68.9903C10.5 68.9284 10.5 68.8664 10.5 68.8045C10.5 68.7425 10.5 68.6806 10.5 68.6187C10.5 68.5568 10.5 68.4948 10.5 68.4329C10.5 68.371 10.5 68.3091 10.5 68.2472C10.5 68.1853 10.5 68.1234 10.5 68.0615C10.5 67.9996 10.5 67.9377 10.5 67.8758C10.5 67.8139 10.5 67.752 10.5 67.6901C10.5 67.6282 10.5 67.5663 10.5 67.5044C10.5 67.4426 10.5 67.3807 10.5 67.3188C10.5 67.2569 10.5 67.1951 10.5 67.1332C10.5 67.0713 10.5 67.0094 10.5 66.9476C10.5 66.8857 10.5 66.8238 10.5 66.762C10.5 66.7001 10.5 66.6382 10.5 66.5764C10.5 66.5145 10.5 66.4526 10.5 66.3908C10.5 66.3289 10.5 66.2671 10.5 66.2052C10.5 66.1433 10.5 66.0815 10.5 66.0196C10.5 65.9578 10.5 65.8959 10.5 65.834C10.5 65.7722 10.5 65.7103 10.5 65.6485C10.5 65.5866 10.5 65.5247 10.5 65.4629C10.5 65.401 10.5 65.3391 10.5 65.2773C10.5 65.2154 10.5 65.1535 10.5 65.0917C10.5 65.0298 10.5 64.9679 10.5 64.9061C10.5 64.8442 10.5 64.7823 10.5 64.7204C10.5 64.6586 10.5 64.5967 10.5 64.5348C10.5 64.4729 10.5 64.411 10.5 64.3491C10.5 64.2873 10.5 64.2254 10.5 64.1635C10.5 64.1016 10.5 64.0397 10.5 63.9778C10.5 63.9159 10.5 63.854 10.5 63.7921C10.5 63.7302 10.5 63.6683 10.5 63.6063C10.5 63.5444 10.5 63.4825 10.5 63.4206C10.5 63.3587 10.5 63.2967 10.5 63.2348C10.5 63.1729 10.5 63.1109 10.5 63.049C10.5 62.987 10.5 62.9251 10.5 62.8631C10.5 62.8012 10.5 62.7392 10.5 62.6772C10.5 62.6153 10.5 62.5533 10.5 62.4913C10.5 62.4294 10.5 62.3674 10.5 62.3054C10.5 62.2434 10.5 62.1814 10.5 62.1194C10.5 62.0574 10.5 61.9954 10.5 61.9333C10.5 61.8713 10.5 61.8093 10.5 61.7473C10.5 61.6852 10.5 61.6232 10.5 61.5611C10.5 61.4991 10.5 61.437 10.5 61.375C10.5 61.3129 10.5 61.2508 10.5 61.1887C10.5 61.1267 10.5 61.0646 10.5 61.0025C10.5 60.9404 10.5 60.8783 10.5 60.8161C10.5 60.754 10.5 60.6919 10.5 60.6298C10.5 60.5676 10.5 60.5055 10.5 60.4433C10.5 60.3812 10.5 60.319 10.5 60.2568C10.5 60.1946 10.5 60.1325 10.5 60.0703C10.5 60.0081 10.5 59.9459 10.5 59.8836C10.5 59.8214 10.5 59.7592 10.5 59.6969C10.5 59.6347 10.5 59.5724 10.5 59.5102C10.5 59.4479 10.5 59.3856 10.5 59.3234C10.5 59.2611 10.5 59.1988 10.5 59.1365C10.5 59.0741 10.5 59.0118 10.5 58.9495C10.5 58.8871 10.5 58.8248 10.5 58.7624C10.5 58.7001 10.5 58.6377 10.5 58.5753C10.5 58.5129 10.5 58.4505 10.5 58.3881C10.5 58.3257 10.5 58.2633 10.5 58.2008C10.5 58.1384 10.5 58.0759 10.5 58.0135C10.5 57.951 10.5 57.8885 10.5 57.826C10.5 57.7635 10.5 57.701 10.5 57.6385C10.5 57.5759 10.5 57.5134 10.5 57.4508C10.5 57.3883 10.5 57.3257 10.5 57.2631C10.5 57.2005 10.5 57.1379 10.5 57.0753C10.5 57.0127 10.5 56.95 10.5 56.8874C10.5 56.8247 10.5 56.7621 10.5 56.6994C10.5 56.6367 10.5 56.574 10.5 56.5113C10.5 56.4486 10.5 56.3858 10.5 56.3231C10.5 56.2603 10.5 56.1976 10.5 56.1348C10.5 56.072 10.5 56.0092 10.5 55.9464C10.5 55.8835 10.5 55.8207 10.5 55.7578C10.5 55.695 10.5 55.6321 10.5 55.5692C10.5 55.5063 10.5 55.4434 10.5 55.3805C10.5 55.3175 10.5 55.2546 10.5 55.1916C10.5 55.1286 10.5 55.0656 10.5 55.0026C10.5 54.9396 10.5 54.8766 10.5 54.8135C10.5 54.7505 10.5 54.6874 10.5 54.6243C10.5 54.5612 10.5 54.4981 10.5 54.435C10.5 54.3719 10.5 54.3087 10.5 54.2456C10.5 54.1824 10.5 54.1192 10.5 54.056C10.5 53.9928 10.5 53.9295 10.5 53.8663C10.5 53.803 10.5 53.7397 10.5 53.6764C10.5 53.6131 10.5 53.5498 10.5 53.4865C10.5 53.4231 10.5 53.3598 10.5 53.2964C10.5 53.233 10.5 53.1696 10.5 53.1062C10.5 53.0427 10.5 52.9793 10.5 52.9158C10.5 52.8523 10.5 52.7888 10.5 52.7253C10.5 52.6618 10.5 52.5982 10.5 52.5346C10.5 52.4711 10.5 52.4075 10.5 52.3438C10.5 52.2802 10.5 52.2166 10.5 52.1529C10.5 52.0892 10.5 52.0255 10.5 51.9618C10.5 51.8981 10.5 51.8344 10.5 51.7706C10.5 51.7068 10.5 51.643 10.5 51.5792C10.5 51.5154 10.5 51.4515 10.5 51.3877C10.5 51.3238 10.5 51.2599 10.5 51.196C10.5 51.1321 10.5 51.0681 10.5 51.0041C10.5 50.9402 10.5 50.8762 10.5 50.8121C10.5 50.7481 10.5 50.6841 10.5 50.62C10.5 50.5559 10.5 50.4918 10.5 50.4276C10.5 50.3635 10.5 50.2993 10.5 50.2351C10.5 50.171 10.5 50.1067 10.5 50.0425C10.5 49.9782 10.5 49.914 10.5 49.8497C10.5 49.7854 10.5 49.721 10.5 49.6567C10.5 49.5923 10.5 49.5279 10.5 49.4635C10.5 49.3991 10.5 49.3346 10.5 49.2701C10.5 49.2057 10.5 49.1412 10.5 49.0766C10.5 49.0121 10.5 48.9475 10.5 48.8829C10.5 48.8183 10.5 48.7537 10.5 48.689C10.5 48.6244 10.5 48.5597 10.5 48.495C10.5 48.4302 10.5 48.3655 10.5 48.3007C10.5 48.2359 10.5 48.1711 10.5 48.1063C10.5 48.0414 10.5 47.9766 10.5 47.9117C10.5 47.8467 10.5 47.7818 10.5 47.7168C10.5 47.6519 10.5 47.5869 10.5 47.5218C10.5 47.4568 10.5 47.3917 10.5 47.3266C10.5 47.2615 10.5 47.1964 10.5 47.1312C10.5 47.0661 10.5 47.0009 10.5 46.9356C10.5 46.8704 10.5 46.8051 10.5 46.7398C10.5 46.6745 10.5 46.6092 10.5 46.5438C10.5 46.4785 10.5 46.4131 10.5 46.3476C10.5 46.2822 10.5 46.2167 10.5 46.1512C10.5 46.0857 10.5 46.0202 10.5 45.9546C10.5 45.889 10.5 45.8234 10.5 45.7578C10.5 45.6921 10.5 45.6264 10.5 45.5607C10.5 45.495 10.5 45.4292 10.5 45.3634C10.5 45.2977 10.5 45.2318 10.5 45.166C10.5 45.1001 10.5 45.0342 10.5 44.9683C10.5 44.9023 10.5 44.8364 10.5 44.7704C10.5 44.7044 10.5 44.6383 10.5 44.5722C10.5 44.5061 10.5 44.44 10.5 44.3739C10.5 44.3077 10.5 44.2415 10.5 44.1753C10.5 44.1091 10.5 44.0428 10.5 43.9765C10.5 43.9102 10.5 43.8438 10.5 43.7774C10.5 43.711 10.5 43.6446 10.5 43.5781C10.5 43.5117 10.5 43.4452 10.5 43.3786C10.5 43.3121 10.5 43.2455 10.5 43.1789C10.5 43.1123 10.5 43.0456 10.5 42.9789C10.5 42.9122 10.5 42.8455 10.5 42.7787C10.5 42.7119 10.5 42.6451 10.5 42.5782C10.5 42.5113 10.5 42.4444 10.5 42.3775C10.5 42.3105 10.5 42.2436 10.5 42.1765C10.5 42.1095 10.5 42.0424 10.5 41.9753C10.5 41.9082 10.5 41.8411 10.5 41.7739C10.5 41.7067 10.5 41.6394 10.5 41.5721C10.5 41.5049 10.5 41.4375 10.5 41.3702C10.5 41.3028 10.5 41.2354 10.5 41.168C10.5 41.1005 10.5 41.033 10.5 40.9655C10.5 40.8979 10.5 40.8304 10.5 40.7627C10.5 40.6951 10.5 40.6275 10.5 40.5597C10.5 40.492 10.5 40.4243 10.5 40.3565C10.5 40.2887 10.5 40.2208 10.5 40.1529C10.5 40.0851 10.5 40.0171 10.5 39.9491C10.5 39.8812 10.5 39.8131 10.5 39.7451C10.5 39.677 10.5 39.6089 10.5 39.5407C10.5 39.4726 10.5 39.4044 10.5 39.3361C10.5 39.2679 10.5 39.1996 10.5 39.1312C10.5 39.0629 10.5 38.9945 10.5 38.926C10.5 38.8576 10.5 38.7891 10.5 38.7206C10.5 38.6521 10.5 38.5835 10.5 38.5149C10.5 38.4462 10.5 38.3776 10.5 38.3088C10.5 38.2401 10.5 38.1714 10.5 38.1025C10.5 38.0337 10.5 37.9649 10.5 37.896C10.5 37.827 10.5 37.7581 10.5 37.6891C10.5 37.6201 10.5 37.551 10.5 37.4819C10.5 37.4128 10.5 37.3436 10.5 37.2744C10.5 37.2052 10.5 37.136 10.5 37.0667C10.5 36.9974 10.5 36.928 10.5 36.8586C10.5 36.7892 10.5 36.7198 10.5 36.6503C10.5 36.5807 10.5 36.5112 10.5 36.4416C10.5 36.372 10.5 36.3023 10.5 36.2326C10.5 36.1629 10.5 36.0932 10.5 36.0234C10.5 35.9535 10.5 35.8837 10.5 35.8138C10.5 35.7439 10.5 35.6739 10.5 35.6039C10.5 35.5339 10.5 35.4638 10.5 35.3937C10.5 35.3236 10.5 35.2534 10.5 35.1832C10.5 35.1129 10.5 35.0427 10.5 34.9723C10.5 34.902 10.5 34.8316 10.5 34.7612C10.5 34.6907 10.5 34.6203 10.5 34.5497C10.5 34.4792 10.5 34.4086 10.5 34.3379C10.5 34.2673 10.5 34.1966 10.5 34.1258C10.5 34.055 10.5 33.9842 10.5 33.9134C10.5 33.8425 10.5 33.7716 10.5 33.7006C10.5 33.6296 10.5 33.5586 10.5 33.4875C10.5 33.4164 10.5 33.3453 10.5 33.2741C10.5 33.2029 10.5 33.1316 10.5 33.0603C10.5 32.989 10.5 32.9176 10.5 32.8462C10.5 32.7748 10.5 32.7033 10.5 32.6318C10.5 32.5602 10.5 32.4886 10.5 32.417C10.5 32.3453 10.5 32.2736 10.5 32.2019C10.5 32.1301 10.5 32.0583 10.5 31.9864C10.5 31.9145 10.5 31.8426 10.5 31.7706C10.5 31.6986 10.5 31.6266 10.5 31.5545C10.5 31.4823 10.5 31.4102 10.5 31.338C10.5 31.2657 10.5 31.1934 10.5 31.1211C10.5 31.0487 10.5 30.9763 10.5 30.9039C10.5 30.8314 10.5 30.7589 10.5 30.6863C10.5 30.6137 10.5 30.5411 10.5 30.4684C10.5 30.3957 10.5 30.3229 10.5 30.2501C10.5 30.1773 10.5 30.1044 10.5 30.0315C10.5 29.9585 10.5 29.8855 10.5 29.8125C10.5 29.7394 10.5 29.6663 10.5 29.5931C10.5 29.5199 10.5 29.4467 10.5 29.3733C10.5 29.3 10.5 29.2267 10.5 29.1532C10.5 29.0798 10.5 29.0063 10.5 28.9328C10.5 28.8592 10.5 28.7856 10.5 28.7119C10.5 28.6382 10.5 28.5645 10.5 28.4907C10.5 28.4169 10.5 28.343 10.5 28.2691C10.5 28.1951 10.5 28.1211 10.5 28.0471C10.5 27.973 10.5 27.8989 10.5 27.8247C10.5 27.7505 10.5 27.6763 10.5 27.602C10.5 27.5276 10.5 27.4533 10.5 27.3788C10.5 27.3044 10.5 27.2299 10.5 27.1553C10.5 27.0807 10.5 27.0061 10.5 26.9314C10.5 26.8567 10.5 26.7819 10.5 26.7071C10.5 26.6322 10.5 26.5573 10.5 26.4824C10.5 26.4074 10.5 26.3324 10.5 26.2573C10.5 26.1822 10.5 26.107 10.5 26.0318C10.5 25.9566 10.5 25.8813 10.5 25.8059C10.5 25.7305 10.5 25.6551 10.5 25.5796C10.5 25.5041 10.5 25.4285 10.5 25.3529C10.5 25.2773 10.5 25.2016 10.5 25.1258C10.5 25.05 10.5 24.9742 10.5 24.8983C10.5 24.8224 10.5 24.7464 10.5 24.6704C10.5 24.5943 10.5 24.5182 10.5 24.4421C10.5 24.3659 10.5 24.2896 10.5 24.2133C10.5 24.137 10.5 24.0606 10.5 23.9842C10.5 23.9077 10.5 23.8312 10.5 23.7546C10.5 23.678 10.5 23.6013 10.5 23.5246C10.5 23.4479 10.5 23.371 10.5 23.2942C10.5 23.2173 10.5 23.1404 10.5 23.0633C10.5 22.9863 10.5 22.9092 10.5 22.8321C10.5 22.7549 10.5 22.6777 10.5 22.6004C10.5 22.5231 10.5 22.4457 10.5 22.3683C10.5 22.2908 10.5 22.2133 10.5 22.1357C10.5 22.0581 10.5 21.9805 10.5 21.9027C10.5 21.825 10.5 21.7472 10.5 21.6693C10.5 21.5914 10.5 21.5135 10.5 21.4355C10.5 21.3574 10.5 21.2793 10.5 21.2012C10.5 21.123 10.5 21.0447 10.5 20.9664C10.5 20.8881 10.5 20.8097 10.5 20.7312C10.5 20.6528 10.5 20.5742 10.5 20.4956C10.5 20.417 10.5 20.3383 10.5 20.2596C10.5 20.1808 10.5 20.1019 10.5 20.023C10.5 19.9441 10.5 19.8651 10.5 19.7861C10.5 19.707 10.5 19.6279 10.5 19.5486C10.5 19.4694 10.5 19.3901 10.5 19.3108C10.5 19.2314 10.5 19.1519 10.5 19.0724C10.5 18.9929 10.5 18.9133 10.5 18.8336C10.5 18.754 10.5 18.6742 10.5 18.5944C10.5 18.5145 10.5 18.4346 10.5 18.3547C10.5 18.2747 10.5 18.1946 10.5 18.1145C10.5 18.0343 10.5 17.9541 10.5 17.8738C10.5 17.7935 10.5 17.7132 10.5 17.6327C10.5 17.5523 10.5 17.4717 10.5 17.3911C10.5 17.3105 10.5 17.2298 10.5 17.1491C10.5 17.0683 10.5 16.9874 10.5 16.9065C10.5 16.8256 10.5 16.7446 10.5 16.6635C10.5 16.5824 10.5 16.5013 10.5 16.42C10.5 16.3388 10.5 16.2574 10.5 16.176C10.5 16.0946 10.5 16.0131 10.5 15.9316C10.5 15.85 10.5 15.7684 10.5 15.6866C10.5 15.6049 10.5 15.5231 10.5 15.4412C10.5 15.3593 10.5 15.2773 10.5 15.1953C10.5 15.1132 10.5 15.0311 10.5 14.9489C10.5 14.8667 10.5 14.7844 10.5 14.702C10.5 14.6196 10.5 14.5371 10.5 14.4546C10.5 14.372 10.5 14.2894 10.5 14.2067C10.5 14.124 10.5 14.0412 10.5 13.9583C10.5 13.8754 10.5 13.7925 10.5 13.7094C10.5 13.6264 10.5 13.5432 10.5 13.46C10.5 13.3768 10.5 13.2935 10.5 13.2101C10.5 13.1267 10.5 13.0433 10.5 12.9597C10.5 12.8762 10.5 12.7925 10.5 12.7088C10.5 12.6251 10.5 12.5413 10.5 12.4574C10.5 12.3735 10.5 12.2895 10.5 12.2054C10.5 12.1214 10.5 12.0372 10.5 11.953C10.5 11.8688 10.5 11.7844 10.5 11.7C10.5 11.6156 10.5 11.5311 10.5 11.4465C10.5 11.362 10.5 11.2773 10.5 11.1925C10.5 11.1078 10.5 11.0229 10.5 10.938C10.5 10.8531 10.5 10.768 10.5 10.6829C10.5 10.5978 10.5 10.5126 10.5 10.4274C10.5 10.3421 10.5 10.2567 10.5 10.1713C10.5 10.0858 10.5 10.0002 10.5 9.91461C10.5 9.82897 10.5 9.74325 10.5 9.65744C10.5 9.57162 10.5 9.48572 10.5 9.39973C10.5 9.31374 10.5 9.22766 10.5 9.14149C10.5 9.05532 10.5 8.96906 10.5 8.88271C10.5 8.79636 10.5 8.70991 10.5 8.62338C10.5 8.53685 10.5 8.45023 10.5 8.36352C10.5 8.27681 10.5 8.19 10.5 8.10311C10.5 8.01622 10.5 7.92923 10.5 7.84215C10.5 7.75508 10.5 7.66791 10.5 7.58065C10.5 7.49339 10.5 7.40604 10.5 7.3186C10.5 7.23115 10.5 7.14362 10.5 7.05599C10.5 6.96836 10.5 6.88064 10.5 6.79283C10.5 6.70502 10.5 6.61711 10.5 6.52911C10.5 6.44111 10.5 6.35302 10.5 6.26484C10.5 6.17665 10.5 6.08837 10.5 6H7.5Z" fill="#113366"/>
  <circle cx="9" cy="6" r="4.5" transform="rotate(90 9 6)" fill="white" stroke="#113366" stroke-width="3"/>
</svg>