<svg xmlns="http://www.w3.org/2000/svg" width="126" height="18" viewBox="0 0 126 18" fill="none">
<path d="M126 9L111 0.339746V17.6603L126 9ZM6 10.5C6.08837 10.5 6.17665 10.5 6.26484 10.5C6.35302 10.5 6.44111 10.5 6.52911 10.5C6.61711 10.5 6.70502 10.5 6.79283 10.5C6.88064 10.5 6.96836 10.5 7.05599 10.5C7.14362 10.5 7.23115 10.5 7.3186 10.5C7.40604 10.5 7.49339 10.5 7.58065 10.5C7.66791 10.5 7.75508 10.5 7.84215 10.5C7.92923 10.5 8.01622 10.5 8.10311 10.5C8.19 10.5 8.27681 10.5 8.36352 10.5C8.45023 10.5 8.53685 10.5 8.62338 10.5C8.70991 10.5 8.79636 10.5 8.88271 10.5C8.96906 10.5 9.05532 10.5 9.14149 10.5C9.22766 10.5 9.31374 10.5 9.39973 10.5C9.48572 10.5 9.57162 10.5 9.65744 10.5C9.74325 10.5 9.82897 10.5 9.91461 10.5C10.0002 10.5 10.0858 10.5 10.1713 10.5C10.2567 10.5 10.3421 10.5 10.4274 10.5C10.5126 10.5 10.5978 10.5 10.6829 10.5C10.768 10.5 10.8531 10.5 10.938 10.5C11.0229 10.5 11.1078 10.5 11.1925 10.5C11.2773 10.5 11.362 10.5 11.4465 10.5C11.5311 10.5 11.6156 10.5 11.7 10.5C11.7844 10.5 11.8688 10.5 11.953 10.5C12.0372 10.5 12.1214 10.5 12.2054 10.5C12.2895 10.5 12.3735 10.5 12.4574 10.5C12.5413 10.5 12.6251 10.5 12.7088 10.5C12.7925 10.5 12.8762 10.5 12.9597 10.5C13.0433 10.5 13.1267 10.5 13.2101 10.5C13.2935 10.5 13.3768 10.5 13.46 10.5C13.5432 10.5 13.6264 10.5 13.7094 10.5C13.7925 10.5 13.8754 10.5 13.9583 10.5C14.0412 10.5 14.124 10.5 14.2067 10.5C14.2894 10.5 14.372 10.5 14.4546 10.5C14.5371 10.5 14.6196 10.5 14.702 10.5C14.7844 10.5 14.8667 10.5 14.9489 10.5C15.0311 10.5 15.1132 10.5 15.1953 10.5C15.2773 10.5 15.3593 10.5 15.4412 10.5C15.5231 10.5 15.6049 10.5 15.6866 10.5C15.7684 10.5 15.85 10.5 15.9316 10.5C16.0131 10.5 16.0946 10.5 16.176 10.5C16.2574 10.5 16.3388 10.5 16.42 10.5C16.5013 10.5 16.5824 10.5 16.6635 10.5C16.7446 10.5 16.8256 10.5 16.9065 10.5C16.9874 10.5 17.0683 10.5 17.1491 10.5C17.2298 10.5 17.3105 10.5 17.3911 10.5C17.4717 10.5 17.5523 10.5 17.6327 10.5C17.7132 10.5 17.7935 10.5 17.8738 10.5C17.9541 10.5 18.0343 10.5 18.1145 10.5C18.1946 10.5 18.2747 10.5 18.3547 10.5C18.4346 10.5 18.5145 10.5 18.5944 10.5C18.6742 10.5 18.754 10.5 18.8336 10.5C18.9133 10.5 18.9929 10.5 19.0724 10.5C19.1519 10.5 19.2314 10.5 19.3108 10.5C19.3901 10.5 19.4694 10.5 19.5486 10.5C19.6279 10.5 19.707 10.5 19.7861 10.5C19.8651 10.5 19.9441 10.5 20.023 10.5C20.1019 10.5 20.1808 10.5 20.2596 10.5C20.3383 10.5 20.417 10.5 20.4956 10.5C20.5742 10.5 20.6528 10.5 20.7312 10.5C20.8097 10.5 20.8881 10.5 20.9664 10.5C21.0447 10.5 21.123 10.5 21.2012 10.5C21.2793 10.5 21.3574 10.5 21.4355 10.5C21.5135 10.5 21.5914 10.5 21.6693 10.5C21.7472 10.5 21.825 10.5 21.9027 10.5C21.9805 10.5 22.0581 10.5 22.1357 10.5C22.2133 10.5 22.2908 10.5 22.3683 10.5C22.4457 10.5 22.5231 10.5 22.6004 10.5C22.6777 10.5 22.7549 10.5 22.8321 10.5C22.9092 10.5 22.9863 10.5 23.0633 10.5C23.1404 10.5 23.2173 10.5 23.2942 10.5C23.371 10.5 23.4479 10.5 23.5246 10.5C23.6013 10.5 23.678 10.5 23.7546 10.5C23.8312 10.5 23.9077 10.5 23.9842 10.5C24.0606 10.5 24.137 10.5 24.2133 10.5C24.2896 10.5 24.3659 10.5 24.4421 10.5C24.5182 10.5 24.5943 10.5 24.6704 10.5C24.7464 10.5 24.8224 10.5 24.8983 10.5C24.9742 10.5 25.05 10.5 25.1258 10.5C25.2016 10.5 25.2773 10.5 25.3529 10.5C25.4285 10.5 25.5041 10.5 25.5796 10.5C25.6551 10.5 25.7305 10.5 25.8059 10.5C25.8813 10.5 25.9566 10.5 26.0318 10.5C26.107 10.5 26.1822 10.5 26.2573 10.5C26.3324 10.5 26.4074 10.5 26.4824 10.5C26.5573 10.5 26.6322 10.5 26.7071 10.5C26.7819 10.5 26.8567 10.5 26.9314 10.5C27.0061 10.5 27.0807 10.5 27.1553 10.5C27.2299 10.5 27.3044 10.5 27.3788 10.5C27.4533 10.5 27.5276 10.5 27.602 10.5C27.6763 10.5 27.7505 10.5 27.8247 10.5C27.8989 10.5 27.973 10.5 28.0471 10.5C28.1211 10.5 28.1951 10.5 28.2691 10.5C28.343 10.5 28.4169 10.5 28.4907 10.5C28.5645 10.5 28.6382 10.5 28.7119 10.5C28.7856 10.5 28.8592 10.5 28.9328 10.5C29.0063 10.5 29.0798 10.5 29.1532 10.5C29.2267 10.5 29.3 10.5 29.3733 10.5C29.4467 10.5 29.5199 10.5 29.5931 10.5C29.6663 10.5 29.7394 10.5 29.8125 10.5C29.8855 10.5 29.9585 10.5 30.0315 10.5C30.1044 10.5 30.1773 10.5 30.2501 10.5C30.3229 10.5 30.3957 10.5 30.4684 10.5C30.5411 10.5 30.6137 10.5 30.6863 10.5C30.7589 10.5 30.8314 10.5 30.9039 10.5C30.9763 10.5 31.0487 10.5 31.1211 10.5C31.1934 10.5 31.2657 10.5 31.338 10.5C31.4102 10.5 31.4823 10.5 31.5545 10.5C31.6266 10.5 31.6986 10.5 31.7706 10.5C31.8426 10.5 31.9145 10.5 31.9864 10.5C32.0583 10.5 32.1301 10.5 32.2019 10.5C32.2736 10.5 32.3453 10.5 32.417 10.5C32.4886 10.5 32.5602 10.5 32.6318 10.5C32.7033 10.5 32.7748 10.5 32.8462 10.5C32.9176 10.5 32.989 10.5 33.0603 10.5C33.1316 10.5 33.2029 10.5 33.2741 10.5C33.3453 10.5 33.4164 10.5 33.4875 10.5C33.5586 10.5 33.6296 10.5 33.7006 10.5C33.7716 10.5 33.8425 10.5 33.9134 10.5C33.9842 10.5 34.055 10.5 34.1258 10.5C34.1966 10.5 34.2673 10.5 34.3379 10.5C34.4086 10.5 34.4792 10.5 34.5497 10.5C34.6203 10.5 34.6907 10.5 34.7612 10.5C34.8316 10.5 34.902 10.5 34.9723 10.5C35.0427 10.5 35.1129 10.5 35.1832 10.5C35.2534 10.5 35.3236 10.5 35.3937 10.5C35.4638 10.5 35.5339 10.5 35.6039 10.5C35.6739 10.5 35.7439 10.5 35.8138 10.5C35.8837 10.5 35.9535 10.5 36.0234 10.5C36.0932 10.5 36.1629 10.5 36.2326 10.5C36.3023 10.5 36.372 10.5 36.4416 10.5C36.5112 10.5 36.5807 10.5 36.6503 10.5C36.7198 10.5 36.7892 10.5 36.8586 10.5C36.928 10.5 36.9974 10.5 37.0667 10.5C37.136 10.5 37.2052 10.5 37.2744 10.5C37.3436 10.5 37.4128 10.5 37.4819 10.5C37.551 10.5 37.6201 10.5 37.6891 10.5C37.7581 10.5 37.827 10.5 37.896 10.5C37.9649 10.5 38.0337 10.5 38.1025 10.5C38.1714 10.5 38.2401 10.5 38.3088 10.5C38.3776 10.5 38.4462 10.5 38.5149 10.5C38.5835 10.5 38.6521 10.5 38.7206 10.5C38.7891 10.5 38.8576 10.5 38.926 10.5C38.9945 10.5 39.0629 10.5 39.1312 10.5C39.1996 10.5 39.2679 10.5 39.3361 10.5C39.4044 10.5 39.4726 10.5 39.5407 10.5C39.6089 10.5 39.677 10.5 39.7451 10.5C39.8131 10.5 39.8812 10.5 39.9491 10.5C40.0171 10.5 40.0851 10.5 40.1529 10.5C40.2208 10.5 40.2887 10.5 40.3565 10.5C40.4243 10.5 40.492 10.5 40.5597 10.5C40.6275 10.5 40.6951 10.5 40.7627 10.5C40.8304 10.5 40.8979 10.5 40.9655 10.5C41.033 10.5 41.1005 10.5 41.168 10.5C41.2354 10.5 41.3028 10.5 41.3702 10.5C41.4375 10.5 41.5049 10.5 41.5721 10.5C41.6394 10.5 41.7067 10.5 41.7739 10.5C41.8411 10.5 41.9082 10.5 41.9753 10.5C42.0424 10.5 42.1095 10.5 42.1765 10.5C42.2436 10.5 42.3105 10.5 42.3775 10.5C42.4444 10.5 42.5113 10.5 42.5782 10.5C42.6451 10.5 42.7119 10.5 42.7787 10.5C42.8455 10.5 42.9122 10.5 42.9789 10.5C43.0456 10.5 43.1123 10.5 43.1789 10.5C43.2455 10.5 43.3121 10.5 43.3786 10.5C43.4452 10.5 43.5117 10.5 43.5781 10.5C43.6446 10.5 43.711 10.5 43.7774 10.5C43.8438 10.5 43.9102 10.5 43.9765 10.5C44.0428 10.5 44.1091 10.5 44.1753 10.5C44.2415 10.5 44.3077 10.5 44.3739 10.5C44.44 10.5 44.5061 10.5 44.5722 10.5C44.6383 10.5 44.7044 10.5 44.7704 10.5C44.8364 10.5 44.9023 10.5 44.9683 10.5C45.0342 10.5 45.1001 10.5 45.166 10.5C45.2318 10.5 45.2977 10.5 45.3634 10.5C45.4292 10.5 45.495 10.5 45.5607 10.5C45.6264 10.5 45.6921 10.5 45.7578 10.5C45.8234 10.5 45.889 10.5 45.9546 10.5C46.0202 10.5 46.0857 10.5 46.1512 10.5C46.2167 10.5 46.2822 10.5 46.3476 10.5C46.4131 10.5 46.4785 10.5 46.5438 10.5C46.6092 10.5 46.6745 10.5 46.7398 10.5C46.8051 10.5 46.8704 10.5 46.9356 10.5C47.0009 10.5 47.0661 10.5 47.1312 10.5C47.1964 10.5 47.2615 10.5 47.3266 10.5C47.3917 10.5 47.4568 10.5 47.5218 10.5C47.5869 10.5 47.6519 10.5 47.7168 10.5C47.7818 10.5 47.8467 10.5 47.9117 10.5C47.9766 10.5 48.0414 10.5 48.1063 10.5C48.1711 10.5 48.2359 10.5 48.3007 10.5C48.3655 10.5 48.4302 10.5 48.495 10.5C48.5597 10.5 48.6244 10.5 48.689 10.5C48.7537 10.5 48.8183 10.5 48.8829 10.5C48.9475 10.5 49.0121 10.5 49.0766 10.5C49.1412 10.5 49.2057 10.5 49.2701 10.5C49.3346 10.5 49.3991 10.5 49.4635 10.5C49.5279 10.5 49.5923 10.5 49.6567 10.5C49.721 10.5 49.7854 10.5 49.8497 10.5C49.914 10.5 49.9782 10.5 50.0425 10.5C50.1067 10.5 50.171 10.5 50.2351 10.5C50.2993 10.5 50.3635 10.5 50.4276 10.5C50.4918 10.5 50.5559 10.5 50.62 10.5C50.6841 10.5 50.7481 10.5 50.8121 10.5C50.8762 10.5 50.9402 10.5 51.0041 10.5C51.0681 10.5 51.1321 10.5 51.196 10.5C51.2599 10.5 51.3238 10.5 51.3877 10.5C51.4515 10.5 51.5154 10.5 51.5792 10.5C51.643 10.5 51.7068 10.5 51.7706 10.5C51.8344 10.5 51.8981 10.5 51.9618 10.5C52.0255 10.5 52.0892 10.5 52.1529 10.5C52.2166 10.5 52.2802 10.5 52.3438 10.5C52.4075 10.5 52.4711 10.5 52.5346 10.5C52.5982 10.5 52.6618 10.5 52.7253 10.5C52.7888 10.5 52.8523 10.5 52.9158 10.5C52.9793 10.5 53.0427 10.5 53.1062 10.5C53.1696 10.5 53.233 10.5 53.2964 10.5C53.3598 10.5 53.4231 10.5 53.4865 10.5C53.5498 10.5 53.6131 10.5 53.6764 10.5C53.7397 10.5 53.803 10.5 53.8663 10.5C53.9295 10.5 53.9928 10.5 54.056 10.5C54.1192 10.5 54.1824 10.5 54.2456 10.5C54.3087 10.5 54.3719 10.5 54.435 10.5C54.4981 10.5 54.5612 10.5 54.6243 10.5C54.6874 10.5 54.7505 10.5 54.8135 10.5C54.8766 10.5 54.9396 10.5 55.0026 10.5C55.0656 10.5 55.1286 10.5 55.1916 10.5C55.2546 10.5 55.3175 10.5 55.3805 10.5C55.4434 10.5 55.5063 10.5 55.5692 10.5C55.6321 10.5 55.695 10.5 55.7578 10.5C55.8207 10.5 55.8835 10.5 55.9464 10.5C56.0092 10.5 56.072 10.5 56.1348 10.5C56.1976 10.5 56.2603 10.5 56.3231 10.5C56.3858 10.5 56.4486 10.5 56.5113 10.5C56.574 10.5 56.6367 10.5 56.6994 10.5C56.7621 10.5 56.8247 10.5 56.8874 10.5C56.95 10.5 57.0127 10.5 57.0753 10.5C57.1379 10.5 57.2005 10.5 57.2631 10.5C57.3257 10.5 57.3883 10.5 57.4508 10.5C57.5134 10.5 57.5759 10.5 57.6385 10.5C57.701 10.5 57.7635 10.5 57.826 10.5C57.8885 10.5 57.951 10.5 58.0135 10.5C58.0759 10.5 58.1384 10.5 58.2008 10.5C58.2633 10.5 58.3257 10.5 58.3881 10.5C58.4505 10.5 58.5129 10.5 58.5753 10.5C58.6377 10.5 58.7001 10.5 58.7624 10.5C58.8248 10.5 58.8871 10.5 58.9495 10.5C59.0118 10.5 59.0741 10.5 59.1365 10.5C59.1988 10.5 59.2611 10.5 59.3234 10.5C59.3856 10.5 59.4479 10.5 59.5102 10.5C59.5724 10.5 59.6347 10.5 59.6969 10.5C59.7592 10.5 59.8214 10.5 59.8836 10.5C59.9459 10.5 60.0081 10.5 60.0703 10.5C60.1325 10.5 60.1946 10.5 60.2568 10.5C60.319 10.5 60.3812 10.5 60.4433 10.5C60.5055 10.5 60.5676 10.5 60.6298 10.5C60.6919 10.5 60.754 10.5 60.8161 10.5C60.8783 10.5 60.9404 10.5 61.0025 10.5C61.0646 10.5 61.1267 10.5 61.1887 10.5C61.2508 10.5 61.3129 10.5 61.375 10.5C61.437 10.5 61.4991 10.5 61.5611 10.5C61.6232 10.5 61.6852 10.5 61.7473 10.5C61.8093 10.5 61.8713 10.5 61.9333 10.5C61.9954 10.5 62.0574 10.5 62.1194 10.5C62.1814 10.5 62.2434 10.5 62.3054 10.5C62.3674 10.5 62.4294 10.5 62.4913 10.5C62.5533 10.5 62.6153 10.5 62.6772 10.5C62.7392 10.5 62.8012 10.5 62.8631 10.5C62.9251 10.5 62.987 10.5 63.049 10.5C63.1109 10.5 63.1729 10.5 63.2348 10.5C63.2967 10.5 63.3587 10.5 63.4206 10.5C63.4825 10.5 63.5444 10.5 63.6063 10.5C63.6683 10.5 63.7302 10.5 63.7921 10.5C63.854 10.5 63.9159 10.5 63.9778 10.5C64.0397 10.5 64.1016 10.5 64.1635 10.5C64.2254 10.5 64.2873 10.5 64.3491 10.5C64.411 10.5 64.4729 10.5 64.5348 10.5C64.5967 10.5 64.6586 10.5 64.7204 10.5C64.7823 10.5 64.8442 10.5 64.9061 10.5C64.9679 10.5 65.0298 10.5 65.0917 10.5C65.1535 10.5 65.2154 10.5 65.2773 10.5C65.3391 10.5 65.401 10.5 65.4629 10.5C65.5247 10.5 65.5866 10.5 65.6485 10.5C65.7103 10.5 65.7722 10.5 65.834 10.5C65.8959 10.5 65.9578 10.5 66.0196 10.5C66.0815 10.5 66.1433 10.5 66.2052 10.5C66.2671 10.5 66.3289 10.5 66.3908 10.5C66.4526 10.5 66.5145 10.5 66.5764 10.5C66.6382 10.5 66.7001 10.5 66.762 10.5C66.8238 10.5 66.8857 10.5 66.9476 10.5C67.0094 10.5 67.0713 10.5 67.1332 10.5C67.1951 10.5 67.2569 10.5 67.3188 10.5C67.3807 10.5 67.4426 10.5 67.5044 10.5C67.5663 10.5 67.6282 10.5 67.6901 10.5C67.752 10.5 67.8139 10.5 67.8758 10.5C67.9377 10.5 67.9996 10.5 68.0615 10.5C68.1234 10.5 68.1853 10.5 68.2472 10.5C68.3091 10.5 68.371 10.5 68.4329 10.5C68.4948 10.5 68.5568 10.5 68.6187 10.5C68.6806 10.5 68.7425 10.5 68.8045 10.5C68.8664 10.5 68.9284 10.5 68.9903 10.5C69.0523 10.5 69.1142 10.5 69.1762 10.5C69.2381 10.5 69.3001 10.5 69.3621 10.5C69.424 10.5 69.486 10.5 69.548 10.5C69.61 10.5 69.672 10.5 69.7339 10.5C69.7959 10.5 69.8579 10.5 69.9199 10.5C69.982 10.5 70.044 10.5 70.106 10.5C70.168 10.5 70.23 10.5 70.2921 10.5C70.3541 10.5 70.4162 10.5 70.4782 10.5C70.5403 10.5 70.6023 10.5 70.6644 10.5C70.7265 10.5 70.7886 10.5 70.8506 10.5C70.9127 10.5 70.9748 10.5 71.0369 10.5C71.099 10.5 71.1611 10.5 71.2233 10.5C71.2854 10.5 71.3475 10.5 71.4097 10.5C71.4718 10.5 71.534 10.5 71.5961 10.5C71.6583 10.5 71.7204 10.5 71.7826 10.5C71.8448 10.5 71.907 10.5 71.9692 10.5C72.0314 10.5 72.0936 10.5 72.1558 10.5C72.2181 10.5 72.2803 10.5 72.3425 10.5C72.4048 10.5 72.467 10.5 72.5293 10.5C72.5916 10.5 72.6539 10.5 72.7161 10.5C72.7784 10.5 72.8408 10.5 72.9031 10.5C72.9654 10.5 73.0277 10.5 73.09 10.5C73.1524 10.5 73.2147 10.5 73.2771 10.5C73.3395 10.5 73.4019 10.5 73.4643 10.5C73.5266 10.5 73.5891 10.5 73.6515 10.5C73.7139 10.5 73.7763 10.5 73.8388 10.5C73.9012 10.5 73.9637 10.5 74.0262 10.5C74.0886 10.5 74.1511 10.5 74.2136 10.5C74.2761 10.5 74.3387 10.5 74.4012 10.5C74.4637 10.5 74.5263 10.5 74.5888 10.5C74.6514 10.5 74.714 10.5 74.7766 10.5C74.8392 10.5 74.9018 10.5 74.9644 10.5C75.027 10.5 75.0897 10.5 75.1524 10.5C75.215 10.5 75.2777 10.5 75.3404 10.5C75.4031 10.5 75.4658 10.5 75.5285 10.5C75.5912 10.5 75.654 10.5 75.7167 10.5C75.7795 10.5 75.8423 10.5 75.9051 10.5C75.9679 10.5 76.0307 10.5 76.0935 10.5C76.1563 10.5 76.2192 10.5 76.282 10.5C76.3449 10.5 76.4078 10.5 76.4707 10.5C76.5336 10.5 76.5965 10.5 76.6595 10.5C76.7224 10.5 76.7854 10.5 76.8483 10.5C76.9113 10.5 76.9743 10.5 77.0373 10.5C77.1004 10.5 77.1634 10.5 77.2265 10.5C77.2895 10.5 77.3526 10.5 77.4157 10.5C77.4788 10.5 77.5419 10.5 77.605 10.5C77.6682 10.5 77.7313 10.5 77.7945 10.5C77.8577 10.5 77.9209 10.5 77.9841 10.5C78.0473 10.5 78.1106 10.5 78.1739 10.5C78.2371 10.5 78.3004 10.5 78.3637 10.5C78.427 10.5 78.4903 10.5 78.5537 10.5C78.6171 10.5 78.6804 10.5 78.7438 10.5C78.8072 10.5 78.8706 10.5 78.9341 10.5C78.9975 10.5 79.061 10.5 79.1245 10.5C79.188 10.5 79.2515 10.5 79.315 10.5C79.3785 10.5 79.4421 10.5 79.5057 10.5C79.5693 10.5 79.6329 10.5 79.6965 10.5C79.7601 10.5 79.8238 10.5 79.8875 10.5C79.9512 10.5 80.0149 10.5 80.0786 10.5C80.1423 10.5 80.2061 10.5 80.2699 10.5C80.3336 10.5 80.3974 10.5 80.4613 10.5C80.5251 10.5 80.589 10.5 80.6528 10.5C80.7167 10.5 80.7806 10.5 80.8446 10.5C80.9085 10.5 80.9725 10.5 81.0364 10.5C81.1004 10.5 81.1644 10.5 81.2285 10.5C81.2925 10.5 81.3566 10.5 81.4207 10.5C81.4848 10.5 81.5489 10.5 81.613 10.5C81.6772 10.5 81.7414 10.5 81.8056 10.5C81.8698 10.5 81.934 10.5 81.9983 10.5C82.0625 10.5 82.1268 10.5 82.1911 10.5C82.2554 10.5 82.3198 10.5 82.3842 10.5C82.4485 10.5 82.5129 10.5 82.5774 10.5C82.6418 10.5 82.7063 10.5 82.7708 10.5C82.8353 10.5 82.8998 10.5 82.9643 10.5C83.0289 10.5 83.0935 10.5 83.1581 10.5C83.2227 10.5 83.2873 10.5 83.352 10.5C83.4167 10.5 83.4814 10.5 83.5461 10.5C83.6108 10.5 83.6756 10.5 83.7404 10.5C83.8052 10.5 83.87 10.5 83.9349 10.5C83.9997 10.5 84.0646 10.5 84.1295 10.5C84.1944 10.5 84.2594 10.5 84.3244 10.5C84.3894 10.5 84.4544 10.5 84.5194 10.5C84.5845 10.5 84.6496 10.5 84.7147 10.5C84.7798 10.5 84.8449 10.5 84.9101 10.5C84.9753 10.5 85.0405 10.5 85.1058 10.5C85.171 10.5 85.2363 10.5 85.3016 10.5C85.3669 10.5 85.4323 10.5 85.4976 10.5C85.563 10.5 85.6284 10.5 85.6939 10.5C85.7593 10.5 85.8248 10.5 85.8904 10.5C85.9559 10.5 86.0214 10.5 86.087 10.5C86.1526 10.5 86.2182 10.5 86.2839 10.5C86.3495 10.5 86.4152 10.5 86.481 10.5C86.5467 10.5 86.6125 10.5 86.6783 10.5C86.7441 10.5 86.8099 10.5 86.8758 10.5C86.9417 10.5 87.0076 10.5 87.0735 10.5C87.1395 10.5 87.2055 10.5 87.2715 10.5C87.3375 10.5 87.4036 10.5 87.4697 10.5C87.5358 10.5 87.6019 10.5 87.6681 10.5C87.7343 10.5 87.8005 10.5 87.8667 10.5C87.933 10.5 87.9993 10.5 88.0656 10.5C88.1319 10.5 88.1983 10.5 88.2647 10.5C88.3311 10.5 88.3975 10.5 88.464 10.5C88.5305 10.5 88.597 10.5 88.6636 10.5C88.7301 10.5 88.7967 10.5 88.8634 10.5C88.93 10.5 88.9967 10.5 89.0634 10.5C89.1301 10.5 89.1969 10.5 89.2637 10.5C89.3305 10.5 89.3973 10.5 89.4642 10.5C89.5311 10.5 89.598 10.5 89.665 10.5C89.7319 10.5 89.799 10.5 89.866 10.5C89.933 10.5 90.0001 10.5 90.0673 10.5C90.1344 10.5 90.2016 10.5 90.2688 10.5C90.336 10.5 90.4032 10.5 90.4705 10.5C90.5378 10.5 90.6052 10.5 90.6725 10.5C90.7399 10.5 90.8074 10.5 90.8748 10.5C90.9423 10.5 91.0098 10.5 91.0774 10.5C91.1449 10.5 91.2125 10.5 91.2802 10.5C91.3478 10.5 91.4155 10.5 91.4832 10.5C91.5509 10.5 91.6187 10.5 91.6865 10.5C91.7544 10.5 91.8222 10.5 91.8901 10.5C91.958 10.5 92.026 10.5 92.094 10.5C92.162 10.5 92.23 10.5 92.2981 10.5C92.3662 10.5 92.4343 10.5 92.5025 10.5C92.5707 10.5 92.6389 10.5 92.7072 10.5C92.7755 10.5 92.8438 10.5 92.9121 10.5C92.9805 10.5 93.0489 10.5 93.1174 10.5C93.1858 10.5 93.2543 10.5 93.3229 10.5C93.3914 10.5 93.46 10.5 93.5287 10.5C93.5973 10.5 93.666 10.5 93.7347 10.5C93.8035 10.5 93.8723 10.5 93.9411 10.5C94.0099 10.5 94.0788 10.5 94.1478 10.5C94.2167 10.5 94.2857 10.5 94.3547 10.5C94.4237 10.5 94.4928 10.5 94.5619 10.5C94.6311 10.5 94.7002 10.5 94.7695 10.5C94.8387 10.5 94.908 10.5 94.9773 10.5C95.0466 10.5 95.116 10.5 95.1854 10.5C95.2548 10.5 95.3243 10.5 95.3938 10.5C95.4634 10.5 95.5329 10.5 95.6026 10.5C95.6722 10.5 95.7419 10.5 95.8116 10.5C95.8813 10.5 95.9511 10.5 96.0209 10.5C96.0908 10.5 96.1606 10.5 96.2306 10.5C96.3005 10.5 96.3705 10.5 96.4405 10.5C96.5106 10.5 96.5807 10.5 96.6508 10.5C96.7209 10.5 96.7911 10.5 96.8614 10.5C96.9316 10.5 97.0019 10.5 97.0723 10.5C97.1426 10.5 97.213 10.5 97.2835 10.5C97.354 10.5 97.4245 10.5 97.495 10.5C97.5656 10.5 97.6362 10.5 97.7069 10.5C97.7776 10.5 97.8483 10.5 97.9191 10.5C97.9899 10.5 98.0607 10.5 98.1316 10.5C98.2025 10.5 98.2734 10.5 98.3444 10.5C98.4154 10.5 98.4865 10.5 98.5576 10.5C98.6287 10.5 98.6999 10.5 98.7711 10.5C98.8423 10.5 98.9136 10.5 98.9849 10.5C99.0563 10.5 99.1276 10.5 99.1991 10.5C99.2705 10.5 99.342 10.5 99.4136 10.5C99.4852 10.5 99.5568 10.5 99.6285 10.5C99.7001 10.5 99.7719 10.5 99.8436 10.5C99.9154 10.5 99.9873 10.5 100.059 10.5C100.131 10.5 100.203 10.5 100.275 10.5C100.347 10.5 100.419 10.5 100.491 10.5C100.563 10.5 100.636 10.5 100.708 10.5C100.78 10.5 100.852 10.5 100.925 10.5C100.997 10.5 101.07 10.5 101.142 10.5C101.215 10.5 101.287 10.5 101.36 10.5C101.432 10.5 101.505 10.5 101.578 10.5C101.65 10.5 101.723 10.5 101.796 10.5C101.869 10.5 101.942 10.5 102.015 10.5C102.088 10.5 102.161 10.5 102.234 10.5C102.307 10.5 102.38 10.5 102.453 10.5C102.527 10.5 102.6 10.5 102.673 10.5C102.746 10.5 102.82 10.5 102.893 10.5C102.967 10.5 103.04 10.5 103.114 10.5C103.187 10.5 103.261 10.5 103.335 10.5C103.409 10.5 103.482 10.5 103.556 10.5C103.63 10.5 103.704 10.5 103.778 10.5C103.852 10.5 103.926 10.5 104 10.5C104.074 10.5 104.148 10.5 104.222 10.5C104.297 10.5 104.371 10.5 104.445 10.5C104.52 10.5 104.594 10.5 104.668 10.5C104.743 10.5 104.817 10.5 104.892 10.5C104.967 10.5 105.041 10.5 105.116 10.5C105.191 10.5 105.266 10.5 105.34 10.5C105.415 10.5 105.49 10.5 105.565 10.5C105.64 10.5 105.715 10.5 105.79 10.5C105.865 10.5 105.941 10.5 106.016 10.5C106.091 10.5 106.167 10.5 106.242 10.5C106.317 10.5 106.393 10.5 106.468 10.5C106.544 10.5 106.619 10.5 106.695 10.5C106.771 10.5 106.846 10.5 106.922 10.5C106.998 10.5 107.074 10.5 107.15 10.5C107.226 10.5 107.302 10.5 107.378 10.5C107.454 10.5 107.53 10.5 107.606 10.5C107.682 10.5 107.759 10.5 107.835 10.5C107.911 10.5 107.988 10.5 108.064 10.5C108.141 10.5 108.217 10.5 108.294 10.5C108.371 10.5 108.447 10.5 108.524 10.5C108.601 10.5 108.678 10.5 108.755 10.5C108.831 10.5 108.908 10.5 108.986 10.5C109.063 10.5 109.14 10.5 109.217 10.5C109.294 10.5 109.371 10.5 109.449 10.5C109.526 10.5 109.603 10.5 109.681 10.5C109.758 10.5 109.836 10.5 109.914 10.5C109.991 10.5 110.069 10.5 110.147 10.5C110.224 10.5 110.302 10.5 110.38 10.5C110.458 10.5 110.536 10.5 110.614 10.5C110.692 10.5 110.77 10.5 110.848 10.5C110.927 10.5 111.005 10.5 111.083 10.5C111.162 10.5 111.24 10.5 111.319 10.5C111.397 10.5 111.476 10.5 111.554 10.5C111.633 10.5 111.712 10.5 111.79 10.5C111.869 10.5 111.948 10.5 112.027 10.5C112.106 10.5 112.185 10.5 112.264 10.5C112.343 10.5 112.422 10.5 112.502 10.5V7.5C112.422 7.5 112.343 7.5 112.264 7.5C112.185 7.5 112.106 7.5 112.027 7.5C111.948 7.5 111.869 7.5 111.79 7.5C111.712 7.5 111.633 7.5 111.554 7.5C111.476 7.5 111.397 7.5 111.319 7.5C111.24 7.5 111.162 7.5 111.083 7.5C111.005 7.5 110.927 7.5 110.848 7.5C110.77 7.5 110.692 7.5 110.614 7.5C110.536 7.5 110.458 7.5 110.38 7.5C110.302 7.5 110.224 7.5 110.147 7.5C110.069 7.5 109.991 7.5 109.914 7.5C109.836 7.5 109.758 7.5 109.681 7.5C109.603 7.5 109.526 7.5 109.449 7.5C109.371 7.5 109.294 7.5 109.217 7.5C109.14 7.5 109.063 7.5 108.986 7.5C108.908 7.5 108.831 7.5 108.755 7.5C108.678 7.5 108.601 7.5 108.524 7.5C108.447 7.5 108.371 7.5 108.294 7.5C108.217 7.5 108.141 7.5 108.064 7.5C107.988 7.5 107.911 7.5 107.835 7.5C107.759 7.5 107.682 7.5 107.606 7.5C107.53 7.5 107.454 7.5 107.378 7.5C107.302 7.5 107.226 7.5 107.15 7.5C107.074 7.5 106.998 7.5 106.922 7.5C106.846 7.5 106.771 7.5 106.695 7.5C106.619 7.5 106.544 7.5 106.468 7.5C106.393 7.5 106.317 7.5 106.242 7.5C106.167 7.5 106.091 7.5 106.016 7.5C105.941 7.5 105.865 7.5 105.79 7.5C105.715 7.5 105.64 7.5 105.565 7.5C105.49 7.5 105.415 7.5 105.34 7.5C105.266 7.5 105.191 7.5 105.116 7.5C105.041 7.5 104.967 7.5 104.892 7.5C104.817 7.5 104.743 7.5 104.668 7.5C104.594 7.5 104.52 7.5 104.445 7.5C104.371 7.5 104.297 7.5 104.222 7.5C104.148 7.5 104.074 7.5 104 7.5C103.926 7.5 103.852 7.5 103.778 7.5C103.704 7.5 103.63 7.5 103.556 7.5C103.482 7.5 103.409 7.5 103.335 7.5C103.261 7.5 103.187 7.5 103.114 7.5C103.04 7.5 102.967 7.5 102.893 7.5C102.82 7.5 102.746 7.5 102.673 7.5C102.6 7.5 102.527 7.5 102.453 7.5C102.38 7.5 102.307 7.5 102.234 7.5C102.161 7.5 102.088 7.5 102.015 7.5C101.942 7.5 101.869 7.5 101.796 7.5C101.723 7.5 101.65 7.5 101.578 7.5C101.505 7.5 101.432 7.5 101.36 7.5C101.287 7.5 101.215 7.5 101.142 7.5C101.07 7.5 100.997 7.5 100.925 7.5C100.852 7.5 100.78 7.5 100.708 7.5C100.636 7.5 100.563 7.5 100.491 7.5C100.419 7.5 100.347 7.5 100.275 7.5C100.203 7.5 100.131 7.5 100.059 7.5C99.9873 7.5 99.9154 7.5 99.8436 7.5C99.7719 7.5 99.7001 7.5 99.6285 7.5C99.5568 7.5 99.4852 7.5 99.4136 7.5C99.342 7.5 99.2705 7.5 99.1991 7.5C99.1276 7.5 99.0563 7.5 98.9849 7.5C98.9136 7.5 98.8423 7.5 98.7711 7.5C98.6999 7.5 98.6287 7.5 98.5576 7.5C98.4865 7.5 98.4154 7.5 98.3444 7.5C98.2734 7.5 98.2025 7.5 98.1316 7.5C98.0607 7.5 97.9899 7.5 97.9191 7.5C97.8483 7.5 97.7776 7.5 97.7069 7.5C97.6362 7.5 97.5656 7.5 97.495 7.5C97.4245 7.5 97.354 7.5 97.2835 7.5C97.213 7.5 97.1426 7.5 97.0723 7.5C97.0019 7.5 96.9316 7.5 96.8614 7.5C96.7911 7.5 96.7209 7.5 96.6508 7.5C96.5807 7.5 96.5106 7.5 96.4405 7.5C96.3705 7.5 96.3005 7.5 96.2306 7.5C96.1606 7.5 96.0908 7.5 96.0209 7.5C95.9511 7.5 95.8813 7.5 95.8116 7.5C95.7419 7.5 95.6722 7.5 95.6026 7.5C95.5329 7.5 95.4634 7.5 95.3938 7.5C95.3243 7.5 95.2548 7.5 95.1854 7.5C95.116 7.5 95.0466 7.5 94.9773 7.5C94.908 7.5 94.8387 7.5 94.7695 7.5C94.7002 7.5 94.6311 7.5 94.5619 7.5C94.4928 7.5 94.4237 7.5 94.3547 7.5C94.2857 7.5 94.2167 7.5 94.1478 7.5C94.0788 7.5 94.0099 7.5 93.9411 7.5C93.8723 7.5 93.8035 7.5 93.7347 7.5C93.666 7.5 93.5973 7.5 93.5287 7.5C93.46 7.5 93.3914 7.5 93.3229 7.5C93.2543 7.5 93.1858 7.5 93.1174 7.5C93.0489 7.5 92.9805 7.5 92.9121 7.5C92.8438 7.5 92.7755 7.5 92.7072 7.5C92.6389 7.5 92.5707 7.5 92.5025 7.5C92.4343 7.5 92.3662 7.5 92.2981 7.5C92.23 7.5 92.162 7.5 92.094 7.5C92.026 7.5 91.958 7.5 91.8901 7.5C91.8222 7.5 91.7544 7.5 91.6865 7.5C91.6187 7.5 91.5509 7.5 91.4832 7.5C91.4155 7.5 91.3478 7.5 91.2802 7.5C91.2125 7.5 91.1449 7.5 91.0774 7.5C91.0098 7.5 90.9423 7.5 90.8748 7.5C90.8074 7.5 90.7399 7.5 90.6725 7.5C90.6052 7.5 90.5378 7.5 90.4705 7.5C90.4032 7.5 90.336 7.5 90.2688 7.5C90.2016 7.5 90.1344 7.5 90.0673 7.5C90.0001 7.5 89.933 7.5 89.866 7.5C89.799 7.5 89.7319 7.5 89.665 7.5C89.598 7.5 89.5311 7.5 89.4642 7.5C89.3973 7.5 89.3305 7.5 89.2637 7.5C89.1969 7.5 89.1301 7.5 89.0634 7.5C88.9967 7.5 88.93 7.5 88.8634 7.5C88.7967 7.5 88.7301 7.5 88.6636 7.5C88.597 7.5 88.5305 7.5 88.464 7.5C88.3975 7.5 88.3311 7.5 88.2647 7.5C88.1983 7.5 88.1319 7.5 88.0656 7.5C87.9993 7.5 87.933 7.5 87.8667 7.5C87.8005 7.5 87.7343 7.5 87.6681 7.5C87.6019 7.5 87.5358 7.5 87.4697 7.5C87.4036 7.5 87.3375 7.5 87.2715 7.5C87.2055 7.5 87.1395 7.5 87.0735 7.5C87.0076 7.5 86.9417 7.5 86.8758 7.5C86.8099 7.5 86.7441 7.5 86.6783 7.5C86.6125 7.5 86.5467 7.5 86.481 7.5C86.4152 7.5 86.3495 7.5 86.2839 7.5C86.2182 7.5 86.1526 7.5 86.087 7.5C86.0214 7.5 85.9559 7.5 85.8904 7.5C85.8248 7.5 85.7593 7.5 85.6939 7.5C85.6284 7.5 85.563 7.5 85.4976 7.5C85.4323 7.5 85.3669 7.5 85.3016 7.5C85.2363 7.5 85.171 7.5 85.1058 7.5C85.0405 7.5 84.9753 7.5 84.9101 7.5C84.8449 7.5 84.7798 7.5 84.7147 7.5C84.6496 7.5 84.5845 7.5 84.5194 7.5C84.4544 7.5 84.3894 7.5 84.3244 7.5C84.2594 7.5 84.1944 7.5 84.1295 7.5C84.0646 7.5 83.9997 7.5 83.9349 7.5C83.87 7.5 83.8052 7.5 83.7404 7.5C83.6756 7.5 83.6108 7.5 83.5461 7.5C83.4814 7.5 83.4167 7.5 83.352 7.5C83.2873 7.5 83.2227 7.5 83.1581 7.5C83.0935 7.5 83.0289 7.5 82.9643 7.5C82.8998 7.5 82.8353 7.5 82.7708 7.5C82.7063 7.5 82.6418 7.5 82.5774 7.5C82.5129 7.5 82.4485 7.5 82.3842 7.5C82.3198 7.5 82.2554 7.5 82.1911 7.5C82.1268 7.5 82.0625 7.5 81.9983 7.5C81.934 7.5 81.8698 7.5 81.8056 7.5C81.7414 7.5 81.6772 7.5 81.613 7.5C81.5489 7.5 81.4848 7.5 81.4207 7.5C81.3566 7.5 81.2925 7.5 81.2285 7.5C81.1644 7.5 81.1004 7.5 81.0364 7.5C80.9725 7.5 80.9085 7.5 80.8446 7.5C80.7806 7.5 80.7167 7.5 80.6528 7.5C80.589 7.5 80.5251 7.5 80.4613 7.5C80.3974 7.5 80.3336 7.5 80.2699 7.5C80.2061 7.5 80.1423 7.5 80.0786 7.5C80.0149 7.5 79.9512 7.5 79.8875 7.5C79.8238 7.5 79.7601 7.5 79.6965 7.5C79.6329 7.5 79.5693 7.5 79.5057 7.5C79.4421 7.5 79.3785 7.5 79.315 7.5C79.2515 7.5 79.188 7.5 79.1245 7.5C79.061 7.5 78.9975 7.5 78.9341 7.5C78.8706 7.5 78.8072 7.5 78.7438 7.5C78.6804 7.5 78.6171 7.5 78.5537 7.5C78.4903 7.5 78.427 7.5 78.3637 7.5C78.3004 7.5 78.2371 7.5 78.1739 7.5C78.1106 7.5 78.0473 7.5 77.9841 7.5C77.9209 7.5 77.8577 7.5 77.7945 7.5C77.7313 7.5 77.6682 7.5 77.605 7.5C77.5419 7.5 77.4788 7.5 77.4157 7.5C77.3526 7.5 77.2895 7.5 77.2265 7.5C77.1634 7.5 77.1004 7.5 77.0373 7.5C76.9743 7.5 76.9113 7.5 76.8483 7.5C76.7854 7.5 76.7224 7.5 76.6595 7.5C76.5965 7.5 76.5336 7.5 76.4707 7.5C76.4078 7.5 76.3449 7.5 76.282 7.5C76.2192 7.5 76.1563 7.5 76.0935 7.5C76.0307 7.5 75.9679 7.5 75.9051 7.5C75.8423 7.5 75.7795 7.5 75.7167 7.5C75.654 7.5 75.5912 7.5 75.5285 7.5C75.4658 7.5 75.4031 7.5 75.3404 7.5C75.2777 7.5 75.215 7.5 75.1524 7.5C75.0897 7.5 75.027 7.5 74.9644 7.5C74.9018 7.5 74.8392 7.5 74.7766 7.5C74.714 7.5 74.6514 7.5 74.5888 7.5C74.5263 7.5 74.4637 7.5 74.4012 7.5C74.3387 7.5 74.2761 7.5 74.2136 7.5C74.1511 7.5 74.0886 7.5 74.0262 7.5C73.9637 7.5 73.9012 7.5 73.8388 7.5C73.7763 7.5 73.7139 7.5 73.6515 7.5C73.5891 7.5 73.5266 7.5 73.4643 7.5C73.4019 7.5 73.3395 7.5 73.2771 7.5C73.2147 7.5 73.1524 7.5 73.09 7.5C73.0277 7.5 72.9654 7.5 72.9031 7.5C72.8408 7.5 72.7784 7.5 72.7161 7.5C72.6539 7.5 72.5916 7.5 72.5293 7.5C72.467 7.5 72.4048 7.5 72.3425 7.5C72.2803 7.5 72.2181 7.5 72.1558 7.5C72.0936 7.5 72.0314 7.5 71.9692 7.5C71.907 7.5 71.8448 7.5 71.7826 7.5C71.7204 7.5 71.6583 7.5 71.5961 7.5C71.534 7.5 71.4718 7.5 71.4097 7.5C71.3475 7.5 71.2854 7.5 71.2233 7.5C71.1611 7.5 71.099 7.5 71.0369 7.5C70.9748 7.5 70.9127 7.5 70.8506 7.5C70.7886 7.5 70.7265 7.5 70.6644 7.5C70.6023 7.5 70.5403 7.5 70.4782 7.5C70.4162 7.5 70.3541 7.5 70.2921 7.5C70.23 7.5 70.168 7.5 70.106 7.5C70.044 7.5 69.982 7.5 69.9199 7.5C69.8579 7.5 69.7959 7.5 69.7339 7.5C69.672 7.5 69.61 7.5 69.548 7.5C69.486 7.5 69.424 7.5 69.3621 7.5C69.3001 7.5 69.2381 7.5 69.1762 7.5C69.1142 7.5 69.0523 7.5 68.9903 7.5C68.9284 7.5 68.8664 7.5 68.8045 7.5C68.7425 7.5 68.6806 7.5 68.6187 7.5C68.5568 7.5 68.4948 7.5 68.4329 7.5C68.371 7.5 68.3091 7.5 68.2472 7.5C68.1853 7.5 68.1234 7.5 68.0615 7.5C67.9996 7.5 67.9377 7.5 67.8758 7.5C67.8139 7.5 67.752 7.5 67.6901 7.5C67.6282 7.5 67.5663 7.5 67.5044 7.5C67.4426 7.5 67.3807 7.5 67.3188 7.5C67.2569 7.5 67.1951 7.5 67.1332 7.5C67.0713 7.5 67.0094 7.5 66.9476 7.5C66.8857 7.5 66.8238 7.5 66.762 7.5C66.7001 7.5 66.6382 7.5 66.5764 7.5C66.5145 7.5 66.4526 7.5 66.3908 7.5C66.3289 7.5 66.2671 7.5 66.2052 7.5C66.1433 7.5 66.0815 7.5 66.0196 7.5C65.9578 7.5 65.8959 7.5 65.834 7.5C65.7722 7.5 65.7103 7.5 65.6485 7.5C65.5866 7.5 65.5247 7.5 65.4629 7.5C65.401 7.5 65.3391 7.5 65.2773 7.5C65.2154 7.5 65.1535 7.5 65.0917 7.5C65.0298 7.5 64.9679 7.5 64.9061 7.5C64.8442 7.5 64.7823 7.5 64.7204 7.5C64.6586 7.5 64.5967 7.5 64.5348 7.5C64.4729 7.5 64.411 7.5 64.3491 7.5C64.2873 7.5 64.2254 7.5 64.1635 7.5C64.1016 7.5 64.0397 7.5 63.9778 7.5C63.9159 7.5 63.854 7.5 63.7921 7.5C63.7302 7.5 63.6683 7.5 63.6063 7.5C63.5444 7.5 63.4825 7.5 63.4206 7.5C63.3587 7.5 63.2967 7.5 63.2348 7.5C63.1729 7.5 63.1109 7.5 63.049 7.5C62.987 7.5 62.9251 7.5 62.8631 7.5C62.8012 7.5 62.7392 7.5 62.6772 7.5C62.6153 7.5 62.5533 7.5 62.4913 7.5C62.4294 7.5 62.3674 7.5 62.3054 7.5C62.2434 7.5 62.1814 7.5 62.1194 7.5C62.0574 7.5 61.9954 7.5 61.9333 7.5C61.8713 7.5 61.8093 7.5 61.7473 7.5C61.6852 7.5 61.6232 7.5 61.5611 7.5C61.4991 7.5 61.437 7.5 61.375 7.5C61.3129 7.5 61.2508 7.5 61.1887 7.5C61.1267 7.5 61.0646 7.5 61.0025 7.5C60.9404 7.5 60.8783 7.5 60.8161 7.5C60.754 7.5 60.6919 7.5 60.6298 7.5C60.5676 7.5 60.5055 7.5 60.4433 7.5C60.3812 7.5 60.319 7.5 60.2568 7.5C60.1946 7.5 60.1325 7.5 60.0703 7.5C60.0081 7.5 59.9459 7.5 59.8836 7.5C59.8214 7.5 59.7592 7.5 59.6969 7.5C59.6347 7.5 59.5724 7.5 59.5102 7.5C59.4479 7.5 59.3856 7.5 59.3234 7.5C59.2611 7.5 59.1988 7.5 59.1365 7.5C59.0741 7.5 59.0118 7.5 58.9495 7.5C58.8871 7.5 58.8248 7.5 58.7624 7.5C58.7001 7.5 58.6377 7.5 58.5753 7.5C58.5129 7.5 58.4505 7.5 58.3881 7.5C58.3257 7.5 58.2633 7.5 58.2008 7.5C58.1384 7.5 58.0759 7.5 58.0135 7.5C57.951 7.5 57.8885 7.5 57.826 7.5C57.7635 7.5 57.701 7.5 57.6385 7.5C57.5759 7.5 57.5134 7.5 57.4508 7.5C57.3883 7.5 57.3257 7.5 57.2631 7.5C57.2005 7.5 57.1379 7.5 57.0753 7.5C57.0127 7.5 56.95 7.5 56.8874 7.5C56.8247 7.5 56.7621 7.5 56.6994 7.5C56.6367 7.5 56.574 7.5 56.5113 7.5C56.4486 7.5 56.3858 7.5 56.3231 7.5C56.2603 7.5 56.1976 7.5 56.1348 7.5C56.072 7.5 56.0092 7.5 55.9464 7.5C55.8835 7.5 55.8207 7.5 55.7578 7.5C55.695 7.5 55.6321 7.5 55.5692 7.5C55.5063 7.5 55.4434 7.5 55.3805 7.5C55.3175 7.5 55.2546 7.5 55.1916 7.5C55.1286 7.5 55.0656 7.5 55.0026 7.5C54.9396 7.5 54.8766 7.5 54.8135 7.5C54.7505 7.5 54.6874 7.5 54.6243 7.5C54.5612 7.5 54.4981 7.5 54.435 7.5C54.3719 7.5 54.3087 7.5 54.2456 7.5C54.1824 7.5 54.1192 7.5 54.056 7.5C53.9928 7.5 53.9295 7.5 53.8663 7.5C53.803 7.5 53.7397 7.5 53.6764 7.5C53.6131 7.5 53.5498 7.5 53.4865 7.5C53.4231 7.5 53.3598 7.5 53.2964 7.5C53.233 7.5 53.1696 7.5 53.1062 7.5C53.0427 7.5 52.9793 7.5 52.9158 7.5C52.8523 7.5 52.7888 7.5 52.7253 7.5C52.6618 7.5 52.5982 7.5 52.5346 7.5C52.4711 7.5 52.4075 7.5 52.3438 7.5C52.2802 7.5 52.2166 7.5 52.1529 7.5C52.0892 7.5 52.0255 7.5 51.9618 7.5C51.8981 7.5 51.8344 7.5 51.7706 7.5C51.7068 7.5 51.643 7.5 51.5792 7.5C51.5154 7.5 51.4515 7.5 51.3877 7.5C51.3238 7.5 51.2599 7.5 51.196 7.5C51.1321 7.5 51.0681 7.5 51.0041 7.5C50.9402 7.5 50.8762 7.5 50.8121 7.5C50.7481 7.5 50.6841 7.5 50.62 7.5C50.5559 7.5 50.4918 7.5 50.4276 7.5C50.3635 7.5 50.2993 7.5 50.2351 7.5C50.171 7.5 50.1067 7.5 50.0425 7.5C49.9782 7.5 49.914 7.5 49.8497 7.5C49.7854 7.5 49.721 7.5 49.6567 7.5C49.5923 7.5 49.5279 7.5 49.4635 7.5C49.3991 7.5 49.3346 7.5 49.2701 7.5C49.2057 7.5 49.1412 7.5 49.0766 7.5C49.0121 7.5 48.9475 7.5 48.8829 7.5C48.8183 7.5 48.7537 7.5 48.689 7.5C48.6244 7.5 48.5597 7.5 48.495 7.5C48.4302 7.5 48.3655 7.5 48.3007 7.5C48.2359 7.5 48.1711 7.5 48.1063 7.5C48.0414 7.5 47.9766 7.5 47.9117 7.5C47.8467 7.5 47.7818 7.5 47.7168 7.5C47.6519 7.5 47.5869 7.5 47.5218 7.5C47.4568 7.5 47.3917 7.5 47.3266 7.5C47.2615 7.5 47.1964 7.5 47.1312 7.5C47.0661 7.5 47.0009 7.5 46.9356 7.5C46.8704 7.5 46.8051 7.5 46.7398 7.5C46.6745 7.5 46.6092 7.5 46.5438 7.5C46.4785 7.5 46.4131 7.5 46.3476 7.5C46.2822 7.5 46.2167 7.5 46.1512 7.5C46.0857 7.5 46.0202 7.5 45.9546 7.5C45.889 7.5 45.8234 7.5 45.7578 7.5C45.6921 7.5 45.6264 7.5 45.5607 7.5C45.495 7.5 45.4292 7.5 45.3634 7.5C45.2977 7.5 45.2318 7.5 45.166 7.5C45.1001 7.5 45.0342 7.5 44.9683 7.5C44.9023 7.5 44.8364 7.5 44.7704 7.5C44.7044 7.5 44.6383 7.5 44.5722 7.5C44.5061 7.5 44.44 7.5 44.3739 7.5C44.3077 7.5 44.2415 7.5 44.1753 7.5C44.1091 7.5 44.0428 7.5 43.9765 7.5C43.9102 7.5 43.8438 7.5 43.7774 7.5C43.711 7.5 43.6446 7.5 43.5781 7.5C43.5117 7.5 43.4452 7.5 43.3786 7.5C43.3121 7.5 43.2455 7.5 43.1789 7.5C43.1123 7.5 43.0456 7.5 42.9789 7.5C42.9122 7.5 42.8455 7.5 42.7787 7.5C42.7119 7.5 42.6451 7.5 42.5782 7.5C42.5113 7.5 42.4444 7.5 42.3775 7.5C42.3105 7.5 42.2436 7.5 42.1765 7.5C42.1095 7.5 42.0424 7.5 41.9753 7.5C41.9082 7.5 41.8411 7.5 41.7739 7.5C41.7067 7.5 41.6394 7.5 41.5721 7.5C41.5049 7.5 41.4375 7.5 41.3702 7.5C41.3028 7.5 41.2354 7.5 41.168 7.5C41.1005 7.5 41.033 7.5 40.9655 7.5C40.8979 7.5 40.8304 7.5 40.7627 7.5C40.6951 7.5 40.6275 7.5 40.5597 7.5C40.492 7.5 40.4243 7.5 40.3565 7.5C40.2887 7.5 40.2208 7.5 40.1529 7.5C40.0851 7.5 40.0171 7.5 39.9491 7.5C39.8812 7.5 39.8131 7.5 39.7451 7.5C39.677 7.5 39.6089 7.5 39.5407 7.5C39.4726 7.5 39.4044 7.5 39.3361 7.5C39.2679 7.5 39.1996 7.5 39.1312 7.5C39.0629 7.5 38.9945 7.5 38.926 7.5C38.8576 7.5 38.7891 7.5 38.7206 7.5C38.6521 7.5 38.5835 7.5 38.5149 7.5C38.4462 7.5 38.3776 7.5 38.3088 7.5C38.2401 7.5 38.1714 7.5 38.1025 7.5C38.0337 7.5 37.9649 7.5 37.896 7.5C37.827 7.5 37.7581 7.5 37.6891 7.5C37.6201 7.5 37.551 7.5 37.4819 7.5C37.4128 7.5 37.3436 7.5 37.2744 7.5C37.2052 7.5 37.136 7.5 37.0667 7.5C36.9974 7.5 36.928 7.5 36.8586 7.5C36.7892 7.5 36.7198 7.5 36.6503 7.5C36.5807 7.5 36.5112 7.5 36.4416 7.5C36.372 7.5 36.3023 7.5 36.2326 7.5C36.1629 7.5 36.0932 7.5 36.0234 7.5C35.9535 7.5 35.8837 7.5 35.8138 7.5C35.7439 7.5 35.6739 7.5 35.6039 7.5C35.5339 7.5 35.4638 7.5 35.3937 7.5C35.3236 7.5 35.2534 7.5 35.1832 7.5C35.1129 7.5 35.0427 7.5 34.9723 7.5C34.902 7.5 34.8316 7.5 34.7612 7.5C34.6907 7.5 34.6203 7.5 34.5497 7.5C34.4792 7.5 34.4086 7.5 34.3379 7.5C34.2673 7.5 34.1966 7.5 34.1258 7.5C34.055 7.5 33.9842 7.5 33.9134 7.5C33.8425 7.5 33.7716 7.5 33.7006 7.5C33.6296 7.5 33.5586 7.5 33.4875 7.5C33.4164 7.5 33.3453 7.5 33.2741 7.5C33.2029 7.5 33.1316 7.5 33.0603 7.5C32.989 7.5 32.9176 7.5 32.8462 7.5C32.7748 7.5 32.7033 7.5 32.6318 7.5C32.5602 7.5 32.4886 7.5 32.417 7.5C32.3453 7.5 32.2736 7.5 32.2019 7.5C32.1301 7.5 32.0583 7.5 31.9864 7.5C31.9145 7.5 31.8426 7.5 31.7706 7.5C31.6986 7.5 31.6266 7.5 31.5545 7.5C31.4823 7.5 31.4102 7.5 31.338 7.5C31.2657 7.5 31.1934 7.5 31.1211 7.5C31.0487 7.5 30.9763 7.5 30.9039 7.5C30.8314 7.5 30.7589 7.5 30.6863 7.5C30.6137 7.5 30.5411 7.5 30.4684 7.5C30.3957 7.5 30.3229 7.5 30.2501 7.5C30.1773 7.5 30.1044 7.5 30.0315 7.5C29.9585 7.5 29.8855 7.5 29.8125 7.5C29.7394 7.5 29.6663 7.5 29.5931 7.5C29.5199 7.5 29.4467 7.5 29.3733 7.5C29.3 7.5 29.2267 7.5 29.1532 7.5C29.0798 7.5 29.0063 7.5 28.9328 7.5C28.8592 7.5 28.7856 7.5 28.7119 7.5C28.6382 7.5 28.5645 7.5 28.4907 7.5C28.4169 7.5 28.343 7.5 28.2691 7.5C28.1951 7.5 28.1211 7.5 28.0471 7.5C27.973 7.5 27.8989 7.5 27.8247 7.5C27.7505 7.5 27.6763 7.5 27.602 7.5C27.5276 7.5 27.4533 7.5 27.3788 7.5C27.3044 7.5 27.2299 7.5 27.1553 7.5C27.0807 7.5 27.0061 7.5 26.9314 7.5C26.8567 7.5 26.7819 7.5 26.7071 7.5C26.6322 7.5 26.5573 7.5 26.4824 7.5C26.4074 7.5 26.3324 7.5 26.2573 7.5C26.1822 7.5 26.107 7.5 26.0318 7.5C25.9566 7.5 25.8813 7.5 25.8059 7.5C25.7305 7.5 25.6551 7.5 25.5796 7.5C25.5041 7.5 25.4285 7.5 25.3529 7.5C25.2773 7.5 25.2016 7.5 25.1258 7.5C25.05 7.5 24.9742 7.5 24.8983 7.5C24.8224 7.5 24.7464 7.5 24.6704 7.5C24.5943 7.5 24.5182 7.5 24.4421 7.5C24.3659 7.5 24.2896 7.5 24.2133 7.5C24.137 7.5 24.0606 7.5 23.9842 7.5C23.9077 7.5 23.8312 7.5 23.7546 7.5C23.678 7.5 23.6013 7.5 23.5246 7.5C23.4479 7.5 23.371 7.5 23.2942 7.5C23.2173 7.5 23.1404 7.5 23.0633 7.5C22.9863 7.5 22.9092 7.5 22.8321 7.5C22.7549 7.5 22.6777 7.5 22.6004 7.5C22.5231 7.5 22.4457 7.5 22.3683 7.5C22.2908 7.5 22.2133 7.5 22.1357 7.5C22.0581 7.5 21.9805 7.5 21.9027 7.5C21.825 7.5 21.7472 7.5 21.6693 7.5C21.5914 7.5 21.5135 7.5 21.4355 7.5C21.3574 7.5 21.2793 7.5 21.2012 7.5C21.123 7.5 21.0447 7.5 20.9664 7.5C20.8881 7.5 20.8097 7.5 20.7312 7.5C20.6528 7.5 20.5742 7.5 20.4956 7.5C20.417 7.5 20.3383 7.5 20.2596 7.5C20.1808 7.5 20.1019 7.5 20.023 7.5C19.9441 7.5 19.8651 7.5 19.7861 7.5C19.707 7.5 19.6279 7.5 19.5486 7.5C19.4694 7.5 19.3901 7.5 19.3108 7.5C19.2314 7.5 19.1519 7.5 19.0724 7.5C18.9929 7.5 18.9133 7.5 18.8336 7.5C18.754 7.5 18.6742 7.5 18.5944 7.5C18.5145 7.5 18.4346 7.5 18.3547 7.5C18.2747 7.5 18.1946 7.5 18.1145 7.5C18.0343 7.5 17.9541 7.5 17.8738 7.5C17.7935 7.5 17.7132 7.5 17.6327 7.5C17.5523 7.5 17.4717 7.5 17.3911 7.5C17.3105 7.5 17.2298 7.5 17.1491 7.5C17.0683 7.5 16.9874 7.5 16.9065 7.5C16.8256 7.5 16.7446 7.5 16.6635 7.5C16.5824 7.5 16.5013 7.5 16.42 7.5C16.3388 7.5 16.2574 7.5 16.176 7.5C16.0946 7.5 16.0131 7.5 15.9316 7.5C15.85 7.5 15.7684 7.5 15.6866 7.5C15.6049 7.5 15.5231 7.5 15.4412 7.5C15.3593 7.5 15.2773 7.5 15.1953 7.5C15.1132 7.5 15.0311 7.5 14.9489 7.5C14.8667 7.5 14.7844 7.5 14.702 7.5C14.6196 7.5 14.5371 7.5 14.4546 7.5C14.372 7.5 14.2894 7.5 14.2067 7.5C14.124 7.5 14.0412 7.5 13.9583 7.5C13.8754 7.5 13.7925 7.5 13.7094 7.5C13.6264 7.5 13.5432 7.5 13.46 7.5C13.3768 7.5 13.2935 7.5 13.2101 7.5C13.1267 7.5 13.0433 7.5 12.9597 7.5C12.8762 7.5 12.7925 7.5 12.7088 7.5C12.6251 7.5 12.5413 7.5 12.4574 7.5C12.3735 7.5 12.2895 7.5 12.2054 7.5C12.1214 7.5 12.0372 7.5 11.953 7.5C11.8688 7.5 11.7844 7.5 11.7 7.5C11.6156 7.5 11.5311 7.5 11.4465 7.5C11.362 7.5 11.2773 7.5 11.1925 7.5C11.1078 7.5 11.0229 7.5 10.938 7.5C10.8531 7.5 10.768 7.5 10.6829 7.5C10.5978 7.5 10.5126 7.5 10.4274 7.5C10.3421 7.5 10.2567 7.5 10.1713 7.5C10.0858 7.5 10.0002 7.5 9.91461 7.5C9.82897 7.5 9.74325 7.5 9.65744 7.5C9.57162 7.5 9.48572 7.5 9.39973 7.5C9.31374 7.5 9.22766 7.5 9.14149 7.5C9.05532 7.5 8.96906 7.5 8.88271 7.5C8.79636 7.5 8.70991 7.5 8.62338 7.5C8.53685 7.5 8.45023 7.5 8.36352 7.5C8.27681 7.5 8.19 7.5 8.10311 7.5C8.01622 7.5 7.92923 7.5 7.84215 7.5C7.75508 7.5 7.66791 7.5 7.58065 7.5C7.49339 7.5 7.40604 7.5 7.3186 7.5C7.23115 7.5 7.14362 7.5 7.05599 7.5C6.96836 7.5 6.88064 7.5 6.79283 7.5C6.70502 7.5 6.61711 7.5 6.52911 7.5C6.44111 7.5 6.35302 7.5 6.26484 7.5C6.17665 7.5 6.08837 7.5 6 7.5V10.5Z" fill="#274797"/>
<circle cx="6" cy="9" r="4.5" fill="white" stroke="#274797" stroke-width="3"/>
</svg>