<svg xmlns="http://www.w3.org/2000/svg" xmlns:xlink="http://www.w3.org/1999/xlink" width="800" viewBox="0 0 600 599.999999" height="800" preserveAspectRatio="xMidYMid meet"><defs><clipPath id="f5e8c9502a"><path d="M 72 568 L 94 568 L 94 589.363281 L 72 589.363281 Z M 72 568 " clip-rule="nonzero"></path></clipPath><clipPath id="fab001be79"><path d="M 434 10.363281 L 580 10.363281 L 580 83 L 434 83 Z M 434 10.363281 " clip-rule="nonzero"></path></clipPath><clipPath id="1100e109ea"><path d="M 10 10.363281 L 94 10.363281 L 94 94 L 10 94 Z M 10 10.363281 " clip-rule="nonzero"></path></clipPath><clipPath id="143cf08d92"><path d="M 206 465 L 269 465 L 269 589.363281 L 206 589.363281 Z M 206 465 " clip-rule="nonzero"></path></clipPath></defs><g clip-path="url(#f5e8c9502a)"><path fill="#ff1616" d="M 72.429688 568.683594 L 93.117188 568.683594 L 93.117188 589.363281 L 72.429688 589.363281 Z M 72.429688 568.683594 " fill-opacity="1" fill-rule="nonzero"></path></g><path fill="#ff1616" d="M 12.953125 134.433594 L 51.765625 134.433594 C 46.054688 134.433594 41.417969 129.804688 41.417969 124.097656 C 41.417969 118.386719 46.042969 113.757812 51.753906 113.757812 L 10.363281 113.757812 L 10.363281 131.851562 C 10.363281 133.277344 11.523438 134.433594 12.953125 134.433594 Z M 12.953125 134.433594 " fill-opacity="1" fill-rule="nonzero"></path><g clip-path="url(#fab001be79)"><path fill="#ff1616" d="M 579.289062 12.949219 C 579.289062 11.523438 578.128906 10.363281 576.703125 10.363281 L 437.058594 10.363281 C 435.632812 10.363281 434.472656 11.523438 434.472656 12.949219 L 434.472656 82.738281 L 579.289062 82.738281 Z M 565.917969 48.691406 C 563.898438 50.710938 561.25 51.722656 558.601562 51.722656 C 555.957031 51.722656 553.308594 50.710938 551.289062 48.691406 L 540.945312 38.351562 C 536.902344 34.316406 536.902344 27.769531 540.945312 23.730469 C 544.984375 19.695312 551.53125 19.695312 555.570312 23.730469 L 565.914062 34.070312 C 569.957031 38.109375 569.957031 44.65625 565.917969 48.691406 Z M 565.917969 48.691406 " fill-opacity="1" fill-rule="nonzero"></path></g><path fill="#ff1616" d="M 93.117188 131.851562 L 93.117188 113.757812 L 51.765625 113.757812 C 57.480469 113.757812 62.113281 118.386719 62.113281 124.097656 C 62.113281 129.804688 57.480469 134.433594 51.765625 134.433594 L 90.53125 134.433594 C 91.957031 134.433594 93.117188 133.277344 93.117188 131.851562 Z M 93.117188 131.851562 " fill-opacity="1" fill-rule="nonzero"></path><g clip-path="url(#1100e109ea)"><path fill="#ff1616" d="M 93.117188 12.949219 C 93.117188 11.523438 91.957031 10.363281 90.53125 10.363281 L 12.953125 10.363281 C 11.523438 10.363281 10.363281 11.523438 10.363281 12.949219 L 10.363281 93.078125 L 93.117188 93.078125 Z M 93.117188 12.949219 " fill-opacity="1" fill-rule="nonzero"></path></g><path fill="#ff1616" d="M 486.195312 423.933594 L 589.632812 423.933594 L 589.632812 454.953125 L 486.195312 454.953125 Z M 486.195312 423.933594 " fill-opacity="1" fill-rule="nonzero"></path><path fill="#ff1616" d="M 486.195312 485.972656 L 589.632812 485.972656 L 589.632812 516.988281 L 486.195312 516.988281 Z M 486.195312 485.972656 " fill-opacity="1" fill-rule="nonzero"></path><path fill="#ff1616" d="M 475.851562 465.292969 L 558.601562 465.292969 L 558.601562 475.632812 L 475.851562 475.632812 Z M 475.851562 465.292969 " fill-opacity="1" fill-rule="nonzero"></path><path fill="#ff1616" d="M 424.128906 103.417969 L 589.632812 103.417969 L 589.632812 124.097656 L 424.128906 124.097656 Z M 424.128906 103.417969 " fill-opacity="1" fill-rule="nonzero"></path><path fill="#ff1616" d="M 579.289062 279.183594 C 571.652344 279.183594 564.984375 283.355469 561.402344 289.523438 L 382.753906 289.523438 C 382.753906 272.421875 368.832031 258.507812 351.71875 258.507812 C 350.660156 258.507812 349.589844 258.5625 348.546875 258.667969 C 347.503906 258.773438 346.476562 258.703125 345.488281 258.507812 L 517.226562 258.507812 C 522.9375 258.507812 527.570312 253.878906 527.570312 248.167969 L 527.570312 134.433594 L 506.882812 134.433594 L 506.882812 237.828125 L 331.238281 237.828125 L 339.773438 195.15625 L 377.132812 188.933594 C 380.933594 193.53125 386.675781 196.46875 393.09375 196.46875 C 404.503906 196.46875 413.785156 187.191406 413.785156 175.789062 C 413.785156 164.390625 404.503906 155.113281 393.09375 155.113281 C 384.246094 155.113281 376.699219 160.707031 373.75 168.53125 L 329.328125 175.929688 C 325.089844 176.636719 321.730469 179.890625 320.886719 184.101562 L 311.859375 229.222656 C 311.359375 229.074219 310.847656 228.953125 310.339844 228.824219 L 310.339844 112.730469 C 310.339844 109.273438 308.613281 106.042969 305.734375 104.125 L 279.3125 86.519531 L 279.3125 69.601562 C 285.484375 66.019531 289.65625 59.355469 289.65625 51.722656 C 289.65625 40.320312 280.375 31.042969 268.96875 31.042969 C 257.5625 31.042969 248.28125 40.320312 248.28125 51.722656 C 248.28125 59.355469 252.449219 66.019531 258.625 69.601562 L 258.625 92.054688 C 258.625 95.511719 260.351562 98.738281 263.230469 100.65625 L 289.65625 118.265625 L 289.65625 228.824219 C 285.449219 229.910156 281.472656 231.632812 277.847656 233.929688 L 196.558594 170.734375 L 196.558594 141.976562 C 202.730469 138.394531 206.902344 131.730469 206.902344 124.097656 C 206.902344 112.695312 197.621094 103.417969 186.214844 103.417969 C 174.808594 103.417969 165.527344 112.695312 165.527344 124.097656 C 165.527344 131.730469 169.699219 138.394531 175.871094 141.976562 L 175.871094 175.792969 C 175.871094 178.984375 177.34375 181.996094 179.863281 183.953125 L 249.164062 237.828125 L 93.117188 237.828125 L 93.117188 144.773438 L 72.429688 144.773438 L 72.429688 248.167969 C 72.429688 253.878906 77.0625 258.507812 82.773438 258.507812 L 254.523438 258.507812 C 253.527344 258.703125 252.5 258.773438 251.457031 258.667969 C 250.410156 258.5625 249.339844 258.507812 248.28125 258.507812 C 231.167969 258.507812 217.246094 272.421875 217.246094 289.523438 L 38.597656 289.523438 C 35.015625 283.355469 28.347656 279.183594 20.710938 279.183594 C 9.300781 279.183594 0.0195312 288.460938 0.0195312 299.863281 C 0.0195312 311.265625 9.300781 320.542969 20.710938 320.542969 C 28.347656 320.542969 35.015625 316.371094 38.597656 310.203125 L 194.113281 310.203125 C 189.160156 315.746094 186.214844 323.03125 186.214844 330.882812 C 186.214844 334.507812 186.847656 337.984375 187.992188 341.222656 L 82.773438 341.222656 C 77.0625 341.222656 72.429688 345.851562 72.429688 351.558594 L 72.429688 454.953125 L 93.117188 454.953125 L 93.117188 361.898438 L 227.589844 361.898438 L 227.589844 394.496094 L 191.832031 400.453125 C 188.035156 395.855469 182.289062 392.917969 175.871094 392.917969 C 164.464844 392.917969 155.183594 402.195312 155.183594 413.597656 C 155.183594 424.996094 164.464844 434.273438 175.871094 434.273438 C 184.71875 434.273438 192.265625 428.679688 195.21875 420.855469 L 239.636719 413.457031 C 244.625 412.625 248.28125 408.3125 248.28125 403.257812 L 248.28125 361.902344 L 289.65625 361.902344 L 289.65625 423.9375 C 289.65625 426.679688 290.746094 429.308594 292.683594 431.246094 L 351.71875 490.253906 L 351.71875 519.785156 C 345.546875 523.371094 341.375 530.03125 341.375 537.667969 C 341.375 549.070312 350.65625 558.34375 362.066406 558.34375 C 373.472656 558.34375 382.753906 549.070312 382.753906 537.667969 C 382.753906 530.03125 378.582031 523.371094 372.410156 519.785156 L 372.410156 485.972656 C 372.410156 483.226562 371.320312 480.597656 369.378906 478.660156 L 310.34375 419.652344 L 310.34375 361.898438 L 320.6875 361.898438 L 320.6875 403.257812 C 320.6875 407.484375 323.265625 411.285156 327.191406 412.855469 L 362.300781 426.894531 C 363.746094 436.894531 372.351562 444.613281 382.753906 444.613281 C 394.160156 444.613281 403.441406 435.335938 403.441406 423.933594 C 403.441406 412.535156 394.160156 403.257812 382.753906 403.257812 C 377.933594 403.257812 373.507812 404.925781 369.988281 407.695312 L 341.375 396.253906 L 341.375 361.898438 L 506.882812 361.898438 L 506.882812 413.597656 L 527.570312 413.597656 L 527.570312 351.558594 C 527.570312 345.851562 522.9375 341.222656 517.226562 341.222656 L 412.007812 341.222656 C 413.152344 337.984375 413.785156 334.507812 413.785156 330.882812 C 413.785156 323.03125 410.835938 315.746094 405.886719 310.203125 L 561.402344 310.203125 C 564.984375 316.371094 571.652344 320.542969 579.289062 320.542969 C 590.699219 320.542969 599.980469 311.265625 599.980469 299.863281 C 599.980469 288.460938 590.699219 279.183594 579.289062 279.183594 Z M 579.289062 279.183594 " fill-opacity="1" fill-rule="nonzero"></path><path fill="#ff1616" d="M 444.816406 485.972656 L 465.503906 485.972656 L 465.503906 516.988281 L 444.816406 516.988281 Z M 444.816406 485.972656 " fill-opacity="1" fill-rule="nonzero"></path><path fill="#ff1616" d="M 475.851562 527.328125 L 558.601562 527.328125 L 558.601562 537.667969 L 475.851562 537.667969 Z M 475.851562 527.328125 " fill-opacity="1" fill-rule="nonzero"></path><path fill="#ff1616" d="M 444.816406 548.007812 L 465.503906 548.007812 L 465.503906 579.023438 L 444.816406 579.023438 Z M 444.816406 548.007812 " fill-opacity="1" fill-rule="nonzero"></path><path fill="#ff1616" d="M 486.195312 548.007812 L 589.632812 548.007812 L 589.632812 579.023438 L 486.195312 579.023438 Z M 486.195312 548.007812 " fill-opacity="1" fill-rule="nonzero"></path><path fill="#ff1616" d="M 444.816406 423.933594 L 465.503906 423.933594 L 465.503906 454.953125 L 444.816406 454.953125 Z M 444.816406 423.933594 " fill-opacity="1" fill-rule="nonzero"></path><g clip-path="url(#143cf08d92)"><path fill="#ff1616" d="M 217.246094 465.292969 L 206.902344 465.292969 L 206.902344 589.363281 L 268.96875 589.363281 L 268.96875 465.292969 Z M 237.960938 579.023438 C 232.25 579.023438 227.609375 574.394531 227.609375 568.683594 C 227.609375 562.976562 232.234375 558.347656 237.949219 558.347656 L 237.960938 558.347656 C 243.671875 558.347656 248.304688 562.976562 248.304688 568.683594 C 248.304688 574.394531 243.671875 579.023438 237.960938 579.023438 Z M 248.28125 527.328125 L 227.589844 527.328125 C 221.878906 527.328125 217.246094 522.699219 217.246094 516.988281 C 217.246094 511.277344 221.878906 506.648438 227.589844 506.648438 L 248.28125 506.648438 C 253.992188 506.648438 258.625 511.277344 258.625 516.988281 C 258.625 522.699219 253.992188 527.328125 248.28125 527.328125 Z M 248.28125 496.308594 L 227.589844 496.308594 C 221.878906 496.308594 217.246094 491.679688 217.246094 485.972656 C 217.246094 480.261719 221.878906 475.632812 227.589844 475.632812 L 248.28125 475.632812 C 253.992188 475.632812 258.625 480.261719 258.625 485.972656 C 258.625 491.679688 253.992188 496.308594 248.28125 496.308594 Z M 248.28125 496.308594 " fill-opacity="1" fill-rule="nonzero"></path></g><path fill="#ff1616" d="M 152.597656 465.292969 L 12.953125 465.292969 C 11.523438 465.292969 10.363281 466.453125 10.363281 467.878906 L 10.363281 545.421875 C 10.363281 546.847656 11.523438 548.007812 12.953125 548.007812 L 152.597656 548.007812 C 154.023438 548.007812 155.183594 546.847656 155.183594 545.421875 L 155.183594 467.878906 C 155.183594 466.453125 154.023438 465.292969 152.597656 465.292969 Z M 141.808594 503.621094 C 139.789062 505.640625 137.140625 506.648438 134.496094 506.648438 C 131.847656 506.648438 129.199219 505.640625 127.179688 503.621094 L 116.835938 493.28125 C 112.796875 489.246094 112.796875 482.699219 116.835938 478.660156 C 120.875 474.625 127.425781 474.625 131.464844 478.660156 L 141.808594 489 C 145.847656 493.035156 145.847656 499.582031 141.808594 503.621094 Z M 141.808594 503.621094 " fill-opacity="1" fill-rule="nonzero"></path></svg>