<svg xmlns="http://www.w3.org/2000/svg" xmlns:xlink="http://www.w3.org/1999/xlink" width="800" viewBox="0 0 600 599.999999" height="800" preserveAspectRatio="xMidYMid meet"><path fill="#b3e6fa" d="M 452.5 590 L 12.5 590 L 12.5 70 L 452.5 70 L 452.5 590 " fill-opacity="1" fill-rule="nonzero"></path><path fill="#6dbbea" d="M 72.5 210 L 72.5 140 L 332.5 140 C 349.0625 140 362.5 126.5625 362.5 110 L 362.5 70 L 12.5 70 L 12.5 590 L 452.5 590 L 452.5 510 L 372.5 510 C 206.796875 510 72.5 375.703125 72.5 210 " fill-opacity="1" fill-rule="nonzero"></path><path fill="#b9de23" d="M 382.5 390 C 382.5 472.851562 315.351562 540 232.5 540 C 149.648438 540 82.5 472.851562 82.5 390 C 82.5 307.148438 149.648438 240 232.5 240 C 315.351562 240 382.5 307.148438 382.5 390 " fill-opacity="1" fill-rule="nonzero"></path><path fill="#f3e305" d="M 342.5 390 C 342.5 450.742188 293.242188 500 232.5 500 C 171.757812 500 122.5 450.742188 122.5 390 C 122.5 329.257812 171.757812 280 232.5 280 C 293.242188 280 342.5 329.257812 342.5 390 " fill-opacity="1" fill-rule="nonzero"></path><path fill="#b9de23" d="M 302.5 390 C 302.5 428.671875 271.171875 460 232.5 460 C 193.828125 460 162.5 428.671875 162.5 390 C 162.5 351.328125 193.828125 320 232.5 320 C 271.171875 320 302.5 351.328125 302.5 390 " fill-opacity="1" fill-rule="nonzero"></path><path fill="#f3e305" d="M 262.5 390 C 262.5 406.5625 249.0625 420 232.5 420 C 215.9375 420 202.5 406.5625 202.5 390 C 202.5 373.4375 215.9375 360 232.5 360 C 249.0625 360 262.5 373.4375 262.5 390 " fill-opacity="1" fill-rule="nonzero"></path><path fill="#95d221" d="M 337.421875 341.640625 L 280.859375 285.078125 L 471.796875 94.140625 L 528.359375 150.703125 L 337.421875 341.640625 " fill-opacity="1" fill-rule="nonzero"></path><path fill="#f7b60b" d="M 238.4375 384.0625 L 280.859375 285.078125 L 337.421875 341.640625 Z M 238.4375 384.0625 " fill-opacity="1" fill-rule="nonzero"></path><path fill="#b3e6fa" d="M 570.78125 51.71875 C 555.15625 36.09375 529.84375 36.09375 514.21875 51.71875 L 500.078125 65.859375 L 556.640625 122.421875 L 570.78125 108.28125 C 586.40625 92.65625 586.40625 67.34375 570.78125 51.71875 " fill-opacity="1" fill-rule="nonzero"></path><path fill="#d2dbda" d="M 528.359375 150.703125 L 471.796875 94.140625 L 500.078125 65.859375 L 556.640625 122.421875 L 528.359375 150.703125 " fill-opacity="1" fill-rule="nonzero"></path><path fill="#8f9697" d="M 297.851562 358.59375 L 263.90625 324.648438 L 238.4375 384.0625 Z M 297.851562 358.59375 " fill-opacity="1" fill-rule="nonzero"></path><path fill="#6cc02e" d="M 393.59375 235.46875 C 366.25 262.8125 336.132812 287.070312 303.90625 308.125 L 337.421875 341.640625 L 528.359375 150.703125 L 503.359375 125.703125 L 393.59375 235.46875 " fill-opacity="1" fill-rule="nonzero"></path><path fill="#e48e1e" d="M 268.671875 329.414062 L 297.851562 358.59375 L 238.4375 384.0625 L 337.421875 341.640625 L 303.90625 308.125 C 292.421875 315.625 280.703125 322.773438 268.671875 329.414062 " fill-opacity="1" fill-rule="nonzero"></path><path fill="#6dbbea" d="M 570.78125 51.71875 C 568.125 49.0625 565.15625 47.03125 562.03125 45.273438 C 563.4375 57.03125 559.804688 69.257812 550.78125 78.28125 L 531.640625 97.421875 L 556.640625 122.421875 L 570.78125 108.28125 C 586.40625 92.65625 586.40625 67.34375 570.78125 51.71875 " fill-opacity="1" fill-rule="nonzero"></path><path fill="#8f9697" d="M 503.359375 125.703125 L 528.359375 150.703125 L 556.640625 122.421875 L 531.640625 97.421875 L 503.359375 125.703125 " fill-opacity="1" fill-rule="nonzero"></path><path fill="#5e6574" d="M 268.671875 329.414062 C 265.742188 331.015625 262.773438 332.578125 259.84375 334.101562 L 238.4375 384.0625 L 297.851562 358.59375 L 268.671875 329.414062 " fill-opacity="1" fill-rule="nonzero"></path><path fill="#d2dbda" d="M 312.5 30 C 312.5 18.945312 303.554688 10 292.5 10 L 172.5 10 C 161.445312 10 152.5 18.945312 152.5 30 C 152.5 41.054688 143.554688 50 132.5 50 L 102.5 50 L 102.5 110 L 362.5 110 L 362.5 50 L 332.5 50 C 321.445312 50 312.5 41.054688 312.5 30 " fill-opacity="1" fill-rule="nonzero"></path><path fill="#b9de23" d="M 132.5 190 L 52.5 190 L 52.5 150 L 132.5 150 L 132.5 190 " fill-opacity="1" fill-rule="nonzero"></path><path fill="#95d221" d="M 232.5 540 C 268.28125 540 301.054688 527.421875 326.835938 506.5625 C 222.773438 490.664062 136.289062 421.289062 96.328125 327.34375 C 87.539062 346.445312 82.5 367.617188 82.5 390 C 82.5 472.851562 149.648438 540 232.5 540 " fill-opacity="1" fill-rule="nonzero"></path><path fill="#f7b60b" d="M 232.5 500 C 246.367188 500 259.609375 497.304688 271.796875 492.65625 C 210.78125 470.898438 158.867188 429.960938 123.320312 377.070312 C 122.8125 381.328125 122.5 385.625 122.5 390 C 122.5 450.742188 171.757812 500 232.5 500 " fill-opacity="1" fill-rule="nonzero"></path><path fill="#95d221" d="M 72.5 190 L 52.5 190 L 52.5 150 L 72.5 150 L 72.5 190 " fill-opacity="1" fill-rule="nonzero"></path><path fill="#8f9697" d="M 242.5 80 C 209.375 80 182.5 53.125 182.5 20 L 182.5 10 L 172.5 10 C 161.445312 10 152.5 18.945312 152.5 30 C 152.5 41.054688 143.554688 50 132.5 50 L 102.5 50 L 102.5 110 L 362.5 110 L 362.5 80 L 242.5 80 " fill-opacity="1" fill-rule="nonzero"></path><path fill="#2d2c2c" d="M 452.5 266.5625 C 446.992188 266.5625 442.5 271.054688 442.5 276.5625 L 442.5 580 L 22.5 580 L 22.5 80 L 92.5 80 L 92.5 110 C 92.5 115.507812 96.992188 120 102.5 120 L 262.5 120 C 268.007812 120 272.5 115.507812 272.5 110 C 272.5 104.492188 268.007812 100 262.5 100 L 112.5 100 L 112.5 60 L 132.5 60 C 149.0625 60 162.5 46.5625 162.5 30 C 162.5 24.492188 166.992188 20 172.5 20 L 292.5 20 C 298.007812 20 302.5 24.492188 302.5 30 C 302.5 46.5625 315.9375 60 332.5 60 L 352.5 60 L 352.5 100 L 302.5 100 C 296.992188 100 292.5 104.492188 292.5 110 C 292.5 115.507812 296.992188 120 302.5 120 L 362.5 120 C 368.007812 120 372.5 115.507812 372.5 110 L 372.5 80 L 442.5 80 C 448.007812 80 452.5 75.507812 452.5 70 C 452.5 64.492188 448.007812 60 442.5 60 L 372.5 60 L 372.5 50 C 372.5 44.492188 368.007812 40 362.5 40 L 332.5 40 C 326.992188 40 322.5 35.507812 322.5 30 C 322.5 13.4375 309.0625 0 292.5 0 L 172.5 0 C 155.9375 0 142.5 13.4375 142.5 30 C 142.5 35.507812 138.007812 40 132.5 40 L 102.5 40 C 96.992188 40 92.5 44.492188 92.5 50 L 92.5 60 L 12.5 60 C 6.992188 60 2.5 64.492188 2.5 70 L 2.5 590 C 2.5 595.507812 6.992188 600 12.5 600 L 452.5 600 C 458.007812 600 462.5 595.507812 462.5 590 L 462.5 276.5625 C 462.5 271.054688 458.007812 266.5625 452.5 266.5625 " fill-opacity="1" fill-rule="nonzero"></path><path fill="#2d2c2c" d="M 563.710938 101.210938 L 556.640625 108.28125 L 514.21875 65.859375 L 521.289062 58.789062 C 532.96875 47.109375 551.992188 47.070312 563.710938 58.789062 C 575.390625 70.46875 575.390625 89.53125 563.710938 101.210938 Z M 528.359375 136.5625 L 485.9375 94.140625 L 500.078125 80 L 542.5 122.421875 Z M 337.421875 327.5 L 323.28125 313.359375 L 500.078125 136.5625 L 514.21875 150.703125 Z M 300.117188 346.757812 L 275.742188 322.382812 L 284.257812 302.578125 L 319.921875 338.242188 Z M 267.265625 342.1875 L 280.3125 355.234375 L 257.460938 365.039062 Z M 577.851562 44.648438 C 558.359375 25.15625 526.640625 25.15625 507.148438 44.648438 L 431.289062 120.507812 C 427.382812 124.414062 427.382812 130.742188 431.289062 134.648438 C 435.195312 138.554688 441.523438 138.554688 445.429688 134.648438 L 471.796875 108.28125 L 485.9375 122.421875 L 309.140625 299.21875 L 295 285.078125 L 417.148438 162.929688 C 421.054688 159.023438 421.054688 152.695312 417.148438 148.789062 C 413.242188 144.882812 406.914062 144.882812 403.007812 148.789062 L 304.53125 247.265625 C 282.1875 235.976562 257.460938 230 232.5 230 C 144.257812 230 72.5 301.757812 72.5 390 C 72.5 478.242188 144.257812 550 232.5 550 C 320.742188 550 392.5 478.242188 392.5 390 C 392.5 378.320312 391.132812 366.445312 388.476562 354.6875 C 387.265625 349.296875 381.914062 345.9375 376.523438 347.1875 C 371.132812 348.398438 367.734375 353.75 368.984375 359.140625 C 371.328125 369.453125 372.5 379.804688 372.5 390 C 372.5 467.1875 309.6875 530 232.5 530 C 155.3125 530 92.5 467.1875 92.5 390 C 92.5 312.8125 155.3125 250 232.5 250 C 252.148438 250 271.5625 254.257812 289.492188 262.265625 L 274.101562 277.695312 C 260.742188 272.65625 246.796875 270 232.5 270 C 166.328125 270 112.5 323.828125 112.5 390 C 112.5 456.171875 166.328125 510 232.5 510 C 298.671875 510 352.5 456.171875 352.5 390 C 352.5 388.085938 352.382812 386.171875 352.226562 384.296875 L 352.109375 382.5 C 351.757812 376.992188 347.03125 372.890625 341.484375 373.164062 C 335.976562 373.515625 331.796875 378.28125 332.148438 383.789062 L 332.265625 385.820312 C 332.382812 387.1875 332.5 388.59375 332.5 390 C 332.5 445.15625 287.65625 490 232.5 490 C 177.34375 490 132.5 445.15625 132.5 390 C 132.5 334.84375 177.34375 290 232.5 290 C 243.789062 290 254.804688 291.953125 265.429688 295.703125 L 241.679688 351.132812 C 238.671875 350.429688 235.585938 350 232.5 350 C 210.429688 350 192.5 367.929688 192.5 390 C 192.5 412.070312 210.429688 430 232.5 430 C 241.445312 430 250.195312 426.953125 257.226562 421.445312 C 261.5625 418.046875 262.304688 411.757812 258.90625 407.421875 C 255.46875 403.046875 249.179688 402.34375 244.84375 405.742188 C 241.289062 408.515625 237.03125 410 232.5 410 C 221.484375 410 212.5 401.015625 212.5 390 C 212.5 378.984375 221.484375 370 232.5 370 C 232.851562 370 233.203125 370.117188 233.515625 370.15625 L 229.257812 380.117188 C 227.65625 383.867188 228.476562 388.242188 231.367188 391.132812 C 233.28125 393.046875 235.859375 394.0625 238.4375 394.0625 C 239.765625 394.0625 241.09375 393.789062 242.382812 393.242188 L 289.882812 372.890625 C 291.5625 378.4375 292.5 384.179688 292.5 390 C 292.5 423.085938 265.585938 450 232.5 450 C 199.414062 450 172.5 423.085938 172.5 390 C 172.5 359.0625 196.640625 332.773438 227.421875 330.195312 C 232.929688 329.765625 237.03125 324.921875 236.5625 319.414062 C 236.09375 313.90625 231.289062 309.726562 225.742188 310.273438 C 184.6875 313.710938 152.5 348.75 152.5 390 C 152.5 434.101562 188.398438 470 232.5 470 C 276.601562 470 312.5 434.101562 312.5 390 C 312.5 381.445312 311.054688 373.046875 308.359375 364.960938 L 341.210938 350.898438 L 341.367188 350.820312 C 342.460938 350.351562 343.359375 349.6875 344.179688 348.90625 C 344.296875 348.828125 344.414062 348.789062 344.53125 348.710938 L 535.429688 157.773438 L 577.851562 115.351562 C 597.34375 95.859375 597.34375 64.140625 577.851562 44.648438 " fill-opacity="1" fill-rule="nonzero"></path><path fill="#2d2c2c" d="M 122.5 180 L 62.5 180 L 62.5 160 L 122.5 160 Z M 142.5 190 L 142.5 150 C 142.5 144.492188 138.007812 140 132.5 140 L 52.5 140 C 46.992188 140 42.5 144.492188 42.5 150 L 42.5 190 C 42.5 195.507812 46.992188 200 52.5 200 L 132.5 200 C 138.007812 200 142.5 195.507812 142.5 190 " fill-opacity="1" fill-rule="nonzero"></path><path fill="#2d2c2c" d="M 52.5 220 C 46.992188 220 42.5 224.492188 42.5 230 C 42.5 235.507812 46.992188 240 52.5 240 L 92.5 240 C 98.007812 240 102.5 235.507812 102.5 230 C 102.5 224.492188 98.007812 220 92.5 220 L 52.5 220 " fill-opacity="1" fill-rule="nonzero"></path></svg>