<svg xmlns="http://www.w3.org/2000/svg" xmlns:xlink="http://www.w3.org/1999/xlink" width="800" viewBox="0 0 600 599.999999" height="800" preserveAspectRatio="xMidYMid meet"><defs><clipPath id="f51e1ef605"><path d="M 47 49.125 L 598 49.125 L 598 472 L 47 472 Z M 47 49.125 " clip-rule="nonzero"></path></clipPath></defs><g clip-path="url(#f51e1ef605)"><path fill="#f5f5f5" d="M 77.109375 49.125 L 568.058594 49.125 C 569.023438 49.125 569.984375 49.171875 570.945312 49.265625 C 571.90625 49.363281 572.859375 49.503906 573.804688 49.691406 C 574.75 49.878906 575.6875 50.113281 576.609375 50.394531 C 577.53125 50.671875 578.441406 51 579.332031 51.367188 C 580.222656 51.738281 581.09375 52.148438 581.945312 52.601562 C 582.792969 53.058594 583.621094 53.554688 584.421875 54.089844 C 585.226562 54.625 586 55.199219 586.746094 55.8125 C 587.492188 56.421875 588.207031 57.070312 588.886719 57.753906 C 589.570312 58.433594 590.214844 59.148438 590.828125 59.894531 C 591.441406 60.640625 592.015625 61.414062 592.550781 62.214844 C 593.085938 63.019531 593.582031 63.84375 594.035156 64.695312 C 594.492188 65.546875 594.902344 66.417969 595.273438 67.308594 C 595.640625 68.199219 595.964844 69.109375 596.246094 70.03125 C 596.527344 70.953125 596.761719 71.890625 596.949219 72.835938 C 597.136719 73.78125 597.277344 74.734375 597.375 75.695312 C 597.46875 76.65625 597.515625 77.617188 597.515625 78.582031 L 597.515625 441.882812 C 597.515625 442.847656 597.46875 443.8125 597.375 444.773438 C 597.277344 445.730469 597.136719 446.683594 596.949219 447.632812 C 596.761719 448.578125 596.527344 449.511719 596.246094 450.433594 C 595.964844 451.359375 595.640625 452.265625 595.273438 453.15625 C 594.902344 454.046875 594.492188 454.917969 594.035156 455.769531 C 593.582031 456.621094 593.085938 457.449219 592.550781 458.25 C 592.015625 459.050781 591.441406 459.824219 590.828125 460.570312 C 590.214844 461.316406 589.570312 462.03125 588.886719 462.714844 C 588.207031 463.394531 587.492188 464.042969 586.746094 464.65625 C 586 465.265625 585.226562 465.839844 584.421875 466.378906 C 583.621094 466.914062 582.792969 467.410156 581.945312 467.863281 C 581.09375 468.316406 580.222656 468.730469 579.332031 469.097656 C 578.441406 469.46875 577.53125 469.792969 576.609375 470.074219 C 575.6875 470.351562 574.75 470.585938 573.804688 470.773438 C 572.859375 470.964844 571.90625 471.105469 570.945312 471.199219 C 569.984375 471.292969 569.023438 471.339844 568.058594 471.339844 L 77.109375 471.339844 C 76.144531 471.339844 75.183594 471.292969 74.222656 471.199219 C 73.261719 471.105469 72.308594 470.964844 71.363281 470.773438 C 70.417969 470.585938 69.480469 470.351562 68.558594 470.074219 C 67.636719 469.792969 66.726562 469.46875 65.835938 469.097656 C 64.945312 468.730469 64.074219 468.316406 63.222656 467.863281 C 62.371094 467.410156 61.546875 466.914062 60.742188 466.378906 C 59.941406 465.839844 59.167969 465.265625 58.421875 464.65625 C 57.675781 464.042969 56.960938 463.394531 56.28125 462.714844 C 55.597656 462.03125 54.949219 461.316406 54.339844 460.570312 C 53.726562 459.824219 53.152344 459.050781 52.617188 458.25 C 52.082031 457.449219 51.585938 456.621094 51.128906 455.769531 C 50.675781 454.917969 50.261719 454.046875 49.894531 453.15625 C 49.523438 452.265625 49.199219 451.359375 48.921875 450.433594 C 48.640625 449.511719 48.40625 448.578125 48.21875 447.632812 C 48.03125 446.683594 47.886719 445.730469 47.792969 444.773438 C 47.699219 443.8125 47.652344 442.847656 47.652344 441.882812 L 47.652344 78.582031 C 47.652344 77.617188 47.699219 76.65625 47.792969 75.695312 C 47.886719 74.734375 48.03125 73.78125 48.21875 72.835938 C 48.40625 71.890625 48.640625 70.953125 48.921875 70.03125 C 49.199219 69.109375 49.523438 68.199219 49.894531 67.308594 C 50.261719 66.417969 50.675781 65.546875 51.128906 64.695312 C 51.585938 63.84375 52.082031 63.019531 52.617188 62.214844 C 53.152344 61.414062 53.726562 60.640625 54.339844 59.894531 C 54.949219 59.148438 55.597656 58.433594 56.28125 57.753906 C 56.960938 57.070312 57.675781 56.421875 58.421875 55.8125 C 59.167969 55.199219 59.941406 54.625 60.742188 54.089844 C 61.546875 53.554688 62.371094 53.058594 63.222656 52.601562 C 64.074219 52.148438 64.945312 51.738281 65.835938 51.367188 C 66.726562 51 67.636719 50.671875 68.558594 50.394531 C 69.480469 50.113281 70.417969 49.878906 71.363281 49.691406 C 72.308594 49.503906 73.261719 49.363281 74.222656 49.265625 C 75.183594 49.171875 76.144531 49.125 77.109375 49.125 Z M 77.109375 49.125 " fill-opacity="1" fill-rule="nonzero"></path></g><path fill="#f44336" d="M 371.679688 284.78125 L 352.039062 284.78125 C 351.398438 284.78125 350.757812 284.8125 350.117188 284.875 C 349.476562 284.9375 348.839844 285.03125 348.210938 285.15625 C 347.578125 285.285156 346.957031 285.441406 346.339844 285.625 C 345.722656 285.8125 345.121094 286.03125 344.527344 286.277344 C 343.929688 286.523438 343.351562 286.796875 342.785156 287.097656 C 342.214844 287.402344 341.664062 287.734375 341.128906 288.089844 C 340.59375 288.449219 340.078125 288.832031 339.582031 289.238281 C 339.085938 289.644531 338.609375 290.078125 338.15625 290.53125 C 337.699219 290.988281 337.269531 291.464844 336.859375 291.960938 C 336.453125 292.457031 336.070312 292.972656 335.710938 293.507812 C 335.355469 294.042969 335.023438 294.59375 334.722656 295.160156 C 334.417969 295.730469 334.144531 296.308594 333.898438 296.902344 C 333.652344 297.496094 333.433594 298.101562 333.25 298.71875 C 333.0625 299.332031 332.90625 299.957031 332.78125 300.585938 C 332.65625 301.21875 332.558594 301.855469 332.496094 302.492188 C 332.433594 303.132812 332.402344 303.777344 332.402344 304.417969 L 332.402344 432.066406 L 391.316406 432.066406 L 391.316406 304.417969 C 391.316406 303.777344 391.285156 303.132812 391.222656 302.492188 C 391.160156 301.855469 391.066406 301.21875 390.9375 300.585938 C 390.8125 299.957031 390.65625 299.332031 390.472656 298.71875 C 390.285156 298.101562 390.066406 297.496094 389.820312 296.902344 C 389.574219 296.308594 389.300781 295.730469 388.996094 295.160156 C 388.695312 294.59375 388.363281 294.042969 388.007812 293.507812 C 387.648438 292.972656 387.265625 292.457031 386.859375 291.960938 C 386.449219 291.464844 386.019531 290.988281 385.566406 290.53125 C 385.109375 290.078125 384.632812 289.644531 384.136719 289.238281 C 383.640625 288.832031 383.125 288.449219 382.589844 288.089844 C 382.054688 287.734375 381.503906 287.402344 380.9375 287.097656 C 380.367188 286.796875 379.789062 286.523438 379.195312 286.277344 C 378.597656 286.03125 377.996094 285.8125 377.378906 285.625 C 376.765625 285.441406 376.140625 285.285156 375.507812 285.15625 C 374.878906 285.03125 374.242188 284.9375 373.601562 284.875 C 372.964844 284.8125 372.320312 284.78125 371.679688 284.78125 Z M 371.679688 284.78125 " fill-opacity="1" fill-rule="nonzero"></path><path fill="#fbc02d" d="M 440.410156 255.324219 L 420.773438 255.324219 C 420.128906 255.324219 419.488281 255.355469 418.847656 255.417969 C 418.207031 255.480469 417.574219 255.574219 416.941406 255.699219 C 416.3125 255.828125 415.6875 255.984375 415.074219 256.167969 C 414.457031 256.355469 413.851562 256.574219 413.257812 256.820312 C 412.664062 257.066406 412.082031 257.339844 411.515625 257.644531 C 410.949219 257.945312 410.398438 258.277344 409.863281 258.632812 C 409.328125 258.992188 408.8125 259.375 408.316406 259.78125 C 407.816406 260.1875 407.34375 260.621094 406.886719 261.074219 C 406.433594 261.53125 406 262.007812 405.59375 262.503906 C 405.183594 263 404.800781 263.515625 404.445312 264.050781 C 404.085938 264.585938 403.757812 265.136719 403.453125 265.703125 C 403.152344 266.273438 402.875 266.851562 402.628906 267.445312 C 402.382812 268.039062 402.167969 268.644531 401.980469 269.261719 C 401.792969 269.875 401.636719 270.5 401.511719 271.128906 C 401.386719 271.761719 401.292969 272.398438 401.230469 273.035156 C 401.167969 273.675781 401.136719 274.320312 401.136719 274.960938 L 401.136719 432.066406 L 460.050781 432.066406 L 460.050781 274.960938 C 460.050781 274.320312 460.019531 273.675781 459.953125 273.035156 C 459.890625 272.398438 459.796875 271.761719 459.671875 271.128906 C 459.546875 270.5 459.390625 269.875 459.203125 269.261719 C 459.015625 268.644531 458.800781 268.039062 458.554688 267.445312 C 458.308594 266.851562 458.035156 266.273438 457.730469 265.703125 C 457.425781 265.136719 457.097656 264.585938 456.738281 264.050781 C 456.382812 263.515625 456 263 455.589844 262.503906 C 455.183594 262.007812 454.753906 261.53125 454.296875 261.074219 C 453.84375 260.621094 453.367188 260.1875 452.871094 259.78125 C 452.371094 259.375 451.855469 258.992188 451.320312 258.632812 C 450.785156 258.277344 450.234375 257.945312 449.667969 257.644531 C 449.101562 257.339844 448.519531 257.066406 447.925781 256.820312 C 447.332031 256.574219 446.726562 256.355469 446.113281 256.167969 C 445.496094 255.984375 444.875 255.828125 444.242188 255.699219 C 443.613281 255.574219 442.976562 255.480469 442.335938 255.417969 C 441.695312 255.355469 441.054688 255.324219 440.410156 255.324219 Z M 440.410156 255.324219 " fill-opacity="1" fill-rule="nonzero"></path><path fill="#7cb342" d="M 509.144531 314.238281 L 489.507812 314.238281 C 488.863281 314.238281 488.222656 314.269531 487.582031 314.332031 C 486.941406 314.394531 486.304688 314.488281 485.675781 314.613281 C 485.042969 314.742188 484.421875 314.898438 483.804688 315.082031 C 483.191406 315.269531 482.585938 315.488281 481.992188 315.734375 C 481.398438 315.980469 480.816406 316.253906 480.25 316.554688 C 479.683594 316.859375 479.132812 317.191406 478.597656 317.546875 C 478.0625 317.90625 477.546875 318.289062 477.046875 318.695312 C 476.550781 319.101562 476.074219 319.535156 475.621094 319.988281 C 475.164062 320.445312 474.734375 320.921875 474.324219 321.417969 C 473.917969 321.914062 473.535156 322.429688 473.179688 322.964844 C 472.820312 323.5 472.492188 324.050781 472.1875 324.617188 C 471.882812 325.1875 471.609375 325.765625 471.363281 326.359375 C 471.117188 326.953125 470.902344 327.558594 470.714844 328.175781 C 470.527344 328.789062 470.371094 329.414062 470.246094 330.042969 C 470.121094 330.675781 470.027344 331.3125 469.964844 331.949219 C 469.898438 332.589844 469.867188 333.234375 469.867188 333.875 L 469.867188 432.066406 L 528.78125 432.066406 L 528.78125 333.875 C 528.78125 333.234375 528.75 332.589844 528.6875 331.949219 C 528.625 331.3125 528.53125 330.675781 528.40625 330.042969 C 528.28125 329.414062 528.125 328.789062 527.9375 328.175781 C 527.75 327.558594 527.535156 326.953125 527.289062 326.359375 C 527.042969 325.765625 526.765625 325.183594 526.464844 324.617188 C 526.160156 324.050781 525.828125 323.5 525.472656 322.964844 C 525.117188 322.429688 524.734375 321.914062 524.324219 321.417969 C 523.917969 320.921875 523.484375 320.445312 523.03125 319.988281 C 522.574219 319.535156 522.101562 319.101562 521.601562 318.695312 C 521.105469 318.289062 520.589844 317.90625 520.054688 317.546875 C 519.519531 317.191406 518.96875 316.859375 518.402344 316.554688 C 517.835938 316.253906 517.253906 315.980469 516.660156 315.734375 C 516.066406 315.488281 515.460938 315.269531 514.84375 315.082031 C 514.230469 314.898438 513.605469 314.742188 512.976562 314.613281 C 512.34375 314.488281 511.710938 314.394531 511.070312 314.332031 C 510.429688 314.269531 509.789062 314.238281 509.144531 314.238281 Z M 509.144531 314.238281 " fill-opacity="1" fill-rule="nonzero"></path><path fill="#212121" d="M 359.609375 131.242188 C 359.199219 130.746094 358.746094 130.296875 358.246094 129.886719 C 357.746094 129.480469 357.210938 129.125 356.640625 128.824219 C 356.070312 128.523438 355.476562 128.277344 354.859375 128.09375 C 354.242188 127.910156 353.613281 127.785156 352.972656 127.726562 C 352.332031 127.664062 351.6875 127.664062 351.046875 127.730469 C 350.40625 127.796875 349.777344 127.925781 349.160156 128.113281 C 348.542969 128.300781 347.953125 128.550781 347.386719 128.855469 C 346.816406 129.160156 346.285156 129.519531 345.789062 129.929688 L 238.984375 218.15625 L 151.925781 149.425781 C 151.476562 149.070312 151 148.757812 150.496094 148.488281 C 149.992188 148.21875 149.46875 147.992188 148.925781 147.816406 C 148.382812 147.636719 147.828125 147.503906 147.261719 147.421875 C 146.695312 147.339844 146.125 147.308594 145.554688 147.324219 C 144.980469 147.339844 144.414062 147.40625 143.855469 147.523438 C 143.296875 147.640625 142.75 147.800781 142.21875 148.011719 C 141.6875 148.222656 141.175781 148.480469 140.691406 148.78125 C 140.203125 149.078125 139.746094 149.417969 139.316406 149.796875 L 50.945312 228.351562 C 50.484375 228.785156 50.066406 229.257812 49.699219 229.773438 C 49.328125 230.285156 49.011719 230.832031 48.746094 231.40625 C 48.480469 231.984375 48.273438 232.578125 48.125 233.195312 C 47.976562 233.8125 47.886719 234.4375 47.859375 235.070312 C 47.832031 235.703125 47.863281 236.332031 47.957031 236.957031 C 48.050781 237.585938 48.203125 238.195312 48.414062 238.792969 C 48.628906 239.390625 48.894531 239.960938 49.21875 240.507812 C 49.539062 241.054688 49.910156 241.5625 50.332031 242.035156 C 50.753906 242.507812 51.214844 242.9375 51.71875 243.320312 C 52.222656 243.707031 52.761719 244.039062 53.328125 244.316406 C 53.898438 244.597656 54.488281 244.820312 55.097656 244.988281 C 55.710938 245.152344 56.332031 245.257812 56.964844 245.304688 C 57.597656 245.351562 58.226562 245.335938 58.855469 245.257812 C 59.484375 245.179688 60.101562 245.046875 60.703125 244.851562 C 61.304688 244.652344 61.882812 244.402344 62.4375 244.09375 C 62.992188 243.789062 63.511719 243.429688 63.996094 243.019531 L 146.214844 169.933594 L 233.039062 238.484375 C 233.476562 238.832031 233.9375 239.136719 234.429688 239.402344 C 234.917969 239.671875 235.425781 239.894531 235.953125 240.074219 C 236.480469 240.253906 237.019531 240.386719 237.570312 240.472656 C 238.121094 240.5625 238.675781 240.601562 239.230469 240.597656 C 239.789062 240.589844 240.339844 240.535156 240.890625 240.4375 C 241.4375 240.335938 241.972656 240.1875 242.496094 239.996094 C 243.019531 239.804688 243.523438 239.570312 244.007812 239.292969 C 244.488281 239.015625 244.945312 238.699219 245.375 238.34375 L 358.292969 145.0625 C 358.789062 144.652344 359.242188 144.195312 359.648438 143.695312 C 360.054688 143.199219 360.410156 142.664062 360.714844 142.09375 C 361.015625 141.523438 361.257812 140.929688 361.445312 140.3125 C 361.628906 139.695312 361.753906 139.066406 361.8125 138.425781 C 361.875 137.785156 361.875 137.144531 361.808594 136.5 C 361.742188 135.859375 361.617188 135.230469 361.425781 134.617188 C 361.238281 134 360.992188 133.40625 360.683594 132.839844 C 360.378906 132.273438 360.019531 131.742188 359.609375 131.242188 Z M 359.609375 131.242188 " fill-opacity="1" fill-rule="nonzero"></path><path fill="#212121" d="M 538.601562 127.675781 L 450.230469 127.675781 C 449.585938 127.675781 448.945312 127.613281 448.316406 127.488281 C 447.683594 127.363281 447.070312 127.175781 446.472656 126.929688 C 445.878906 126.683594 445.3125 126.378906 444.773438 126.023438 C 444.238281 125.664062 443.742188 125.257812 443.289062 124.800781 C 442.832031 124.34375 442.425781 123.847656 442.066406 123.3125 C 441.707031 122.777344 441.40625 122.210938 441.160156 121.617188 C 440.910156 121.019531 440.726562 120.40625 440.601562 119.773438 C 440.472656 119.140625 440.410156 118.503906 440.410156 117.859375 C 440.410156 117.214844 440.472656 116.574219 440.601562 115.941406 C 440.726562 115.308594 440.910156 114.695312 441.160156 114.101562 C 441.40625 113.503906 441.707031 112.9375 442.066406 112.402344 C 442.425781 111.867188 442.832031 111.371094 443.289062 110.914062 C 443.742188 110.460938 444.238281 110.050781 444.773438 109.695312 C 445.3125 109.335938 445.878906 109.03125 446.472656 108.785156 C 447.070312 108.539062 447.683594 108.351562 448.316406 108.226562 C 448.945312 108.101562 449.585938 108.039062 450.230469 108.039062 L 538.601562 108.039062 C 539.246094 108.039062 539.882812 108.101562 540.515625 108.226562 C 541.148438 108.351562 541.761719 108.539062 542.359375 108.785156 C 542.953125 109.03125 543.519531 109.335938 544.054688 109.695312 C 544.59375 110.050781 545.089844 110.460938 545.542969 110.914062 C 546 111.371094 546.40625 111.867188 546.765625 112.402344 C 547.125 112.9375 547.425781 113.503906 547.671875 114.101562 C 547.917969 114.695312 548.105469 115.308594 548.230469 115.941406 C 548.355469 116.574219 548.421875 117.214844 548.421875 117.859375 C 548.421875 118.503906 548.355469 119.140625 548.230469 119.773438 C 548.105469 120.40625 547.917969 121.019531 547.671875 121.617188 C 547.425781 122.210938 547.125 122.777344 546.765625 123.3125 C 546.40625 123.847656 546 124.34375 545.542969 124.800781 C 545.089844 125.257812 544.59375 125.664062 544.054688 126.023438 C 543.519531 126.378906 542.953125 126.683594 542.359375 126.929688 C 541.761719 127.175781 541.148438 127.363281 540.515625 127.488281 C 539.882812 127.613281 539.246094 127.675781 538.601562 127.675781 Z M 538.601562 127.675781 " fill-opacity="1" fill-rule="nonzero"></path><path fill="#212121" d="M 430.59375 117.859375 C 430.59375 118.503906 430.53125 119.140625 430.402344 119.773438 C 430.277344 120.40625 430.089844 121.019531 429.84375 121.617188 C 429.597656 122.210938 429.296875 122.777344 428.9375 123.3125 C 428.578125 123.847656 428.171875 124.34375 427.714844 124.800781 C 427.261719 125.257812 426.765625 125.664062 426.230469 126.023438 C 425.691406 126.378906 425.125 126.683594 424.53125 126.929688 C 423.933594 127.175781 423.320312 127.363281 422.6875 127.488281 C 422.058594 127.613281 421.417969 127.675781 420.773438 127.675781 C 420.128906 127.675781 419.488281 127.613281 418.859375 127.488281 C 418.226562 127.363281 417.613281 127.175781 417.015625 126.929688 C 416.421875 126.683594 415.855469 126.378906 415.316406 126.023438 C 414.78125 125.664062 414.285156 125.257812 413.832031 124.800781 C 413.375 124.34375 412.96875 123.847656 412.609375 123.3125 C 412.25 122.777344 411.949219 122.210938 411.703125 121.617188 C 411.457031 121.019531 411.269531 120.40625 411.144531 119.773438 C 411.015625 119.140625 410.953125 118.503906 410.953125 117.859375 C 410.953125 117.214844 411.015625 116.574219 411.144531 115.941406 C 411.269531 115.308594 411.457031 114.695312 411.703125 114.101562 C 411.949219 113.503906 412.25 112.9375 412.609375 112.402344 C 412.96875 111.867188 413.375 111.371094 413.832031 110.914062 C 414.285156 110.460938 414.78125 110.050781 415.316406 109.695312 C 415.855469 109.335938 416.421875 109.03125 417.015625 108.785156 C 417.613281 108.539062 418.226562 108.351562 418.859375 108.226562 C 419.488281 108.101562 420.128906 108.039062 420.773438 108.039062 C 421.417969 108.039062 422.058594 108.101562 422.6875 108.226562 C 423.320312 108.351562 423.933594 108.539062 424.53125 108.785156 C 425.125 109.03125 425.691406 109.335938 426.230469 109.695312 C 426.765625 110.050781 427.261719 110.460938 427.714844 110.914062 C 428.171875 111.371094 428.578125 111.867188 428.9375 112.402344 C 429.296875 112.9375 429.597656 113.503906 429.84375 114.101562 C 430.089844 114.695312 430.277344 115.308594 430.402344 115.941406 C 430.53125 116.574219 430.59375 117.214844 430.59375 117.859375 Z M 430.59375 117.859375 " fill-opacity="1" fill-rule="nonzero"></path><path fill="#212121" d="M 538.601562 166.953125 L 450.230469 166.953125 C 449.585938 166.953125 448.945312 166.890625 448.316406 166.765625 C 447.683594 166.636719 447.070312 166.453125 446.472656 166.207031 C 445.878906 165.957031 445.3125 165.65625 444.773438 165.296875 C 444.238281 164.941406 443.742188 164.53125 443.289062 164.078125 C 442.832031 163.621094 442.425781 163.125 442.066406 162.589844 C 441.707031 162.054688 441.40625 161.488281 441.160156 160.890625 C 440.910156 160.296875 440.726562 159.683594 440.601562 159.050781 C 440.472656 158.417969 440.410156 157.777344 440.410156 157.132812 C 440.410156 156.488281 440.472656 155.851562 440.601562 155.21875 C 440.726562 154.585938 440.910156 153.972656 441.160156 153.375 C 441.40625 152.78125 441.707031 152.214844 442.066406 151.679688 C 442.425781 151.144531 442.832031 150.648438 443.289062 150.191406 C 443.742188 149.734375 444.238281 149.328125 444.773438 148.96875 C 445.3125 148.613281 445.878906 148.308594 446.472656 148.0625 C 447.070312 147.816406 447.683594 147.628906 448.316406 147.503906 C 448.945312 147.378906 449.585938 147.316406 450.230469 147.316406 L 538.601562 147.316406 C 539.246094 147.316406 539.882812 147.378906 540.515625 147.503906 C 541.148438 147.628906 541.761719 147.816406 542.359375 148.0625 C 542.953125 148.308594 543.519531 148.613281 544.054688 148.96875 C 544.59375 149.328125 545.089844 149.734375 545.542969 150.191406 C 546 150.648438 546.40625 151.144531 546.765625 151.679688 C 547.125 152.214844 547.425781 152.78125 547.671875 153.375 C 547.917969 153.972656 548.105469 154.585938 548.230469 155.21875 C 548.355469 155.851562 548.421875 156.488281 548.421875 157.132812 C 548.421875 157.777344 548.355469 158.417969 548.230469 159.050781 C 548.105469 159.683594 547.917969 160.296875 547.671875 160.890625 C 547.425781 161.488281 547.125 162.054688 546.765625 162.589844 C 546.40625 163.125 546 163.621094 545.542969 164.078125 C 545.089844 164.53125 544.59375 164.941406 544.054688 165.296875 C 543.519531 165.65625 542.953125 165.957031 542.359375 166.207031 C 541.761719 166.453125 541.148438 166.636719 540.515625 166.765625 C 539.882812 166.890625 539.246094 166.953125 538.601562 166.953125 Z M 538.601562 166.953125 " fill-opacity="1" fill-rule="nonzero"></path><path fill="#212121" d="M 538.601562 206.230469 L 450.230469 206.230469 C 449.585938 206.230469 448.945312 206.164062 448.316406 206.039062 C 447.683594 205.914062 447.070312 205.726562 446.472656 205.480469 C 445.878906 205.234375 445.3125 204.933594 444.773438 204.574219 C 444.238281 204.214844 443.742188 203.808594 443.289062 203.351562 C 442.832031 202.898438 442.425781 202.402344 442.066406 201.863281 C 441.707031 201.328125 441.40625 200.761719 441.160156 200.167969 C 440.910156 199.570312 440.726562 198.957031 440.601562 198.324219 C 440.472656 197.691406 440.410156 197.054688 440.410156 196.410156 C 440.410156 195.765625 440.472656 195.125 440.601562 194.496094 C 440.726562 193.863281 440.910156 193.246094 441.160156 192.652344 C 441.40625 192.054688 441.707031 191.492188 442.066406 190.953125 C 442.425781 190.417969 442.832031 189.921875 443.289062 189.46875 C 443.742188 189.011719 444.238281 188.605469 444.773438 188.246094 C 445.3125 187.886719 445.878906 187.585938 446.472656 187.339844 C 447.070312 187.089844 447.683594 186.90625 448.316406 186.78125 C 448.945312 186.652344 449.585938 186.589844 450.230469 186.589844 L 538.601562 186.589844 C 539.246094 186.589844 539.882812 186.652344 540.515625 186.78125 C 541.148438 186.90625 541.761719 187.089844 542.359375 187.339844 C 542.953125 187.585938 543.519531 187.886719 544.054688 188.246094 C 544.59375 188.605469 545.089844 189.011719 545.542969 189.46875 C 546 189.921875 546.40625 190.417969 546.765625 190.953125 C 547.125 191.492188 547.425781 192.054688 547.671875 192.652344 C 547.917969 193.246094 548.105469 193.863281 548.230469 194.496094 C 548.355469 195.125 548.421875 195.765625 548.421875 196.410156 C 548.421875 197.054688 548.355469 197.691406 548.230469 198.324219 C 548.105469 198.957031 547.917969 199.570312 547.671875 200.167969 C 547.425781 200.761719 547.125 201.328125 546.765625 201.863281 C 546.40625 202.402344 546 202.898438 545.542969 203.351562 C 545.089844 203.808594 544.59375 204.214844 544.054688 204.574219 C 543.519531 204.933594 542.953125 205.234375 542.359375 205.480469 C 541.761719 205.726562 541.148438 205.914062 540.515625 206.039062 C 539.882812 206.164062 539.246094 206.230469 538.601562 206.230469 Z M 538.601562 206.230469 " fill-opacity="1" fill-rule="nonzero"></path><path fill="#212121" d="M 430.59375 157.132812 C 430.59375 157.777344 430.53125 158.417969 430.402344 159.050781 C 430.277344 159.683594 430.089844 160.296875 429.84375 160.890625 C 429.597656 161.488281 429.296875 162.054688 428.9375 162.589844 C 428.578125 163.125 428.171875 163.621094 427.714844 164.078125 C 427.261719 164.53125 426.765625 164.941406 426.230469 165.296875 C 425.691406 165.65625 425.125 165.957031 424.53125 166.207031 C 423.933594 166.453125 423.320312 166.636719 422.6875 166.765625 C 422.058594 166.890625 421.417969 166.953125 420.773438 166.953125 C 420.128906 166.953125 419.488281 166.890625 418.859375 166.765625 C 418.226562 166.636719 417.613281 166.453125 417.015625 166.207031 C 416.421875 165.957031 415.855469 165.65625 415.316406 165.296875 C 414.78125 164.941406 414.285156 164.53125 413.832031 164.078125 C 413.375 163.621094 412.96875 163.125 412.609375 162.589844 C 412.25 162.054688 411.949219 161.488281 411.703125 160.890625 C 411.457031 160.296875 411.269531 159.683594 411.144531 159.050781 C 411.015625 158.417969 410.953125 157.777344 410.953125 157.132812 C 410.953125 156.488281 411.015625 155.851562 411.144531 155.21875 C 411.269531 154.585938 411.457031 153.972656 411.703125 153.375 C 411.949219 152.78125 412.25 152.214844 412.609375 151.679688 C 412.96875 151.144531 413.375 150.648438 413.832031 150.191406 C 414.285156 149.734375 414.78125 149.328125 415.316406 148.96875 C 415.855469 148.613281 416.421875 148.308594 417.015625 148.0625 C 417.613281 147.816406 418.226562 147.628906 418.859375 147.503906 C 419.488281 147.378906 420.128906 147.316406 420.773438 147.316406 C 421.417969 147.316406 422.058594 147.378906 422.6875 147.503906 C 423.320312 147.628906 423.933594 147.816406 424.53125 148.0625 C 425.125 148.308594 425.691406 148.613281 426.230469 148.96875 C 426.765625 149.328125 427.261719 149.734375 427.714844 150.191406 C 428.171875 150.648438 428.578125 151.144531 428.9375 151.679688 C 429.296875 152.214844 429.597656 152.78125 429.84375 153.375 C 430.089844 153.972656 430.277344 154.585938 430.402344 155.21875 C 430.53125 155.851562 430.59375 156.488281 430.59375 157.132812 Z M 430.59375 157.132812 " fill-opacity="1" fill-rule="nonzero"></path><path fill="#212121" d="M 430.59375 196.410156 C 430.59375 197.054688 430.53125 197.691406 430.402344 198.324219 C 430.277344 198.957031 430.089844 199.570312 429.84375 200.167969 C 429.597656 200.761719 429.296875 201.328125 428.9375 201.863281 C 428.578125 202.402344 428.171875 202.898438 427.714844 203.351562 C 427.261719 203.808594 426.765625 204.214844 426.230469 204.574219 C 425.691406 204.933594 425.125 205.234375 424.53125 205.480469 C 423.933594 205.726562 423.320312 205.914062 422.6875 206.039062 C 422.058594 206.164062 421.417969 206.230469 420.773438 206.230469 C 420.128906 206.230469 419.488281 206.164062 418.859375 206.039062 C 418.226562 205.914062 417.613281 205.726562 417.015625 205.480469 C 416.421875 205.234375 415.855469 204.933594 415.316406 204.574219 C 414.78125 204.214844 414.285156 203.808594 413.832031 203.351562 C 413.375 202.898438 412.96875 202.402344 412.609375 201.863281 C 412.25 201.328125 411.949219 200.761719 411.703125 200.167969 C 411.457031 199.570312 411.269531 198.957031 411.144531 198.324219 C 411.015625 197.691406 410.953125 197.054688 410.953125 196.410156 C 410.953125 195.765625 411.015625 195.125 411.144531 194.496094 C 411.269531 193.863281 411.457031 193.246094 411.703125 192.652344 C 411.949219 192.054688 412.25 191.492188 412.609375 190.953125 C 412.96875 190.417969 413.375 189.921875 413.832031 189.46875 C 414.285156 189.011719 414.78125 188.605469 415.316406 188.246094 C 415.855469 187.886719 416.421875 187.585938 417.015625 187.339844 C 417.613281 187.089844 418.226562 186.90625 418.859375 186.78125 C 419.488281 186.652344 420.128906 186.589844 420.773438 186.589844 C 421.417969 186.589844 422.058594 186.652344 422.6875 186.78125 C 423.320312 186.90625 423.933594 187.089844 424.53125 187.339844 C 425.125 187.585938 425.691406 187.886719 426.230469 188.246094 C 426.765625 188.605469 427.261719 189.011719 427.714844 189.46875 C 428.171875 189.921875 428.578125 190.417969 428.9375 190.953125 C 429.296875 191.492188 429.597656 192.054688 429.84375 192.652344 C 430.089844 193.246094 430.277344 193.863281 430.402344 194.496094 C 430.53125 195.125 430.59375 195.765625 430.59375 196.410156 Z M 430.59375 196.410156 " fill-opacity="1" fill-rule="nonzero"></path><path fill="#f44336" d="M 136.023438 412.425781 L 23.386719 472.457031 C 25.046875 475.570312 26.832031 478.609375 28.742188 481.578125 C 30.65625 484.542969 32.683594 487.425781 34.835938 490.222656 C 36.984375 493.019531 39.246094 495.722656 41.621094 498.332031 C 43.996094 500.941406 46.472656 503.449219 49.058594 505.851562 C 51.640625 508.257812 54.316406 510.550781 57.089844 512.730469 C 59.859375 514.914062 62.71875 516.976562 65.664062 518.921875 C 68.605469 520.867188 71.625 522.6875 74.71875 524.382812 C 77.8125 526.078125 80.972656 527.640625 84.195312 529.074219 C 87.421875 530.507812 90.699219 531.804688 94.03125 532.964844 C 97.363281 534.125 100.734375 535.148438 104.152344 536.027344 C 107.570312 536.910156 111.015625 537.648438 114.492188 538.246094 C 117.96875 538.839844 121.464844 539.289062 124.980469 539.59375 C 128.496094 539.902344 132.019531 540.058594 135.546875 540.074219 C 139.074219 540.085938 142.597656 539.953125 146.113281 539.675781 C 149.632812 539.398438 153.128906 538.972656 156.613281 538.40625 C 160.09375 537.835938 163.546875 537.125 166.96875 536.269531 C 170.394531 535.414062 173.773438 534.417969 177.113281 533.28125 C 180.457031 532.148438 183.742188 530.875 186.976562 529.46875 C 190.210938 528.058594 193.382812 526.519531 196.492188 524.847656 C 199.597656 523.175781 202.632812 521.378906 205.589844 519.457031 C 208.546875 517.535156 211.421875 515.492188 214.210938 513.332031 C 217 511.171875 219.695312 508.898438 222.292969 506.511719 C 224.894531 504.128906 227.390625 501.640625 229.785156 499.050781 C 232.179688 496.457031 234.460938 493.773438 236.632812 490.992188 C 238.804688 488.210938 240.859375 485.34375 242.792969 482.394531 C 244.726562 479.441406 246.535156 476.417969 248.214844 473.316406 C 249.898438 470.214844 251.449219 467.050781 252.871094 463.820312 C 254.292969 460.589844 255.574219 457.308594 256.722656 453.972656 C 257.871094 450.632812 258.878906 447.257812 259.746094 443.835938 C 260.617188 440.417969 261.339844 436.96875 261.921875 433.488281 C 262.503906 430.007812 262.941406 426.511719 263.234375 422.992188 C 263.523438 419.476562 263.671875 415.957031 263.667969 412.425781 Z M 136.023438 412.425781 " fill-opacity="1" fill-rule="nonzero"></path><path fill="#fbc02d" d="M 136.023438 284.78125 C 133.28125 284.78125 130.542969 284.867188 127.808594 285.042969 C 125.074219 285.21875 122.347656 285.484375 119.628906 285.835938 C 116.910156 286.1875 114.207031 286.625 111.519531 287.148438 C 108.828125 287.675781 106.15625 288.289062 103.507812 288.984375 C 100.855469 289.683594 98.230469 290.464844 95.632812 291.332031 C 93.03125 292.199219 90.460938 293.148438 87.921875 294.179688 C 85.386719 295.214844 82.882812 296.328125 80.414062 297.519531 C 77.949219 298.714844 75.523438 299.984375 73.136719 301.335938 C 70.75 302.683594 68.410156 304.109375 66.117188 305.613281 C 63.824219 307.113281 61.582031 308.683594 59.390625 310.328125 C 57.199219 311.976562 55.0625 313.6875 52.980469 315.472656 C 50.898438 317.253906 48.875 319.101562 46.914062 321.015625 C 44.953125 322.929688 43.050781 324.902344 41.21875 326.9375 C 39.382812 328.972656 37.613281 331.066406 35.914062 333.214844 C 34.210938 335.363281 32.582031 337.566406 31.023438 339.820312 C 29.464844 342.074219 27.980469 344.378906 26.570312 346.726562 C 25.160156 349.078125 23.828125 351.46875 22.570312 353.90625 C 21.316406 356.34375 20.136719 358.816406 19.042969 361.328125 C 17.945312 363.839844 16.929688 366.382812 15.996094 368.960938 C 15.0625 371.539062 14.214844 374.140625 13.449219 376.773438 C 12.683594 379.40625 12.003906 382.058594 11.410156 384.734375 C 10.816406 387.410156 10.308594 390.101562 9.890625 392.808594 C 9.46875 395.519531 9.136719 398.238281 8.890625 400.96875 C 8.644531 403.695312 8.488281 406.429688 8.417969 409.171875 C 8.347656 411.910156 8.367188 414.648438 8.472656 417.390625 C 8.582031 420.128906 8.777344 422.859375 9.058594 425.585938 C 9.34375 428.3125 9.710938 431.027344 10.171875 433.726562 C 10.628906 436.429688 11.171875 439.113281 11.804688 441.78125 C 12.433594 444.449219 13.152344 447.09375 13.953125 449.714844 C 14.753906 452.335938 15.640625 454.925781 16.605469 457.492188 C 17.574219 460.054688 18.625 462.585938 19.757812 465.082031 C 20.886719 467.578125 22.097656 470.035156 23.386719 472.453125 L 136.023438 412.425781 Z M 136.023438 284.78125 " fill-opacity="1" fill-rule="nonzero"></path><path fill="#7cb342" d="M 136.023438 284.78125 L 136.023438 412.425781 L 263.667969 412.425781 C 263.667969 410.339844 263.613281 408.253906 263.507812 406.167969 C 263.40625 404.082031 263.25 402 263.042969 399.921875 C 262.835938 397.84375 262.578125 395.769531 262.269531 393.703125 C 261.960938 391.640625 261.601562 389.582031 261.191406 387.535156 C 260.785156 385.488281 260.324219 383.449219 259.816406 381.425781 C 259.308594 379.398438 258.75 377.386719 258.140625 375.390625 C 257.535156 373.390625 256.878906 371.410156 256.171875 369.445312 C 255.46875 367.476562 254.714844 365.53125 253.914062 363.601562 C 253.113281 361.671875 252.269531 359.765625 251.375 357.875 C 250.480469 355.988281 249.539062 354.125 248.554688 352.285156 C 247.570312 350.441406 246.539062 348.625 245.464844 346.835938 C 244.390625 345.042969 243.273438 343.28125 242.113281 341.542969 C 240.953125 339.808594 239.75 338.101562 238.503906 336.425781 C 237.261719 334.746094 235.976562 333.101562 234.652344 331.488281 C 233.328125 329.875 231.960938 328.292969 230.558594 326.746094 C 229.15625 325.199219 227.71875 323.6875 226.242188 322.210938 C 224.765625 320.734375 223.253906 319.292969 221.703125 317.890625 C 220.15625 316.488281 218.578125 315.125 216.960938 313.800781 C 215.347656 312.472656 213.703125 311.1875 212.027344 309.945312 C 210.347656 308.699219 208.640625 307.496094 206.90625 306.335938 C 205.167969 305.175781 203.40625 304.058594 201.617188 302.984375 C 199.824219 301.910156 198.007812 300.878906 196.167969 299.894531 C 194.324219 298.910156 192.460938 297.96875 190.574219 297.078125 C 188.6875 296.183594 186.777344 295.335938 184.847656 294.535156 C 182.921875 293.734375 180.972656 292.984375 179.007812 292.277344 C 177.039062 291.574219 175.058594 290.917969 173.0625 290.308594 C 171.0625 289.703125 169.050781 289.144531 167.027344 288.632812 C 165 288.125 162.964844 287.667969 160.914062 287.257812 C 158.867188 286.847656 156.8125 286.488281 154.746094 286.179688 C 152.679688 285.871094 150.609375 285.613281 148.53125 285.410156 C 146.453125 285.203125 144.371094 285.046875 142.285156 284.941406 C 140.199219 284.835938 138.113281 284.78125 136.023438 284.78125 Z M 136.023438 284.78125 " fill-opacity="1" fill-rule="nonzero"></path><path fill="#212121" d="M 548.421875 432.066406 L 332.402344 432.066406 C 331.4375 432.0625 330.476562 432.015625 329.515625 431.921875 C 328.554688 431.824219 327.605469 431.683594 326.65625 431.492188 C 325.710938 431.304688 324.777344 431.070312 323.855469 430.789062 C 322.933594 430.507812 322.027344 430.183594 321.136719 429.816406 C 320.246094 429.445312 319.375 429.03125 318.523438 428.578125 C 317.671875 428.121094 316.847656 427.628906 316.042969 427.089844 C 315.242188 426.554688 314.46875 425.980469 313.722656 425.371094 C 312.980469 424.757812 312.265625 424.109375 311.582031 423.429688 C 310.902344 422.746094 310.253906 422.03125 309.640625 421.285156 C 309.03125 420.542969 308.457031 419.769531 307.921875 418.964844 C 307.382812 418.164062 306.886719 417.339844 306.433594 416.488281 C 305.976562 415.636719 305.566406 414.765625 305.195312 413.875 C 304.828125 412.984375 304.5 412.078125 304.222656 411.15625 C 303.941406 410.234375 303.707031 409.296875 303.515625 408.351562 C 303.328125 407.40625 303.1875 406.453125 303.089844 405.496094 C 302.996094 404.535156 302.945312 403.574219 302.945312 402.609375 L 302.945312 245.503906 C 302.945312 244.859375 303.007812 244.222656 303.132812 243.589844 C 303.261719 242.957031 303.445312 242.34375 303.691406 241.746094 C 303.941406 241.152344 304.242188 240.585938 304.601562 240.050781 C 304.957031 239.511719 305.367188 239.019531 305.820312 238.5625 C 306.277344 238.105469 306.773438 237.699219 307.308594 237.339844 C 307.84375 236.980469 308.410156 236.679688 309.007812 236.433594 C 309.601562 236.1875 310.214844 236 310.847656 235.875 C 311.480469 235.75 312.121094 235.6875 312.765625 235.6875 C 313.410156 235.6875 314.046875 235.75 314.679688 235.875 C 315.3125 236 315.925781 236.1875 316.523438 236.433594 C 317.117188 236.679688 317.683594 236.980469 318.21875 237.339844 C 318.753906 237.699219 319.25 238.105469 319.707031 238.5625 C 320.164062 239.019531 320.570312 239.511719 320.929688 240.050781 C 321.285156 240.585938 321.589844 241.152344 321.835938 241.746094 C 322.082031 242.34375 322.269531 242.957031 322.394531 243.589844 C 322.519531 244.222656 322.582031 244.859375 322.582031 245.503906 L 322.582031 402.609375 C 322.585938 403.253906 322.648438 403.890625 322.773438 404.523438 C 322.898438 405.15625 323.085938 405.769531 323.332031 406.363281 C 323.582031 406.960938 323.882812 407.527344 324.242188 408.0625 C 324.601562 408.597656 325.007812 409.09375 325.460938 409.546875 C 325.917969 410.003906 326.414062 410.410156 326.949219 410.769531 C 327.484375 411.128906 328.050781 411.429688 328.648438 411.675781 C 329.242188 411.925781 329.855469 412.109375 330.488281 412.238281 C 331.121094 412.363281 331.757812 412.425781 332.402344 412.425781 L 548.421875 412.425781 C 549.066406 412.425781 549.703125 412.492188 550.335938 412.617188 C 550.96875 412.742188 551.582031 412.929688 552.179688 413.175781 C 552.773438 413.421875 553.339844 413.722656 553.875 414.082031 C 554.410156 414.441406 554.90625 414.847656 555.363281 415.304688 C 555.820312 415.757812 556.226562 416.253906 556.585938 416.792969 C 556.941406 417.328125 557.246094 417.894531 557.492188 418.488281 C 557.738281 419.085938 557.925781 419.699219 558.050781 420.332031 C 558.175781 420.964844 558.238281 421.601562 558.238281 422.246094 C 558.238281 422.890625 558.175781 423.53125 558.050781 424.160156 C 557.925781 424.792969 557.738281 425.410156 557.492188 426.003906 C 557.246094 426.601562 556.941406 427.164062 556.585938 427.703125 C 556.226562 428.238281 555.820312 428.734375 555.363281 429.191406 C 554.90625 429.644531 554.410156 430.050781 553.875 430.410156 C 553.339844 430.769531 552.773438 431.070312 552.179688 431.316406 C 551.582031 431.566406 550.96875 431.75 550.335938 431.875 C 549.703125 432.003906 549.066406 432.066406 548.421875 432.066406 Z M 548.421875 432.066406 " fill-opacity="1" fill-rule="nonzero"></path><path fill="#f44336" d="M 86.929688 240.59375 C 86.929688 241.722656 86.871094 242.84375 86.761719 243.964844 C 86.652344 245.082031 86.488281 246.195312 86.269531 247.300781 C 86.046875 248.402344 85.773438 249.496094 85.449219 250.570312 C 85.121094 251.648438 84.742188 252.707031 84.3125 253.746094 C 83.882812 254.785156 83.402344 255.804688 82.871094 256.796875 C 82.339844 257.789062 81.761719 258.753906 81.136719 259.6875 C 80.511719 260.625 79.839844 261.527344 79.128906 262.398438 C 78.414062 263.265625 77.660156 264.101562 76.863281 264.894531 C 76.066406 265.691406 75.234375 266.445312 74.363281 267.160156 C 73.492188 267.875 72.589844 268.542969 71.65625 269.171875 C 70.71875 269.796875 69.753906 270.375 68.761719 270.902344 C 67.769531 271.433594 66.753906 271.914062 65.714844 272.347656 C 64.671875 272.777344 63.613281 273.15625 62.539062 273.480469 C 61.460938 273.808594 60.371094 274.082031 59.265625 274.300781 C 58.164062 274.519531 57.050781 274.6875 55.929688 274.796875 C 54.808594 274.90625 53.6875 274.960938 52.5625 274.960938 C 51.4375 274.960938 50.3125 274.90625 49.191406 274.796875 C 48.074219 274.6875 46.960938 274.519531 45.855469 274.300781 C 44.753906 274.082031 43.664062 273.808594 42.585938 273.480469 C 41.507812 273.15625 40.449219 272.777344 39.410156 272.347656 C 38.371094 271.914062 37.355469 271.433594 36.363281 270.902344 C 35.367188 270.375 34.40625 269.796875 33.46875 269.167969 C 32.53125 268.542969 31.628906 267.875 30.761719 267.160156 C 29.890625 266.445312 29.058594 265.691406 28.261719 264.894531 C 27.464844 264.101562 26.710938 263.265625 25.996094 262.398438 C 25.28125 261.527344 24.613281 260.625 23.988281 259.6875 C 23.363281 258.753906 22.785156 257.789062 22.253906 256.796875 C 21.722656 255.804688 21.242188 254.785156 20.8125 253.746094 C 20.378906 252.707031 20 251.648438 19.675781 250.570312 C 19.347656 249.496094 19.074219 248.402344 18.855469 247.300781 C 18.636719 246.195312 18.472656 245.082031 18.359375 243.964844 C 18.25 242.84375 18.195312 241.722656 18.195312 240.59375 C 18.195312 239.46875 18.25 238.347656 18.359375 237.226562 C 18.472656 236.105469 18.636719 234.996094 18.855469 233.890625 C 19.074219 232.785156 19.347656 231.695312 19.675781 230.621094 C 20 229.542969 20.378906 228.484375 20.8125 227.445312 C 21.242188 226.402344 21.722656 225.386719 22.253906 224.394531 C 22.785156 223.402344 23.363281 222.4375 23.988281 221.503906 C 24.613281 220.566406 25.28125 219.664062 25.996094 218.792969 C 26.710938 217.921875 27.464844 217.089844 28.261719 216.292969 C 29.058594 215.5 29.890625 214.742188 30.761719 214.03125 C 31.628906 213.316406 32.53125 212.644531 33.46875 212.019531 C 34.40625 211.394531 35.367188 210.816406 36.363281 210.285156 C 37.355469 209.757812 38.371094 209.277344 39.410156 208.84375 C 40.449219 208.414062 41.507812 208.035156 42.585938 207.707031 C 43.664062 207.382812 44.753906 207.109375 45.855469 206.890625 C 46.960938 206.667969 48.074219 206.503906 49.191406 206.394531 C 50.3125 206.285156 51.4375 206.230469 52.5625 206.230469 C 53.6875 206.230469 54.808594 206.285156 55.929688 206.394531 C 57.050781 206.503906 58.164062 206.667969 59.265625 206.890625 C 60.371094 207.109375 61.460938 207.382812 62.539062 207.707031 C 63.613281 208.035156 64.671875 208.414062 65.714844 208.84375 C 66.753906 209.277344 67.769531 209.757812 68.761719 210.285156 C 69.753906 210.816406 70.71875 211.394531 71.65625 212.019531 C 72.589844 212.644531 73.492188 213.316406 74.363281 214.03125 C 75.234375 214.742188 76.066406 215.5 76.863281 216.292969 C 77.660156 217.089844 78.414062 217.921875 79.128906 218.792969 C 79.839844 219.664062 80.511719 220.566406 81.136719 221.503906 C 81.761719 222.4375 82.339844 223.402344 82.871094 224.394531 C 83.402344 225.386719 83.882812 226.402344 84.3125 227.445312 C 84.742188 228.484375 85.121094 229.542969 85.449219 230.621094 C 85.773438 231.695312 86.046875 232.785156 86.269531 233.890625 C 86.488281 234.996094 86.652344 236.105469 86.761719 237.226562 C 86.871094 238.347656 86.929688 239.46875 86.929688 240.59375 Z M 86.929688 240.59375 " fill-opacity="1" fill-rule="nonzero"></path><path fill="#fbc02d" d="M 185.117188 152.222656 C 185.117188 153.351562 185.0625 154.472656 184.953125 155.59375 C 184.84375 156.714844 184.675781 157.824219 184.457031 158.929688 C 184.238281 160.03125 183.964844 161.125 183.636719 162.199219 C 183.3125 163.277344 182.933594 164.335938 182.5 165.375 C 182.070312 166.414062 181.589844 167.433594 181.058594 168.425781 C 180.53125 169.417969 179.953125 170.382812 179.324219 171.316406 C 178.699219 172.253906 178.03125 173.15625 177.316406 174.027344 C 176.601562 174.894531 175.847656 175.730469 175.050781 176.523438 C 174.257812 177.320312 173.421875 178.074219 172.554688 178.789062 C 171.683594 179.503906 170.78125 180.171875 169.84375 180.800781 C 168.910156 181.425781 167.945312 182.003906 166.953125 182.53125 C 165.960938 183.0625 164.941406 183.542969 163.902344 183.976562 C 162.863281 184.40625 161.804688 184.785156 160.726562 185.109375 C 159.652344 185.4375 158.558594 185.710938 157.457031 185.929688 C 156.351562 186.148438 155.238281 186.316406 154.121094 186.425781 C 153 186.535156 151.878906 186.589844 150.75 186.589844 C 149.625 186.589844 148.503906 186.535156 147.382812 186.425781 C 146.261719 186.316406 145.152344 186.148438 144.046875 185.929688 C 142.941406 185.710938 141.851562 185.4375 140.777344 185.109375 C 139.699219 184.785156 138.640625 184.40625 137.601562 183.976562 C 136.558594 183.542969 135.542969 183.0625 134.550781 182.53125 C 133.558594 182.003906 132.59375 181.425781 131.660156 180.800781 C 130.722656 180.171875 129.820312 179.503906 128.949219 178.789062 C 128.078125 178.074219 127.246094 177.320312 126.449219 176.523438 C 125.65625 175.730469 124.898438 174.894531 124.1875 174.027344 C 123.472656 173.15625 122.800781 172.253906 122.175781 171.316406 C 121.550781 170.382812 120.972656 169.417969 120.441406 168.425781 C 119.914062 167.433594 119.433594 166.414062 119 165.375 C 118.570312 164.335938 118.191406 163.277344 117.863281 162.199219 C 117.539062 161.125 117.265625 160.03125 117.046875 158.929688 C 116.824219 157.824219 116.660156 156.714844 116.550781 155.59375 C 116.441406 154.472656 116.386719 153.351562 116.386719 152.222656 C 116.386719 151.097656 116.441406 149.976562 116.550781 148.855469 C 116.660156 147.734375 116.824219 146.625 117.046875 145.519531 C 117.265625 144.414062 117.539062 143.324219 117.863281 142.25 C 118.191406 141.171875 118.570312 140.113281 119 139.074219 C 119.433594 138.03125 119.914062 137.015625 120.441406 136.023438 C 120.972656 135.03125 121.550781 134.066406 122.175781 133.132812 C 122.800781 132.195312 123.472656 131.292969 124.1875 130.421875 C 124.898438 129.550781 125.65625 128.71875 126.449219 127.921875 C 127.246094 127.128906 128.078125 126.371094 128.949219 125.660156 C 129.820312 124.945312 130.722656 124.273438 131.660156 123.648438 C 132.59375 123.023438 133.558594 122.445312 134.550781 121.914062 C 135.542969 121.386719 136.558594 120.90625 137.601562 120.472656 C 138.640625 120.042969 139.699219 119.664062 140.777344 119.335938 C 141.851562 119.011719 142.941406 118.738281 144.046875 118.519531 C 145.152344 118.296875 146.261719 118.132812 147.382812 118.023438 C 148.503906 117.914062 149.625 117.859375 150.75 117.859375 C 151.878906 117.859375 153 117.914062 154.121094 118.023438 C 155.238281 118.132812 156.351562 118.296875 157.457031 118.519531 C 158.558594 118.738281 159.652344 119.011719 160.726562 119.335938 C 161.804688 119.664062 162.863281 120.042969 163.902344 120.472656 C 164.941406 120.90625 165.960938 121.386719 166.953125 121.914062 C 167.945312 122.445312 168.910156 123.023438 169.84375 123.648438 C 170.78125 124.273438 171.683594 124.945312 172.554688 125.660156 C 173.421875 126.371094 174.257812 127.128906 175.050781 127.921875 C 175.847656 128.71875 176.601562 129.550781 177.316406 130.421875 C 178.03125 131.292969 178.699219 132.195312 179.324219 133.132812 C 179.953125 134.066406 180.53125 135.03125 181.058594 136.023438 C 181.589844 137.015625 182.070312 138.03125 182.5 139.074219 C 182.933594 140.113281 183.3125 141.171875 183.636719 142.25 C 183.964844 143.324219 184.238281 144.414062 184.457031 145.519531 C 184.675781 146.625 184.84375 147.734375 184.953125 148.855469 C 185.0625 149.976562 185.117188 151.097656 185.117188 152.222656 Z M 185.117188 152.222656 " fill-opacity="1" fill-rule="nonzero"></path><path fill="#1976d2" d="M 381.496094 142.40625 C 381.496094 143.53125 381.441406 144.652344 381.332031 145.773438 C 381.222656 146.894531 381.058594 148.007812 380.835938 149.109375 C 380.617188 150.214844 380.34375 151.304688 380.019531 152.382812 C 379.691406 153.457031 379.3125 154.515625 378.882812 155.558594 C 378.449219 156.597656 377.96875 157.613281 377.441406 158.605469 C 376.910156 159.597656 376.332031 160.5625 375.707031 161.5 C 375.082031 162.433594 374.410156 163.335938 373.695312 164.207031 C 372.984375 165.078125 372.226562 165.910156 371.433594 166.707031 C 370.636719 167.503906 369.804688 168.257812 368.933594 168.972656 C 368.0625 169.683594 367.160156 170.355469 366.222656 170.980469 C 365.289062 171.605469 364.324219 172.183594 363.332031 172.714844 C 362.339844 173.246094 361.324219 173.726562 360.28125 174.15625 C 359.242188 174.585938 358.183594 174.964844 357.105469 175.292969 C 356.03125 175.617188 354.941406 175.890625 353.835938 176.113281 C 352.730469 176.332031 351.621094 176.496094 350.5 176.605469 C 349.378906 176.714844 348.257812 176.773438 347.132812 176.773438 C 346.003906 176.773438 344.882812 176.714844 343.761719 176.605469 C 342.640625 176.496094 341.53125 176.332031 340.425781 176.113281 C 339.324219 175.890625 338.230469 175.617188 337.15625 175.292969 C 336.078125 174.964844 335.019531 174.585938 333.980469 174.15625 C 332.941406 173.726562 331.921875 173.246094 330.929688 172.714844 C 329.9375 172.183594 328.972656 171.605469 328.039062 170.980469 C 327.101562 170.355469 326.199219 169.683594 325.328125 168.972656 C 324.460938 168.257812 323.625 167.503906 322.832031 166.707031 C 322.035156 165.910156 321.28125 165.078125 320.566406 164.207031 C 319.851562 163.335938 319.183594 162.433594 318.554688 161.5 C 317.929688 160.5625 317.351562 159.597656 316.824219 158.605469 C 316.292969 157.613281 315.8125 156.597656 315.378906 155.558594 C 314.949219 154.515625 314.570312 153.457031 314.246094 152.382812 C 313.917969 151.304688 313.644531 150.214844 313.425781 149.109375 C 313.207031 148.007812 313.039062 146.894531 312.929688 145.773438 C 312.820312 144.652344 312.765625 143.53125 312.765625 142.40625 C 312.765625 141.28125 312.820312 140.15625 312.929688 139.035156 C 313.039062 137.917969 313.207031 136.804688 313.425781 135.699219 C 313.644531 134.597656 313.917969 133.507812 314.246094 132.429688 C 314.570312 131.351562 314.949219 130.292969 315.378906 129.253906 C 315.8125 128.214844 316.292969 127.199219 316.824219 126.207031 C 317.351562 125.210938 317.929688 124.25 318.554688 123.3125 C 319.183594 122.375 319.851562 121.472656 320.566406 120.605469 C 321.28125 119.734375 322.035156 118.902344 322.832031 118.105469 C 323.625 117.308594 324.460938 116.554688 325.328125 115.839844 C 326.199219 115.125 327.101562 114.457031 328.039062 113.832031 C 328.972656 113.207031 329.9375 112.628906 330.929688 112.097656 C 331.921875 111.566406 332.941406 111.085938 333.980469 110.65625 C 335.019531 110.222656 336.078125 109.84375 337.15625 109.519531 C 338.230469 109.191406 339.324219 108.917969 340.425781 108.699219 C 341.53125 108.480469 342.640625 108.316406 343.761719 108.203125 C 344.882812 108.09375 346.003906 108.039062 347.132812 108.039062 C 348.257812 108.039062 349.378906 108.09375 350.5 108.203125 C 351.621094 108.316406 352.730469 108.480469 353.835938 108.699219 C 354.941406 108.917969 356.03125 109.191406 357.105469 109.519531 C 358.183594 109.84375 359.242188 110.222656 360.28125 110.65625 C 361.324219 111.085938 362.339844 111.566406 363.332031 112.097656 C 364.324219 112.628906 365.289062 113.207031 366.222656 113.832031 C 367.160156 114.457031 368.0625 115.125 368.933594 115.839844 C 369.804688 116.554688 370.636719 117.308594 371.433594 118.105469 C 372.226562 118.902344 372.984375 119.734375 373.695312 120.605469 C 374.410156 121.472656 375.082031 122.375 375.707031 123.3125 C 376.332031 124.25 376.910156 125.210938 377.441406 126.207031 C 377.96875 127.199219 378.449219 128.214844 378.882812 129.253906 C 379.3125 130.292969 379.691406 131.351562 380.019531 132.429688 C 380.34375 133.507812 380.617188 134.597656 380.835938 135.699219 C 381.058594 136.804688 381.222656 137.917969 381.332031 139.035156 C 381.441406 140.15625 381.496094 141.28125 381.496094 142.40625 Z M 381.496094 142.40625 " fill-opacity="1" fill-rule="nonzero"></path><path fill="#7cb342" d="M 273.488281 230.777344 C 273.488281 231.902344 273.433594 233.023438 273.324219 234.144531 C 273.214844 235.265625 273.046875 236.378906 272.828125 237.480469 C 272.609375 238.585938 272.335938 239.675781 272.007812 240.753906 C 271.683594 241.828125 271.304688 242.886719 270.871094 243.929688 C 270.441406 244.96875 269.960938 245.984375 269.429688 246.976562 C 268.898438 247.96875 268.320312 248.933594 267.695312 249.871094 C 267.070312 250.804688 266.402344 251.707031 265.6875 252.578125 C 264.972656 253.449219 264.21875 254.28125 263.421875 255.078125 C 262.628906 255.871094 261.792969 256.628906 260.925781 257.34375 C 260.054688 258.054688 259.152344 258.726562 258.214844 259.351562 C 257.28125 259.976562 256.316406 260.554688 255.324219 261.085938 C 254.328125 261.617188 253.3125 262.097656 252.273438 262.527344 C 251.234375 262.957031 250.175781 263.335938 249.097656 263.664062 C 248.019531 263.988281 246.929688 264.261719 245.828125 264.480469 C 244.722656 264.703125 243.609375 264.867188 242.492188 264.976562 C 241.371094 265.085938 240.246094 265.144531 239.121094 265.144531 C 237.996094 265.144531 236.875 265.085938 235.753906 264.976562 C 234.632812 264.867188 233.523438 264.703125 232.417969 264.480469 C 231.3125 264.261719 230.222656 263.988281 229.144531 263.664062 C 228.070312 263.335938 227.011719 262.957031 225.972656 262.527344 C 224.929688 262.097656 223.914062 261.617188 222.921875 261.085938 C 221.929688 260.554688 220.964844 259.976562 220.03125 259.351562 C 219.09375 258.726562 218.191406 258.054688 217.320312 257.34375 C 216.449219 256.628906 215.617188 255.871094 214.820312 255.078125 C 214.027344 254.28125 213.269531 253.449219 212.558594 252.578125 C 211.84375 251.707031 211.171875 250.804688 210.546875 249.871094 C 209.921875 248.933594 209.34375 247.96875 208.8125 246.976562 C 208.285156 245.984375 207.800781 244.96875 207.371094 243.929688 C 206.941406 242.886719 206.5625 241.828125 206.234375 240.753906 C 205.910156 239.675781 205.636719 238.585938 205.417969 237.480469 C 205.195312 236.378906 205.03125 235.265625 204.921875 234.144531 C 204.8125 233.023438 204.757812 231.902344 204.757812 230.777344 C 204.757812 229.652344 204.8125 228.527344 204.921875 227.40625 C 205.03125 226.289062 205.195312 225.175781 205.417969 224.070312 C 205.636719 222.96875 205.910156 221.878906 206.234375 220.800781 C 206.5625 219.722656 206.941406 218.664062 207.371094 217.625 C 207.800781 216.585938 208.285156 215.570312 208.8125 214.574219 C 209.34375 213.582031 209.921875 212.621094 210.546875 211.683594 C 211.171875 210.746094 211.84375 209.84375 212.558594 208.972656 C 213.269531 208.105469 214.027344 207.269531 214.820312 206.476562 C 215.617188 205.679688 216.449219 204.925781 217.320312 204.210938 C 218.191406 203.496094 219.09375 202.828125 220.03125 202.203125 C 220.964844 201.578125 221.929688 201 222.921875 200.46875 C 223.914062 199.9375 224.929688 199.457031 225.972656 199.027344 C 227.011719 198.59375 228.070312 198.214844 229.144531 197.890625 C 230.222656 197.5625 231.3125 197.289062 232.417969 197.070312 C 233.523438 196.851562 234.632812 196.6875 235.753906 196.574219 C 236.875 196.464844 237.996094 196.410156 239.121094 196.410156 C 240.246094 196.410156 241.371094 196.464844 242.492188 196.574219 C 243.609375 196.6875 244.722656 196.851562 245.828125 197.070312 C 246.929688 197.289062 248.019531 197.5625 249.097656 197.890625 C 250.175781 198.214844 251.234375 198.59375 252.273438 199.027344 C 253.3125 199.457031 254.328125 199.9375 255.324219 200.46875 C 256.316406 201 257.28125 201.578125 258.214844 202.203125 C 259.152344 202.828125 260.054688 203.496094 260.925781 204.210938 C 261.792969 204.925781 262.628906 205.679688 263.421875 206.476562 C 264.21875 207.269531 264.972656 208.105469 265.6875 208.972656 C 266.402344 209.84375 267.070312 210.746094 267.695312 211.683594 C 268.320312 212.621094 268.898438 213.582031 269.429688 214.574219 C 269.960938 215.570312 270.441406 216.585938 270.871094 217.625 C 271.304688 218.664062 271.683594 219.722656 272.007812 220.800781 C 272.335938 221.878906 272.609375 222.96875 272.828125 224.070312 C 273.046875 225.175781 273.214844 226.289062 273.324219 227.40625 C 273.433594 228.527344 273.488281 229.652344 273.488281 230.777344 Z M 273.488281 230.777344 " fill-opacity="1" fill-rule="nonzero"></path></svg>